<svg id="Layer_1" data-name="Layer 1" xmlns="http://www.w3.org/2000/svg" viewBox="0 0 278.81 275.81"><title>vanda-ext-icons-1</title><path d="M139.89,11.85A125.05,125.05,0,0,0,94.32,253.36c-1.09-9.89-2.08-25.07.43-35.87,2.27-9.76,14.66-62.16,14.66-62.16a45.15,45.15,0,0,1-3.74-18.57c0-17.39,10.08-30.37,22.63-30.37,10.67,0,15.82,8,15.82,17.62,0,10.73-6.83,26.77-10.36,41.64-2.95,12.45,6.24,22.6,18.52,22.6,22.23,0,39.31-23.44,39.31-57.27,0-29.94-21.52-50.88-52.24-50.88-35.58,0-56.47,26.69-56.47,54.27,0,10.75,4.14,22.27,9.31,28.54a3.74,3.74,0,0,1,.87,3.59c-0.95,4-3.06,12.44-3.47,14.18-0.55,2.29-1.81,2.77-4.18,1.67C69.8,175.07,60,152.24,60,133.9c0-39.45,28.66-75.68,82.63-75.68,43.38,0,77.09,30.91,77.09,72.23,0,43.1-27.17,77.78-64.89,77.78-12.67,0-24.58-6.58-28.66-14.36,0,0-6.27,23.88-7.79,29.73-2.82,10.86-10.45,24.48-15.54,32.78A125.07,125.07,0,1,0,139.89,11.85Z"/></svg>