<?xml version="1.0" encoding="UTF-8" standalone="no"?>
<svg width="24px" height="36px" viewBox="0 0 24 36" version="1.1" xmlns="http://www.w3.org/2000/svg" xmlns:xlink="http://www.w3.org/1999/xlink">
    <!-- Generator: Sketch 45 (43475) - http://www.bohemiancoding.com/sketch -->
    <title>cole-bust</title>
    <desc>Created with Sketch.</desc>
    <defs>
        <polygon id="path-1" points="3.97362352e-21 0 3.97362352e-21 35.0800018 23.804287 35.0800018 23.804287 0"></polygon>
    </defs>
    <g id="Page-1" stroke="none" stroke-width="1" fill="none" fill-rule="evenodd">
        <g id="About-us" transform="translate(-500.000000, -578.000000)">
            <g id="cole-bust" transform="translate(500.000000, 578.000000)">
                <mask id="mask-2" fill="white">
                    <use xlink:href="#path-1"></use>
                </mask>
                <g id="Clip-2"></g>
                <path d="M11.5974957,0.0226157229 C11.2485128,-0.038428629 10.8318737,0.0400992995 10.4825243,0.0706955584 C9.96700308,0.115812076 9.50183917,0.291240505 9.02736611,0.499265432 C8.28175512,0.826193497 7.64345582,1.41033757 6.99093625,1.89654398 C5.95029142,2.67204431 5.12492967,3.6772018 4.37191535,4.72584598 C3.79973294,5.5226822 3.22681754,6.35530049 2.90041116,7.29207941 C2.74626056,7.73442872 2.65800695,8.17440737 2.54497784,8.62535029 C2.43334143,9.07066291 2.21835156,9.49026875 2.03150901,9.90691127 C1.89113887,10.2197636 1.83484421,10.5792881 1.68347902,10.8825097 C1.55527674,11.1392071 1.32071567,11.368642 1.14882639,11.5977806 C0.932004008,11.8868522 0.754177399,12.1904442 0.582508019,12.5093713 C0.49476752,12.6724278 0.386283027,12.8445966 0.333653387,13.0238033 C0.236017343,13.3560653 0.280217444,13.6850677 0.156926284,14.0174779 C-0.0159159019,14.4831633 0.0020426797,14.9586277 0.000136871038,15.4490569 C-0.00140243596,15.8488826 0.00761350503,16.2887871 0.155386977,16.6669806 C0.295977016,17.0266533 0.679191158,17.3230592 0.914485228,17.6269475 C1.18247125,17.9732853 1.53761136,18.260653 1.91041686,18.4843095 C2.21461324,18.6667758 2.54094632,18.8068666 2.83180204,19.0125209 C2.99394238,19.1272754 3.14582067,19.2578836 3.32042207,19.354636 C3.53152703,19.471613 3.80808918,19.4825772 3.99207302,19.6410407 C4.1207884,19.7518688 4.2511164,19.9607827 4.33313947,20.1090968 C4.48816967,20.3893526 4.33709769,20.4543974 4.20090567,20.7107985 C4.01890094,21.0535062 4.16022398,21.3161303 4.163156,21.6635793 C4.1645487,21.8228577 4.24371306,21.7341063 4.1202753,21.8780495 C4.08267223,21.9219066 3.9665645,21.9611705 3.92390371,21.9841363 C3.78448648,22.0591082 3.66647294,22.1352655 3.54523419,22.2400929 C2.88296568,22.8130504 2.15663267,23.4124556 1.67204417,24.1549149 C1.60680688,24.2547787 1.55388403,24.3627176 1.49319136,24.4653966 C1.44745195,24.5427392 1.21846171,24.8027703 1.21406369,24.8844097 C1.20497445,25.0508 1.45939991,25.2273397 1.57455473,25.3306854 C1.8325719,25.5621946 2.12291452,25.7524397 2.44418988,25.8811958 C3.11965245,26.1518949 3.87611189,26.1614516 4.58888433,26.2460544 C7.1542494,26.5505353 9.59874221,27.5779177 11.7558977,28.9942355 C12.6280251,29.5668227 13.4495019,30.2103813 14.2533867,30.8761648 C14.8592872,31.3779286 15.4528733,31.9165116 16.1201263,32.3355248 C16.6933349,32.6954939 17.2955704,33.0030122 17.8656271,33.3730565 C18.5938659,33.8458539 19.3103034,34.3373202 20.041914,34.8047096 C20.1619066,34.8813854 20.3670743,35.0693339 20.5173399,35.0800018 C20.5792054,34.6020186 20.4287931,34.1993778 20.2136567,33.7721414 C20.0430135,33.4332119 19.9134918,33.0872445 19.7579485,32.7427588 C19.4698782,32.1043119 19.1079211,31.4972021 18.7626766,30.8894256 C18.2665799,30.0161358 17.7234977,29.1612185 17.2570877,28.2724453 C17.1017643,27.976484 16.938891,27.6820783 16.7972014,27.3791531 C16.7309379,27.2374324 16.6853451,27.1078613 16.6478887,26.9529539 C16.5787664,26.6670678 16.4698421,26.4552646 16.3631169,26.1868621 C16.218422,25.8227444 16.3076285,25.1628135 16.3760177,24.7818048 C16.447119,24.3862019 16.7305714,24.1134284 17.0520667,23.9048849 C17.4005365,23.6788579 17.7967981,23.5346924 18.1414562,23.3031832 C18.496743,23.0644879 18.7043295,22.6576244 19.0650404,22.4278931 C19.7363982,22.0003604 20.5601473,21.9435388 21.1910433,21.4566656 C21.5674405,21.1661864 21.6490971,20.6233065 21.5902369,20.1696225 C21.565608,19.9795998 21.4666526,19.8106906 21.4307354,19.6235571 C21.3637389,19.2740337 21.4842446,19.0154101 21.6721867,18.7290795 C21.765498,18.5869144 21.8772077,18.4729007 21.8887892,18.2947312 C21.9001507,18.120414 21.7693829,17.9961028 21.8491337,17.8549748 C21.8715636,17.8152663 21.9771161,17.7911894 22.0126667,17.7343677 C22.0430131,17.6859916 22.0480708,17.580127 22.0570867,17.5224164 C22.0853074,17.3423208 22.0796632,17.1648921 22.0809094,16.9831666 C22.0823754,16.7799571 21.9581313,16.0649084 22.1090567,15.8895541 C22.2246513,15.7553158 22.4650764,15.8247315 22.621426,15.7985061 C22.802038,15.7681321 22.9568483,15.6856037 23.128591,15.6290784 C23.4629138,15.5190653 23.8067657,15.4889135 23.8042735,15.0441935 C23.8015614,14.5519123 23.4250176,14.2339483 23.1815872,13.8539028 C22.9042187,13.4208138 22.7548326,12.9310514 22.4394946,12.5141126 C22.1895404,12.1836285 21.683255,11.9658987 21.5346753,11.5715552 C21.4711972,11.4029424 21.4660662,11.1915096 21.4245049,11.0141551 C21.3682835,10.7741263 21.4322014,10.6793742 21.4318349,10.4403826 C21.4314684,10.2033172 21.4441494,9.93572954 21.4199603,9.70125699 C21.3922527,9.43166913 21.2293061,9.29491201 21.1279317,9.06369912 C21.0207666,8.81907721 21.076255,8.57126974 20.8577467,8.37665382 C20.6797002,8.21804222 20.6942137,8.30486744 20.686004,8.05609689 C20.68014,7.87563082 20.6318351,7.86251814 20.5444611,7.73628079 L20.4699146,7.70738844 C20.4746792,7.64723308 20.4713806,7.58752222 20.460239,7.52832995 C20.4090754,7.44839444 20.3381939,7.40720432 20.286224,7.33667735 C20.1962112,7.21444048 20.2501602,7.25400078 20.222526,7.08360999 C20.2110179,7.01286077 20.1679906,6.9492976 20.1343457,6.88780875 C20.0258612,6.68948869 19.8947269,6.48220459 19.7467335,6.3122583 C19.4091855,5.92473038 19.0127773,5.51216242 18.6102119,5.19190182 C18.144315,4.82119074 17.6551818,4.48189082 17.1837141,4.1195511 C17.0700986,4.0322073 16.8711615,3.9348623 16.8049713,3.79684577 C16.7041833,3.58674652 16.8490981,3.28204334 16.8674965,3.06335046 C16.9563365,2.00981681 16.2114585,1.27654376 15.3353729,0.866198291 C14.7624575,0.597795758 14.1163883,0.648764828 13.5222158,0.428219882 C12.9127236,0.201896465 12.2369678,0.13448098 11.5974957,0.0226157229" id="Fill-1" fill="#FFFFFF" mask="url(#mask-2)"></path>
            </g>
        </g>
    </g>
</svg>