<svg id="Layer_1" data-name="Layer 1" xmlns="http://www.w3.org/2000/svg" viewBox="0 0 278.81 275.81"><title>vanda-ext-icons-1</title><path d="M204,159.82l33.58-33.59a62.83,62.83,0,0,0-88.85-88.85L100.29,85.84a62.8,62.8,0,0,0,11.77,98.09L138,158a28.3,28.3,0,0,1-13.48-7.52,28.59,28.59,0,0,1,0-40.39L173,61.61A28.56,28.56,0,0,1,213.38,102l-14.24,14.24A77,77,0,0,1,204,159.82Z"/><path d="M69.44,116.69L35.86,150.27a62.83,62.83,0,0,0,88.85,88.85l48.46-48.46a62.81,62.81,0,0,0-11.76-98.09l-25.95,25.95a28.5,28.5,0,0,1,13.48,47.91l-48.47,48.46A28.56,28.56,0,0,1,60.09,174.5l14.24-14.24A76.94,76.94,0,0,1,69.44,116.69Z"/></svg>