<svg xmlns:dc="http://purl.org/dc/elements/1.1/" xmlns:cc="http://creativecommons.org/ns#" xmlns:rdf="http://www.w3.org/1999/02/22-rdf-syntax-ns#" xmlns:svg="http://www.w3.org/2000/svg" xmlns="http://www.w3.org/2000/svg" xmlns:sodipodi="http://sodipodi.sourceforge.net/DTD/sodipodi-0.dtd" xmlns:inkscape="http://www.inkscape.org/namespaces/inkscape" version="1.1" x="0px" y="0px" viewBox="0 0 70 87.5"><g transform="translate(0,-982.36218)"><path style="color:#000000;enable-background:accumulate;" d="m 32.4688,999.36218 -1.2188,4.37502 c -1.1367,0.3131 -2.2159,0.7731 -3.2188,1.3437 l -4,-2.2187 -3.5312,3.5312 2.2188,4 c -0.5705,1.0028 -1.0307,2.0821 -1.3438,3.2188 l -4.375,1.2187 0,5.0625 4.375,1.2188 c 0.3131,1.1366 0.7733,2.2161 1.3438,3.2187 l -2.2188,4 3.5312,3.5313 4,-2.2188 c 1.0029,0.5706 2.0821,1.0306 3.2188,1.3438 l 1.2188,4.375 5.0624,0 1.2188,-4.375 c 1.1367,-0.3132 2.2159,-0.7732 3.2188,-1.3438 l 4,2.2188 3.5312,-3.5313 -2.2188,-4 c 0.5707,-1.0026 1.0307,-2.0821 1.3438,-3.2187 l 4.375,-1.2188 0,-5.0625 -4.375,-1.2187 c -0.3131,-1.1367 -0.7731,-2.216 -1.3438,-3.2188 l 2.2188,-4 -3.5312,-3.5312 -4,2.2187 c -1.0029,-0.5706 -2.0821,-1.0306 -3.2188,-1.3437 l -1.2188,-4.37502 -5.0624,0 z M 35,1010.3622 c 3.866,0 7,3.134 7,7 0,3.866 -3.134,7 -7,7 -3.866,0 -7,-3.134 -7,-7 0,-3.866 3.134,-7 7,-7 z" fill="#000000" stroke="none" marker="none" visibility="visible" display="inline" overflow="visible"/></g><text x="0" y="85" fill="#000000" font-size="5px" font-weight="bold" font-family="'Helvetica Neue', Helvetica, Arial-Unicode, Arial, Sans-serif">Created by unlimicon</text><text x="0" y="90" fill="#000000" font-size="5px" font-weight="bold" font-family="'Helvetica Neue', Helvetica, Arial-Unicode, Arial, Sans-serif">from the Noun Project</text></svg>