<svg xmlns="http://www.w3.org/2000/svg">
<defs>
<font id="Untitled Sans Regular">
<font-face  font-family="Untitled Sans" units-per-em="1000" ascent="1002" descent="-247" font-style="normal" font-weight="400" font-stretch="normal" cap-height="714" x-height="503" underline-position="-100" underline-thickness="54" />

<glyph glyph-name="NULL" d="" />
<glyph glyph-name="nonmarkingreturn" unicode="&#xd;" horiz-adv-x="221" d="" />
<glyph glyph-name="space" unicode="&#x20;" horiz-adv-x="217" d="" />
<glyph glyph-name="lslash" unicode="&#x142;" horiz-adv-x="333" d="M308 515 L308 445 L208 392 L208 0 L125 0 L125 353 L26 300 L26 370 L125 423 L125 736 L208 736 L208 461 L308 515 Z " />
<glyph glyph-name="Scaron" unicode="&#x160;" horiz-adv-x="656" d="M342 -12 Q211 -12 132.5 46.5 Q54 105 47 211 L130 211 Q137 136 191.5 96.5 Q246 57 341 57 Q421 57 469.5 93.5 Q518 130 518 192 Q518 241 487 268.5 Q456 296 388 309 L252 336 Q159 353 114.5 399 Q70 445 70 521 Q70 610 140 668 Q210 726 319 726 Q437 726 507 675.5 Q577 625 587 531 L504 531 Q495 590 446 623.5 Q397 657 320 657 Q245 657 199.5 620 Q154 583 154 524 Q154 475 181.5 450 Q209 425 281 411 L421 382 Q514 363 557.5 318 Q601 273 601 196 Q601 105 528.5 46.5 Q456 -12 342 -12 Z M253 915 L338 822 L423 915 L475 915 L383 765 L292 765 L200 915 L253 915 Z " />
<glyph glyph-name="scaron" unicode="&#x161;" horiz-adv-x="516" d="M265 -12 Q169 -12 110.5 30.5 Q52 73 46 149 L126 149 Q130 103 167.5 77 Q205 51 264 51 Q318 51 350.5 74.5 Q383 98 383 137 Q383 166 361.5 183.5 Q340 201 295 210 L206 228 Q132 242 99 274.5 Q66 307 66 364 Q66 429 119 472 Q172 515 253 515 Q341 515 392 477.5 Q443 440 450 370 L373 370 Q369 408 337 429.5 Q305 451 253 451 Q203 451 173 428.5 Q143 406 143 369 Q143 339 163 322.5 Q183 306 231 297 L331 278 Q397 265 429 231.5 Q461 198 461 141 Q461 75 405.5 31.5 Q350 -12 265 -12 Z M170 736 L255 632 L340 736 L392 736 L298 578 L211 578 L117 736 L170 736 Z " />
<glyph glyph-name="Yacute" unicode="&#xdd;" horiz-adv-x="664" d="M375 296 L375 0 L289 0 L289 296 L17 714 L112 714 L335 373 L337 373 L553 714 L648 714 L375 296 Z M466 915 L354 767 L303 767 L360 915 L466 915 Z " />
<glyph glyph-name="yacute" unicode="&#xfd;" horiz-adv-x="542" d="M124 -117 Q160 -117 182 -94 Q204 -71 230 -4 L28 503 L115 503 L275 92 L277 92 L428 503 L514 503 L311 -15 Q273 -114 234.5 -149.5 Q196 -185 133 -186 Q123 -186 109.5 -184.5 Q96 -183 84 -181 L84 -113 Q93 -115 101 -116 Q109 -117 124 -117 Z M407 736 L297 580 L245 580 L301 736 L407 736 Z " />
<glyph glyph-name="Thorn" unicode="&#xde;" horiz-adv-x="651" d="M608 366 Q608 263 543.5 208 Q479 153 358 153 L178 153 L178 0 L93 0 L93 714 L178 714 L178 580 L357 580 Q478 580 543 524.5 Q608 469 608 366 Z M178 507 L178 225 L355 225 Q439 225 480.5 260 Q522 295 522 366 Q522 437 480.5 472 Q439 507 355 507 L178 507 Z " />
<glyph glyph-name="thorn" unicode="&#xfe;" horiz-adv-x="615" d="M339 -12 Q284 -12 239 15.5 Q194 43 172 88 L172 -178 L89 -178 L89 736 L172 736 L172 414 Q192 459 237 487 Q282 515 339 515 Q438 515 500.5 441.5 Q563 368 563 251 Q563 134 500 61 Q437 -12 339 -12 Z M322 450 Q251 450 209.5 398.5 Q168 347 168 259 L168 245 Q168 157 209.5 105 Q251 53 322 53 Q394 53 436.5 107 Q479 161 479 251 Q479 342 436.5 396 Q394 450 322 450 Z " />
<glyph glyph-name="eth" unicode="&#xf0;" horiz-adv-x="582" d="M530 265 Q530 139 464 63.5 Q398 -12 291 -12 Q184 -12 118 60.5 Q52 133 52 252 Q52 369 118.5 441 Q185 513 290 513 Q325 513 356.5 500.5 Q388 488 410 465 Q384 509 359 542.5 Q334 576 306 606 L160 559 L145 601 L270 641 Q245 664 215.5 686 Q186 708 150 730 L150 736 L250 736 Q276 720 299.5 702 Q323 684 343 665 L433 694 L449 652 L379 629 Q451 551 490.5 456 Q530 361 530 265 Z M291 447 Q218 447 176 395 Q134 343 134 252 Q134 160 176 107.5 Q218 55 291 55 Q364 55 405.5 107.5 Q447 160 447 252 Q447 342 405 394.5 Q363 447 291 447 Z " />
<glyph glyph-name="Zcaron" unicode="&#x17d;" horiz-adv-x="666" d="M607 714 L607 646 L163 72 L610 72 L610 0 L53 0 L53 61 L499 642 L68 642 L68 714 L607 714 Z M249 915 L334 822 L419 915 L471 915 L379 765 L288 765 L196 915 L249 915 Z " />
<glyph glyph-name="zcaron" unicode="&#x17e;" horiz-adv-x="519" d="M455 503 L455 442 L155 64 L466 64 L466 0 L52 0 L52 54 L354 439 L64 439 L64 503 L455 503 Z M180 736 L265 632 L350 736 L402 736 L308 578 L221 578 L127 736 L180 736 Z " />
<glyph glyph-name="onehalf" unicode="&#xbd;" horiz-adv-x="936" d="M234 373 L335 373 L335 323 L68 323 L68 373 L169 373 L169 610 L69 610 L69 657 Q130 657 155.5 668.5 Q181 680 190 716 L234 716 L234 373 Z M754 727 L239 -12 L169 -12 L685 727 L754 727 Z M726 399 Q784 399 821.5 365.5 Q859 332 859 282 Q859 244 837.5 214.5 Q816 185 739 139 Q692 111 672 91 Q652 71 651 53 L868 53 L868 0 L579 0 L579 26 Q579 67 607.5 104 Q636 141 704 183 Q761 218 778.5 238.5 Q796 259 796 282 Q796 311 777 328.5 Q758 346 725 346 Q692 346 670.5 324.5 Q649 303 647 269 L583 269 Q587 327 626 363 Q665 399 726 399 Z " />
<glyph glyph-name="onequarter" unicode="&#xbc;" horiz-adv-x="925" d="M746 727 L231 -12 L161 -12 L677 727 L746 727 Z M234 373 L335 373 L335 323 L68 323 L68 373 L169 373 L169 610 L69 610 L69 657 Q130 657 155.5 668.5 Q181 680 190 716 L234 716 L234 373 Z M698 391 L771 391 L771 143 L851 143 L851 94 L771 94 L771 0 L708 0 L708 94 L513 94 L513 144 L698 391 Z M708 143 L708 327 L573 143 L708 143 Z " />
<glyph glyph-name="onesuperior" unicode="&#x89;" horiz-adv-x="332" d="M209 373 L310 373 L310 323 L43 323 L43 373 L144 373 L144 610 L44 610 L44 657 Q105 657 130.5 668.5 Q156 680 165 716 L209 716 L209 373 Z " />
<glyph glyph-name="threequarters" unicode="&#xbe;" horiz-adv-x="944" d="M726 391 L799 391 L799 143 L879 143 L879 94 L799 94 L799 0 L736 0 L736 94 L541 94 L541 144 L726 391 Z M736 143 L736 327 L601 143 L736 143 Z M772 727 L257 -12 L187 -12 L703 727 L772 727 Z M276 519 Q312 513 334 488.5 Q356 464 356 429 Q356 379 316.5 347.5 Q277 316 213 316 Q148 316 107 348.5 Q66 381 61 438 L125 438 Q128 406 151.5 387 Q175 368 213 368 Q250 368 271.5 385.5 Q293 403 293 433 Q293 462 272.5 478 Q252 494 216 494 L176 494 L176 545 L214 545 Q246 545 264.5 560.5 Q283 576 283 605 Q283 634 264 652 Q245 670 213 670 Q180 670 158.5 650 Q137 630 135 597 L73 597 Q76 653 114 688 Q152 723 213 723 Q274 723 310 690.5 Q346 658 346 607 Q346 573 326.5 548.5 Q307 524 276 519 Z " />
<glyph glyph-name="threesuperior" unicode="&#x83;" horiz-adv-x="373" d="M251 519 Q287 513 309 488.5 Q331 464 331 429 Q331 379 291.5 347.5 Q252 316 188 316 Q123 316 82 348.5 Q41 381 36 438 L100 438 Q103 406 126.5 387 Q150 368 188 368 Q225 368 246.5 385.5 Q268 403 268 433 Q268 462 247.5 478 Q227 494 191 494 L151 494 L151 545 L189 545 Q221 545 239.5 560.5 Q258 576 258 605 Q258 634 239 652 Q220 670 188 670 Q155 670 133.5 650 Q112 630 110 597 L48 597 Q51 653 89 688 Q127 723 188 723 Q249 723 285 690.5 Q321 658 321 607 Q321 573 301.5 548.5 Q282 524 251 519 Z " />
<glyph glyph-name="twosuperior" unicode="&#x82;" horiz-adv-x="359" d="M185 722 Q243 722 280.5 688.5 Q318 655 318 605 Q318 567 296.5 537.5 Q275 508 198 462 Q151 434 131 414 Q111 394 110 376 L327 376 L327 323 L38 323 L38 349 Q38 390 66.5 427 Q95 464 163 506 Q220 541 237.5 561.5 Q255 582 255 605 Q255 634 236 651.5 Q217 669 184 669 Q151 669 129.5 647.5 Q108 626 106 592 L42 592 Q46 650 85 686 Q124 722 185 722 Z " />
<glyph glyph-name="minus" unicode="&#x2212;" horiz-adv-x="660" d="M590 299 L69 299 L69 367 L590 367 L590 299 Z " />
<glyph glyph-name="multiply" unicode="&#xd7;" horiz-adv-x="660" d="M560 149 L513 102 L332 283 L150 101 L102 149 L284 331 L102 514 L149 561 L331 378 L513 560 L561 512 L379 330 L560 149 Z " />
<glyph glyph-name="Lslash" unicode="&#x141;" horiz-adv-x="625" d="M192 72 L576 72 L576 0 L106 0 L106 298 L26 270 L26 337 L106 365 L106 714 L192 714 L192 393 L361 453 L361 386 L192 325 L192 72 Z " />
<glyph glyph-name="exclam" unicode="&#x21;" horiz-adv-x="308" d="M121 217 L105 714 L203 714 L188 217 L121 217 Z M208 0 L99 0 L99 108 L208 108 L208 0 Z " />
<glyph glyph-name="quotedbl" unicode="&#x22;" horiz-adv-x="418" d="M324 462 L263 462 L250 736 L337 736 L324 462 Z M157 462 L94 462 L81 736 L169 736 L157 462 Z " />
<glyph glyph-name="numbersign" unicode="&#x23;" horiz-adv-x="728" d="M430 40 L361 40 L409 230 L252 230 L204 40 L135 40 L183 230 L62 230 L74 288 L197 288 L235 439 L107 439 L118 498 L250 498 L298 688 L367 688 L319 498 L476 498 L524 688 L593 688 L545 498 L666 498 L654 439 L530 439 L492 288 L622 288 L609 230 L478 230 L430 40 Z M304 439 L266 288 L423 288 L461 439 L304 439 Z " />
<glyph glyph-name="dollar" unicode="&#x24;" horiz-adv-x="656" d="M595 196 Q595 112 530 54.5 Q465 -3 362 -9 L362 -109 L302 -109 L302 -8 Q193 1 125.5 59 Q58 117 52 210 L132 210 Q138 146 182.5 107.5 Q227 69 302 60 L302 326 L252 336 Q161 354 118 400 Q75 446 75 522 Q75 608 138 664.5 Q201 721 302 725 L302 819 L362 819 L362 723 Q459 714 515 665 Q571 616 580 532 L501 532 Q494 583 458.5 613.5 Q423 644 362 652 L362 394 L420 383 Q509 365 552 319 Q595 273 595 196 Z M154 525 Q154 476 181 450.5 Q208 425 278 411 L302 406 L302 654 Q234 650 194 615 Q154 580 154 525 Z M515 192 Q515 242 484.5 270 Q454 298 388 310 L362 315 L362 59 Q433 64 474 99.5 Q515 135 515 192 Z " />
<glyph glyph-name="percent" unicode="&#x25;" horiz-adv-x="841" d="M228 408 Q163 408 116.5 454.5 Q70 501 70 567 Q70 633 116.5 679.5 Q163 726 228 726 Q295 726 341.5 679.5 Q388 633 388 567 Q388 501 341.5 454.5 Q295 408 228 408 Z M156 1 L615 714 L686 714 L228 1 L156 1 Z M228 666 Q189 666 160.5 637 Q132 608 132 567 Q132 526 160 497 Q188 468 228 468 Q269 468 297.5 496.5 Q326 525 326 567 Q326 608 297.5 637 Q269 666 228 666 Z M611 -13 Q546 -13 499.5 33.5 Q453 80 453 145 Q453 211 499.5 258 Q546 305 611 305 Q677 305 724 258 Q771 211 771 145 Q771 79 724.5 33 Q678 -13 611 -13 Z M611 245 Q571 245 543 215.5 Q515 186 515 145 Q515 104 543 75.5 Q571 47 611 47 Q652 47 680.5 75.5 Q709 104 709 145 Q709 187 680.5 216 Q652 245 611 245 Z " />
<glyph glyph-name="ampersand" unicode="&#x26;" horiz-adv-x="728" d="M708 0 L601 0 L524 76 Q476 33 417 10.5 Q358 -12 291 -12 Q189 -12 122.5 42.5 Q56 97 56 183 Q56 246 91.5 292 Q127 338 215 384 Q169 432 150 471 Q131 510 131 551 Q131 627 184.5 676.5 Q238 726 322 726 Q405 726 454.5 681 Q504 636 504 563 Q504 505 466.5 462 Q429 419 336 373 L527 181 Q552 218 566.5 263.5 Q581 309 586 361 L661 361 Q656 298 634 239 Q612 180 576 132 L708 0 Z M322 662 Q274 662 243.5 632 Q213 602 213 554 Q213 523 229.5 493 Q246 463 289 420 Q367 456 396 487 Q425 518 425 563 Q425 604 396 633 Q367 662 322 662 Z M140 188 Q140 132 184.5 94 Q229 56 294 56 Q347 56 393.5 73 Q440 90 477 123 L261 337 Q193 303 166.5 269 Q140 235 140 188 Z " />
<glyph glyph-name="quotesingle" unicode="&#x27;" horiz-adv-x="251" d="M157 462 L94 462 L81 736 L169 736 L157 462 Z " />
<glyph glyph-name="parenleft" unicode="&#x28;" horiz-adv-x="392" d="M172 314 Q172 208 213.5 100 Q255 -8 333 -108 L252 -108 Q171 -9 130 97.5 Q89 204 89 314 Q89 423 130.5 530 Q172 637 252 736 L333 736 Q254 628 213 521 Q172 414 172 314 Z " />
<glyph glyph-name="parenright" unicode="&#x29;" horiz-adv-x="392" d="M220 314 Q220 414 179 521 Q138 628 59 736 L140 736 Q220 637 261.5 530 Q303 423 303 314 Q303 204 262 97.5 Q221 -9 140 -108 L59 -108 Q137 -8 178.5 100 Q220 208 220 314 Z " />
<glyph glyph-name="asterisk" unicode="&#x2a;" horiz-adv-x="409" d="M176 592 L176 726 L234 726 L234 592 L358 634 L376 579 L250 537 L327 431 L281 396 L205 504 L129 396 L82 431 L159 537 L33 579 L51 634 L176 592 Z " />
<glyph glyph-name="plus" unicode="&#x2b;" horiz-adv-x="660" d="M590 367 L590 299 L364 299 L364 72 L296 72 L296 299 L69 299 L69 367 L296 367 L296 594 L364 594 L364 367 L590 367 Z " />
<glyph glyph-name="comma" unicode="&#x2c;" horiz-adv-x="307" d="M147 1 L99 1 L99 109 L208 109 L208 -17 Q208 -82 170.5 -119.5 Q133 -157 67 -157 L67 -106 Q109 -106 128 -84.5 Q147 -63 147 -17 L147 1 Z " />
<glyph glyph-name="hyphen" unicode="&#x2d;" horiz-adv-x="451" d="M364 244 L87 244 L87 317 L364 317 L364 244 Z " />
<glyph glyph-name="period" unicode="&#x2e;" horiz-adv-x="307" d="M208 0 L99 0 L99 109 L208 109 L208 0 Z " />
<glyph glyph-name="slash" unicode="&#x2f;" horiz-adv-x="507" d="M131 -108 L50 -108 L376 736 L457 736 L131 -108 Z " />
<glyph glyph-name="zero" unicode="0" horiz-adv-x="677" d="M338 -12 Q211 -12 132.5 90.5 Q54 193 54 357 Q54 521 132.5 623.5 Q211 726 338 726 Q466 726 544 623.5 Q622 521 622 357 Q622 193 544 90.5 Q466 -12 338 -12 Z M338 652 Q245 652 193.5 573.5 Q142 495 142 357 Q142 219 193.5 140.5 Q245 62 338 62 Q431 62 483 140 Q535 218 535 357 Q535 496 483 574 Q431 652 338 652 Z " />
<glyph glyph-name="one" unicode="1" horiz-adv-x="365" d="M175 551 L25 551 L25 609 Q111 609 152.5 633 Q194 657 208 717 L261 717 L261 0 L175 0 L175 551 Z " />
<glyph glyph-name="two" unicode="2" horiz-adv-x="572" d="M297 726 Q399 726 461 667 Q523 608 523 518 Q523 472 505.5 433.5 Q488 395 451 359 Q435 344 413.5 327.5 Q392 311 305 255 Q202 187 167 147.5 Q132 108 132 72 L530 72 L530 0 L40 0 L40 39 Q40 110 92.5 177 Q145 244 269 321 Q374 389 407.5 430.5 Q441 472 441 518 Q441 580 403 617 Q365 654 296 654 Q228 654 184 609.5 Q140 565 135 494 L54 494 Q60 597 126 661.5 Q192 726 297 726 Z " />
<glyph glyph-name="three" unicode="3" horiz-adv-x="607" d="M408 364 Q472 354 512.5 307 Q553 260 553 194 Q553 104 484.5 46 Q416 -12 304 -12 Q190 -12 120 47.5 Q50 107 42 209 L126 209 Q131 139 178.5 98.5 Q226 58 304 58 Q382 58 427 95 Q472 132 472 197 Q472 258 430 292.5 Q388 327 316 327 L238 327 L238 397 L313 397 Q380 397 416.5 429.5 Q453 462 453 522 Q453 583 414 619.5 Q375 656 307 656 Q236 656 191.5 613 Q147 570 143 500 L62 500 Q69 602 134.5 664 Q200 726 307 726 Q411 726 473.5 669 Q536 612 536 523 Q536 460 500 416 Q464 372 408 364 Z " />
<glyph glyph-name="four" unicode="4" horiz-adv-x="661" d="M378 714 L475 714 L475 265 L628 265 L628 196 L475 196 L475 0 L391 0 L391 196 L37 196 L37 266 L378 714 Z M391 265 L391 625 L120 265 L391 265 Z " />
<glyph glyph-name="five" unicode="5" horiz-adv-x="606" d="M473 232 Q473 309 428.5 357 Q384 405 307 405 Q258 405 218.5 384 Q179 363 155 325 L78 325 L118 714 L520 714 L520 641 L180 641 L156 405 Q180 436 224 455.5 Q268 475 314 475 Q421 475 488.5 406.5 Q556 338 556 232 Q556 125 487.5 56.5 Q419 -12 307 -12 Q198 -12 127.5 49 Q57 110 49 212 L134 212 Q139 142 186.5 100 Q234 58 308 58 Q384 58 428.5 106.5 Q473 155 473 232 Z " />
<glyph glyph-name="six" unicode="6" horiz-adv-x="625" d="M335 654 Q241 654 187.5 567 Q134 480 134 332 Q154 397 208.5 437 Q263 477 336 477 Q440 477 506 409 Q572 341 572 236 Q572 126 503.5 57 Q435 -12 325 -12 Q204 -12 129 86 Q54 184 54 345 Q54 513 133 619.5 Q212 726 336 726 Q431 726 492 674 Q553 622 565 531 L486 531 Q473 593 435.5 623.5 Q398 654 335 654 Z M157 233 Q157 157 204 107.5 Q251 58 325 58 Q399 58 445 107 Q491 156 491 233 Q491 311 445.5 359 Q400 407 325 407 Q251 407 204 358.5 Q157 310 157 233 Z " />
<glyph glyph-name="seven" unicode="7" horiz-adv-x="571" d="M435 641 L27 641 L27 714 L529 714 L529 653 Q410 509 354 353 Q298 197 296 0 L206 0 Q208 175 266 337.5 Q324 500 435 641 Z " />
<glyph glyph-name="eight" unicode="8" horiz-adv-x="640" d="M84 529 Q84 618 149.5 672 Q215 726 319 726 Q424 726 489.5 672 Q555 618 555 529 Q555 471 524 427.5 Q493 384 437 362 Q498 351 542.5 302.5 Q587 254 587 195 Q587 102 513.5 45 Q440 -12 319 -12 Q199 -12 125.5 45 Q52 102 52 195 Q52 254 96.5 302.5 Q141 351 202 362 Q146 384 115 428 Q84 472 84 529 Z M163 529 Q163 469 205.5 434 Q248 399 319 399 Q390 399 433 433.5 Q476 468 476 529 Q476 589 433 623.5 Q390 658 319 658 Q248 658 205.5 623.5 Q163 589 163 529 Z M138 195 Q138 132 187 94.5 Q236 57 319 57 Q403 57 452 94 Q501 131 501 195 Q501 258 452.5 294 Q404 330 319 330 Q235 330 186.5 293.5 Q138 257 138 195 Z " />
<glyph glyph-name="nine" unicode="9" horiz-adv-x="625" d="M290 60 Q384 60 437.5 147 Q491 234 491 382 Q471 317 416.5 277 Q362 237 289 237 Q185 237 119 305 Q53 373 53 478 Q53 588 121.5 657 Q190 726 300 726 Q421 726 496 628 Q571 530 571 369 Q571 201 492 94.5 Q413 -12 289 -12 Q194 -12 133 40 Q72 92 60 183 L139 183 Q152 121 189.5 90.5 Q227 60 290 60 Z M468 481 Q468 557 421 606.5 Q374 656 300 656 Q226 656 180 607 Q134 558 134 481 Q134 403 179.5 355 Q225 307 300 307 Q374 307 421 355.5 Q468 404 468 481 Z " />
<glyph glyph-name="colon" unicode="&#x3a;" horiz-adv-x="307" d="M208 340 L99 340 L99 449 L208 449 L208 340 Z M208 0 L99 0 L99 109 L208 109 L208 0 Z " />
<glyph glyph-name="semicolon" unicode="&#x3b;" horiz-adv-x="307" d="M147 1 L99 1 L99 109 L208 109 L208 -17 Q208 -82 170.5 -119.5 Q133 -157 67 -157 L67 -106 Q109 -106 128 -84.5 Q147 -63 147 -17 L147 1 Z M208 340 L99 340 L99 449 L208 449 L208 340 Z " />
<glyph glyph-name="less" unicode="&#x3c;" horiz-adv-x="660" d="M543 72 L98 289 L98 372 L543 589 L543 510 L172 331 L543 152 L543 72 Z " />
<glyph glyph-name="equal" unicode="&#x3d;" horiz-adv-x="660" d="M582 385 L77 385 L77 452 L582 452 L582 385 Z M582 198 L77 198 L77 264 L582 264 L582 198 Z " />
<glyph glyph-name="greater" unicode="&#x3e;" horiz-adv-x="660" d="M561 372 L561 289 L116 72 L116 152 L487 331 L116 510 L116 589 L561 372 Z " />
<glyph glyph-name="question" unicode="&#x3f;" horiz-adv-x="565" d="M292 726 Q394 726 456 667.5 Q518 609 518 519 Q518 463 488.5 415 Q459 367 376 305 Q335 274 321 250 Q307 226 305 194 L222 194 Q223 241 248 280.5 Q273 320 333 365 Q393 411 414.5 445.5 Q436 480 436 518 Q436 580 398 617.5 Q360 655 292 655 Q222 655 178 611 Q134 567 130 495 L48 495 Q55 598 121 662 Q187 726 292 726 Z M318 0 L209 0 L209 106 L318 106 L318 0 Z " />
<glyph glyph-name="at" unicode="&#x40;" horiz-adv-x="917" d="M589 441 L660 441 L609 151 Q603 120 615 103.5 Q627 87 655 87 Q720 87 760.5 148.5 Q801 210 801 311 Q801 437 715 513.5 Q629 590 488 590 Q328 590 224 485 Q120 380 120 219 Q120 62 221 -26.5 Q322 -115 489 -115 Q548 -115 604 -104.5 Q660 -94 710 -73 L730 -121 Q680 -144 616.5 -157.5 Q553 -171 489 -171 Q297 -171 178 -66.5 Q59 38 59 219 Q59 308 90.5 387 Q122 466 181 525 Q240 584 319 615.5 Q398 647 488 647 Q652 647 757 552.5 Q862 458 862 311 Q862 187 799.5 110.5 Q737 34 644 34 Q604 34 575 53 Q546 72 536 104 Q517 74 484 55.5 Q451 37 414 37 Q346 37 305.5 83.5 Q265 130 265 206 Q265 307 324.5 378.5 Q384 450 472 450 Q508 450 537.5 431 Q567 412 579 384 L589 441 Z M430 102 Q472 102 506 132.5 Q540 163 550 214 L556 256 Q567 315 545 350 Q523 385 477 385 Q419 385 379.5 334.5 Q340 284 339 213 Q338 161 362.5 131.5 Q387 102 430 102 Z " />
<glyph glyph-name="A" unicode="A" horiz-adv-x="710" d="M693 0 L603 0 L524 199 L182 199 L103 0 L17 0 L306 714 L403 714 L693 0 Z M355 628 L352 628 L210 270 L496 270 L355 628 Z " />
<glyph glyph-name="B" unicode="B" horiz-adv-x="674" d="M627 200 Q627 104 562 52 Q497 0 376 0 L93 0 L93 714 L344 714 Q465 714 530 664.5 Q595 615 595 523 Q595 474 562.5 429.5 Q530 385 484 371 Q550 354 588.5 308.5 Q627 263 627 200 Z M178 644 L178 399 L349 399 Q427 399 467.5 430.5 Q508 462 508 522 Q508 582 468 613 Q428 644 350 644 L178 644 Z M370 332 L178 332 L178 70 L372 70 Q453 70 497 104 Q541 138 541 200 Q541 262 496 297 Q451 332 370 332 Z " />
<glyph glyph-name="C" unicode="C" horiz-adv-x="686" d="M370 653 Q262 653 200 574 Q138 495 138 358 Q138 221 200 141 Q262 61 370 61 Q448 61 496 98.5 Q544 136 558 208 L642 208 Q624 104 552.5 46 Q481 -12 370 -12 Q229 -12 139.5 90.5 Q50 193 50 358 Q50 522 139.5 624 Q229 726 370 726 Q481 726 552.5 668 Q624 610 642 506 L558 506 Q544 578 496 615.5 Q448 653 370 653 Z " />
<glyph glyph-name="D" unicode="D" horiz-adv-x="744" d="M93 714 L346 714 Q502 714 598 615.5 Q694 517 694 357 Q694 197 598 98.5 Q502 0 346 0 L93 0 L93 714 Z M605 357 Q605 490 536 566 Q467 642 346 642 L178 642 L178 72 L346 72 Q468 72 536.5 148 Q605 224 605 357 Z " />
<glyph glyph-name="E" unicode="E" horiz-adv-x="642" d="M576 72 L576 0 L93 0 L93 714 L575 714 L575 642 L178 642 L178 393 L531 393 L531 320 L178 320 L178 72 L576 72 Z " />
<glyph glyph-name="F" unicode="F" horiz-adv-x="614" d="M179 0 L93 0 L93 714 L550 714 L550 642 L179 642 L179 381 L516 381 L516 309 L179 309 L179 0 Z " />
<glyph glyph-name="G" unicode="G" horiz-adv-x="746" d="M376 -12 Q231 -12 140.5 90.5 Q50 193 50 358 Q50 522 142 624 Q234 726 380 726 Q494 726 566.5 668 Q639 610 659 506 L573 506 Q558 576 508 614.5 Q458 653 380 653 Q268 653 203 573.5 Q138 494 138 358 Q138 221 202 141 Q266 61 377 61 Q469 61 527.5 113.5 Q586 166 586 251 L586 288 L417 288 L417 356 L670 356 L670 0 L602 0 L594 119 Q574 63 511.5 25.5 Q449 -12 376 -12 Z " />
<glyph glyph-name="H" unicode="H" horiz-adv-x="776" d="M179 0 L93 0 L93 714 L179 714 L179 399 L597 399 L597 714 L683 714 L683 0 L597 0 L597 327 L179 327 L179 0 Z " />
<glyph glyph-name="I" unicode="I" horiz-adv-x="273" d="M179 0 L93 0 L93 714 L179 714 L179 0 Z " />
<glyph glyph-name="J" unicode="J" horiz-adv-x="569" d="M246 56 Q322 56 361.5 106 Q401 156 401 252 L401 714 L487 714 L487 253 Q487 131 422.5 59.5 Q358 -12 246 -12 Q143 -12 79 47 Q15 106 12 206 L95 206 Q99 135 139 95.5 Q179 56 246 56 Z " />
<glyph glyph-name="K" unicode="K" horiz-adv-x="708" d="M678 0 L574 0 L288 340 L179 229 L179 0 L93 0 L93 714 L179 714 L179 326 L555 714 L659 714 L348 400 L678 0 Z " />
<glyph glyph-name="L" unicode="L" horiz-adv-x="621" d="M563 0 L93 0 L93 714 L179 714 L179 72 L563 72 L563 0 Z " />
<glyph glyph-name="M" unicode="M" horiz-adv-x="889" d="M711 626 L479 0 L409 0 L177 626 L175 626 L175 0 L93 0 L93 714 L226 714 L446 112 L448 112 L668 714 L796 714 L796 0 L713 0 L713 626 L711 626 Z " />
<glyph glyph-name="N" unicode="N" horiz-adv-x="759" d="M93 714 L199 714 L580 144 L582 144 L582 714 L665 714 L665 0 L585 0 L179 609 L177 609 L177 0 L93 0 L93 714 Z " />
<glyph glyph-name="O" unicode="O" horiz-adv-x="750" d="M375 726 Q520 726 610 623.5 Q700 521 700 357 Q700 193 610.5 90.5 Q521 -12 375 -12 Q229 -12 139.5 90.5 Q50 193 50 357 Q50 521 140 623.5 Q230 726 375 726 Z M375 61 Q486 61 548.5 140 Q611 219 611 357 Q611 494 548.5 573.5 Q486 653 375 653 Q264 653 201 573.5 Q138 494 138 357 Q138 219 200.5 140 Q263 61 375 61 Z " />
<glyph glyph-name="P" unicode="P" horiz-adv-x="651" d="M608 501 Q608 397 543.5 342 Q479 287 358 287 L178 287 L178 0 L93 0 L93 714 L357 714 Q478 714 543 659 Q608 604 608 501 Z M178 642 L178 359 L355 359 Q438 359 480 394.5 Q522 430 522 501 Q522 572 480.5 607 Q439 642 355 642 L178 642 Z " />
<glyph glyph-name="Q" unicode="Q" horiz-adv-x="750" d="M588 68 L658 -7 L610 -51 L535 29 Q501 9 460.5 -1.5 Q420 -12 375 -12 Q229 -12 139.5 90.5 Q50 193 50 357 Q50 521 140 623.5 Q230 726 375 726 Q520 726 610 623.5 Q700 521 700 357 Q700 268 671 193 Q642 118 588 68 Z M375 653 Q264 653 201 573.5 Q138 494 138 357 Q138 219 200.5 140 Q263 61 375 61 Q404 61 431 67 Q458 73 482 85 L398 175 L447 220 L535 125 Q572 164 591.5 223 Q611 282 611 357 Q611 494 548.5 573.5 Q486 653 375 653 Z " />
<glyph glyph-name="R" unicode="R" horiz-adv-x="689" d="M178 289 L178 0 L93 0 L93 714 L368 714 Q489 714 554 659 Q619 604 619 502 Q619 426 574 372.5 Q529 319 454 302 L650 0 L553 0 L368 289 L178 289 Z M178 642 L178 361 L363 361 Q445 361 488.5 397 Q532 433 532 502 Q532 569 488 605.5 Q444 642 363 642 L178 642 Z " />
<glyph glyph-name="S" unicode="S" horiz-adv-x="656" d="M342 -12 Q211 -12 132.5 46.5 Q54 105 47 211 L130 211 Q137 136 191.5 96.5 Q246 57 341 57 Q421 57 469.5 93.5 Q518 130 518 192 Q518 241 487 268.5 Q456 296 388 309 L252 336 Q159 353 114.5 399 Q70 445 70 521 Q70 610 140 668 Q210 726 319 726 Q437 726 507 675.5 Q577 625 587 531 L504 531 Q495 590 446 623.5 Q397 657 320 657 Q245 657 199.5 620 Q154 583 154 524 Q154 475 181.5 450 Q209 425 281 411 L421 382 Q514 363 557.5 318 Q601 273 601 196 Q601 105 528.5 46.5 Q456 -12 342 -12 Z " />
<glyph glyph-name="T" unicode="T" horiz-adv-x="699" d="M392 0 L306 0 L306 642 L40 642 L40 714 L659 714 L659 642 L392 642 L392 0 Z " />
<glyph glyph-name="U" unicode="U" horiz-adv-x="743" d="M660 714 L660 291 Q660 145 585 66.5 Q510 -12 371 -12 Q233 -12 157.5 67.5 Q82 147 82 293 L82 714 L168 714 L168 286 Q168 177 220.5 119 Q273 61 371 61 Q470 61 522 118.5 Q574 176 574 286 L574 714 L660 714 Z " />
<glyph glyph-name="V" unicode="V" horiz-adv-x="710" d="M403 0 L305 0 L17 714 L107 714 L355 88 L357 88 L605 714 L693 714 L403 0 Z " />
<glyph glyph-name="W" unicode="W" horiz-adv-x="972" d="M746 0 L648 0 L487 600 L485 600 L323 0 L226 0 L25 714 L116 714 L280 107 L282 107 L443 714 L534 714 L696 107 L698 107 L861 714 L947 714 L746 0 Z " />
<glyph glyph-name="X" unicode="X" horiz-adv-x="702" d="M685 0 L585 0 L346 315 L110 0 L17 0 L300 375 L44 714 L145 714 L350 440 L555 714 L648 714 L396 381 L685 0 Z " />
<glyph glyph-name="Y" unicode="Y" horiz-adv-x="664" d="M375 296 L375 0 L289 0 L289 296 L17 714 L112 714 L335 373 L337 373 L553 714 L648 714 L375 296 Z " />
<glyph glyph-name="Z" unicode="Z" horiz-adv-x="666" d="M607 714 L607 646 L163 72 L610 72 L610 0 L53 0 L53 61 L499 642 L68 642 L68 714 L607 714 Z " />
<glyph glyph-name="bracketleft" unicode="&#x5b;" horiz-adv-x="395" d="M325 672 L184 672 L184 -44 L325 -44 L325 -108 L105 -108 L105 736 L325 736 L325 672 Z " />
<glyph glyph-name="backslash" unicode="&#x5c;" horiz-adv-x="507" d="M376 -108 L50 736 L131 736 L457 -108 L376 -108 Z " />
<glyph glyph-name="bracketright" unicode="&#x5d;" horiz-adv-x="395" d="M70 736 L290 736 L290 -108 L70 -108 L70 -44 L211 -44 L211 672 L70 672 L70 736 Z " />
<glyph glyph-name="asciicircum" unicode="&#x5e;" horiz-adv-x="441" d="M29 478 L186 726 L255 726 L411 478 L333 478 L220 655 L107 478 L29 478 Z " />
<glyph glyph-name="underscore" unicode="&#x5f;" horiz-adv-x="436" d="M403 -118 L33 -118 L33 -51 L403 -51 L403 -118 Z " />
<glyph glyph-name="grave" unicode="&#x60;" horiz-adv-x="565" d="M307 736 L363 580 L311 580 L201 736 L307 736 Z " />
<glyph glyph-name="a" unicode="a" horiz-adv-x="552" d="M480 0 L397 0 Q393 20 390.5 42.5 Q388 65 388 85 Q372 41 324.5 15 Q277 -11 213 -11 Q141 -11 95.5 28.5 Q50 68 50 133 Q50 198 93.5 236 Q137 274 224 284 L386 305 L386 334 Q386 389 355.5 418.5 Q325 448 268 448 Q218 448 188 423.5 Q158 399 153 355 L73 355 Q80 429 133.5 472 Q187 515 270 515 Q366 515 417 469 Q468 423 468 336 L468 105 Q468 70 471 45.5 Q474 21 480 0 Z M134 135 Q134 97 160 74.5 Q186 52 230 52 Q297 52 341.5 92.5 Q386 133 386 198 L386 243 L249 228 Q184 219 159 197 Q134 175 134 135 Z " />
<glyph glyph-name="b" unicode="b" horiz-adv-x="615" d="M339 -12 Q283 -12 237 16 Q191 44 169 88 L169 0 L89 0 L89 736 L172 736 L172 414 Q193 460 237.5 487.5 Q282 515 339 515 Q438 515 500.5 441.5 Q563 368 563 251 Q563 134 500 61 Q437 -12 339 -12 Z M322 450 Q251 450 209.5 398.5 Q168 347 168 259 L168 245 Q168 157 209.5 105 Q251 53 322 53 Q394 53 436.5 107 Q479 161 479 251 Q479 342 436.5 396 Q394 450 322 450 Z " />
<glyph glyph-name="c" unicode="c" horiz-adv-x="539" d="M289 -12 Q182 -12 117 60 Q52 132 52 251 Q52 370 117.5 442.5 Q183 515 289 515 Q372 515 425.5 470 Q479 425 491 344 L412 344 Q401 395 370 421.5 Q339 448 289 448 Q217 448 175.5 395 Q134 342 134 251 Q134 160 175.5 107.5 Q217 55 289 55 Q339 55 370 81.5 Q401 108 412 159 L491 159 Q479 78 426 33 Q373 -12 289 -12 Z " />
<glyph glyph-name="d" unicode="d" horiz-adv-x="615" d="M276 -12 Q178 -12 115 61 Q52 134 52 251 Q52 368 114.5 441.5 Q177 515 276 515 Q333 515 377.5 487.5 Q422 460 443 414 L443 736 L526 736 L526 0 L446 0 L446 88 Q424 44 378 16 Q332 -12 276 -12 Z M293 450 Q221 450 178.5 396 Q136 342 136 251 Q136 161 178.5 107 Q221 53 293 53 Q364 53 405.5 105 Q447 157 447 245 L447 259 Q447 347 405.5 398.5 Q364 450 293 450 Z " />
<glyph glyph-name="e" unicode="e" horiz-adv-x="557" d="M424 148 L502 148 Q486 73 430 30.5 Q374 -12 294 -12 Q185 -12 118.5 59 Q52 130 52 249 Q52 368 118.5 441.5 Q185 515 289 515 Q389 515 447 446.5 Q505 378 505 267 L505 234 L133 234 Q136 148 178.5 101 Q221 54 294 54 Q343 54 375.5 77.5 Q408 101 424 148 Z M289 448 Q226 448 186 407.5 Q146 367 136 294 L424 294 Q422 366 386.5 407 Q351 448 289 448 Z " />
<glyph glyph-name="f" unicode="f" horiz-adv-x="311" d="M102 0 L102 440 L29 440 L29 503 L102 503 L102 597 Q102 664 141 701.5 Q180 739 248 739 Q262 739 277.5 737.5 Q293 736 304 734 L304 668 Q295 669 281.5 670 Q268 671 253 671 Q220 671 202 652 Q184 633 184 596 L184 503 L292 503 L292 440 L184 440 L184 0 L102 0 Z " />
<glyph glyph-name="g" unicode="g" horiz-adv-x="614" d="M286 -126 Q362 -126 401.5 -85.5 Q441 -45 441 32 L441 106 Q420 62 375.5 35.5 Q331 9 274 9 Q174 9 112.5 78.5 Q51 148 51 263 Q51 375 113.5 445 Q176 515 274 515 Q330 515 376 487.5 Q422 460 444 415 L444 503 L525 503 L525 38 Q525 -71 462 -130.5 Q399 -190 287 -190 Q194 -190 136.5 -152 Q79 -114 64 -43 L148 -43 Q159 -85 193 -105.5 Q227 -126 286 -126 Z M289 75 Q359 75 403 124 Q447 173 447 251 L447 275 Q447 353 403 401.5 Q359 450 289 450 Q217 450 175 399.5 Q133 349 133 263 Q133 177 175 126 Q217 75 289 75 Z " />
<glyph glyph-name="h" unicode="h" horiz-adv-x="597" d="M172 736 L172 411 Q190 460 233 487.5 Q276 515 333 515 Q418 515 465.5 464.5 Q513 414 513 324 L513 0 L430 0 L430 306 Q430 376 399.5 411.5 Q369 447 310 447 Q245 447 208.5 403 Q172 359 172 277 L172 0 L89 0 L89 736 L172 736 Z " />
<glyph glyph-name="i" unicode="i" horiz-adv-x="261" d="M177 608 L83 608 L83 709 L177 709 L177 608 Z M172 0 L89 0 L89 503 L172 503 L172 0 Z " />
<glyph glyph-name="j" unicode="j" horiz-adv-x="261" d="M177 608 L83 608 L83 709 L177 709 L177 608 Z M37 -184 Q25 -184 14.5 -183 Q4 -182 -6 -180 L-6 -114 Q1 -116 7.5 -116.5 Q14 -117 21 -117 Q59 -117 74 -101.5 Q89 -86 89 -48 L89 503 L172 503 L172 -45 Q172 -116 139 -150 Q106 -184 37 -184 Z " />
<glyph glyph-name="k" unicode="k" horiz-adv-x="558" d="M528 0 L428 0 L237 237 L172 174 L172 0 L89 0 L89 736 L172 736 L172 262 L420 503 L519 503 L297 290 L528 0 Z " />
<glyph glyph-name="l" unicode="l" horiz-adv-x="261" d="M172 736 L172 0 L89 0 L89 736 L172 736 Z " />
<glyph glyph-name="m" unicode="m" horiz-adv-x="906" d="M328 515 Q387 515 425 488.5 Q463 462 481 407 Q504 458 549 486.5 Q594 515 650 515 Q734 515 778.5 465.5 Q823 416 823 324 L823 0 L739 0 L739 306 Q739 378 712 412.5 Q685 447 630 447 Q568 447 533 402 Q498 357 498 277 L498 0 L414 0 L414 306 Q414 378 387.5 412.5 Q361 447 305 447 Q243 447 207.5 402.5 Q172 358 172 277 L172 0 L89 0 L89 503 L169 503 L169 411 Q187 459 230 487 Q273 515 328 515 Z " />
<glyph glyph-name="n" unicode="n" horiz-adv-x="597" d="M89 503 L169 503 L169 411 Q187 458 231.5 486.5 Q276 515 333 515 Q418 515 465.5 464.5 Q513 414 513 324 L513 0 L430 0 L430 306 Q430 376 399.5 411.5 Q369 447 310 447 Q245 447 208.5 403 Q172 359 172 277 L172 0 L89 0 L89 503 Z " />
<glyph glyph-name="o" unicode="o" horiz-adv-x="582" d="M291 515 Q398 515 464 442.5 Q530 370 530 251 Q530 132 464 60 Q398 -12 291 -12 Q184 -12 118 60 Q52 132 52 251 Q52 370 118 442.5 Q184 515 291 515 Z M291 448 Q218 448 176 395 Q134 342 134 251 Q134 160 176 107.5 Q218 55 291 55 Q364 55 406 107.5 Q448 160 448 251 Q448 342 406 395 Q364 448 291 448 Z " />
<glyph glyph-name="p" unicode="p" horiz-adv-x="615" d="M339 -12 Q284 -12 239 15.5 Q194 43 172 88 L172 -178 L89 -178 L89 503 L169 503 L169 411 Q190 457 236 486 Q282 515 339 515 Q438 515 500.5 441.5 Q563 368 563 251 Q563 134 500 61 Q437 -12 339 -12 Z M322 450 Q251 450 209.5 398.5 Q168 347 168 259 L168 245 Q168 157 209.5 105 Q251 53 322 53 Q394 53 436.5 107 Q479 161 479 251 Q479 342 436.5 396 Q394 450 322 450 Z " />
<glyph glyph-name="q" unicode="q" horiz-adv-x="615" d="M276 -12 Q178 -12 115 61 Q52 134 52 251 Q52 368 114.5 441.5 Q177 515 276 515 Q333 515 379 486 Q425 457 446 411 L446 503 L526 503 L526 -178 L443 -178 L443 88 Q421 43 376 15.5 Q331 -12 276 -12 Z M293 450 Q221 450 178.5 396 Q136 342 136 251 Q136 161 178.5 107 Q221 53 293 53 Q364 53 405.5 105 Q447 157 447 245 L447 259 Q447 347 405.5 398.5 Q364 450 293 450 Z " />
<glyph glyph-name="r" unicode="r" horiz-adv-x="385" d="M329 514 Q340 514 350 513 Q360 512 368 510 L368 434 Q360 436 348.5 437 Q337 438 325 438 Q258 438 215 386.5 Q172 335 172 248 L172 0 L89 0 L89 503 L169 503 L169 384 Q185 444 228 479 Q271 514 329 514 Z " />
<glyph glyph-name="s" unicode="s" horiz-adv-x="516" d="M265 -12 Q169 -12 110.5 30.5 Q52 73 46 149 L126 149 Q130 103 167.5 77 Q205 51 264 51 Q318 51 350.5 74.5 Q383 98 383 137 Q383 166 361.5 183.5 Q340 201 295 210 L206 228 Q132 242 99 274.5 Q66 307 66 364 Q66 429 119 472 Q172 515 253 515 Q341 515 392 477.5 Q443 440 450 370 L373 370 Q369 408 337 429.5 Q305 451 253 451 Q203 451 173 428.5 Q143 406 143 369 Q143 339 163 322.5 Q183 306 231 297 L331 278 Q397 265 429 231.5 Q461 198 461 141 Q461 75 405.5 31.5 Q350 -12 265 -12 Z " />
<glyph glyph-name="t" unicode="t" horiz-adv-x="369" d="M250 62 Q268 62 285.5 65 Q303 68 323 74 L323 6 Q299 -1 277.5 -4.5 Q256 -8 235 -8 Q165 -8 130.5 26 Q96 60 96 129 L96 440 L22 440 L22 503 L96 503 L96 631 L178 631 L178 503 L310 503 L310 440 L177 440 L177 133 Q177 96 194.5 79 Q212 62 250 62 Z " />
<glyph glyph-name="u" unicode="u" horiz-adv-x="592" d="M503 503 L503 0 L422 0 L422 91 Q404 43 361 15.5 Q318 -12 262 -12 Q177 -12 130.5 37.5 Q84 87 84 179 L84 503 L168 503 L168 195 Q168 124 197.5 88.5 Q227 53 286 53 Q349 53 384 98 Q419 143 419 226 L419 503 L503 503 Z " />
<glyph glyph-name="v" unicode="v" horiz-adv-x="544" d="M322 0 L229 0 L28 503 L113 503 L275 82 L277 82 L432 503 L515 503 L322 0 Z " />
<glyph glyph-name="w" unicode="w" horiz-adv-x="765" d="M342 503 L426 503 L540 90 L542 90 L658 503 L738 503 L586 0 L500 0 L384 407 L381 407 L267 0 L180 0 L28 503 L110 503 L227 90 L230 90 L342 503 Z " />
<glyph glyph-name="x" unicode="x" horiz-adv-x="556" d="M273 202 L127 0 L38 0 L229 259 L48 503 L146 503 L280 318 L413 503 L503 503 L325 263 L519 0 L422 0 L273 202 Z " />
<glyph glyph-name="y" unicode="y" horiz-adv-x="542" d="M124 -117 Q160 -117 182 -94 Q204 -71 230 -4 L28 503 L115 503 L275 92 L277 92 L428 503 L514 503 L311 -15 Q273 -114 234.5 -149.5 Q196 -185 133 -186 Q123 -186 109.5 -184.5 Q96 -183 84 -181 L84 -113 Q93 -115 101 -116 Q109 -117 124 -117 Z " />
<glyph glyph-name="z" unicode="z" horiz-adv-x="519" d="M455 503 L455 442 L155 64 L466 64 L466 0 L52 0 L52 54 L354 439 L64 439 L64 503 L455 503 Z " />
<glyph glyph-name="braceleft" unicode="&#x7b;" horiz-adv-x="416" d="M84 281 L33 281 L33 347 L84 347 Q109 347 122.5 361 Q136 375 136 401 L136 631 Q136 684 164 710 Q192 736 250 736 L346 736 L346 672 L266 672 Q235 672 223.5 662 Q212 652 212 627 L212 396 Q212 362 194.5 341.5 Q177 321 143 314 Q177 307 194.5 286.5 Q212 266 212 232 L212 1 Q212 -24 223.5 -34 Q235 -44 266 -44 L346 -44 L346 -108 L250 -108 Q192 -108 164 -82 Q136 -56 136 -3 L136 227 Q136 253 122.5 267 Q109 281 84 281 Z " />
<glyph glyph-name="bar" unicode="&#x7c;" horiz-adv-x="307" d="M116 -108 L116 736 L191 736 L191 -108 L116 -108 Z " />
<glyph glyph-name="braceright" unicode="&#x7d;" horiz-adv-x="416" d="M332 281 Q307 281 293.5 267 Q280 253 280 227 L280 -3 Q280 -56 252 -82 Q224 -108 166 -108 L70 -108 L70 -44 L150 -44 Q181 -44 192.5 -34 Q204 -24 204 1 L204 232 Q204 266 221.5 286.5 Q239 307 273 314 Q239 321 221.5 341.5 Q204 362 204 396 L204 627 Q204 652 192.5 662 Q181 672 150 672 L70 672 L70 736 L166 736 Q224 736 252 710 Q280 684 280 631 L280 401 Q280 375 293.5 361 Q307 347 332 347 L383 347 L383 281 L332 281 L332 281 Z " />
<glyph glyph-name="asciitilde" unicode="&#x7e;" horiz-adv-x="511" d="M243 279 Q219 298 207.5 304 Q196 310 186 310 Q166 310 155 291.5 Q144 273 142 237 L87 237 Q87 303 112 341 Q137 379 181 379 Q199 379 217.5 370.5 Q236 362 268 337 Q292 317 303.5 311.5 Q315 306 324 306 Q344 306 355 324.5 Q366 343 368 379 L424 379 Q424 313 399 275 Q374 237 329 237 Q311 237 292.5 245.5 Q274 254 243 279 Z " />
<glyph glyph-name="Adieresis" unicode="&#xc4;" horiz-adv-x="710" d="M693 0 L603 0 L524 199 L182 199 L103 0 L17 0 L306 714 L403 714 L693 0 Z M355 628 L352 628 L210 270 L496 270 L355 628 Z M489 785 L404 785 L404 886 L489 886 L489 785 Z M306 785 L222 785 L222 886 L306 886 L306 785 Z " />
<glyph glyph-name="Aring" unicode="&#xc5;" horiz-adv-x="710" d="M524 199 L182 199 L103 0 L17 0 L293 682 Q266 699 250 727 Q234 755 234 787 Q234 837 270 873.5 Q306 910 356 910 Q406 910 441.5 874 Q477 838 477 787 Q477 754 461 725.5 Q445 697 417 680 L693 0 L603 0 L524 199 Z M424 787 Q424 816 404 836 Q384 856 356 856 Q327 856 306.5 835.5 Q286 815 286 787 Q286 759 307 738 Q328 717 356 717 Q384 717 404 737.5 Q424 758 424 787 Z M355 628 L352 628 L210 270 L496 270 L355 628 Z " />
<glyph glyph-name="Ccedilla" unicode="&#xc7;" horiz-adv-x="686" d="M469 -109 Q469 -148 437 -171 Q405 -194 355 -194 Q332 -194 309.5 -189 Q287 -184 269 -175 L269 -126 Q290 -137 311 -142 Q332 -147 355 -147 Q381 -147 396 -138 Q411 -129 411 -113 Q411 -89 384 -82.5 Q357 -76 325 -87 L305 -66 L339 -11 Q209 1 129.5 102 Q50 203 50 358 Q50 522 139.5 624 Q229 726 370 726 Q481 726 552.5 668 Q624 610 642 506 L558 506 Q544 578 496 615.5 Q448 653 370 653 Q262 653 200 574 Q138 495 138 358 Q138 221 200 141 Q262 61 370 61 Q448 61 496 98.5 Q544 136 558 208 L642 208 Q625 107 556 49 Q487 -9 381 -12 L363 -40 Q409 -36 439 -54.5 Q469 -73 469 -109 Z " />
<glyph glyph-name="Eacute" unicode="&#xc9;" horiz-adv-x="642" d="M576 72 L576 0 L93 0 L93 714 L575 714 L575 642 L178 642 L178 393 L531 393 L531 320 L178 320 L178 72 L576 72 Z M465 915 L353 767 L302 767 L359 915 L465 915 Z " />
<glyph glyph-name="Ntilde" unicode="&#xd1;" horiz-adv-x="759" d="M93 714 L199 714 L580 144 L582 144 L582 714 L665 714 L665 0 L585 0 L179 609 L177 609 L177 0 L93 0 L93 714 Z M363 813 Q340 832 329 837.5 Q318 843 308 843 Q288 843 277.5 825 Q267 807 265 771 L212 771 Q212 835 236 872 Q260 909 303 909 Q321 909 339 900.5 Q357 892 389 867 Q412 848 423 842.5 Q434 837 443 837 Q463 837 474 855.5 Q485 874 486 910 L540 910 Q540 845 515.5 808 Q491 771 448 771 Q430 771 412 779 Q394 787 363 813 Z " />
<glyph glyph-name="Odieresis" unicode="&#xd6;" horiz-adv-x="750" d="M375 726 Q520 726 610 623.5 Q700 521 700 357 Q700 193 610.5 90.5 Q521 -12 375 -12 Q229 -12 139.5 90.5 Q50 193 50 357 Q50 521 140 623.5 Q230 726 375 726 Z M375 61 Q486 61 548.5 140 Q611 219 611 357 Q611 494 548.5 573.5 Q486 653 375 653 Q264 653 201 573.5 Q138 494 138 357 Q138 219 200.5 140 Q263 61 375 61 Z M509 785 L424 785 L424 886 L509 886 L509 785 Z M326 785 L242 785 L242 886 L326 886 L326 785 Z " />
<glyph glyph-name="Udieresis" unicode="&#xdc;" horiz-adv-x="743" d="M660 714 L660 291 Q660 145 585 66.5 Q510 -12 371 -12 Q233 -12 157.5 67.5 Q82 147 82 293 L82 714 L168 714 L168 286 Q168 177 220.5 119 Q273 61 371 61 Q470 61 522 118.5 Q574 176 574 286 L574 714 L660 714 Z M505 785 L420 785 L420 886 L505 886 L505 785 Z M322 785 L238 785 L238 886 L322 886 L322 785 Z " />
<glyph glyph-name="aacute" unicode="&#xe1;" horiz-adv-x="552" d="M480 0 L397 0 Q393 20 390.5 42.5 Q388 65 388 85 Q372 41 324.5 15 Q277 -11 213 -11 Q141 -11 95.5 28.5 Q50 68 50 133 Q50 198 93.5 236 Q137 274 224 284 L386 305 L386 334 Q386 389 355.5 418.5 Q325 448 268 448 Q218 448 188 423.5 Q158 399 153 355 L73 355 Q80 429 133.5 472 Q187 515 270 515 Q366 515 417 469 Q468 423 468 336 L468 105 Q468 70 471 45.5 Q474 21 480 0 Z M134 135 Q134 97 160 74.5 Q186 52 230 52 Q297 52 341.5 92.5 Q386 133 386 198 L386 243 L249 228 Q184 219 159 197 Q134 175 134 135 Z M401 736 L291 580 L239 580 L295 736 L401 736 Z " />
<glyph glyph-name="agrave" unicode="&#xe0;" horiz-adv-x="552" d="M480 0 L397 0 Q393 20 390.5 42.5 Q388 65 388 85 Q372 41 324.5 15 Q277 -11 213 -11 Q141 -11 95.5 28.5 Q50 68 50 133 Q50 198 93.5 236 Q137 274 224 284 L386 305 L386 334 Q386 389 355.5 418.5 Q325 448 268 448 Q218 448 188 423.5 Q158 399 153 355 L73 355 Q80 429 133.5 472 Q187 515 270 515 Q366 515 417 469 Q468 423 468 336 L468 105 Q468 70 471 45.5 Q474 21 480 0 Z M134 135 Q134 97 160 74.5 Q186 52 230 52 Q297 52 341.5 92.5 Q386 133 386 198 L386 243 L249 228 Q184 219 159 197 Q134 175 134 135 Z M254 736 L310 580 L258 580 L148 736 L254 736 Z " />
<glyph glyph-name="acircumflex" unicode="&#xe2;" horiz-adv-x="552" d="M480 0 L397 0 Q393 20 390.5 42.5 Q388 65 388 85 Q372 41 324.5 15 Q277 -11 213 -11 Q141 -11 95.5 28.5 Q50 68 50 133 Q50 198 93.5 236 Q137 274 224 284 L386 305 L386 334 Q386 389 355.5 418.5 Q325 448 268 448 Q218 448 188 423.5 Q158 399 153 355 L73 355 Q80 429 133.5 472 Q187 515 270 515 Q366 515 417 469 Q468 423 468 336 L468 105 Q468 70 471 45.5 Q474 21 480 0 Z M134 135 Q134 97 160 74.5 Q186 52 230 52 Q297 52 341.5 92.5 Q386 133 386 198 L386 243 L249 228 Q184 219 159 197 Q134 175 134 135 Z M136 578 L230 736 L317 736 L411 578 L359 578 L274 682 L189 578 L136 578 Z " />
<glyph glyph-name="adieresis" unicode="&#xe4;" horiz-adv-x="552" d="M480 0 L397 0 Q393 20 390.5 42.5 Q388 65 388 85 Q372 41 324.5 15 Q277 -11 213 -11 Q141 -11 95.5 28.5 Q50 68 50 133 Q50 198 93.5 236 Q137 274 224 284 L386 305 L386 334 Q386 389 355.5 418.5 Q325 448 268 448 Q218 448 188 423.5 Q158 399 153 355 L73 355 Q80 429 133.5 472 Q187 515 270 515 Q366 515 417 469 Q468 423 468 336 L468 105 Q468 70 471 45.5 Q474 21 480 0 Z M134 135 Q134 97 160 74.5 Q186 52 230 52 Q297 52 341.5 92.5 Q386 133 386 198 L386 243 L249 228 Q184 219 159 197 Q134 175 134 135 Z M407 608 L322 608 L322 709 L407 709 L407 608 Z M224 608 L140 608 L140 709 L224 709 L224 608 Z " />
<glyph glyph-name="atilde" unicode="&#xe3;" horiz-adv-x="552" d="M480 0 L397 0 Q393 20 390.5 42.5 Q388 65 388 85 Q372 41 324.5 15 Q277 -11 213 -11 Q141 -11 95.5 28.5 Q50 68 50 133 Q50 198 93.5 236 Q137 274 224 284 L386 305 L386 334 Q386 389 355.5 418.5 Q325 448 268 448 Q218 448 188 423.5 Q158 399 153 355 L73 355 Q80 429 133.5 472 Q187 515 270 515 Q366 515 417 469 Q468 423 468 336 L468 105 Q468 70 471 45.5 Q474 21 480 0 Z M134 135 Q134 97 160 74.5 Q186 52 230 52 Q297 52 341.5 92.5 Q386 133 386 198 L386 243 L249 228 Q184 219 159 197 Q134 175 134 135 Z M262 629 Q239 649 228 655 Q217 661 207 661 Q187 661 176.5 642.5 Q166 624 164 585 L111 585 Q111 649 135 686 Q159 723 202 723 Q220 723 238 714.5 Q256 706 288 679 Q311 660 322 654 Q333 648 342 648 Q363 648 373.5 667 Q384 686 385 723 L439 723 Q439 659 414.5 622 Q390 585 347 585 Q329 585 311 593.5 Q293 602 262 629 Z " />
<glyph glyph-name="aring" unicode="&#xe5;" horiz-adv-x="552" d="M480 0 L397 0 Q393 20 390.5 42.5 Q388 65 388 85 Q372 41 324.5 15 Q277 -11 213 -11 Q141 -11 95.5 28.5 Q50 68 50 133 Q50 198 93.5 236 Q137 274 224 284 L386 305 L386 334 Q386 389 355.5 418.5 Q325 448 268 448 Q218 448 188 423.5 Q158 399 153 355 L73 355 Q80 429 133.5 472 Q187 515 270 515 Q366 515 417 469 Q468 423 468 336 L468 105 Q468 70 471 45.5 Q474 21 480 0 Z M134 135 Q134 97 160 74.5 Q186 52 230 52 Q297 52 341.5 92.5 Q386 133 386 198 L386 243 L249 228 Q184 219 159 197 Q134 175 134 135 Z M275 572 Q234 572 204.5 601.5 Q175 631 175 671 Q175 713 204.5 742.5 Q234 772 275 772 Q316 772 345 742.5 Q374 713 374 671 Q374 630 345 601 Q316 572 275 572 Z M275 619 Q296 619 311.5 634.5 Q327 650 327 671 Q327 694 312 709.5 Q297 725 275 725 Q253 725 237.5 709 Q222 693 222 671 Q222 650 237.5 634.5 Q253 619 275 619 Z " />
<glyph glyph-name="ccedilla" unicode="&#xe7;" horiz-adv-x="539" d="M385 -109 Q385 -148 353 -171 Q321 -194 271 -194 Q248 -194 225.5 -189 Q203 -184 185 -175 L185 -126 Q206 -137 227 -142 Q248 -147 271 -147 Q297 -147 312 -138 Q327 -129 327 -113 Q327 -89 300 -82.5 Q273 -76 241 -87 L221 -66 L256 -10 Q162 2 107 72 Q52 142 52 251 Q52 370 117.5 442.5 Q183 515 289 515 Q372 515 425.5 470 Q479 425 491 344 L412 344 Q401 395 370 421.5 Q339 448 289 448 Q217 448 175.5 395 Q134 342 134 251 Q134 160 175.5 107.5 Q217 55 289 55 Q339 55 370 81.5 Q401 108 412 159 L491 159 Q479 80 428 35 Q377 -10 297 -12 L279 -40 Q325 -36 355 -54.5 Q385 -73 385 -109 Z " />
<glyph glyph-name="eacute" unicode="&#xe9;" horiz-adv-x="557" d="M424 148 L502 148 Q486 73 430 30.5 Q374 -12 294 -12 Q185 -12 118.5 59 Q52 130 52 249 Q52 368 118.5 441.5 Q185 515 289 515 Q389 515 447 446.5 Q505 378 505 267 L505 234 L133 234 Q136 148 178.5 101 Q221 54 294 54 Q343 54 375.5 77.5 Q408 101 424 148 Z M289 448 Q226 448 186 407.5 Q146 367 136 294 L424 294 Q422 366 386.5 407 Q351 448 289 448 Z M422 736 L312 580 L260 580 L316 736 L422 736 Z " />
<glyph glyph-name="egrave" unicode="&#xe8;" horiz-adv-x="557" d="M424 148 L502 148 Q486 73 430 30.5 Q374 -12 294 -12 Q185 -12 118.5 59 Q52 130 52 249 Q52 368 118.5 441.5 Q185 515 289 515 Q389 515 447 446.5 Q505 378 505 267 L505 234 L133 234 Q136 148 178.5 101 Q221 54 294 54 Q343 54 375.5 77.5 Q408 101 424 148 Z M289 448 Q226 448 186 407.5 Q146 367 136 294 L424 294 Q422 366 386.5 407 Q351 448 289 448 Z M266 736 L322 580 L270 580 L160 736 L266 736 Z " />
<glyph glyph-name="ecircumflex" unicode="&#xea;" horiz-adv-x="557" d="M424 148 L502 148 Q486 73 430 30.5 Q374 -12 294 -12 Q185 -12 118.5 59 Q52 130 52 249 Q52 368 118.5 441.5 Q185 515 289 515 Q389 515 447 446.5 Q505 378 505 267 L505 234 L133 234 Q136 148 178.5 101 Q221 54 294 54 Q343 54 375.5 77.5 Q408 101 424 148 Z M289 448 Q226 448 186 407.5 Q146 367 136 294 L424 294 Q422 366 386.5 407 Q351 448 289 448 Z M152 578 L246 736 L333 736 L427 578 L375 578 L290 682 L205 578 L152 578 Z " />
<glyph glyph-name="edieresis" unicode="&#xeb;" horiz-adv-x="557" d="M424 148 L502 148 Q486 73 430 30.5 Q374 -12 294 -12 Q185 -12 118.5 59 Q52 130 52 249 Q52 368 118.5 441.5 Q185 515 289 515 Q389 515 447 446.5 Q505 378 505 267 L505 234 L133 234 Q136 148 178.5 101 Q221 54 294 54 Q343 54 375.5 77.5 Q408 101 424 148 Z M289 448 Q226 448 186 407.5 Q146 367 136 294 L424 294 Q422 366 386.5 407 Q351 448 289 448 Z M423 608 L338 608 L338 709 L423 709 L423 608 Z M240 608 L156 608 L156 709 L240 709 L240 608 Z " />
<glyph glyph-name="iacute" unicode="&#xed;" horiz-adv-x="261" d="M89 0 L89 503 L172 503 L172 0 L89 0 Z M263 736 L153 580 L101 580 L157 736 L263 736 Z " />
<glyph glyph-name="igrave" unicode="&#xec;" horiz-adv-x="261" d="M89 0 L89 503 L172 503 L172 0 L89 0 Z M106 736 L162 580 L110 580 L0 736 L106 736 Z " />
<glyph glyph-name="icircumflex" unicode="&#xee;" horiz-adv-x="261" d="M89 0 L89 503 L172 503 L172 0 L89 0 Z M-6 578 L88 736 L175 736 L269 578 L217 578 L132 682 L47 578 L-6 578 Z " />
<glyph glyph-name="idieresis" unicode="&#xef;" horiz-adv-x="261" d="M89 0 L89 503 L172 503 L172 0 L89 0 Z M265 608 L180 608 L180 709 L265 709 L265 608 Z M82 608 L-2 608 L-2 709 L82 709 L82 608 Z " />
<glyph glyph-name="ntilde" unicode="&#xf1;" horiz-adv-x="597" d="M89 503 L169 503 L169 411 Q187 458 231.5 486.5 Q276 515 333 515 Q418 515 465.5 464.5 Q513 414 513 324 L513 0 L430 0 L430 306 Q430 376 399.5 411.5 Q369 447 310 447 Q245 447 208.5 403 Q172 359 172 277 L172 0 L89 0 L89 503 Z M291 629 Q268 649 257 655 Q246 661 236 661 Q216 661 205.5 642.5 Q195 624 193 585 L140 585 Q140 649 164 686 Q188 723 231 723 Q249 723 267 714.5 Q285 706 317 679 Q340 660 351 654 Q362 648 371 648 Q392 648 402.5 667 Q413 686 414 723 L468 723 Q468 659 443.5 622 Q419 585 376 585 Q358 585 340 593.5 Q322 602 291 629 Z " />
<glyph glyph-name="oacute" unicode="&#xf3;" horiz-adv-x="582" d="M291 515 Q398 515 464 442.5 Q530 370 530 251 Q530 132 464 60 Q398 -12 291 -12 Q184 -12 118 60 Q52 132 52 251 Q52 370 118 442.5 Q184 515 291 515 Z M291 448 Q218 448 176 395 Q134 342 134 251 Q134 160 176 107.5 Q218 55 291 55 Q364 55 406 107.5 Q448 160 448 251 Q448 342 406 395 Q364 448 291 448 Z M415 736 L305 580 L253 580 L309 736 L415 736 Z " />
<glyph glyph-name="ograve" unicode="&#xf2;" horiz-adv-x="582" d="M291 515 Q398 515 464 442.5 Q530 370 530 251 Q530 132 464 60 Q398 -12 291 -12 Q184 -12 118 60 Q52 132 52 251 Q52 370 118 442.5 Q184 515 291 515 Z M291 448 Q218 448 176 395 Q134 342 134 251 Q134 160 176 107.5 Q218 55 291 55 Q364 55 406 107.5 Q448 160 448 251 Q448 342 406 395 Q364 448 291 448 Z M279 736 L335 580 L283 580 L173 736 L279 736 Z " />
<glyph glyph-name="ocircumflex" unicode="&#xf4;" horiz-adv-x="582" d="M291 515 Q398 515 464 442.5 Q530 370 530 251 Q530 132 464 60 Q398 -12 291 -12 Q184 -12 118 60 Q52 132 52 251 Q52 370 118 442.5 Q184 515 291 515 Z M291 448 Q218 448 176 395 Q134 342 134 251 Q134 160 176 107.5 Q218 55 291 55 Q364 55 406 107.5 Q448 160 448 251 Q448 342 406 395 Q364 448 291 448 Z M154 578 L248 736 L335 736 L429 578 L377 578 L292 682 L207 578 L154 578 Z " />
<glyph glyph-name="odieresis" unicode="&#xf6;" horiz-adv-x="582" d="M291 515 Q398 515 464 442.5 Q530 370 530 251 Q530 132 464 60 Q398 -12 291 -12 Q184 -12 118 60 Q52 132 52 251 Q52 370 118 442.5 Q184 515 291 515 Z M291 448 Q218 448 176 395 Q134 342 134 251 Q134 160 176 107.5 Q218 55 291 55 Q364 55 406 107.5 Q448 160 448 251 Q448 342 406 395 Q364 448 291 448 Z M425 608 L340 608 L340 709 L425 709 L425 608 Z M242 608 L158 608 L158 709 L242 709 L242 608 Z " />
<glyph glyph-name="otilde" unicode="&#xf5;" horiz-adv-x="582" d="M291 515 Q398 515 464 442.5 Q530 370 530 251 Q530 132 464 60 Q398 -12 291 -12 Q184 -12 118 60 Q52 132 52 251 Q52 370 118 442.5 Q184 515 291 515 Z M291 448 Q218 448 176 395 Q134 342 134 251 Q134 160 176 107.5 Q218 55 291 55 Q364 55 406 107.5 Q448 160 448 251 Q448 342 406 395 Q364 448 291 448 Z M278 629 Q255 649 244 655 Q233 661 223 661 Q203 661 192.5 642.5 Q182 624 180 585 L127 585 Q127 649 151 686 Q175 723 218 723 Q236 723 254 714.5 Q272 706 304 679 Q327 660 338 654 Q349 648 358 648 Q379 648 389.5 667 Q400 686 401 723 L455 723 Q455 659 430.5 622 Q406 585 363 585 Q345 585 327 593.5 Q309 602 278 629 Z " />
<glyph glyph-name="uacute" unicode="&#xfa;" horiz-adv-x="592" d="M503 503 L503 0 L422 0 L422 91 Q404 43 361 15.5 Q318 -12 262 -12 Q177 -12 130.5 37.5 Q84 87 84 179 L84 503 L168 503 L168 195 Q168 124 197.5 88.5 Q227 53 286 53 Q349 53 384 98 Q419 143 419 226 L419 503 L503 503 Z M425 736 L315 580 L263 580 L319 736 L425 736 Z " />
<glyph glyph-name="ugrave" unicode="&#xf9;" horiz-adv-x="592" d="M503 503 L503 0 L422 0 L422 91 Q404 43 361 15.5 Q318 -12 262 -12 Q177 -12 130.5 37.5 Q84 87 84 179 L84 503 L168 503 L168 195 Q168 124 197.5 88.5 Q227 53 286 53 Q349 53 384 98 Q419 143 419 226 L419 503 L503 503 Z M272 736 L328 580 L276 580 L166 736 L272 736 Z " />
<glyph glyph-name="ucircumflex" unicode="&#xfb;" horiz-adv-x="592" d="M503 503 L503 0 L422 0 L422 91 Q404 43 361 15.5 Q318 -12 262 -12 Q177 -12 130.5 37.5 Q84 87 84 179 L84 503 L168 503 L168 195 Q168 124 197.5 88.5 Q227 53 286 53 Q349 53 384 98 Q419 143 419 226 L419 503 L503 503 Z M159 578 L253 736 L340 736 L434 578 L382 578 L297 682 L212 578 L159 578 Z " />
<glyph glyph-name="udieresis" unicode="&#xfc;" horiz-adv-x="592" d="M503 503 L503 0 L422 0 L422 91 Q404 43 361 15.5 Q318 -12 262 -12 Q177 -12 130.5 37.5 Q84 87 84 179 L84 503 L168 503 L168 195 Q168 124 197.5 88.5 Q227 53 286 53 Q349 53 384 98 Q419 143 419 226 L419 503 L503 503 Z M430 608 L345 608 L345 709 L430 709 L430 608 Z M247 608 L163 608 L163 709 L247 709 L247 608 Z " />
<glyph glyph-name="dagger" unicode="&#x2020;" horiz-adv-x="369" d="M332 612 L332 556 L213 556 L213 305 L155 305 L155 556 L37 556 L37 612 L155 612 L155 726 L213 726 L213 612 L332 612 Z " />
<glyph glyph-name="degree" unicode="&#xb0;" horiz-adv-x="357" d="M319 588 Q319 530 278.5 490.5 Q238 451 179 451 Q119 451 79 490 Q39 529 39 588 Q39 648 79 687 Q119 726 179 726 Q239 726 279 686.5 Q319 647 319 588 Z M265 588 Q265 625 240.5 649 Q216 673 179 673 Q141 673 116.5 649 Q92 625 92 588 Q92 552 117 528 Q142 504 179 504 Q216 504 240.5 528 Q265 552 265 588 Z " />
<glyph glyph-name="cent" unicode="&#xa2;" horiz-adv-x="558" d="M438 163 L510 163 Q498 89 449 44 Q400 -1 325 -8 L325 -106 L267 -106 L267 -7 Q171 5 113 76 Q55 147 55 256 Q55 365 113 436.5 Q171 508 267 520 L267 640 L325 640 L325 521 Q399 514 448.5 468.5 Q498 423 510 350 L438 350 Q428 396 399 423.5 Q370 451 325 457 L325 56 Q370 62 399 89.5 Q428 117 438 163 Z M132 256 Q132 175 168 122.5 Q204 70 267 58 L267 455 Q204 443 168 390 Q132 337 132 256 Z " />
<glyph glyph-name="sterling" unicode="&#xa3;" horiz-adv-x="631" d="M192 72 L581 72 L581 0 L60 0 L60 72 L72 72 Q120 72 150 118.5 Q180 165 180 239 Q180 252 178.5 266 Q177 280 173 295 L76 295 L76 361 L147 361 Q115 428 107.5 457.5 Q100 487 100 518 Q100 602 165.5 664 Q231 726 332 726 Q438 726 499.5 664.5 Q561 603 567 495 L487 495 Q482 572 442 613.5 Q402 655 332 655 Q266 655 225 615 Q184 575 184 516 Q184 497 188 478 Q192 459 201 436 Q206 422 217.5 397 Q229 372 234 361 L440 361 L440 295 L255 295 Q258 282 259.5 268.5 Q261 255 261 241 Q261 190 243 145 Q225 100 192 72 Z " />
<glyph glyph-name="section" unicode="&#xa7;" horiz-adv-x="580" d="M427 116 Q448 94 458 69 Q468 44 468 12 Q468 -54 416 -96.5 Q364 -139 281 -139 Q195 -139 142.5 -98.5 Q90 -58 82 14 L157 14 Q163 -26 197 -51 Q231 -76 281 -76 Q331 -76 361 -52 Q391 -28 391 10 Q391 39 376 59.5 Q361 80 318 105 L199 175 Q127 216 98 254.5 Q69 293 69 345 Q69 383 88 415 Q107 447 144 471 Q123 492 113.5 518 Q104 544 104 576 Q104 642 155 684 Q206 726 288 726 Q376 726 427 688.5 Q478 651 486 581 L410 581 Q405 619 372.5 641 Q340 663 289 663 Q240 663 211 640 Q182 617 182 578 Q182 548 196.5 527.5 Q211 507 253 482 L373 413 Q445 371 474 332 Q503 293 503 242 Q503 205 483 172 Q463 139 427 116 Z M232 241 L345 175 Q347 174 358 167.5 Q369 161 375 157 Q400 170 414.5 191.5 Q429 213 429 240 Q429 271 411 293 Q393 315 339 347 L227 412 Q225 413 214 419.5 Q203 426 197 430 Q172 417 157.5 395.5 Q143 374 143 347 Q143 316 161 294 Q179 272 232 241 Z " />
<glyph glyph-name="bullet" unicode="&#x2022;" horiz-adv-x="440" d="M221 165 Q165 165 126 203.5 Q87 242 87 297 Q87 352 126 390.5 Q165 429 221 429 Q276 429 314.5 390.5 Q353 352 353 297 Q353 242 314.5 203.5 Q276 165 221 165 Z " />
<glyph glyph-name="paragraph" unicode="&#xb6;" horiz-adv-x="624" d="M352 -127 L281 -127 L281 330 Q167 330 103.5 380.5 Q40 431 40 522 Q40 613 103.5 663.5 Q167 714 281 714 L529 714 L529 -127 L458 -127 L458 646 L352 646 L352 -127 Z " />
<glyph glyph-name="germandbls" unicode="&#xdf;" horiz-adv-x="618" d="M511 578 Q511 526 481.5 485 Q452 444 409 431 Q478 415 522 358.5 Q566 302 566 228 Q566 120 498.5 56.5 Q431 -7 324 -7 Q307 -7 292 -5.5 Q277 -4 263 0 L263 69 Q274 66 286 64.5 Q298 63 316 63 Q392 63 440.5 108.5 Q489 154 489 230 Q489 301 440.5 345.5 Q392 390 314 390 L277 390 L277 459 L312 459 Q368 459 401 490 Q434 521 434 573 Q434 623 402.5 652 Q371 681 315 681 Q249 681 210 631.5 Q171 582 171 499 L171 0 L89 0 L89 499 Q89 611 151 679.5 Q213 748 315 748 Q404 748 457.5 701.5 Q511 655 511 578 Z " />
<glyph glyph-name="registered" unicode="&#xae;" horiz-adv-x="571" d="M55 495 Q55 593 122 659.5 Q189 726 286 726 Q383 726 449.5 660 Q516 594 516 495 Q516 396 449.5 329.5 Q383 263 286 263 Q189 263 122 329.5 Q55 396 55 495 Z M88 495 Q88 408 145 350.5 Q202 293 286 293 Q370 293 427 350.5 Q484 408 484 495 Q484 581 427 638.5 Q370 696 286 696 Q202 696 145 638.5 Q88 581 88 495 Z M242 465 L242 376 L194 376 L194 621 L300 621 Q343 621 366.5 601 Q390 581 390 544 Q390 518 377.5 500 Q365 482 341 473 L399 376 L346 376 L292 465 L242 465 Z M242 582 L242 505 L293 505 Q318 505 329.5 514.5 Q341 524 341 544 Q341 563 329 572.5 Q317 582 293 582 L242 582 Z " />
<glyph glyph-name="copyright" unicode="&#xa9;" horiz-adv-x="870" d="M435 727 Q588 727 696 618.5 Q804 510 804 356 Q804 204 696 96 Q588 -12 435 -12 Q361 -12 293.5 16 Q226 44 174 96 Q122 148 93.5 215.5 Q65 283 65 356 Q65 430 93.5 498 Q122 566 174 618 Q226 671 293.5 699 Q361 727 435 727 Z M435 684 Q300 684 204.5 588 Q109 492 109 356 Q109 222 204.5 126.5 Q300 31 435 31 Q570 31 665.5 126.5 Q761 222 761 356 Q761 492 665.5 588 Q570 684 435 684 Z M441 516 Q379 516 344.5 474 Q310 432 310 358 Q310 284 344.5 242.5 Q379 201 441 200 Q485 201 512.5 222 Q540 243 547 281 L617 281 Q605 213 559.5 175.5 Q514 138 441 138 Q352 138 295 199.5 Q238 261 238 358 Q238 455 295 516.5 Q352 578 441 578 Q514 578 559.5 541 Q605 504 617 435 L547 435 Q540 473 512.5 494.5 Q485 516 441 516 Z " />
<glyph glyph-name="trademark" unicode="&#x2122;" horiz-adv-x="847" d="M219 659 L219 398 L155 398 L155 659 L45 659 L45 714 L330 714 L330 659 L219 659 Z M656 653 L578 398 L530 398 L451 653 L448 653 L448 398 L391 398 L391 714 L486 714 L555 481 L558 481 L628 714 L720 714 L720 398 L658 398 L658 653 L656 653 Z " />
<glyph glyph-name="acute" unicode="&#xb4;" horiz-adv-x="565" d="M364 736 L254 580 L202 580 L258 736 L364 736 Z " />
<glyph glyph-name="dieresis" unicode="&#xa8;" horiz-adv-x="565" d="M416 608 L331 608 L331 709 L416 709 L416 608 Z M233 608 L149 608 L149 709 L233 709 L233 608 Z " />
<glyph glyph-name="AE" unicode="&#xc6;" horiz-adv-x="1095" d="M1029 0 L547 0 L547 201 L242 201 L106 0 L17 0 L499 714 L1029 714 L1029 642 L632 642 L632 393 L985 393 L985 320 L632 320 L632 72 L1029 72 L1029 0 Z M547 272 L547 653 L290 272 L547 272 Z " />
<glyph glyph-name="Oslash" unicode="&#xd8;" horiz-adv-x="750" d="M700 357 Q700 193 610.5 90.5 Q521 -12 375 -12 Q319 -12 269.5 4 Q220 20 180 52 L118 -30 L71 5 L138 93 Q95 143 72.5 210.5 Q50 278 50 357 Q50 521 140 623.5 Q230 726 375 726 Q431 726 481 709.5 Q531 693 571 661 L632 741 L678 706 L613 620 Q655 571 677.5 503.5 Q700 436 700 357 Z M375 653 Q264 653 201 573.5 Q138 494 138 357 Q138 297 150.5 246.5 Q163 196 188 158 L524 600 Q494 626 457 639.5 Q420 653 375 653 Z M375 61 Q486 61 548.5 140 Q611 219 611 357 Q611 417 598.5 467 Q586 517 562 554 L227 113 Q256 87 293.5 74 Q331 61 375 61 Z " />
<glyph glyph-name="yen" unicode="&#xa5;" horiz-adv-x="671" d="M587 226 L587 165 L378 165 L378 0 L293 0 L293 165 L84 165 L84 226 L293 226 L293 317 L84 317 L84 378 L259 378 L31 714 L125 714 L337 397 L339 397 L546 714 L640 714 L412 378 L588 378 L588 317 L378 317 L378 226 L587 226 Z " />
<glyph glyph-name="ordfeminine" unicode="&#xaa;" horiz-adv-x="397" d="M267 438 Q255 409 225 392.5 Q195 376 153 376 Q104 376 73.5 402.5 Q43 429 43 473 Q43 516 72 540.5 Q101 565 160 572 L264 584 L264 603 Q264 637 246 654.5 Q228 672 194 672 Q164 672 145 657 Q126 642 124 615 L58 615 Q62 666 99.5 696 Q137 726 195 726 Q262 726 297 694 Q332 662 332 601 L332 460 Q332 438 333.5 419.5 Q335 401 339 384 L272 384 Q270 395 268.5 408.5 Q267 422 267 438 Z M170 424 Q210 424 237 449 Q264 474 264 513 L264 542 L181 532 Q144 527 128 513.5 Q112 500 112 476 Q112 452 127.5 438 Q143 424 170 424 Z M341 251 L54 251 L54 304 L341 304 L341 251 Z " />
<glyph glyph-name="ordmasculine" unicode="&#xba;" horiz-adv-x="415" d="M208 375 Q134 375 89 423 Q44 471 44 551 Q44 630 89 678 Q134 726 208 726 Q281 726 326.5 678 Q372 630 372 551 Q372 472 326.5 423.5 Q281 375 208 375 Z M208 672 Q164 672 138.5 639.5 Q113 607 113 551 Q113 493 138 460.5 Q163 428 208 428 Q252 428 277 460.5 Q302 493 302 551 Q302 607 277 639.5 Q252 672 208 672 Z M351 251 L64 251 L64 304 L351 304 L351 251 Z " />
<glyph glyph-name="ae" unicode="&#xe6;" horiz-adv-x="886" d="M753 148 L830 148 Q815 73 758.5 30.5 Q702 -12 622 -12 Q557 -12 505 15.5 Q453 43 422 93 Q389 42 339 15.5 Q289 -11 224 -11 Q147 -11 98.5 29 Q50 69 50 136 Q50 209 106 248.5 Q162 288 262 288 L386 288 L386 335 Q386 390 355.5 419.5 Q325 449 269 449 Q218 449 188 424.5 Q158 400 153 355 L73 355 Q80 429 133 472.5 Q186 516 269 516 Q329 516 372.5 493 Q416 470 438 426 Q471 469 517.5 492.5 Q564 516 617 516 Q717 516 775.5 446.5 Q834 377 834 264 L834 233 L461 233 Q465 148 507.5 101 Q550 54 622 54 Q671 54 703.5 77 Q736 100 753 148 Z M617 450 Q553 450 512.5 407.5 Q472 365 463 288 L753 288 Q751 363 715 406.5 Q679 450 617 450 Z M134 139 Q134 100 161 76.5 Q188 53 235 53 Q303 53 344.5 92 Q386 131 386 198 L386 233 L263 233 Q200 233 167 209 Q134 185 134 139 Z " />
<glyph glyph-name="oslash" unicode="&#xf8;" horiz-adv-x="582" d="M530 251 Q530 132 464 60 Q398 -12 291 -12 Q251 -12 216 -1 Q181 10 151 31 L100 -34 L60 -2 L113 65 Q83 101 67.5 148.5 Q52 196 52 251 Q52 370 118 442.5 Q184 515 291 515 Q332 515 368 503.5 Q404 492 434 470 L482 531 L521 499 L470 435 Q499 400 514.5 353 Q530 306 530 251 Z M291 449 Q217 449 175 396 Q133 343 133 251 Q133 214 140 182.5 Q147 151 161 126 L390 414 Q370 431 345.5 440 Q321 449 291 449 Z M291 53 Q365 53 407 106 Q449 159 449 251 Q449 288 442 318.5 Q435 349 422 373 L195 86 Q214 70 238.5 61.5 Q263 53 291 53 Z " />
<glyph glyph-name="questiondown" unicode="&#xbf;" horiz-adv-x="565" d="M273 -12 Q171 -12 109 46.5 Q47 105 47 195 Q47 251 76.5 299 Q106 347 189 409 Q230 440 244 464 Q258 488 260 520 L343 520 Q342 473 317 433.5 Q292 394 232 349 Q172 303 150.5 268.5 Q129 234 129 196 Q129 134 167 96.5 Q205 59 273 59 Q343 59 387 103 Q431 147 435 219 L517 219 Q510 116 444 52 Q378 -12 273 -12 Z M247 714 L356 714 L356 608 L247 608 L247 714 Z " />
<glyph glyph-name="exclamdown" unicode="&#xa1;" horiz-adv-x="308" d="M188 497 L203 0 L105 0 L121 497 L188 497 Z M208 606 L99 606 L99 714 L208 714 L208 606 Z " />
<glyph glyph-name="florin" unicode="&#x192;" horiz-adv-x="507" d="M390 404 L390 340 L264 340 L184 -110 L103 -110 L183 340 L97 340 L97 404 L195 404 L228 591 Q242 665 286 706.5 Q330 748 395 748 Q411 748 428.5 744.5 Q446 741 463 735 L463 658 Q448 666 433.5 669 Q419 672 400 672 Q362 672 338.5 647 Q315 622 306 572 L276 404 L390 404 Z " />
<glyph glyph-name="guillemotleft" unicode="&#xab;" horiz-adv-x="511" d="M341 241 L450 45 L388 45 L256 241 L388 437 L450 437 L341 241 Z M148 241 L255 45 L194 45 L61 241 L194 437 L255 437 L148 241 Z " />
<glyph glyph-name="guillemotright" unicode="&#xbb;" horiz-adv-x="511" d="M61 434 L123 434 L255 238 L123 42 L61 42 L170 238 L61 434 Z M256 434 L317 434 L450 238 L317 42 L256 42 L363 238 L256 434 Z " />
<glyph glyph-name="ellipsis" unicode="&#x2026;" horiz-adv-x="708" d="M609 0 L500 0 L500 109 L609 109 L609 0 Z M409 0 L300 0 L300 109 L409 109 L409 0 Z M208 0 L99 0 L99 109 L208 109 L208 0 Z " />
<glyph glyph-name="uni00A0" unicode="&#xa0;" horiz-adv-x="217" d="" />
<glyph glyph-name="Agrave" unicode="&#xc0;" horiz-adv-x="710" d="M693 0 L603 0 L524 199 L182 199 L103 0 L17 0 L306 714 L403 714 L693 0 Z M355 628 L352 628 L210 270 L496 270 L355 628 Z M326 915 L383 767 L332 767 L220 915 L326 915 Z " />
<glyph glyph-name="Atilde" unicode="&#xc3;" horiz-adv-x="710" d="M693 0 L603 0 L524 199 L182 199 L103 0 L17 0 L306 714 L403 714 L693 0 Z M355 628 L352 628 L210 270 L496 270 L355 628 Z M343 813 Q320 832 309 837.5 Q298 843 288 843 Q268 843 257.5 825 Q247 807 245 771 L192 771 Q192 835 216 872 Q240 909 283 909 Q301 909 319 900.5 Q337 892 369 867 Q392 848 403 842.5 Q414 837 423 837 Q443 837 454 855.5 Q465 874 466 910 L520 910 Q520 845 495.5 808 Q471 771 428 771 Q410 771 392 779 Q374 787 343 813 Z " />
<glyph glyph-name="Otilde" unicode="&#xd5;" horiz-adv-x="750" d="M375 726 Q520 726 610 623.5 Q700 521 700 357 Q700 193 610.5 90.5 Q521 -12 375 -12 Q229 -12 139.5 90.5 Q50 193 50 357 Q50 521 140 623.5 Q230 726 375 726 Z M375 61 Q486 61 548.5 140 Q611 219 611 357 Q611 494 548.5 573.5 Q486 653 375 653 Q264 653 201 573.5 Q138 494 138 357 Q138 219 200.5 140 Q263 61 375 61 Z M362 813 Q339 832 328 837.5 Q317 843 307 843 Q287 843 276.5 825 Q266 807 264 771 L211 771 Q211 835 235 872 Q259 909 302 909 Q320 909 338 900.5 Q356 892 388 867 Q411 848 422 842.5 Q433 837 442 837 Q462 837 473 855.5 Q484 874 485 910 L539 910 Q539 845 514.5 808 Q490 771 447 771 Q429 771 411 779 Q393 787 362 813 Z " />
<glyph glyph-name="OE" unicode="&#x152;" horiz-adv-x="1114" d="M1048 0 L398 0 Q242 0 146 98.5 Q50 197 50 357 Q50 517 146 615.5 Q242 714 398 714 L1048 714 L1048 642 L651 642 L651 393 L1004 393 L1004 320 L651 320 L651 72 L1048 72 L1048 0 Z M138 357 Q138 225 207.5 148.5 Q277 72 398 72 L565 72 L565 642 L398 642 Q276 642 207 566 Q138 490 138 357 Z " />
<glyph glyph-name="oe" unicode="&#x153;" horiz-adv-x="949" d="M816 148 L894 148 Q878 73 822 30.5 Q766 -12 686 -12 Q620 -12 570.5 18 Q521 48 486 108 Q451 48 402.5 18 Q354 -12 291 -12 Q184 -12 118 60 Q52 132 52 251 Q52 370 118 442.5 Q184 515 291 515 Q355 515 404 484 Q453 453 487 392 Q522 453 570 484 Q618 515 680 515 Q781 515 839 446 Q897 377 897 265 L897 233 L524 233 Q528 148 570.5 101 Q613 54 686 54 Q735 54 767 77 Q799 100 816 148 Z M680 449 Q617 449 576 407 Q535 365 526 289 L816 289 Q814 363 778.5 406 Q743 449 680 449 Z M291 448 Q218 448 176 395 Q134 342 134 251 Q134 160 176 107.5 Q218 55 291 55 Q363 55 405 108 Q447 161 447 252 Q447 343 405.5 395.5 Q364 448 291 448 Z " />
<glyph glyph-name="endash" unicode="&#x2013;" horiz-adv-x="677" d="M590 246 L87 246 L87 312 L590 312 L590 246 Z " />
<glyph glyph-name="emdash" unicode="&#x2014;" horiz-adv-x="1003" d="M916 246 L87 246 L87 312 L916 312 L916 246 Z " />
<glyph glyph-name="quotedblleft" unicode="&#x201c;" horiz-adv-x="522" d="M371 585 L422 585 L422 487 L313 487 L313 598 Q313 663 350.5 700.5 Q388 738 453 738 L453 688 Q411 688 391 666 Q371 644 371 599 L371 585 Z M157 585 L208 585 L208 487 L99 487 L99 598 Q99 663 136.5 700.5 Q174 738 239 738 L239 688 Q197 688 177 666 Q157 644 157 599 L157 585 Z " />
<glyph glyph-name="quotedblright" unicode="&#x201d;" horiz-adv-x="522" d="M151 638 L100 638 L100 736 L209 736 L209 625 Q209 560 171.5 522.5 Q134 485 69 485 L69 535 Q111 535 131 557 Q151 579 151 624 L151 638 Z M365 638 L314 638 L314 736 L423 736 L423 625 Q423 560 385.5 522.5 Q348 485 283 485 L283 535 Q325 535 345 557 Q365 579 365 624 L365 638 Z " />
<glyph glyph-name="quoteleft" unicode="&#x2018;" horiz-adv-x="308" d="M157 585 L208 585 L208 487 L99 487 L99 598 Q99 663 136.5 700.5 Q174 738 239 738 L239 688 Q197 688 177 666 Q157 644 157 599 L157 585 Z " />
<glyph glyph-name="quoteright" unicode="&#x2019;" horiz-adv-x="308" d="M151 638 L100 638 L100 736 L209 736 L209 625 Q209 560 171.5 522.5 Q134 485 69 485 L69 535 Q111 535 131 557 Q151 579 151 624 L151 638 Z " />
<glyph glyph-name="divide" unicode="&#xf7;" horiz-adv-x="660" d="M380 498 L281 498 L281 595 L380 595 L380 498 Z M590 298 L69 298 L69 367 L590 367 L590 298 Z M380 70 L281 70 L281 167 L380 167 L380 70 Z " />
<glyph glyph-name="ydieresis" unicode="&#xff;" horiz-adv-x="542" d="M124 -117 Q160 -117 182 -94 Q204 -71 230 -4 L28 503 L115 503 L275 92 L277 92 L428 503 L514 503 L311 -15 Q273 -114 234.5 -149.5 Q196 -185 133 -186 Q123 -186 109.5 -184.5 Q96 -183 84 -181 L84 -113 Q93 -115 101 -116 Q109 -117 124 -117 Z M411 608 L326 608 L326 709 L411 709 L411 608 Z M228 608 L144 608 L144 709 L228 709 L228 608 Z " />
<glyph glyph-name="Ydieresis" unicode="&#x178;" horiz-adv-x="664" d="M375 296 L375 0 L289 0 L289 296 L17 714 L112 714 L335 373 L337 373 L553 714 L648 714 L375 296 Z M466 785 L381 785 L381 886 L466 886 L466 785 Z M283 785 L199 785 L199 886 L283 886 L283 785 Z " />
<glyph glyph-name="fraction" unicode="&#x2044;" horiz-adv-x="184" d="M384 727 L-131 -12 L-201 -12 L315 727 L384 727 Z " />
<glyph glyph-name="Euro" unicode="&#x20ac;" horiz-adv-x="703" d="M577 208 L658 208 Q641 104 575.5 46 Q510 -12 408 -12 Q301 -12 224 60 Q147 132 122 255 L47 255 L47 315 L115 315 Q114 332 113.5 341 Q113 350 113 358 Q113 375 113 383 Q113 391 114 398 L47 398 L47 458 L122 458 Q145 582 222 654 Q299 726 408 726 Q511 726 576 668.5 Q641 611 658 507 L577 507 Q564 579 521.5 616 Q479 653 409 653 Q330 653 278 602.5 Q226 552 207 458 L448 458 L437 398 L199 398 Q198 391 198 383 Q198 375 198 358 Q198 350 198.5 341 Q199 332 200 315 L419 315 L408 255 L208 255 Q227 162 279 111.5 Q331 61 409 61 Q480 61 522 98 Q564 135 577 208 Z " />
<glyph glyph-name="guilsinglleft" unicode="&#x2039;" horiz-adv-x="318" d="M149 241 L256 45 L194 45 L61 241 L194 437 L256 437 L149 241 Z " />
<glyph glyph-name="guilsinglright" unicode="&#x203a;" horiz-adv-x="318" d="M62 434 L124 434 L257 238 L124 42 L62 42 L169 238 L62 434 Z " />
<glyph glyph-name="daggerdbl" unicode="&#x2021;" horiz-adv-x="369" d="M332 469 L332 414 L213 414 L213 305 L155 305 L155 414 L37 414 L37 469 L155 469 L155 563 L37 563 L37 618 L155 618 L155 726 L213 726 L213 618 L332 618 L332 563 L213 563 L213 469 L332 469 Z " />
<glyph glyph-name="periodcentered" unicode="&#xb7;" horiz-adv-x="283" d="M196 228 L87 228 L87 337 L196 337 L196 228 Z " />
<glyph glyph-name="quotesinglbase" unicode="&#x201a;" horiz-adv-x="308" d="M151 29 L100 29 L100 127 L209 127 L209 16 Q209 -49 171.5 -86.5 Q134 -124 69 -124 L69 -74 Q111 -74 131 -52 Q151 -30 151 15 L151 29 Z " />
<glyph glyph-name="quotedblbase" unicode="&#x201e;" horiz-adv-x="522" d="M151 29 L100 29 L100 127 L209 127 L209 16 Q209 -49 171.5 -86.5 Q134 -124 69 -124 L69 -74 Q111 -74 131 -52 Q151 -30 151 15 L151 29 Z M365 29 L314 29 L314 127 L423 127 L423 16 Q423 -49 385.5 -86.5 Q348 -124 283 -124 L283 -74 Q325 -74 345 -52 Q365 -30 365 15 L365 29 Z " />
<glyph glyph-name="Acircumflex" unicode="&#xc2;" horiz-adv-x="710" d="M693 0 L603 0 L524 199 L182 199 L103 0 L17 0 L306 714 L403 714 L693 0 Z M355 628 L352 628 L210 270 L496 270 L355 628 Z M218 765 L310 915 L401 915 L493 765 L441 765 L356 858 L271 765 L218 765 Z " />
<glyph glyph-name="Ecircumflex" unicode="&#xca;" horiz-adv-x="642" d="M576 72 L576 0 L93 0 L93 714 L575 714 L575 642 L178 642 L178 393 L531 393 L531 320 L178 320 L178 72 L576 72 Z M198 765 L290 915 L381 915 L473 765 L421 765 L336 858 L251 765 L198 765 Z " />
<glyph glyph-name="Aacute" unicode="&#xc1;" horiz-adv-x="710" d="M693 0 L603 0 L524 199 L182 199 L103 0 L17 0 L306 714 L403 714 L693 0 Z M355 628 L352 628 L210 270 L496 270 L355 628 Z M492 915 L380 767 L329 767 L386 915 L492 915 Z " />
<glyph glyph-name="Edieresis" unicode="&#xcb;" horiz-adv-x="642" d="M576 72 L576 0 L93 0 L93 714 L575 714 L575 642 L178 642 L178 393 L531 393 L531 320 L178 320 L178 72 L576 72 Z M469 785 L384 785 L384 886 L469 886 L469 785 Z M286 785 L202 785 L202 886 L286 886 L286 785 Z " />
<glyph glyph-name="Egrave" unicode="&#xc8;" horiz-adv-x="642" d="M576 72 L576 0 L93 0 L93 714 L575 714 L575 642 L178 642 L178 393 L531 393 L531 320 L178 320 L178 72 L576 72 Z M313 915 L370 767 L319 767 L207 915 L313 915 Z " />
<glyph glyph-name="Iacute" unicode="&#xcd;" horiz-adv-x="273" d="M179 0 L93 0 L93 714 L179 714 L179 0 Z M273 915 L161 767 L110 767 L167 915 L273 915 Z " />
<glyph glyph-name="Icircumflex" unicode="&#xce;" horiz-adv-x="273" d="M179 0 L93 0 L93 714 L179 714 L179 0 Z M-1 765 L91 915 L182 915 L274 765 L222 765 L137 858 L52 765 L-1 765 Z " />
<glyph glyph-name="Idieresis" unicode="&#xcf;" horiz-adv-x="273" d="M179 0 L93 0 L93 714 L179 714 L179 0 Z M270 785 L185 785 L185 886 L270 886 L270 785 Z M87 785 L3 785 L3 886 L87 886 L87 785 Z " />
<glyph glyph-name="Igrave" unicode="&#xcc;" horiz-adv-x="273" d="M179 0 L93 0 L93 714 L179 714 L179 0 Z M112 915 L169 767 L118 767 L6 915 L112 915 Z " />
<glyph glyph-name="Oacute" unicode="&#xd3;" horiz-adv-x="750" d="M375 726 Q520 726 610 623.5 Q700 521 700 357 Q700 193 610.5 90.5 Q521 -12 375 -12 Q229 -12 139.5 90.5 Q50 193 50 357 Q50 521 140 623.5 Q230 726 375 726 Z M375 61 Q486 61 548.5 140 Q611 219 611 357 Q611 494 548.5 573.5 Q486 653 375 653 Q264 653 201 573.5 Q138 494 138 357 Q138 219 200.5 140 Q263 61 375 61 Z M509 915 L397 767 L346 767 L403 915 L509 915 Z " />
<glyph glyph-name="Ocircumflex" unicode="&#xd4;" horiz-adv-x="750" d="M375 726 Q520 726 610 623.5 Q700 521 700 357 Q700 193 610.5 90.5 Q521 -12 375 -12 Q229 -12 139.5 90.5 Q50 193 50 357 Q50 521 140 623.5 Q230 726 375 726 Z M375 61 Q486 61 548.5 140 Q611 219 611 357 Q611 494 548.5 573.5 Q486 653 375 653 Q264 653 201 573.5 Q138 494 138 357 Q138 219 200.5 140 Q263 61 375 61 Z M238 765 L330 915 L421 915 L513 765 L461 765 L376 858 L291 765 L238 765 Z " />
<glyph glyph-name="Ograve" unicode="&#xd2;" horiz-adv-x="750" d="M375 726 Q520 726 610 623.5 Q700 521 700 357 Q700 193 610.5 90.5 Q521 -12 375 -12 Q229 -12 139.5 90.5 Q50 193 50 357 Q50 521 140 623.5 Q230 726 375 726 Z M375 61 Q486 61 548.5 140 Q611 219 611 357 Q611 494 548.5 573.5 Q486 653 375 653 Q264 653 201 573.5 Q138 494 138 357 Q138 219 200.5 140 Q263 61 375 61 Z M354 915 L411 767 L360 767 L248 915 L354 915 Z " />
<glyph glyph-name="Uacute" unicode="&#xda;" horiz-adv-x="743" d="M660 714 L660 291 Q660 145 585 66.5 Q510 -12 371 -12 Q233 -12 157.5 67.5 Q82 147 82 293 L82 714 L168 714 L168 286 Q168 177 220.5 119 Q273 61 371 61 Q470 61 522 118.5 Q574 176 574 286 L574 714 L660 714 Z M492 915 L380 767 L329 767 L386 915 L492 915 Z " />
<glyph glyph-name="Ucircumflex" unicode="&#xdb;" horiz-adv-x="743" d="M660 714 L660 291 Q660 145 585 66.5 Q510 -12 371 -12 Q233 -12 157.5 67.5 Q82 147 82 293 L82 714 L168 714 L168 286 Q168 177 220.5 119 Q273 61 371 61 Q470 61 522 118.5 Q574 176 574 286 L574 714 L660 714 Z M234 765 L326 915 L417 915 L509 765 L457 765 L372 858 L287 765 L234 765 Z " />
<glyph glyph-name="Ugrave" unicode="&#xd9;" horiz-adv-x="743" d="M660 714 L660 291 Q660 145 585 66.5 Q510 -12 371 -12 Q233 -12 157.5 67.5 Q82 147 82 293 L82 714 L168 714 L168 286 Q168 177 220.5 119 Q273 61 371 61 Q470 61 522 118.5 Q574 176 574 286 L574 714 L660 714 Z M357 915 L414 767 L363 767 L251 915 L357 915 Z " />
<glyph glyph-name="dotlessi" unicode="&#x131;" horiz-adv-x="261" d="M89 0 L89 503 L172 503 L172 0 L89 0 Z " />
<glyph glyph-name="circumflex" unicode="&#x2c6;" horiz-adv-x="565" d="M145 578 L239 736 L326 736 L420 578 L368 578 L283 682 L198 578 L145 578 Z " />
<glyph glyph-name="tilde" unicode="&#x2dc;" horiz-adv-x="565" d="M271 629 Q248 649 237 655 Q226 661 216 661 Q196 661 185.5 642.5 Q175 624 173 585 L120 585 Q120 649 144 686 Q168 723 211 723 Q229 723 247 714.5 Q265 706 297 679 Q320 660 331 654 Q342 648 351 648 Q372 648 382.5 667 Q393 686 394 723 L448 723 Q448 659 423.5 622 Q399 585 356 585 Q338 585 320 593.5 Q302 602 271 629 Z " />
<glyph glyph-name="breve" unicode="&#x2d8;" horiz-adv-x="565" d="M281 584 Q220 584 183 625 Q146 666 146 736 L204 736 Q206 691 225.5 667 Q245 643 281 643 Q317 643 336 666.5 Q355 690 357 736 L415 736 Q415 666 378.5 625 Q342 584 281 584 Z " />
<glyph glyph-name="dotaccent" unicode="&#x2d9;" horiz-adv-x="565" d="M330 608 L236 608 L236 709 L330 709 L330 608 Z " />
<glyph glyph-name="ring" unicode="&#x2da;" horiz-adv-x="565" d="M283 572 Q242 572 212.5 601.5 Q183 631 183 671 Q183 713 212.5 742.5 Q242 772 283 772 Q324 772 353 742.5 Q382 713 382 671 Q382 630 353 601 Q324 572 283 572 Z M283 619 Q304 619 319.5 634.5 Q335 650 335 671 Q335 694 320 709.5 Q305 725 283 725 Q261 725 245.5 709 Q230 693 230 671 Q230 650 245.5 634.5 Q261 619 283 619 Z " />
<glyph glyph-name="cedilla" unicode="&#xb8;" horiz-adv-x="627" d="M417 -109 Q417 -148 385 -171 Q353 -194 303 -194 Q280 -194 257.5 -189 Q235 -184 217 -175 L217 -126 Q238 -137 259 -142 Q280 -147 303 -147 Q329 -147 344 -138 Q359 -129 359 -113 Q359 -89 332 -82.5 Q305 -76 273 -87 L253 -66 L310 26 L353 26 L311 -40 Q357 -36 387 -54.5 Q417 -73 417 -109 Z " />
<glyph glyph-name="hungarumlaut" unicode="&#x2dd;" horiz-adv-x="565" d="M329 580 L281 580 L338 736 L436 736 L329 580 Z M175 580 L126 580 L184 736 L281 736 L175 580 Z " />
<glyph glyph-name="ogonek" unicode="&#x2db;" horiz-adv-x="565" d="M316 -190 Q278 -190 254.5 -169.5 Q231 -149 231 -113 Q231 -88 243.5 -62.5 Q256 -37 299 15 L356 15 Q314 -39 302 -60.5 Q290 -82 290 -101 Q290 -118 301 -127.5 Q312 -137 332 -137 Q341 -137 348.5 -136 Q356 -135 364 -133 L364 -183 Q353 -187 341.5 -188.5 Q330 -190 316 -190 Z " />
<glyph glyph-name="caron" unicode="&#x2c7;" horiz-adv-x="565" d="M198 736 L283 632 L368 736 L420 736 L326 578 L239 578 L145 736 L198 736 Z " />
<glyph glyph-name="Eth" unicode="&#xd0;" horiz-adv-x="757" d="M707 357 Q707 197 611 98.5 Q515 0 359 0 L106 0 L106 327 L26 327 L26 398 L106 398 L106 714 L359 714 Q515 714 611 615.5 Q707 517 707 357 Z M191 327 L191 72 L359 72 Q481 72 549.5 148 Q618 224 618 357 Q618 490 549 566 Q480 642 359 642 L191 642 L191 398 L344 398 L344 327 L191 327 Z " />
<glyph glyph-name="Abreve" unicode="&#x102;" horiz-adv-x="710" d="M693 0 L603 0 L524 199 L182 199 L103 0 L17 0 L306 714 L403 714 L693 0 Z M355 628 L352 628 L210 270 L496 270 L355 628 Z M356 763 Q295 763 258 804.5 Q221 846 221 916 L283 916 Q283 873 302 849.5 Q321 826 356 826 Q391 826 410 849.5 Q429 873 429 916 L490 916 Q490 846 453.5 804.5 Q417 763 356 763 Z " />
<glyph glyph-name="Amacron" unicode="&#x100;" horiz-adv-x="710" d="M693 0 L603 0 L524 199 L182 199 L103 0 L17 0 L306 714 L403 714 L693 0 Z M355 628 L352 628 L210 270 L496 270 L355 628 Z M501 786 L208 786 L208 849 L501 849 L501 786 Z " />
<glyph glyph-name="Aogonek" unicode="&#x104;" horiz-adv-x="710" d="M668 -133 L668 -183 Q657 -187 645.5 -188.5 Q634 -190 620 -190 Q582 -190 558.5 -169.5 Q535 -149 535 -113 Q535 -89 547.5 -63.5 Q560 -38 599 10 L524 199 L182 199 L103 0 L17 0 L306 714 L403 714 L693 0 L648 0 Q614 -45 604 -64 Q594 -83 594 -101 Q594 -118 605 -127.5 Q616 -137 636 -137 Q645 -137 652.5 -136 Q660 -135 668 -133 Z M355 628 L352 628 L210 270 L496 270 L355 628 Z " />
<glyph glyph-name="AEacute" unicode="&#x1fc;" horiz-adv-x="1095" d="M1029 0 L547 0 L547 201 L242 201 L106 0 L17 0 L499 714 L1029 714 L1029 642 L632 642 L632 393 L985 393 L985 320 L632 320 L632 72 L1029 72 L1029 0 Z M547 272 L547 653 L290 272 L547 272 Z M882 915 L770 767 L719 767 L776 915 L882 915 Z " />
<glyph glyph-name="Cacute" unicode="&#x106;" horiz-adv-x="686" d="M370 653 Q262 653 200 574 Q138 495 138 358 Q138 221 200 141 Q262 61 370 61 Q448 61 496 98.5 Q544 136 558 208 L642 208 Q624 104 552.5 46 Q481 -12 370 -12 Q229 -12 139.5 90.5 Q50 193 50 358 Q50 522 139.5 624 Q229 726 370 726 Q481 726 552.5 668 Q624 610 642 506 L558 506 Q544 578 496 615.5 Q448 653 370 653 Z M501 915 L389 767 L338 767 L395 915 L501 915 Z " />
<glyph glyph-name="Ccaron" unicode="&#x10c;" horiz-adv-x="686" d="M370 653 Q262 653 200 574 Q138 495 138 358 Q138 221 200 141 Q262 61 370 61 Q448 61 496 98.5 Q544 136 558 208 L642 208 Q624 104 552.5 46 Q481 -12 370 -12 Q229 -12 139.5 90.5 Q50 193 50 358 Q50 522 139.5 624 Q229 726 370 726 Q481 726 552.5 668 Q624 610 642 506 L558 506 Q544 578 496 615.5 Q448 653 370 653 Z M285 915 L370 822 L455 915 L507 915 L415 765 L324 765 L232 915 L285 915 Z " />
<glyph glyph-name="Ccircumflex" unicode="&#x108;" horiz-adv-x="686" d="M370 653 Q262 653 200 574 Q138 495 138 358 Q138 221 200 141 Q262 61 370 61 Q448 61 496 98.5 Q544 136 558 208 L642 208 Q624 104 552.5 46 Q481 -12 370 -12 Q229 -12 139.5 90.5 Q50 193 50 358 Q50 522 139.5 624 Q229 726 370 726 Q481 726 552.5 668 Q624 610 642 506 L558 506 Q544 578 496 615.5 Q448 653 370 653 Z M232 765 L324 915 L415 915 L507 765 L455 765 L370 858 L285 765 L232 765 Z " />
<glyph glyph-name="Cdotaccent" unicode="&#x10a;" horiz-adv-x="686" d="M370 653 Q262 653 200 574 Q138 495 138 358 Q138 221 200 141 Q262 61 370 61 Q448 61 496 98.5 Q544 136 558 208 L642 208 Q624 104 552.5 46 Q481 -12 370 -12 Q229 -12 139.5 90.5 Q50 193 50 358 Q50 522 139.5 624 Q229 726 370 726 Q481 726 552.5 668 Q624 610 642 506 L558 506 Q544 578 496 615.5 Q448 653 370 653 Z M417 785 L323 785 L323 886 L417 886 L417 785 Z " />
<glyph glyph-name="Dcaron" unicode="&#x10e;" horiz-adv-x="744" d="M93 714 L346 714 Q502 714 598 615.5 Q694 517 694 357 Q694 197 598 98.5 Q502 0 346 0 L93 0 L93 714 Z M605 357 Q605 490 536 566 Q467 642 346 642 L178 642 L178 72 L346 72 Q468 72 536.5 148 Q605 224 605 357 Z M260 915 L345 822 L430 915 L482 915 L390 765 L299 765 L207 915 L260 915 Z " />
<glyph glyph-name="Dcroat" unicode="&#x110;" horiz-adv-x="757" d="M707 357 Q707 197 611 98.5 Q515 0 359 0 L106 0 L106 327 L26 327 L26 398 L106 398 L106 714 L359 714 Q515 714 611 615.5 Q707 517 707 357 Z M191 327 L191 72 L359 72 Q481 72 549.5 148 Q618 224 618 357 Q618 490 549 566 Q480 642 359 642 L191 642 L191 398 L344 398 L344 327 L191 327 Z " />
<glyph glyph-name="Ebreve" unicode="&#x114;" horiz-adv-x="642" d="M576 72 L576 0 L93 0 L93 714 L575 714 L575 642 L178 642 L178 393 L531 393 L531 320 L178 320 L178 72 L576 72 Z M335 763 Q274 763 237 804.5 Q200 846 200 916 L262 916 Q262 873 281 849.5 Q300 826 335 826 Q370 826 389 849.5 Q408 873 408 916 L469 916 Q469 846 432.5 804.5 Q396 763 335 763 Z " />
<glyph glyph-name="Ecaron" unicode="&#x11a;" horiz-adv-x="642" d="M576 72 L576 0 L93 0 L93 714 L575 714 L575 642 L178 642 L178 393 L531 393 L531 320 L178 320 L178 72 L576 72 Z M251 915 L336 822 L421 915 L473 915 L381 765 L290 765 L198 915 L251 915 Z " />
<glyph glyph-name="Edotaccent" unicode="&#x116;" horiz-adv-x="642" d="M576 72 L576 0 L93 0 L93 714 L575 714 L575 642 L178 642 L178 393 L531 393 L531 320 L178 320 L178 72 L576 72 Z M383 785 L289 785 L289 886 L383 886 L383 785 Z " />
<glyph glyph-name="Emacron" unicode="&#x112;" horiz-adv-x="642" d="M576 72 L576 0 L93 0 L93 714 L575 714 L575 642 L178 642 L178 393 L531 393 L531 320 L178 320 L178 72 L576 72 Z M482 786 L189 786 L189 849 L482 849 L482 786 Z " />
<glyph glyph-name="Eogonek" unicode="&#x118;" horiz-adv-x="642" d="M541 -133 L541 -183 Q530 -187 518.5 -188.5 Q507 -190 493 -190 Q455 -190 431.5 -169.5 Q408 -149 408 -113 Q408 -89 420 -64 Q432 -39 464 0 L93 0 L93 714 L575 714 L575 642 L178 642 L178 393 L531 393 L531 320 L178 320 L178 72 L576 72 L576 0 L521 0 Q487 -45 477 -64 Q467 -83 467 -101 Q467 -118 478 -127.5 Q489 -137 509 -137 Q518 -137 525.5 -136 Q533 -135 541 -133 Z " />
<glyph glyph-name="Gbreve" unicode="&#x11e;" horiz-adv-x="746" d="M376 -12 Q231 -12 140.5 90.5 Q50 193 50 358 Q50 522 142 624 Q234 726 380 726 Q494 726 566.5 668 Q639 610 659 506 L573 506 Q558 576 508 614.5 Q458 653 380 653 Q268 653 203 573.5 Q138 494 138 358 Q138 221 202 141 Q266 61 377 61 Q469 61 527.5 113.5 Q586 166 586 251 L586 288 L417 288 L417 356 L670 356 L670 0 L602 0 L594 119 Q574 63 511.5 25.5 Q449 -12 376 -12 Z M384 763 Q323 763 286 804.5 Q249 846 249 916 L311 916 Q311 873 330 849.5 Q349 826 384 826 Q419 826 438 849.5 Q457 873 457 916 L518 916 Q518 846 481.5 804.5 Q445 763 384 763 Z " />
<glyph glyph-name="Gcircumflex" unicode="&#x11c;" horiz-adv-x="746" d="M376 -12 Q231 -12 140.5 90.5 Q50 193 50 358 Q50 522 142 624 Q234 726 380 726 Q494 726 566.5 668 Q639 610 659 506 L573 506 Q558 576 508 614.5 Q458 653 380 653 Q268 653 203 573.5 Q138 494 138 358 Q138 221 202 141 Q266 61 377 61 Q469 61 527.5 113.5 Q586 166 586 251 L586 288 L417 288 L417 356 L670 356 L670 0 L602 0 L594 119 Q574 63 511.5 25.5 Q449 -12 376 -12 Z M247 765 L339 915 L430 915 L522 765 L470 765 L385 858 L300 765 L247 765 Z " />
<glyph glyph-name="Gcommaaccent" unicode="&#x122;" horiz-adv-x="746" d="M376 -12 Q231 -12 140.5 90.5 Q50 193 50 358 Q50 522 142 624 Q234 726 380 726 Q494 726 566.5 668 Q639 610 659 506 L573 506 Q558 576 508 614.5 Q458 653 380 653 Q268 653 203 573.5 Q138 494 138 358 Q138 221 202 141 Q266 61 377 61 Q469 61 527.5 113.5 Q586 166 586 251 L586 288 L417 288 L417 356 L670 356 L670 0 L602 0 L594 119 Q574 63 511.5 25.5 Q449 -12 376 -12 Z M379 -125 L334 -125 L334 -53 L434 -53 L434 -117 Q434 -171 408 -197.5 Q382 -224 330 -224 L330 -185 Q356 -185 367.5 -171 Q379 -157 379 -125 Z " />
<glyph glyph-name="Gdotaccent" unicode="&#x120;" horiz-adv-x="746" d="M376 -12 Q231 -12 140.5 90.5 Q50 193 50 358 Q50 522 142 624 Q234 726 380 726 Q494 726 566.5 668 Q639 610 659 506 L573 506 Q558 576 508 614.5 Q458 653 380 653 Q268 653 203 573.5 Q138 494 138 358 Q138 221 202 141 Q266 61 377 61 Q469 61 527.5 113.5 Q586 166 586 251 L586 288 L417 288 L417 356 L670 356 L670 0 L602 0 L594 119 Q574 63 511.5 25.5 Q449 -12 376 -12 Z M431 785 L337 785 L337 886 L431 886 L431 785 Z " />
<glyph glyph-name="Hbar" unicode="&#x126;" horiz-adv-x="803" d="M611 278 L193 278 L193 0 L107 0 L107 496 L26 496 L26 566 L107 566 L107 714 L193 714 L193 566 L611 566 L611 714 L697 714 L697 566 L777 566 L777 496 L697 496 L697 0 L611 0 L611 278 Z M193 496 L193 350 L611 350 L611 496 L193 496 Z " />
<glyph glyph-name="Hcircumflex" unicode="&#x124;" horiz-adv-x="776" d="M179 0 L93 0 L93 714 L179 714 L179 399 L597 399 L597 714 L683 714 L683 0 L597 0 L597 327 L179 327 L179 0 Z M251 765 L343 915 L434 915 L526 765 L474 765 L389 858 L304 765 L251 765 Z " />
<glyph glyph-name="Ibreve" unicode="&#x12c;" horiz-adv-x="273" d="M179 0 L93 0 L93 714 L179 714 L179 0 Z M137 763 Q76 763 39 804.5 Q2 846 2 916 L64 916 Q64 873 83 849.5 Q102 826 137 826 Q172 826 191 849.5 Q210 873 210 916 L271 916 Q271 846 234.5 804.5 Q198 763 137 763 Z " />
<glyph glyph-name="Idotaccent" unicode="&#x130;" horiz-adv-x="273" d="M179 0 L93 0 L93 714 L179 714 L179 0 Z M183 785 L89 785 L89 886 L183 886 L183 785 Z " />
<glyph glyph-name="Imacron" unicode="&#x12a;" horiz-adv-x="273" d="M179 0 L93 0 L93 714 L179 714 L179 0 Z M283 786 L-10 786 L-10 849 L283 849 L283 786 Z " />
<glyph glyph-name="Iogonek" unicode="&#x12e;" horiz-adv-x="273" d="M180 -133 L180 -183 Q169 -187 157.5 -188.5 Q146 -190 132 -190 Q94 -190 70 -169 Q46 -148 46 -113 Q46 -88 59.5 -62 Q73 -36 106 0 L93 0 L93 714 L179 714 L179 0 Q144 -24 125 -50 Q106 -76 106 -100 Q106 -117 117 -127 Q128 -137 148 -137 Q157 -137 164 -136 Q171 -135 180 -133 Z " />
<glyph glyph-name="Itilde" unicode="&#x128;" horiz-adv-x="273" d="M179 0 L93 0 L93 714 L179 714 L179 0 Z M123 813 Q100 832 89 837.5 Q78 843 68 843 Q48 843 37.5 825 Q27 807 25 771 L-28 771 Q-28 835 -4 872 Q20 909 63 909 Q81 909 99 900.5 Q117 892 149 867 Q172 848 183 842.5 Q194 837 203 837 Q223 837 234 855.5 Q245 874 246 910 L300 910 Q300 845 275.5 808 Q251 771 208 771 Q190 771 172 779 Q154 787 123 813 Z " />
<glyph glyph-name="Jcircumflex" unicode="&#x134;" horiz-adv-x="569" d="M246 56 Q322 56 361.5 106 Q401 156 401 252 L401 714 L487 714 L487 253 Q487 131 422.5 59.5 Q358 -12 246 -12 Q143 -12 79 47 Q15 106 12 206 L95 206 Q99 135 139 95.5 Q179 56 246 56 Z M303 765 L395 915 L486 915 L578 765 L526 765 L441 858 L356 765 L303 765 Z " />
<glyph glyph-name="Kcommaaccent" unicode="&#x136;" horiz-adv-x="708" d="M678 0 L574 0 L288 340 L179 229 L179 0 L93 0 L93 714 L179 714 L179 326 L555 714 L659 714 L348 400 L678 0 Z M345 -125 L300 -125 L300 -53 L400 -53 L400 -117 Q400 -171 374 -197.5 Q348 -224 296 -224 L296 -185 Q322 -185 333.5 -171 Q345 -157 345 -125 Z " />
<glyph glyph-name="Lacute" unicode="&#x139;" horiz-adv-x="621" d="M563 0 L93 0 L93 714 L179 714 L179 72 L563 72 L563 0 Z M280 915 L168 767 L117 767 L174 915 L280 915 Z " />
<glyph glyph-name="Lcaron" unicode="&#x13d;" horiz-adv-x="621" d="M563 0 L93 0 L93 714 L179 714 L179 72 L563 72 L563 0 Z M450 714 L370 506 L328 506 L354 714 L450 714 Z " />
<glyph glyph-name="Lcommaaccent" unicode="&#x13b;" horiz-adv-x="621" d="M563 0 L93 0 L93 714 L179 714 L179 72 L563 72 L563 0 Z M327 -125 L282 -125 L282 -53 L382 -53 L382 -117 Q382 -171 356 -197.5 Q330 -224 278 -224 L278 -185 Q304 -185 315.5 -171 Q327 -157 327 -125 Z " />
<glyph glyph-name="Ldot" unicode="&#x13f;" horiz-adv-x="621" d="M563 0 L93 0 L93 714 L179 714 L179 72 L563 72 L563 0 Z M493 338 L399 338 L399 439 L493 439 L493 338 Z " />
<glyph glyph-name="Nacute" unicode="&#x143;" horiz-adv-x="759" d="M93 714 L199 714 L580 144 L582 144 L582 714 L665 714 L665 0 L585 0 L179 609 L177 609 L177 0 L93 0 L93 714 Z M505 915 L393 767 L342 767 L399 915 L505 915 Z " />
<glyph glyph-name="Ncaron" unicode="&#x147;" horiz-adv-x="759" d="M93 714 L199 714 L580 144 L582 144 L582 714 L665 714 L665 0 L585 0 L179 609 L177 609 L177 0 L93 0 L93 714 Z M291 915 L376 822 L461 915 L513 915 L421 765 L330 765 L238 915 L291 915 Z " />
<glyph glyph-name="Ncommaaccent" unicode="&#x145;" horiz-adv-x="759" d="M93 714 L199 714 L580 144 L582 144 L582 714 L665 714 L665 0 L585 0 L179 609 L177 609 L177 0 L93 0 L93 714 Z M374 -125 L329 -125 L329 -53 L429 -53 L429 -117 Q429 -171 403 -197.5 Q377 -224 325 -224 L325 -185 Q351 -185 362.5 -171 Q374 -157 374 -125 Z " />
<glyph glyph-name="Eng" unicode="&#x14a;" horiz-adv-x="759" d="M530 -184 Q518 -184 507.5 -183 Q497 -182 488 -180 L488 -114 Q495 -116 501.5 -116.5 Q508 -117 515 -117 Q553 -117 567.5 -101.5 Q582 -86 582 -48 L582 5 L179 609 L177 609 L177 0 L93 0 L93 714 L199 714 L580 144 L582 144 L582 714 L665 714 L665 -45 Q665 -117 632 -150.5 Q599 -184 530 -184 Z " />
<glyph glyph-name="Obreve" unicode="&#x14e;" horiz-adv-x="750" d="M375 726 Q520 726 610 623.5 Q700 521 700 357 Q700 193 610.5 90.5 Q521 -12 375 -12 Q229 -12 139.5 90.5 Q50 193 50 357 Q50 521 140 623.5 Q230 726 375 726 Z M375 61 Q486 61 548.5 140 Q611 219 611 357 Q611 494 548.5 573.5 Q486 653 375 653 Q264 653 201 573.5 Q138 494 138 357 Q138 219 200.5 140 Q263 61 375 61 Z M375 763 Q314 763 277 804.5 Q240 846 240 916 L302 916 Q302 873 321 849.5 Q340 826 375 826 Q410 826 429 849.5 Q448 873 448 916 L509 916 Q509 846 472.5 804.5 Q436 763 375 763 Z " />
<glyph glyph-name="Ohungarumlaut" unicode="&#x150;" horiz-adv-x="750" d="M375 726 Q520 726 610 623.5 Q700 521 700 357 Q700 193 610.5 90.5 Q521 -12 375 -12 Q229 -12 139.5 90.5 Q50 193 50 357 Q50 521 140 623.5 Q230 726 375 726 Z M375 61 Q486 61 548.5 140 Q611 219 611 357 Q611 494 548.5 573.5 Q486 653 375 653 Q264 653 201 573.5 Q138 494 138 357 Q138 219 200.5 140 Q263 61 375 61 Z M465 767 L417 767 L474 915 L572 915 L465 767 Z M311 767 L262 767 L320 915 L417 915 L311 767 Z " />
<glyph glyph-name="Omacron" unicode="&#x14c;" horiz-adv-x="750" d="M375 726 Q520 726 610 623.5 Q700 521 700 357 Q700 193 610.5 90.5 Q521 -12 375 -12 Q229 -12 139.5 90.5 Q50 193 50 357 Q50 521 140 623.5 Q230 726 375 726 Z M375 61 Q486 61 548.5 140 Q611 219 611 357 Q611 494 548.5 573.5 Q486 653 375 653 Q264 653 201 573.5 Q138 494 138 357 Q138 219 200.5 140 Q263 61 375 61 Z M521 786 L228 786 L228 849 L521 849 L521 786 Z " />
<glyph glyph-name="Oslashacute" unicode="&#x1fe;" horiz-adv-x="750" d="M700 357 Q700 193 610.5 90.5 Q521 -12 375 -12 Q319 -12 269.5 4 Q220 20 180 52 L118 -30 L71 5 L138 93 Q95 143 72.5 210.5 Q50 278 50 357 Q50 521 140 623.5 Q230 726 375 726 Q431 726 481 709.5 Q531 693 571 661 L632 741 L678 706 L613 620 Q655 571 677.5 503.5 Q700 436 700 357 Z M375 653 Q264 653 201 573.5 Q138 494 138 357 Q138 297 150.5 246.5 Q163 196 188 158 L524 600 Q494 626 457 639.5 Q420 653 375 653 Z M375 61 Q486 61 548.5 140 Q611 219 611 357 Q611 417 598.5 467 Q586 517 562 554 L227 113 Q256 87 293.5 74 Q331 61 375 61 Z M509 915 L397 767 L346 767 L403 915 L509 915 Z " />
<glyph glyph-name="Racute" unicode="&#x154;" horiz-adv-x="689" d="M178 289 L178 0 L93 0 L93 714 L368 714 Q489 714 554 659 Q619 604 619 502 Q619 426 574 372.5 Q529 319 454 302 L650 0 L553 0 L368 289 L178 289 Z M178 642 L178 361 L363 361 Q445 361 488.5 397 Q532 433 532 502 Q532 569 488 605.5 Q444 642 363 642 L178 642 Z M463 915 L351 767 L300 767 L357 915 L463 915 Z " />
<glyph glyph-name="Rcaron" unicode="&#x158;" horiz-adv-x="689" d="M178 289 L178 0 L93 0 L93 714 L368 714 Q489 714 554 659 Q619 604 619 502 Q619 426 574 372.5 Q529 319 454 302 L650 0 L553 0 L368 289 L178 289 Z M178 642 L178 361 L363 361 Q445 361 488.5 397 Q532 433 532 502 Q532 569 488 605.5 Q444 642 363 642 L178 642 Z M249 915 L334 822 L419 915 L471 915 L379 765 L288 765 L196 915 L249 915 Z " />
<glyph glyph-name="Rcommaaccent" unicode="&#x156;" horiz-adv-x="689" d="M178 289 L178 0 L93 0 L93 714 L368 714 Q489 714 554 659 Q619 604 619 502 Q619 426 574 372.5 Q529 319 454 302 L650 0 L553 0 L368 289 L178 289 Z M178 642 L178 361 L363 361 Q445 361 488.5 397 Q532 433 532 502 Q532 569 488 605.5 Q444 642 363 642 L178 642 Z M337 -125 L292 -125 L292 -53 L392 -53 L392 -117 Q392 -171 366 -197.5 Q340 -224 288 -224 L288 -185 Q314 -185 325.5 -171 Q337 -157 337 -125 Z " />
<glyph glyph-name="Sacute" unicode="&#x15a;" horiz-adv-x="656" d="M342 -12 Q211 -12 132.5 46.5 Q54 105 47 211 L130 211 Q137 136 191.5 96.5 Q246 57 341 57 Q421 57 469.5 93.5 Q518 130 518 192 Q518 241 487 268.5 Q456 296 388 309 L252 336 Q159 353 114.5 399 Q70 445 70 521 Q70 610 140 668 Q210 726 319 726 Q437 726 507 675.5 Q577 625 587 531 L504 531 Q495 590 446 623.5 Q397 657 320 657 Q245 657 199.5 620 Q154 583 154 524 Q154 475 181.5 450 Q209 425 281 411 L421 382 Q514 363 557.5 318 Q601 273 601 196 Q601 105 528.5 46.5 Q456 -12 342 -12 Z M460 915 L348 767 L297 767 L354 915 L460 915 Z " />
<glyph glyph-name="Scedilla" unicode="&#x15e;" horiz-adv-x="656" d="M433 -109 Q433 -148 401 -171 Q369 -194 319 -194 Q296 -194 273.5 -189 Q251 -184 233 -175 L233 -126 Q254 -137 275 -142 Q296 -147 319 -147 Q345 -147 360 -138 Q375 -129 375 -113 Q375 -89 348 -82.5 Q321 -76 289 -87 L269 -66 L303 -11 Q188 -2 120.5 56 Q53 114 47 211 L130 211 Q137 136 191.5 96.5 Q246 57 341 57 Q421 57 469.5 93.5 Q518 130 518 192 Q518 241 487 268.5 Q456 296 388 309 L252 336 Q159 353 114.5 399 Q70 445 70 521 Q70 610 140 668 Q210 726 319 726 Q437 726 507 675.5 Q577 625 587 531 L504 531 Q495 590 446 623.5 Q397 657 320 657 Q245 657 199.5 620 Q154 583 154 524 Q154 475 181.5 450 Q209 425 281 411 L421 382 Q514 363 557.5 318 Q601 273 601 196 Q601 105 529 46.5 Q457 -12 345 -12 L327 -40 Q373 -36 403 -54.5 Q433 -73 433 -109 Z " />
<glyph glyph-name="Scircumflex" unicode="&#x15c;" horiz-adv-x="656" d="M342 -12 Q211 -12 132.5 46.5 Q54 105 47 211 L130 211 Q137 136 191.5 96.5 Q246 57 341 57 Q421 57 469.5 93.5 Q518 130 518 192 Q518 241 487 268.5 Q456 296 388 309 L252 336 Q159 353 114.5 399 Q70 445 70 521 Q70 610 140 668 Q210 726 319 726 Q437 726 507 675.5 Q577 625 587 531 L504 531 Q495 590 446 623.5 Q397 657 320 657 Q245 657 199.5 620 Q154 583 154 524 Q154 475 181.5 450 Q209 425 281 411 L421 382 Q514 363 557.5 318 Q601 273 601 196 Q601 105 528.5 46.5 Q456 -12 342 -12 Z M200 765 L292 915 L383 915 L475 765 L423 765 L338 858 L253 765 L200 765 Z " />
<glyph glyph-name="Scommaaccent" unicode="&#x218;" horiz-adv-x="656" d="M342 -12 Q211 -12 132.5 46.5 Q54 105 47 211 L130 211 Q137 136 191.5 96.5 Q246 57 341 57 Q421 57 469.5 93.5 Q518 130 518 192 Q518 241 487 268.5 Q456 296 388 309 L252 336 Q159 353 114.5 399 Q70 445 70 521 Q70 610 140 668 Q210 726 319 726 Q437 726 507 675.5 Q577 625 587 531 L504 531 Q495 590 446 623.5 Q397 657 320 657 Q245 657 199.5 620 Q154 583 154 524 Q154 475 181.5 450 Q209 425 281 411 L421 382 Q514 363 557.5 318 Q601 273 601 196 Q601 105 528.5 46.5 Q456 -12 342 -12 Z M326 -125 L281 -125 L281 -53 L381 -53 L381 -117 Q381 -171 355 -197.5 Q329 -224 277 -224 L277 -185 Q303 -185 314.5 -171 Q326 -157 326 -125 Z " />
<glyph glyph-name="Tbar" unicode="&#x166;" horiz-adv-x="699" d="M516 398 L516 327 L392 327 L392 0 L306 0 L306 327 L182 327 L182 398 L306 398 L306 642 L40 642 L40 714 L659 714 L659 642 L392 642 L392 398 L516 398 Z " />
<glyph glyph-name="Tcaron" unicode="&#x164;" horiz-adv-x="699" d="M392 0 L306 0 L306 642 L40 642 L40 714 L659 714 L659 642 L392 642 L392 0 Z M265 915 L350 822 L435 915 L487 915 L395 765 L304 765 L212 915 L265 915 Z " />
<glyph glyph-name="Tcommaaccent" unicode="&#x162;" horiz-adv-x="699" d="M437 -109 Q437 -148 405 -171 Q373 -194 323 -194 Q300 -194 277.5 -189 Q255 -184 237 -175 L237 -126 Q258 -137 279 -142 Q300 -147 323 -147 Q349 -147 364 -138 Q379 -129 379 -113 Q379 -89 352 -82.5 Q325 -76 293 -87 L273 -66 L314 0 L306 0 L306 642 L40 642 L40 714 L659 714 L659 642 L392 642 L392 0 L356 0 L331 -40 Q377 -36 407 -54.5 Q437 -73 437 -109 Z " />
<glyph glyph-name="uni021A" unicode="&#x21a;" horiz-adv-x="699" d="M392 0 L306 0 L306 642 L40 642 L40 714 L659 714 L659 642 L392 642 L392 0 Z M344 -125 L299 -125 L299 -53 L399 -53 L399 -117 Q399 -171 373 -197.5 Q347 -224 295 -224 L295 -185 Q321 -185 332.5 -171 Q344 -157 344 -125 Z " />
<glyph glyph-name="Ubreve" unicode="&#x16c;" horiz-adv-x="743" d="M660 714 L660 291 Q660 145 585 66.5 Q510 -12 371 -12 Q233 -12 157.5 67.5 Q82 147 82 293 L82 714 L168 714 L168 286 Q168 177 220.5 119 Q273 61 371 61 Q470 61 522 118.5 Q574 176 574 286 L574 714 L660 714 Z M372 763 Q311 763 274 804.5 Q237 846 237 916 L299 916 Q299 873 318 849.5 Q337 826 372 826 Q407 826 426 849.5 Q445 873 445 916 L506 916 Q506 846 469.5 804.5 Q433 763 372 763 Z " />
<glyph glyph-name="Uhungarumlaut" unicode="&#x170;" horiz-adv-x="743" d="M660 714 L660 291 Q660 145 585 66.5 Q510 -12 371 -12 Q233 -12 157.5 67.5 Q82 147 82 293 L82 714 L168 714 L168 286 Q168 177 220.5 119 Q273 61 371 61 Q470 61 522 118.5 Q574 176 574 286 L574 714 L660 714 Z M453 767 L405 767 L462 915 L560 915 L453 767 Z M299 767 L250 767 L308 915 L405 915 L299 767 Z " />
<glyph glyph-name="Umacron" unicode="&#x16a;" horiz-adv-x="743" d="M660 714 L660 291 Q660 145 585 66.5 Q510 -12 371 -12 Q233 -12 157.5 67.5 Q82 147 82 293 L82 714 L168 714 L168 286 Q168 177 220.5 119 Q273 61 371 61 Q470 61 522 118.5 Q574 176 574 286 L574 714 L660 714 Z M518 786 L225 786 L225 849 L518 849 L518 786 Z " />
<glyph glyph-name="Uogonek" unicode="&#x172;" horiz-adv-x="743" d="M519 -133 L519 -183 Q508 -187 496.5 -188.5 Q485 -190 471 -190 Q434 -190 409.5 -169 Q385 -148 385 -112 Q385 -86 396.5 -61 Q408 -36 433 -7 Q417 -9 401.5 -10.5 Q386 -12 371 -12 Q233 -12 157.5 67.5 Q82 147 82 293 L82 714 L168 714 L168 286 Q168 177 220.5 119 Q273 61 371 61 Q470 61 522 118.5 Q574 176 574 286 L574 714 L660 714 L660 291 Q660 189 622 118.5 Q584 48 511 15 Q480 -9 462.5 -40 Q445 -71 445 -100 Q445 -118 456 -127.5 Q467 -137 487 -137 Q496 -137 503.5 -136 Q511 -135 519 -133 Z " />
<glyph glyph-name="Uring" unicode="&#x16e;" horiz-adv-x="743" d="M660 714 L660 291 Q660 145 585 66.5 Q510 -12 371 -12 Q233 -12 157.5 67.5 Q82 147 82 293 L82 714 L168 714 L168 286 Q168 177 220.5 119 Q273 61 371 61 Q470 61 522 118.5 Q574 176 574 286 L574 714 L660 714 Z M493 840 Q493 789 457.5 753 Q422 717 372 717 Q322 717 286 753.5 Q250 790 250 840 Q250 890 286 926.5 Q322 963 372 963 Q422 963 457.5 927 Q493 891 493 840 Z M440 840 Q440 869 420 889 Q400 909 372 909 Q343 909 322.5 888.5 Q302 868 302 840 Q302 812 323 791 Q344 770 372 770 Q400 770 420 790.5 Q440 811 440 840 Z " />
<glyph glyph-name="Utilde" unicode="&#x168;" horiz-adv-x="743" d="M660 714 L660 291 Q660 145 585 66.5 Q510 -12 371 -12 Q233 -12 157.5 67.5 Q82 147 82 293 L82 714 L168 714 L168 286 Q168 177 220.5 119 Q273 61 371 61 Q470 61 522 118.5 Q574 176 574 286 L574 714 L660 714 Z M359 813 Q336 832 325 837.5 Q314 843 304 843 Q284 843 273.5 825 Q263 807 261 771 L208 771 Q208 835 232 872 Q256 909 299 909 Q317 909 335 900.5 Q353 892 385 867 Q408 848 419 842.5 Q430 837 439 837 Q459 837 470 855.5 Q481 874 482 910 L536 910 Q536 845 511.5 808 Q487 771 444 771 Q426 771 408 779 Q390 787 359 813 Z " />
<glyph glyph-name="Wacute" unicode="&#x1e82;" horiz-adv-x="972" d="M746 0 L648 0 L487 600 L485 600 L323 0 L226 0 L25 714 L116 714 L280 107 L282 107 L443 714 L534 714 L696 107 L698 107 L861 714 L947 714 L746 0 Z M628 915 L516 767 L465 767 L522 915 L628 915 Z " />
<glyph glyph-name="Wcircumflex" unicode="&#x174;" horiz-adv-x="972" d="M746 0 L648 0 L487 600 L485 600 L323 0 L226 0 L25 714 L116 714 L280 107 L282 107 L443 714 L534 714 L696 107 L698 107 L861 714 L947 714 L746 0 Z M349 765 L441 915 L532 915 L624 765 L572 765 L487 858 L402 765 L349 765 Z " />
<glyph glyph-name="Wgrave" unicode="&#x1e80;" horiz-adv-x="972" d="M746 0 L648 0 L487 600 L485 600 L323 0 L226 0 L25 714 L116 714 L280 107 L282 107 L443 714 L534 714 L696 107 L698 107 L861 714 L947 714 L746 0 Z M465 915 L522 767 L471 767 L359 915 L465 915 Z " />
<glyph glyph-name="Wdieresis" unicode="&#x1e84;" horiz-adv-x="972" d="M746 0 L648 0 L487 600 L485 600 L323 0 L226 0 L25 714 L116 714 L280 107 L282 107 L443 714 L534 714 L696 107 L698 107 L861 714 L947 714 L746 0 Z M620 785 L535 785 L535 886 L620 886 L620 785 Z M437 785 L353 785 L353 886 L437 886 L437 785 Z " />
<glyph glyph-name="Ycircumflex" unicode="&#x176;" horiz-adv-x="664" d="M375 296 L375 0 L289 0 L289 296 L17 714 L112 714 L335 373 L337 373 L553 714 L648 714 L375 296 Z M195 765 L287 915 L378 915 L470 765 L418 765 L333 858 L248 765 L195 765 Z " />
<glyph glyph-name="Ygrave" unicode="&#x1ef2;" horiz-adv-x="664" d="M375 296 L375 0 L289 0 L289 296 L17 714 L112 714 L335 373 L337 373 L553 714 L648 714 L375 296 Z M307 915 L364 767 L313 767 L201 915 L307 915 Z " />
<glyph glyph-name="Zacute" unicode="&#x179;" horiz-adv-x="666" d="M607 714 L607 646 L163 72 L610 72 L610 0 L53 0 L53 61 L499 642 L68 642 L68 714 L607 714 Z M462 915 L350 767 L299 767 L356 915 L462 915 Z " />
<glyph glyph-name="Zdotaccent" unicode="&#x17b;" horiz-adv-x="666" d="M607 714 L607 646 L163 72 L610 72 L610 0 L53 0 L53 61 L499 642 L68 642 L68 714 L607 714 Z M380 785 L286 785 L286 886 L380 886 L380 785 Z " />
<glyph glyph-name="abreve" unicode="&#x103;" horiz-adv-x="552" d="M480 0 L397 0 Q393 20 390.5 42.5 Q388 65 388 85 Q372 41 324.5 15 Q277 -11 213 -11 Q141 -11 95.5 28.5 Q50 68 50 133 Q50 198 93.5 236 Q137 274 224 284 L386 305 L386 334 Q386 389 355.5 418.5 Q325 448 268 448 Q218 448 188 423.5 Q158 399 153 355 L73 355 Q80 429 133.5 472 Q187 515 270 515 Q366 515 417 469 Q468 423 468 336 L468 105 Q468 70 471 45.5 Q474 21 480 0 Z M134 135 Q134 97 160 74.5 Q186 52 230 52 Q297 52 341.5 92.5 Q386 133 386 198 L386 243 L249 228 Q184 219 159 197 Q134 175 134 135 Z M274 584 Q213 584 176 625 Q139 666 139 736 L197 736 Q199 691 218.5 667 Q238 643 274 643 Q310 643 329 666.5 Q348 690 350 736 L408 736 Q408 666 371.5 625 Q335 584 274 584 Z " />
<glyph glyph-name="amacron" unicode="&#x101;" horiz-adv-x="552" d="M480 0 L397 0 Q393 20 390.5 42.5 Q388 65 388 85 Q372 41 324.5 15 Q277 -11 213 -11 Q141 -11 95.5 28.5 Q50 68 50 133 Q50 198 93.5 236 Q137 274 224 284 L386 305 L386 334 Q386 389 355.5 418.5 Q325 448 268 448 Q218 448 188 423.5 Q158 399 153 355 L73 355 Q80 429 133.5 472 Q187 515 270 515 Q366 515 417 469 Q468 423 468 336 L468 105 Q468 70 471 45.5 Q474 21 480 0 Z M134 135 Q134 97 160 74.5 Q186 52 230 52 Q297 52 341.5 92.5 Q386 133 386 198 L386 243 L249 228 Q184 219 159 197 Q134 175 134 135 Z M416 608 L131 608 L131 670 L416 670 L416 608 Z " />
<glyph glyph-name="aogonek" unicode="&#x105;" horiz-adv-x="552" d="M465 -133 L465 -183 Q454 -187 442.5 -188.5 Q431 -190 417 -190 Q379 -190 355.5 -169.5 Q332 -149 332 -113 Q332 -88 345 -62 Q358 -36 395 9 Q392 26 390 46.5 Q388 67 388 85 Q372 41 324.5 15 Q277 -11 213 -11 Q141 -11 95.5 28.5 Q50 68 50 133 Q50 198 93.5 236 Q137 274 224 284 L386 305 L386 334 Q386 389 355.5 418.5 Q325 448 268 448 Q218 448 188 423.5 Q158 399 153 355 L73 355 Q80 429 133.5 472 Q187 515 270 515 Q366 515 417 469 Q468 423 468 336 L468 105 Q468 70 471 45.5 Q474 21 480 0 L445 0 Q411 -45 401 -64 Q391 -83 391 -101 Q391 -118 402 -127.5 Q413 -137 433 -137 Q442 -137 449.5 -136 Q457 -135 465 -133 Z M134 135 Q134 97 160 74.5 Q186 52 230 52 Q297 52 341.5 92.5 Q386 133 386 198 L386 243 L249 228 Q184 219 159 197 Q134 175 134 135 Z " />
<glyph glyph-name="aeacute" unicode="&#x1fd;" horiz-adv-x="886" d="M753 148 L830 148 Q815 73 758.5 30.5 Q702 -12 622 -12 Q557 -12 505 15.5 Q453 43 422 93 Q389 42 339 15.5 Q289 -11 224 -11 Q147 -11 98.5 29 Q50 69 50 136 Q50 209 106 248.5 Q162 288 262 288 L386 288 L386 335 Q386 390 355.5 419.5 Q325 449 269 449 Q218 449 188 424.5 Q158 400 153 355 L73 355 Q80 429 133 472.5 Q186 516 269 516 Q329 516 372.5 493 Q416 470 438 426 Q471 469 517.5 492.5 Q564 516 617 516 Q717 516 775.5 446.5 Q834 377 834 264 L834 233 L461 233 Q465 148 507.5 101 Q550 54 622 54 Q671 54 703.5 77 Q736 100 753 148 Z M617 450 Q553 450 512.5 407.5 Q472 365 463 288 L753 288 Q751 363 715 406.5 Q679 450 617 450 Z M134 139 Q134 100 161 76.5 Q188 53 235 53 Q303 53 344.5 92 Q386 131 386 198 L386 233 L263 233 Q200 233 167 209 Q134 185 134 139 Z M565 736 L455 580 L403 580 L459 736 L565 736 Z " />
<glyph glyph-name="cacute" unicode="&#x107;" horiz-adv-x="539" d="M289 -12 Q182 -12 117 60 Q52 132 52 251 Q52 370 117.5 442.5 Q183 515 289 515 Q372 515 425.5 470 Q479 425 491 344 L412 344 Q401 395 370 421.5 Q339 448 289 448 Q217 448 175.5 395 Q134 342 134 251 Q134 160 175.5 107.5 Q217 55 289 55 Q339 55 370 81.5 Q401 108 412 159 L491 159 Q479 78 426 33 Q373 -12 289 -12 Z M423 736 L313 580 L261 580 L317 736 L423 736 Z " />
<glyph glyph-name="ccaron" unicode="&#x10d;" horiz-adv-x="539" d="M289 -12 Q182 -12 117 60 Q52 132 52 251 Q52 370 117.5 442.5 Q183 515 289 515 Q372 515 425.5 470 Q479 425 491 344 L412 344 Q401 395 370 421.5 Q339 448 289 448 Q217 448 175.5 395 Q134 342 134 251 Q134 160 175.5 107.5 Q217 55 289 55 Q339 55 370 81.5 Q401 108 412 159 L491 159 Q479 78 426 33 Q373 -12 289 -12 Z M205 736 L290 632 L375 736 L427 736 L333 578 L246 578 L152 736 L205 736 Z " />
<glyph glyph-name="ccircumflex" unicode="&#x109;" horiz-adv-x="539" d="M289 -12 Q182 -12 117 60 Q52 132 52 251 Q52 370 117.5 442.5 Q183 515 289 515 Q372 515 425.5 470 Q479 425 491 344 L412 344 Q401 395 370 421.5 Q339 448 289 448 Q217 448 175.5 395 Q134 342 134 251 Q134 160 175.5 107.5 Q217 55 289 55 Q339 55 370 81.5 Q401 108 412 159 L491 159 Q479 78 426 33 Q373 -12 289 -12 Z M152 578 L246 736 L333 736 L427 578 L375 578 L290 682 L205 578 L152 578 Z " />
<glyph glyph-name="cdotaccent" unicode="&#x10b;" horiz-adv-x="539" d="M289 -12 Q182 -12 117 60 Q52 132 52 251 Q52 370 117.5 442.5 Q183 515 289 515 Q372 515 425.5 470 Q479 425 491 344 L412 344 Q401 395 370 421.5 Q339 448 289 448 Q217 448 175.5 395 Q134 342 134 251 Q134 160 175.5 107.5 Q217 55 289 55 Q339 55 370 81.5 Q401 108 412 159 L491 159 Q479 78 426 33 Q373 -12 289 -12 Z M337 608 L243 608 L243 709 L337 709 L337 608 Z " />
<glyph glyph-name="dcaron" unicode="&#x10f;" horiz-adv-x="620" d="M276 -12 Q178 -12 115 61 Q52 134 52 251 Q52 368 114.5 441.5 Q177 515 276 515 Q333 515 377.5 487.5 Q422 460 443 414 L443 736 L526 736 L526 0 L446 0 L446 88 Q424 44 378 16 Q332 -12 276 -12 Z M293 450 Q221 450 178.5 396 Q136 342 136 251 Q136 161 178.5 107 Q221 53 293 53 Q364 53 405.5 105 Q447 157 447 245 L447 259 Q447 347 405.5 398.5 Q364 450 293 450 Z M726 736 L646 528 L604 528 L630 736 L726 736 Z " />
<glyph glyph-name="dcroat" unicode="&#x111;" horiz-adv-x="627" d="M446 0 L446 88 Q424 44 378 16 Q332 -12 276 -12 Q178 -12 115 61 Q52 134 52 251 Q52 368 114.5 441.5 Q177 515 276 515 Q333 515 377.5 487.5 Q422 460 443 414 L443 588 L317 588 L317 644 L443 644 L443 736 L526 736 L526 644 L606 644 L606 588 L526 588 L526 0 L446 0 Z M293 53 Q364 53 405.5 105 Q447 157 447 245 L447 259 Q447 347 405.5 398.5 Q364 450 293 450 Q221 450 178.5 396 Q136 342 136 251 Q136 161 178.5 107 Q221 53 293 53 Z " />
<glyph glyph-name="ebreve" unicode="&#x115;" horiz-adv-x="557" d="M424 148 L502 148 Q486 73 430 30.5 Q374 -12 294 -12 Q185 -12 118.5 59 Q52 130 52 249 Q52 368 118.5 441.5 Q185 515 289 515 Q389 515 447 446.5 Q505 378 505 267 L505 234 L133 234 Q136 148 178.5 101 Q221 54 294 54 Q343 54 375.5 77.5 Q408 101 424 148 Z M289 448 Q226 448 186 407.5 Q146 367 136 294 L424 294 Q422 366 386.5 407 Q351 448 289 448 Z M288 584 Q227 584 190 625 Q153 666 153 736 L211 736 Q213 691 232.5 667 Q252 643 288 643 Q324 643 343 666.5 Q362 690 364 736 L422 736 Q422 666 385.5 625 Q349 584 288 584 Z " />
<glyph glyph-name="ecaron" unicode="&#x11b;" horiz-adv-x="557" d="M424 148 L502 148 Q486 73 430 30.5 Q374 -12 294 -12 Q185 -12 118.5 59 Q52 130 52 249 Q52 368 118.5 441.5 Q185 515 289 515 Q389 515 447 446.5 Q505 378 505 267 L505 234 L133 234 Q136 148 178.5 101 Q221 54 294 54 Q343 54 375.5 77.5 Q408 101 424 148 Z M289 448 Q226 448 186 407.5 Q146 367 136 294 L424 294 Q422 366 386.5 407 Q351 448 289 448 Z M205 736 L290 632 L375 736 L427 736 L333 578 L246 578 L152 736 L205 736 Z " />
<glyph glyph-name="edotaccent" unicode="&#x117;" horiz-adv-x="557" d="M424 148 L502 148 Q486 73 430 30.5 Q374 -12 294 -12 Q185 -12 118.5 59 Q52 130 52 249 Q52 368 118.5 441.5 Q185 515 289 515 Q389 515 447 446.5 Q505 378 505 267 L505 234 L133 234 Q136 148 178.5 101 Q221 54 294 54 Q343 54 375.5 77.5 Q408 101 424 148 Z M289 448 Q226 448 186 407.5 Q146 367 136 294 L424 294 Q422 366 386.5 407 Q351 448 289 448 Z M337 608 L243 608 L243 709 L337 709 L337 608 Z " />
<glyph glyph-name="emacron" unicode="&#x113;" horiz-adv-x="557" d="M424 148 L502 148 Q486 73 430 30.5 Q374 -12 294 -12 Q185 -12 118.5 59 Q52 130 52 249 Q52 368 118.5 441.5 Q185 515 289 515 Q389 515 447 446.5 Q505 378 505 267 L505 234 L133 234 Q136 148 178.5 101 Q221 54 294 54 Q343 54 375.5 77.5 Q408 101 424 148 Z M289 448 Q226 448 186 407.5 Q146 367 136 294 L424 294 Q422 366 386.5 407 Q351 448 289 448 Z M432 608 L147 608 L147 670 L432 670 L432 608 Z " />
<glyph glyph-name="eogonek" unicode="&#x119;" horiz-adv-x="557" d="M413 -133 L413 -184 Q403 -187 392.5 -188.5 Q382 -190 365 -190 Q327 -190 303 -169 Q279 -148 279 -113 Q279 -89 291 -63.5 Q303 -38 327 -10 Q313 -11 306.5 -11.5 Q300 -12 294 -12 Q185 -12 118.5 59 Q52 130 52 249 Q52 368 118.5 441.5 Q185 515 289 515 Q389 515 447 446.5 Q505 378 505 267 L505 234 L133 234 Q136 148 178.5 101 Q221 54 294 54 Q343 54 375.5 77.5 Q408 101 424 148 L502 148 Q494 111 472 79.5 Q450 48 403 9 Q372 -16 355.5 -44 Q339 -72 339 -99 Q339 -117 350 -127 Q361 -137 381 -137 Q390 -137 397.5 -136 Q405 -135 413 -133 Z M289 448 Q226 448 186 407.5 Q146 367 136 294 L424 294 Q422 366 386.5 407 Q351 448 289 448 Z " />
<glyph glyph-name="gbreve" unicode="&#x11f;" horiz-adv-x="614" d="M286 -126 Q362 -126 401.5 -85.5 Q441 -45 441 32 L441 106 Q420 62 375.5 35.5 Q331 9 274 9 Q174 9 112.5 78.5 Q51 148 51 263 Q51 375 113.5 445 Q176 515 274 515 Q330 515 376 487.5 Q422 460 444 415 L444 503 L525 503 L525 38 Q525 -71 462 -130.5 Q399 -190 287 -190 Q194 -190 136.5 -152 Q79 -114 64 -43 L148 -43 Q159 -85 193 -105.5 Q227 -126 286 -126 Z M289 75 Q359 75 403 124 Q447 173 447 251 L447 275 Q447 353 403 401.5 Q359 450 289 450 Q217 450 175 399.5 Q133 349 133 263 Q133 177 175 126 Q217 75 289 75 Z M297 584 Q236 584 199 625 Q162 666 162 736 L220 736 Q222 691 241.5 667 Q261 643 297 643 Q333 643 352 666.5 Q371 690 373 736 L431 736 Q431 666 394.5 625 Q358 584 297 584 Z " />
<glyph glyph-name="gcircumflex" unicode="&#x11d;" horiz-adv-x="614" d="M286 -126 Q362 -126 401.5 -85.5 Q441 -45 441 32 L441 106 Q420 62 375.5 35.5 Q331 9 274 9 Q174 9 112.5 78.5 Q51 148 51 263 Q51 375 113.5 445 Q176 515 274 515 Q330 515 376 487.5 Q422 460 444 415 L444 503 L525 503 L525 38 Q525 -71 462 -130.5 Q399 -190 287 -190 Q194 -190 136.5 -152 Q79 -114 64 -43 L148 -43 Q159 -85 193 -105.5 Q227 -126 286 -126 Z M289 75 Q359 75 403 124 Q447 173 447 251 L447 275 Q447 353 403 401.5 Q359 450 289 450 Q217 450 175 399.5 Q133 349 133 263 Q133 177 175 126 Q217 75 289 75 Z M159 578 L253 736 L340 736 L434 578 L382 578 L297 682 L212 578 L159 578 Z " />
<glyph glyph-name="gcommaaccent" unicode="&#x123;" horiz-adv-x="614" d="M286 -126 Q362 -126 401.5 -85.5 Q441 -45 441 32 L441 106 Q420 62 375.5 35.5 Q331 9 274 9 Q174 9 112.5 78.5 Q51 148 51 263 Q51 375 113.5 445 Q176 515 274 515 Q330 515 376 487.5 Q422 460 444 415 L444 503 L525 503 L525 38 Q525 -71 462 -130.5 Q399 -190 287 -190 Q194 -190 136.5 -152 Q79 -114 64 -43 L148 -43 Q159 -85 193 -105.5 Q227 -126 286 -126 Z M289 75 Q359 75 403 124 Q447 173 447 251 L447 275 Q447 353 403 401.5 Q359 450 289 450 Q217 450 175 399.5 Q133 349 133 263 Q133 177 175 126 Q217 75 289 75 Z M298 656 L343 656 L343 584 L243 584 L243 648 Q243 702 269 728.5 Q295 755 347 755 L347 716 Q321 716 309.5 702 Q298 688 298 656 Z " />
<glyph glyph-name="gdotaccent" unicode="&#x121;" horiz-adv-x="614" d="M286 -126 Q362 -126 401.5 -85.5 Q441 -45 441 32 L441 106 Q420 62 375.5 35.5 Q331 9 274 9 Q174 9 112.5 78.5 Q51 148 51 263 Q51 375 113.5 445 Q176 515 274 515 Q330 515 376 487.5 Q422 460 444 415 L444 503 L525 503 L525 38 Q525 -71 462 -130.5 Q399 -190 287 -190 Q194 -190 136.5 -152 Q79 -114 64 -43 L148 -43 Q159 -85 193 -105.5 Q227 -126 286 -126 Z M289 75 Q359 75 403 124 Q447 173 447 251 L447 275 Q447 353 403 401.5 Q359 450 289 450 Q217 450 175 399.5 Q133 349 133 263 Q133 177 175 126 Q217 75 289 75 Z M343 608 L249 608 L249 709 L343 709 L343 608 Z " />
<glyph glyph-name="hbar" unicode="&#x127;" horiz-adv-x="609" d="M322 447 Q257 447 220.5 403 Q184 359 184 277 L184 0 L101 0 L101 588 L21 588 L21 643 L101 643 L101 736 L184 736 L184 643 L310 643 L310 588 L184 588 L184 411 Q202 460 245 487.5 Q288 515 345 515 Q430 515 477.5 464.5 Q525 414 525 324 L525 0 L442 0 L442 306 Q442 376 411.5 411.5 Q381 447 322 447 Z " />
<glyph glyph-name="hcircumflex" unicode="&#x125;" horiz-adv-x="597" d="M172 736 L172 411 Q190 460 233 487.5 Q276 515 333 515 Q418 515 465.5 464.5 Q513 414 513 324 L513 0 L430 0 L430 306 Q430 376 399.5 411.5 Q369 447 310 447 Q245 447 208.5 403 Q172 359 172 277 L172 0 L89 0 L89 736 L172 736 Z M166 768 L258 918 L349 918 L441 768 L389 768 L304 861 L219 768 L166 768 Z " />
<glyph glyph-name="ibreve" unicode="&#x12d;" horiz-adv-x="261" d="M89 0 L89 503 L172 503 L172 0 L89 0 Z M131 584 Q70 584 33 625 Q-4 666 -4 736 L54 736 Q56 691 75.5 667 Q95 643 131 643 Q167 643 186 666.5 Q205 690 207 736 L265 736 Q265 666 228.5 625 Q192 584 131 584 Z " />
<glyph glyph-name="imacron" unicode="&#x12b;" horiz-adv-x="261" d="M254 608 L8 608 L8 670 L254 670 L254 608 Z M89 0 L89 503 L172 503 L172 0 L89 0 Z " />
<glyph glyph-name="iogonek" unicode="&#x12f;" horiz-adv-x="261" d="M177 608 L83 608 L83 709 L177 709 L177 608 Z M128 -190 Q91 -190 67 -169 Q43 -148 43 -113 Q43 -86 56.5 -59.5 Q70 -33 101 0 L89 0 L89 503 L172 503 L172 0 Q138 -23 120.5 -48.5 Q103 -74 103 -100 Q103 -117 114 -127 Q125 -137 145 -137 Q154 -137 161 -136 Q168 -135 177 -133 L177 -183 Q166 -187 154 -188.5 Q142 -190 128 -190 Z " />
<glyph glyph-name="itilde" unicode="&#x129;" horiz-adv-x="261" d="M118 630 Q103 650 95 655.5 Q87 661 79 661 Q59 661 48.5 642.5 Q38 624 36 585 L-17 585 Q-17 650 7 686.5 Q31 723 74 723 Q92 723 107 714 Q122 705 143 678 Q158 659 166 653.5 Q174 648 182 648 Q203 648 213.5 667 Q224 686 225 723 L279 723 Q279 659 254.5 622 Q230 585 187 585 Q169 585 154 594 Q139 603 118 630 Z M89 0 L89 503 L172 503 L172 0 L89 0 Z " />
<glyph glyph-name="uni0237" unicode="&#x237;" horiz-adv-x="261" d="M37 -184 Q25 -184 14.5 -183 Q4 -182 -6 -180 L-6 -114 Q1 -116 7.5 -116.5 Q14 -117 21 -117 Q59 -117 74 -101.5 Q89 -86 89 -48 L89 503 L172 503 L172 -45 Q172 -116 139 -150 Q106 -184 37 -184 Z " />
<glyph glyph-name="jcircumflex" unicode="&#x135;" horiz-adv-x="261" d="M37 -184 Q25 -184 14.5 -183 Q4 -182 -6 -180 L-6 -114 Q1 -116 7.5 -116.5 Q14 -117 21 -117 Q59 -117 74 -101.5 Q89 -86 89 -48 L89 503 L172 503 L172 -45 Q172 -116 139 -150 Q106 -184 37 -184 Z M-8 578 L86 736 L173 736 L267 578 L215 578 L130 682 L45 578 L-8 578 Z " />
<glyph glyph-name="kcommaaccent" unicode="&#x137;" horiz-adv-x="558" d="M528 0 L428 0 L237 237 L172 174 L172 0 L89 0 L89 736 L172 736 L172 262 L420 503 L519 503 L297 290 L528 0 Z M300 -125 L255 -125 L255 -53 L355 -53 L355 -117 Q355 -171 329 -197.5 Q303 -224 251 -224 L251 -185 Q277 -185 288.5 -171 Q300 -157 300 -125 Z " />
<glyph glyph-name="kgreenlandic" unicode="&#x138;" horiz-adv-x="558" d="M528 0 L428 0 L237 237 L172 174 L172 0 L89 0 L89 503 L172 503 L172 262 L420 503 L519 503 L297 290 L528 0 Z " />
<glyph glyph-name="lacute" unicode="&#x13a;" horiz-adv-x="261" d="M172 736 L172 0 L89 0 L89 736 L172 736 Z M275 918 L163 770 L112 770 L169 918 L275 918 Z " />
<glyph glyph-name="lcaron" unicode="&#x13e;" horiz-adv-x="267" d="M172 736 L172 0 L89 0 L89 736 L172 736 Z M372 736 L292 528 L250 528 L276 736 L372 736 Z " />
<glyph glyph-name="lcommaaccent" unicode="&#x13c;" horiz-adv-x="261" d="M172 736 L172 0 L89 0 L89 736 L172 736 Z M128 -125 L83 -125 L83 -53 L183 -53 L183 -117 Q183 -171 157 -197.5 Q131 -224 79 -224 L79 -185 Q105 -185 116.5 -171 Q128 -157 128 -125 Z " />
<glyph glyph-name="ldot" unicode="&#x140;" horiz-adv-x="421" d="M172 736 L172 0 L89 0 L89 736 L172 736 Z M382 294 L288 294 L288 395 L382 395 L382 294 Z " />
<glyph glyph-name="nacute" unicode="&#x144;" horiz-adv-x="597" d="M89 503 L169 503 L169 411 Q187 458 231.5 486.5 Q276 515 333 515 Q418 515 465.5 464.5 Q513 414 513 324 L513 0 L430 0 L430 306 Q430 376 399.5 411.5 Q369 447 310 447 Q245 447 208.5 403 Q172 359 172 277 L172 0 L89 0 L89 503 Z M433 736 L323 580 L271 580 L327 736 L433 736 Z " />
<glyph glyph-name="ncaron" unicode="&#x148;" horiz-adv-x="597" d="M89 503 L169 503 L169 411 Q187 458 231.5 486.5 Q276 515 333 515 Q418 515 465.5 464.5 Q513 414 513 324 L513 0 L430 0 L430 306 Q430 376 399.5 411.5 Q369 447 310 447 Q245 447 208.5 403 Q172 359 172 277 L172 0 L89 0 L89 503 Z M219 736 L304 632 L389 736 L441 736 L347 578 L260 578 L166 736 L219 736 Z " />
<glyph glyph-name="ncommaaccent" unicode="&#x146;" horiz-adv-x="597" d="M89 503 L169 503 L169 411 Q187 458 231.5 486.5 Q276 515 333 515 Q418 515 465.5 464.5 Q513 414 513 324 L513 0 L430 0 L430 306 Q430 376 399.5 411.5 Q369 447 310 447 Q245 447 208.5 403 Q172 359 172 277 L172 0 L89 0 L89 503 Z M302 -125 L257 -125 L257 -53 L357 -53 L357 -117 Q357 -171 331 -197.5 Q305 -224 253 -224 L253 -185 Q279 -185 290.5 -171 Q302 -157 302 -125 Z " />
<glyph glyph-name="eng" unicode="&#x14b;" horiz-adv-x="597" d="M378 -184 Q366 -184 356 -183 Q346 -182 336 -180 L336 -114 Q342 -116 348.5 -116.5 Q355 -117 363 -117 Q401 -117 415.5 -101.5 Q430 -86 430 -48 L430 306 Q430 376 399.5 411.5 Q369 447 310 447 Q245 447 208.5 403 Q172 359 172 277 L172 0 L89 0 L89 503 L169 503 L169 411 Q187 458 231.5 486.5 Q276 515 333 515 Q418 515 465.5 464.5 Q513 414 513 324 L513 -45 Q513 -116 480 -150 Q447 -184 378 -184 Z " />
<glyph glyph-name="obreve" unicode="&#x14f;" horiz-adv-x="582" d="M291 515 Q398 515 464 442.5 Q530 370 530 251 Q530 132 464 60 Q398 -12 291 -12 Q184 -12 118 60 Q52 132 52 251 Q52 370 118 442.5 Q184 515 291 515 Z M291 448 Q218 448 176 395 Q134 342 134 251 Q134 160 176 107.5 Q218 55 291 55 Q364 55 406 107.5 Q448 160 448 251 Q448 342 406 395 Q364 448 291 448 Z M292 584 Q231 584 194 625 Q157 666 157 736 L215 736 Q217 691 236.5 667 Q256 643 292 643 Q328 643 347 666.5 Q366 690 368 736 L426 736 Q426 666 389.5 625 Q353 584 292 584 Z " />
<glyph glyph-name="ohungarumlaut" unicode="&#x151;" horiz-adv-x="582" d="M291 515 Q398 515 464 442.5 Q530 370 530 251 Q530 132 464 60 Q398 -12 291 -12 Q184 -12 118 60 Q52 132 52 251 Q52 370 118 442.5 Q184 515 291 515 Z M291 448 Q218 448 176 395 Q134 342 134 251 Q134 160 176 107.5 Q218 55 291 55 Q364 55 406 107.5 Q448 160 448 251 Q448 342 406 395 Q364 448 291 448 Z M388 580 L340 580 L397 736 L495 736 L388 580 Z M234 580 L185 580 L243 736 L340 736 L234 580 Z " />
<glyph glyph-name="omacron" unicode="&#x14d;" horiz-adv-x="582" d="M291 515 Q398 515 464 442.5 Q530 370 530 251 Q530 132 464 60 Q398 -12 291 -12 Q184 -12 118 60 Q52 132 52 251 Q52 370 118 442.5 Q184 515 291 515 Z M291 448 Q218 448 176 395 Q134 342 134 251 Q134 160 176 107.5 Q218 55 291 55 Q364 55 406 107.5 Q448 160 448 251 Q448 342 406 395 Q364 448 291 448 Z M433 608 L148 608 L148 670 L433 670 L433 608 Z " />
<glyph glyph-name="oslashacute" unicode="&#x1ff;" horiz-adv-x="582" d="M530 251 Q530 132 464 60 Q398 -12 291 -12 Q251 -12 216 -1 Q181 10 151 31 L100 -34 L60 -2 L113 65 Q83 101 67.5 148.5 Q52 196 52 251 Q52 370 118 442.5 Q184 515 291 515 Q332 515 368 503.5 Q404 492 434 470 L482 531 L521 499 L470 435 Q499 400 514.5 353 Q530 306 530 251 Z M291 449 Q217 449 175 396 Q133 343 133 251 Q133 214 140 182.5 Q147 151 161 126 L390 414 Q370 431 345.5 440 Q321 449 291 449 Z M291 53 Q365 53 407 106 Q449 159 449 251 Q449 288 442 318.5 Q435 349 422 373 L195 86 Q214 70 238.5 61.5 Q263 53 291 53 Z M425 736 L315 580 L263 580 L319 736 L425 736 Z " />
<glyph glyph-name="racute" unicode="&#x155;" horiz-adv-x="385" d="M329 514 Q340 514 350 513 Q360 512 368 510 L368 434 Q360 436 348.5 437 Q337 438 325 438 Q258 438 215 386.5 Q172 335 172 248 L172 0 L89 0 L89 503 L169 503 L169 384 Q185 444 228 479 Q271 514 329 514 Z M349 736 L239 580 L187 580 L243 736 L349 736 Z " />
<glyph glyph-name="rcaron" unicode="&#x159;" horiz-adv-x="385" d="M329 514 Q340 514 350 513 Q360 512 368 510 L368 434 Q360 436 348.5 437 Q337 438 325 438 Q258 438 215 386.5 Q172 335 172 248 L172 0 L89 0 L89 503 L169 503 L169 384 Q185 444 228 479 Q271 514 329 514 Z M137 736 L222 632 L307 736 L359 736 L265 578 L178 578 L84 736 L137 736 Z " />
<glyph glyph-name="rcommaaccent" unicode="&#x157;" horiz-adv-x="385" d="M329 514 Q340 514 350 513 Q360 512 368 510 L368 434 Q360 436 348.5 437 Q337 438 325 438 Q258 438 215 386.5 Q172 335 172 248 L172 0 L89 0 L89 503 L169 503 L169 384 Q185 444 228 479 Q271 514 329 514 Z M128 -125 L83 -125 L83 -53 L183 -53 L183 -117 Q183 -171 157 -197.5 Q131 -224 79 -224 L79 -185 Q105 -185 116.5 -171 Q128 -157 128 -125 Z " />
<glyph glyph-name="sacute" unicode="&#x15b;" horiz-adv-x="516" d="M265 -12 Q169 -12 110.5 30.5 Q52 73 46 149 L126 149 Q130 103 167.5 77 Q205 51 264 51 Q318 51 350.5 74.5 Q383 98 383 137 Q383 166 361.5 183.5 Q340 201 295 210 L206 228 Q132 242 99 274.5 Q66 307 66 364 Q66 429 119 472 Q172 515 253 515 Q341 515 392 477.5 Q443 440 450 370 L373 370 Q369 408 337 429.5 Q305 451 253 451 Q203 451 173 428.5 Q143 406 143 369 Q143 339 163 322.5 Q183 306 231 297 L331 278 Q397 265 429 231.5 Q461 198 461 141 Q461 75 405.5 31.5 Q350 -12 265 -12 Z M390 736 L280 580 L228 580 L284 736 L390 736 Z " />
<glyph glyph-name="scedilla" unicode="&#x15f;" horiz-adv-x="516" d="M357 -109 Q357 -148 325 -171 Q293 -194 243 -194 Q220 -194 197.5 -189 Q175 -184 157 -175 L157 -126 Q178 -137 199 -142 Q220 -147 243 -147 Q269 -147 284 -138 Q299 -129 299 -113 Q299 -89 272 -82.5 Q245 -76 213 -87 L193 -66 L228 -10 Q147 -2 99.5 39.5 Q52 81 46 149 L126 149 Q130 103 167.5 77 Q205 51 264 51 Q318 51 350.5 74.5 Q383 98 383 137 Q383 166 361.5 183.5 Q340 201 295 210 L206 228 Q132 242 99 274.5 Q66 307 66 364 Q66 429 119 472 Q172 515 253 515 Q341 515 392 477.5 Q443 440 450 370 L373 370 Q369 408 337 429.5 Q305 451 253 451 Q203 451 173 428.5 Q143 406 143 369 Q143 339 163 322.5 Q183 306 231 297 L331 278 Q397 265 429 231.5 Q461 198 461 141 Q461 75 406 31.5 Q351 -12 269 -12 L251 -40 Q297 -36 327 -54.5 Q357 -73 357 -109 Z " />
<glyph glyph-name="scircumflex" unicode="&#x15d;" horiz-adv-x="516" d="M265 -12 Q169 -12 110.5 30.5 Q52 73 46 149 L126 149 Q130 103 167.5 77 Q205 51 264 51 Q318 51 350.5 74.5 Q383 98 383 137 Q383 166 361.5 183.5 Q340 201 295 210 L206 228 Q132 242 99 274.5 Q66 307 66 364 Q66 429 119 472 Q172 515 253 515 Q341 515 392 477.5 Q443 440 450 370 L373 370 Q369 408 337 429.5 Q305 451 253 451 Q203 451 173 428.5 Q143 406 143 369 Q143 339 163 322.5 Q183 306 231 297 L331 278 Q397 265 429 231.5 Q461 198 461 141 Q461 75 405.5 31.5 Q350 -12 265 -12 Z M123 578 L217 736 L304 736 L398 578 L346 578 L261 682 L176 578 L123 578 Z " />
<glyph glyph-name="scommaaccent" unicode="&#x219;" horiz-adv-x="516" d="M265 -12 Q169 -12 110.5 30.5 Q52 73 46 149 L126 149 Q130 103 167.5 77 Q205 51 264 51 Q318 51 350.5 74.5 Q383 98 383 137 Q383 166 361.5 183.5 Q340 201 295 210 L206 228 Q132 242 99 274.5 Q66 307 66 364 Q66 429 119 472 Q172 515 253 515 Q341 515 392 477.5 Q443 440 450 370 L373 370 Q369 408 337 429.5 Q305 451 253 451 Q203 451 173 428.5 Q143 406 143 369 Q143 339 163 322.5 Q183 306 231 297 L331 278 Q397 265 429 231.5 Q461 198 461 141 Q461 75 405.5 31.5 Q350 -12 265 -12 Z M264 -125 L219 -125 L219 -53 L319 -53 L319 -117 Q319 -171 293 -197.5 Q267 -224 215 -224 L215 -185 Q241 -185 252.5 -171 Q264 -157 264 -125 Z " />
<glyph glyph-name="tbar" unicode="&#x167;" horiz-adv-x="401" d="M345 74 L345 6 Q321 -1 298.5 -4.5 Q276 -8 256 -8 Q186 -8 151.5 26 Q117 60 117 129 L117 266 L43 266 L43 326 L117 326 L117 442 L43 442 L43 503 L117 503 L117 631 L200 631 L200 503 L332 503 L332 442 L199 442 L199 326 L329 326 L329 266 L199 266 L199 133 Q199 97 216.5 79.5 Q234 62 271 62 Q290 62 307.5 65 Q325 68 345 74 Z " />
<glyph glyph-name="tcaron" unicode="&#x165;" horiz-adv-x="369" d="M250 62 Q268 62 285.5 65 Q303 68 323 74 L323 6 Q299 -1 277.5 -4.5 Q256 -8 235 -8 Q165 -8 130.5 26 Q96 60 96 129 L96 440 L22 440 L22 503 L96 503 L96 631 L178 631 L178 503 L310 503 L310 440 L177 440 L177 133 Q177 96 194.5 79 Q212 62 250 62 Z M355 773 L275 565 L233 565 L259 773 L355 773 Z " />
<glyph glyph-name="tcommaaccent" unicode="&#x163;" horiz-adv-x="369" d="M295 -109 Q295 -148 263 -171 Q231 -194 181 -194 Q158 -194 135.5 -189 Q113 -184 95 -175 L95 -126 Q116 -137 137 -142 Q158 -147 181 -147 Q207 -147 222 -138 Q237 -129 237 -113 Q237 -89 210 -82.5 Q183 -76 151 -87 L131 -66 L173 1 Q134 14 115 46 Q96 78 96 129 L96 440 L22 440 L22 503 L96 503 L96 631 L178 631 L178 503 L310 503 L310 440 L177 440 L177 133 Q177 96 194.5 79 Q212 62 250 62 Q268 62 285.5 65 Q303 68 323 74 L323 6 Q299 -1 277.5 -4.5 Q256 -8 235 -8 Q224 -8 219 -8 Q214 -8 210 -7 L189 -40 Q235 -36 265 -54.5 Q295 -73 295 -109 Z " />
<glyph glyph-name="uni021B" unicode="&#x21b;" horiz-adv-x="369" d="M250 62 Q268 62 285.5 65 Q303 68 323 74 L323 6 Q299 -1 277.5 -4.5 Q256 -8 235 -8 Q165 -8 130.5 26 Q96 60 96 129 L96 440 L22 440 L22 503 L96 503 L96 631 L178 631 L178 503 L310 503 L310 440 L177 440 L177 133 Q177 96 194.5 79 Q212 62 250 62 Z M205 -125 L160 -125 L160 -53 L260 -53 L260 -117 Q260 -171 234 -197.5 Q208 -224 156 -224 L156 -185 Q182 -185 193.5 -171 Q205 -157 205 -125 Z " />
<glyph glyph-name="ubreve" unicode="&#x16d;" horiz-adv-x="592" d="M503 503 L503 0 L422 0 L422 91 Q404 43 361 15.5 Q318 -12 262 -12 Q177 -12 130.5 37.5 Q84 87 84 179 L84 503 L168 503 L168 195 Q168 124 197.5 88.5 Q227 53 286 53 Q349 53 384 98 Q419 143 419 226 L419 503 L503 503 Z M297 584 Q236 584 199 625 Q162 666 162 736 L220 736 Q222 691 241.5 667 Q261 643 297 643 Q333 643 352 666.5 Q371 690 373 736 L431 736 Q431 666 394.5 625 Q358 584 297 584 Z " />
<glyph glyph-name="uhungarumlaut" unicode="&#x171;" horiz-adv-x="592" d="M503 503 L503 0 L422 0 L422 91 Q404 43 361 15.5 Q318 -12 262 -12 Q177 -12 130.5 37.5 Q84 87 84 179 L84 503 L168 503 L168 195 Q168 124 197.5 88.5 Q227 53 286 53 Q349 53 384 98 Q419 143 419 226 L419 503 L503 503 Z M381 580 L333 580 L390 736 L488 736 L381 580 Z M227 580 L178 580 L236 736 L333 736 L227 580 Z " />
<glyph glyph-name="umacron" unicode="&#x16b;" horiz-adv-x="592" d="M503 503 L503 0 L422 0 L422 91 Q404 43 361 15.5 Q318 -12 262 -12 Q177 -12 130.5 37.5 Q84 87 84 179 L84 503 L168 503 L168 195 Q168 124 197.5 88.5 Q227 53 286 53 Q349 53 384 98 Q419 143 419 226 L419 503 L503 503 Z M439 608 L154 608 L154 670 L439 670 L439 608 Z " />
<glyph glyph-name="uogonek" unicode="&#x173;" horiz-adv-x="592" d="M491 -133 L491 -183 Q480 -187 468.5 -188.5 Q457 -190 443 -190 Q405 -190 381.5 -169.5 Q358 -149 358 -113 Q358 -89 370.5 -63.5 Q383 -38 422 10 L422 91 Q404 43 361 15.5 Q318 -12 262 -12 Q177 -12 130.5 37.5 Q84 87 84 179 L84 503 L168 503 L168 195 Q168 124 197.5 88.5 Q227 53 286 53 Q349 53 384 98 Q419 143 419 226 L419 503 L503 503 L503 0 L471 0 Q437 -45 427 -64 Q417 -83 417 -101 Q417 -118 428 -127.5 Q439 -137 459 -137 Q468 -137 475.5 -136 Q483 -135 491 -133 Z " />
<glyph glyph-name="uring" unicode="&#x16f;" horiz-adv-x="592" d="M503 503 L503 0 L422 0 L422 91 Q404 43 361 15.5 Q318 -12 262 -12 Q177 -12 130.5 37.5 Q84 87 84 179 L84 503 L168 503 L168 195 Q168 124 197.5 88.5 Q227 53 286 53 Q349 53 384 98 Q419 143 419 226 L419 503 L503 503 Z M297 572 Q256 572 226.5 601.5 Q197 631 197 671 Q197 713 226.5 742.5 Q256 772 297 772 Q338 772 367 742.5 Q396 713 396 671 Q396 630 367 601 Q338 572 297 572 Z M297 619 Q318 619 333.5 634.5 Q349 650 349 671 Q349 694 334 709.5 Q319 725 297 725 Q275 725 259.5 709 Q244 693 244 671 Q244 650 259.5 634.5 Q275 619 297 619 Z " />
<glyph glyph-name="utilde" unicode="&#x169;" horiz-adv-x="592" d="M503 503 L503 0 L422 0 L422 91 Q404 43 361 15.5 Q318 -12 262 -12 Q177 -12 130.5 37.5 Q84 87 84 179 L84 503 L168 503 L168 195 Q168 124 197.5 88.5 Q227 53 286 53 Q349 53 384 98 Q419 143 419 226 L419 503 L503 503 Z M283 629 Q260 649 249 655 Q238 661 228 661 Q208 661 197.5 642.5 Q187 624 185 585 L132 585 Q132 649 156 686 Q180 723 223 723 Q241 723 259 714.5 Q277 706 309 679 Q332 660 343 654 Q354 648 363 648 Q384 648 394.5 667 Q405 686 406 723 L460 723 Q460 659 435.5 622 Q411 585 368 585 Q350 585 332 593.5 Q314 602 283 629 Z " />
<glyph glyph-name="wacute" unicode="&#x1e83;" horiz-adv-x="765" d="M342 503 L426 503 L540 90 L542 90 L658 503 L738 503 L586 0 L500 0 L384 407 L381 407 L267 0 L180 0 L28 503 L110 503 L227 90 L230 90 L342 503 Z M512 736 L402 580 L350 580 L406 736 L512 736 Z " />
<glyph glyph-name="wcircumflex" unicode="&#x175;" horiz-adv-x="765" d="M342 503 L426 503 L540 90 L542 90 L658 503 L738 503 L586 0 L500 0 L384 407 L381 407 L267 0 L180 0 L28 503 L110 503 L227 90 L230 90 L342 503 Z M246 578 L340 736 L427 736 L521 578 L469 578 L384 682 L299 578 L246 578 Z " />
<glyph glyph-name="wgrave" unicode="&#x1e81;" horiz-adv-x="765" d="M342 503 L426 503 L540 90 L542 90 L658 503 L738 503 L586 0 L500 0 L384 407 L381 407 L267 0 L180 0 L28 503 L110 503 L227 90 L230 90 L342 503 Z M364 736 L420 580 L368 580 L258 736 L364 736 Z " />
<glyph glyph-name="wdieresis" unicode="&#x1e85;" horiz-adv-x="765" d="M342 503 L426 503 L540 90 L542 90 L658 503 L738 503 L586 0 L500 0 L384 407 L381 407 L267 0 L180 0 L28 503 L110 503 L227 90 L230 90 L342 503 Z M517 608 L432 608 L432 709 L517 709 L517 608 Z M334 608 L250 608 L250 709 L334 709 L334 608 Z " />
<glyph glyph-name="ycircumflex" unicode="&#x177;" horiz-adv-x="542" d="M124 -117 Q160 -117 182 -94 Q204 -71 230 -4 L28 503 L115 503 L275 92 L277 92 L428 503 L514 503 L311 -15 Q273 -114 234.5 -149.5 Q196 -185 133 -186 Q123 -186 109.5 -184.5 Q96 -183 84 -181 L84 -113 Q93 -115 101 -116 Q109 -117 124 -117 Z M141 578 L235 736 L322 736 L416 578 L364 578 L279 682 L194 578 L141 578 Z " />
<glyph glyph-name="ygrave" unicode="&#x1ef3;" horiz-adv-x="542" d="M124 -117 Q160 -117 182 -94 Q204 -71 230 -4 L28 503 L115 503 L275 92 L277 92 L428 503 L514 503 L311 -15 Q273 -114 234.5 -149.5 Q196 -185 133 -186 Q123 -186 109.5 -184.5 Q96 -183 84 -181 L84 -113 Q93 -115 101 -116 Q109 -117 124 -117 Z M254 736 L310 580 L258 580 L148 736 L254 736 Z " />
<glyph glyph-name="zacute" unicode="&#x17a;" horiz-adv-x="519" d="M455 503 L455 442 L155 64 L466 64 L466 0 L52 0 L52 54 L354 439 L64 439 L64 503 L455 503 Z M393 736 L283 580 L231 580 L287 736 L393 736 Z " />
<glyph glyph-name="zdotaccent" unicode="&#x17c;" horiz-adv-x="519" d="M455 503 L455 442 L155 64 L466 64 L466 0 L52 0 L52 54 L354 439 L64 439 L64 503 L455 503 Z M312 608 L218 608 L218 709 L312 709 L312 608 Z " />
<glyph glyph-name="overscore" unicode="&#xaf;" horiz-adv-x="565" d="M425 608 L140 608 L140 670 L425 670 L425 608 Z " />
<glyph glyph-name="commaaccent" unicode="&#xf6c3;" horiz-adv-x="565" d="M281 -125 L236 -125 L236 -53 L336 -53 L336 -117 Q336 -171 310 -197.5 Q284 -224 232 -224 L232 -185 Q258 -185 269.5 -171 Q281 -157 281 -125 Z " />
<glyph glyph-name="uni2070" unicode="&#x2070;" horiz-adv-x="417" d="M373 519 Q373 429 327 372.5 Q281 316 208 316 Q135 316 89.5 372.5 Q44 429 44 519 Q44 610 89.5 666.5 Q135 723 208 723 Q282 723 327.5 666 Q373 609 373 519 Z M112 519 Q112 448 137 409 Q162 370 208 370 Q255 370 280 409 Q305 448 305 519 Q305 591 280 630 Q255 669 208 669 Q162 669 137 629.5 Q112 590 112 519 Z " />
<glyph glyph-name="uni2074" unicode="&#x2074;" horiz-adv-x="407" d="M220 714 L293 714 L293 466 L373 466 L373 417 L293 417 L293 323 L230 323 L230 417 L35 417 L35 467 L220 714 Z M230 466 L230 650 L95 466 L230 466 Z " />
<glyph glyph-name="uni2075" unicode="&#x2075;" horiz-adv-x="376" d="M269 451 Q269 488 248 511 Q227 534 190 534 Q167 534 148.5 524 Q130 514 117 496 L57 496 L78 714 L312 714 L312 660 L127 660 L115 550 Q128 565 151.5 574.5 Q175 584 200 584 Q260 584 297 547 Q334 510 334 451 Q334 391 294.5 353 Q255 315 190 315 Q126 315 85.5 349 Q45 383 40 440 L108 440 Q110 407 133 386.5 Q156 366 190 366 Q227 366 248 389 Q269 412 269 451 Z " />
<glyph glyph-name="uni2076" unicode="&#x2076;" horiz-adv-x="384" d="M204 670 Q159 670 132.5 628.5 Q106 587 106 519 Q119 549 146 566.5 Q173 584 208 584 Q267 584 304.5 547 Q342 510 342 453 Q342 393 302 354.5 Q262 316 199 316 Q129 316 86.5 369.5 Q44 423 44 512 Q44 606 88.5 664.5 Q133 723 204 723 Q258 723 294 693 Q330 663 338 612 L277 612 Q270 641 251.5 655.5 Q233 670 204 670 Z M118 451 Q118 414 141 390.5 Q164 367 199 367 Q235 367 257.5 390.5 Q280 414 280 451 Q280 488 257.5 511.5 Q235 535 199 535 Q163 535 140.5 511.5 Q118 488 118 451 Z " />
<glyph glyph-name="uni2077" unicode="&#x2077;" horiz-adv-x="354" d="M248 661 L33 661 L33 714 L316 714 L316 664 Q252 585 223.5 506 Q195 427 194 323 L124 323 Q125 414 155.5 498.5 Q186 583 248 661 Z " />
<glyph glyph-name="uni2078" unicode="&#x2078;" horiz-adv-x="391" d="M348 430 Q348 378 306.5 347 Q265 316 195 316 Q126 316 84.5 347 Q43 378 43 430 Q43 463 66.5 490 Q90 517 122 523 Q93 535 76.5 558 Q60 581 60 612 Q60 662 97.5 692.5 Q135 723 195 723 Q255 723 293 692.5 Q331 662 331 612 Q331 582 315 558.5 Q299 535 270 523 Q302 516 325 489.5 Q348 463 348 430 Z M270 611 Q270 640 249.5 656.5 Q229 673 195 673 Q161 673 140.5 656 Q120 639 120 611 Q120 582 140.5 564.5 Q161 547 195 547 Q229 547 249.5 564 Q270 581 270 611 Z M284 433 Q284 464 260.5 481.5 Q237 499 195 499 Q155 499 131.5 481.5 Q108 464 108 433 Q108 402 131 384 Q154 366 195 366 Q237 366 260.5 384 Q284 402 284 433 Z " />
<glyph glyph-name="uni2079" unicode="&#x2079;" horiz-adv-x="384" d="M182 369 Q227 369 253.5 410.5 Q280 452 280 520 Q267 489 239.5 471.5 Q212 454 176 454 Q118 454 81 491.5 Q44 529 44 587 Q44 647 83.5 685 Q123 723 186 723 Q256 723 299 669 Q342 615 342 527 Q342 433 297 374.5 Q252 316 180 316 Q126 316 90.5 346 Q55 376 47 427 L109 427 Q116 397 134 383 Q152 369 182 369 Z M268 588 Q268 625 245 648 Q222 671 186 671 Q150 671 128 648 Q106 625 106 588 Q106 550 128 526.5 Q150 503 186 503 Q223 503 245.5 526.5 Q268 550 268 588 Z " />
<glyph glyph-name="uni2080" unicode="&#x2080;" horiz-adv-x="417" d="M373 56 Q373 -34 327 -90.5 Q281 -147 208 -147 Q135 -147 89.5 -90.5 Q44 -34 44 56 Q44 147 89.5 203.5 Q135 260 208 260 Q282 260 327.5 203 Q373 146 373 56 Z M112 56 Q112 -15 137 -54 Q162 -93 208 -93 Q255 -93 280 -54 Q305 -15 305 56 Q305 128 280 167 Q255 206 208 206 Q162 206 137 166.5 Q112 127 112 56 Z " />
<glyph glyph-name="uni2081" unicode="&#x2081;" horiz-adv-x="334" d="M209 -90 L310 -90 L310 -140 L43 -140 L43 -90 L144 -90 L144 147 L44 147 L44 194 Q105 194 130.5 205.5 Q156 217 165 253 L209 253 L209 -90 Z " />
<glyph glyph-name="uni2082" unicode="&#x2082;" horiz-adv-x="359" d="M185 259 Q243 259 280.5 225.5 Q318 192 318 142 Q318 104 296.5 74.5 Q275 45 198 -1 Q151 -29 131 -49 Q111 -69 110 -87 L327 -87 L327 -140 L38 -140 L38 -114 Q38 -73 66.5 -36 Q95 1 163 43 Q220 78 237.5 98.5 Q255 119 255 142 Q255 171 236 188.5 Q217 206 184 206 Q151 206 129.5 184.5 Q108 163 106 129 L42 129 Q46 187 85 223 Q124 259 185 259 Z " />
<glyph glyph-name="uni2083" unicode="&#x2083;" horiz-adv-x="373" d="M251 56 Q287 50 309 25.5 Q331 1 331 -34 Q331 -84 291.5 -115.5 Q252 -147 188 -147 Q123 -147 82 -114.5 Q41 -82 36 -25 L100 -25 Q103 -57 126.5 -76 Q150 -95 188 -95 Q225 -95 246.5 -77.5 Q268 -60 268 -30 Q268 -1 247.5 15 Q227 31 191 31 L151 31 L151 82 L189 82 Q221 82 239.5 97.5 Q258 113 258 142 Q258 171 239 189 Q220 207 188 207 Q155 207 133.5 187 Q112 167 110 134 L48 134 Q51 190 89 225 Q127 260 188 260 Q249 260 285 227.5 Q321 195 321 144 Q321 110 301.5 85.5 Q282 61 251 56 Z " />
<glyph glyph-name="uni2084" unicode="&#x2084;" horiz-adv-x="407" d="M220 251 L293 251 L293 3 L373 3 L373 -46 L293 -46 L293 -140 L230 -140 L230 -46 L35 -46 L35 4 L220 251 Z M230 3 L230 187 L95 3 L230 3 Z " />
<glyph glyph-name="uni2085" unicode="&#x2085;" horiz-adv-x="376" d="M269 -11 Q269 26 248 49 Q227 72 190 72 Q167 72 148.5 62 Q130 52 117 34 L57 34 L78 252 L312 252 L312 198 L127 198 L115 88 Q128 103 151.5 112.5 Q175 122 200 122 Q260 122 297 85 Q334 48 334 -11 Q334 -71 294.5 -109 Q255 -147 190 -147 Q126 -147 85.5 -113 Q45 -79 40 -22 L108 -22 Q110 -55 133 -75.5 Q156 -96 190 -96 Q227 -96 248 -73 Q269 -50 269 -11 Z " />
<glyph glyph-name="uni2086" unicode="&#x2086;" horiz-adv-x="384" d="M204 207 Q159 207 132.5 165.5 Q106 124 106 56 Q119 86 146 103.5 Q173 121 208 121 Q267 121 304.5 84 Q342 47 342 -10 Q342 -70 302 -108.5 Q262 -147 199 -147 Q129 -147 86.5 -93.5 Q44 -40 44 49 Q44 143 88.5 201.5 Q133 260 204 260 Q258 260 294 230 Q330 200 338 149 L277 149 Q270 178 251.5 192.5 Q233 207 204 207 Z M118 -12 Q118 -49 141 -72.5 Q164 -96 199 -96 Q235 -96 257.5 -72.5 Q280 -49 280 -12 Q280 25 257.5 48.5 Q235 72 199 72 Q163 72 140.5 48.5 Q118 25 118 -12 Z " />
<glyph glyph-name="uni2087" unicode="&#x2087;" horiz-adv-x="354" d="M248 198 L33 198 L33 251 L316 251 L316 201 Q252 122 223.5 43 Q195 -36 194 -140 L124 -140 Q125 -49 155.5 35.5 Q186 120 248 198 Z " />
<glyph glyph-name="uni2088" unicode="&#x2088;" horiz-adv-x="391" d="M348 -33 Q348 -85 306.5 -116 Q265 -147 195 -147 Q126 -147 84.5 -116 Q43 -85 43 -33 Q43 0 66.5 27 Q90 54 122 60 Q93 72 76.5 95 Q60 118 60 149 Q60 199 97.5 229.5 Q135 260 195 260 Q255 260 293 229.5 Q331 199 331 149 Q331 119 315 95.5 Q299 72 270 60 Q302 53 325 26.5 Q348 0 348 -33 Z M270 148 Q270 177 249.5 193.5 Q229 210 195 210 Q161 210 140.5 193 Q120 176 120 148 Q120 119 140.5 101.5 Q161 84 195 84 Q229 84 249.5 101 Q270 118 270 148 Z M284 -30 Q284 1 260.5 18.5 Q237 36 195 36 Q155 36 131.5 18.5 Q108 1 108 -30 Q108 -61 131 -79 Q154 -97 195 -97 Q237 -97 260.5 -79 Q284 -61 284 -30 Z " />
<glyph glyph-name="uni2089" unicode="&#x2089;" horiz-adv-x="384" d="M182 -94 Q227 -94 253.5 -52.5 Q280 -11 280 57 Q267 26 239.5 8.5 Q212 -9 176 -9 Q118 -9 81 28.5 Q44 66 44 124 Q44 184 83.5 222 Q123 260 186 260 Q256 260 299 206 Q342 152 342 64 Q342 -30 297 -88.5 Q252 -147 180 -147 Q126 -147 90.5 -117 Q55 -87 47 -36 L109 -36 Q116 -66 134 -80 Q152 -94 182 -94 Z M268 125 Q268 162 245 185 Q222 208 186 208 Q150 208 128 185 Q106 162 106 125 Q106 87 128 63.5 Q150 40 186 40 Q223 40 245.5 63.5 Q268 87 268 125 Z " />
<glyph glyph-name="uni2153" unicode="&#x2153;" horiz-adv-x="924" d="M754 727 L239 -12 L169 -12 L685 727 L754 727 Z M234 373 L335 373 L335 323 L68 323 L68 373 L169 373 L169 610 L69 610 L69 657 Q130 657 155.5 668.5 Q181 680 190 716 L234 716 L234 373 Z M782 196 Q818 190 840 165.5 Q862 141 862 106 Q862 56 822.5 24.5 Q783 -7 719 -7 Q654 -7 613 25.5 Q572 58 567 115 L631 115 Q634 83 657.5 64 Q681 45 719 45 Q756 45 777.5 62.5 Q799 80 799 110 Q799 139 778.5 155 Q758 171 722 171 L682 171 L682 222 L720 222 Q752 222 770.5 237.5 Q789 253 789 282 Q789 311 770 329 Q751 347 719 347 Q686 347 664.5 327 Q643 307 641 274 L579 274 Q582 330 620 365 Q658 400 719 400 Q780 400 816 367.5 Q852 335 852 284 Q852 250 832.5 225.5 Q813 201 782 196 Z " />
<glyph glyph-name="uni2154" unicode="&#x2154;" horiz-adv-x="944" d="M775 727 L260 -12 L190 -12 L706 727 L775 727 Z M803 196 Q839 190 861 165.5 Q883 141 883 106 Q883 56 843.5 24.5 Q804 -7 740 -7 Q675 -7 634 25.5 Q593 58 588 115 L652 115 Q655 83 678.5 64 Q702 45 740 45 Q777 45 798.5 62.5 Q820 80 820 110 Q820 139 799.5 155 Q779 171 743 171 L703 171 L703 222 L741 222 Q773 222 791.5 237.5 Q810 253 810 282 Q810 311 791 329 Q772 347 740 347 Q707 347 685.5 327 Q664 307 662 274 L600 274 Q603 330 641 365 Q679 400 740 400 Q801 400 837 367.5 Q873 335 873 284 Q873 250 853.5 225.5 Q834 201 803 196 Z M210 722 Q268 722 305.5 688.5 Q343 655 343 605 Q343 567 321.5 537.5 Q300 508 223 462 Q176 434 156 414 Q136 394 135 376 L352 376 L352 323 L63 323 L63 349 Q63 390 91.5 427 Q120 464 188 506 Q245 541 262.5 561.5 Q280 582 280 605 Q280 634 261 651.5 Q242 669 209 669 Q176 669 154.5 647.5 Q133 626 131 592 L67 592 Q71 650 110 686 Q149 722 210 722 Z " />
<glyph glyph-name="uni215B" unicode="&#x215b;" horiz-adv-x="940" d="M879 107 Q879 55 837.5 24 Q796 -7 726 -7 Q657 -7 615.5 24 Q574 55 574 107 Q574 140 597.5 167 Q621 194 653 200 Q624 212 607.5 235 Q591 258 591 289 Q591 339 628.5 369.5 Q666 400 726 400 Q786 400 824 369.5 Q862 339 862 289 Q862 259 846 235.5 Q830 212 801 200 Q833 193 856 166.5 Q879 140 879 107 Z M801 288 Q801 317 780.5 333.5 Q760 350 726 350 Q692 350 671.5 333 Q651 316 651 288 Q651 259 671.5 241.5 Q692 224 726 224 Q760 224 780.5 241 Q801 258 801 288 Z M815 110 Q815 141 791.5 158.5 Q768 176 726 176 Q686 176 662.5 158.5 Q639 141 639 110 Q639 79 662 61 Q685 43 726 43 Q768 43 791.5 61 Q815 79 815 110 Z M754 727 L239 -12 L169 -12 L685 727 L754 727 Z M234 373 L335 373 L335 323 L68 323 L68 373 L169 373 L169 610 L69 610 L69 657 Q130 657 155.5 668.5 Q181 680 190 716 L234 716 L234 373 Z " />
<glyph glyph-name="uni215C" unicode="&#x215c;" horiz-adv-x="958" d="M897 107 Q897 55 855.5 24 Q814 -7 744 -7 Q675 -7 633.5 24 Q592 55 592 107 Q592 140 615.5 167 Q639 194 671 200 Q642 212 625.5 235 Q609 258 609 289 Q609 339 646.5 369.5 Q684 400 744 400 Q804 400 842 369.5 Q880 339 880 289 Q880 259 864 235.5 Q848 212 819 200 Q851 193 874 166.5 Q897 140 897 107 Z M819 288 Q819 317 798.5 333.5 Q778 350 744 350 Q710 350 689.5 333 Q669 316 669 288 Q669 259 689.5 241.5 Q710 224 744 224 Q778 224 798.5 241 Q819 258 819 288 Z M833 110 Q833 141 809.5 158.5 Q786 176 744 176 Q704 176 680.5 158.5 Q657 141 657 110 Q657 79 680 61 Q703 43 744 43 Q786 43 809.5 61 Q833 79 833 110 Z M772 727 L257 -12 L187 -12 L703 727 L772 727 Z M276 519 Q312 513 334 488.5 Q356 464 356 429 Q356 379 316.5 347.5 Q277 316 213 316 Q148 316 107 348.5 Q66 381 61 438 L125 438 Q128 406 151.5 387 Q175 368 213 368 Q250 368 271.5 385.5 Q293 403 293 433 Q293 462 272.5 478 Q252 494 216 494 L176 494 L176 545 L214 545 Q246 545 264.5 560.5 Q283 576 283 605 Q283 634 264 652 Q245 670 213 670 Q180 670 158.5 650 Q137 630 135 597 L73 597 Q76 653 114 688 Q152 723 213 723 Q274 723 310 690.5 Q346 658 346 607 Q346 573 326.5 548.5 Q307 524 276 519 Z " />
<glyph glyph-name="uni215D" unicode="&#x215d;" horiz-adv-x="945" d="M759 727 L244 -12 L174 -12 L690 727 L759 727 Z M884 107 Q884 55 842.5 24 Q801 -7 731 -7 Q662 -7 620.5 24 Q579 55 579 107 Q579 140 602.5 167 Q626 194 658 200 Q629 212 612.5 235 Q596 258 596 289 Q596 339 633.5 369.5 Q671 400 731 400 Q791 400 829 369.5 Q867 339 867 289 Q867 259 851 235.5 Q835 212 806 200 Q838 193 861 166.5 Q884 140 884 107 Z M806 288 Q806 317 785.5 333.5 Q765 350 731 350 Q697 350 676.5 333 Q656 316 656 288 Q656 259 676.5 241.5 Q697 224 731 224 Q765 224 785.5 241 Q806 258 806 288 Z M820 110 Q820 141 796.5 158.5 Q773 176 731 176 Q691 176 667.5 158.5 Q644 141 644 110 Q644 79 667 61 Q690 43 731 43 Q773 43 796.5 61 Q820 79 820 110 Z M294 451 Q294 488 273 511 Q252 534 215 534 Q192 534 173.5 524 Q155 514 142 496 L82 496 L103 714 L337 714 L337 660 L152 660 L140 550 Q153 565 176.5 574.5 Q200 584 225 584 Q285 584 322 547 Q359 510 359 451 Q359 391 319.5 353 Q280 315 215 315 Q151 315 110.5 349 Q70 383 65 440 L133 440 Q135 407 158 386.5 Q181 366 215 366 Q252 366 273 389 Q294 412 294 451 Z " />
<glyph glyph-name="uni215E" unicode="&#x215e;" horiz-adv-x="880" d="M819 107 Q819 55 777.5 24 Q736 -7 666 -7 Q597 -7 555.5 24 Q514 55 514 107 Q514 140 537.5 167 Q561 194 593 200 Q564 212 547.5 235 Q531 258 531 289 Q531 339 568.5 369.5 Q606 400 666 400 Q726 400 764 369.5 Q802 339 802 289 Q802 259 786 235.5 Q770 212 741 200 Q773 193 796 166.5 Q819 140 819 107 Z M741 288 Q741 317 720.5 333.5 Q700 350 666 350 Q632 350 611.5 333 Q591 316 591 288 Q591 259 611.5 241.5 Q632 224 666 224 Q700 224 720.5 241 Q741 258 741 288 Z M755 110 Q755 141 731.5 158.5 Q708 176 666 176 Q626 176 602.5 158.5 Q579 141 579 110 Q579 79 602 61 Q625 43 666 43 Q708 43 731.5 61 Q755 79 755 110 Z M694 727 L179 -12 L109 -12 L625 727 L694 727 Z M273 661 L58 661 L58 714 L341 714 L341 664 Q277 585 248.5 506 Q220 427 219 323 L149 323 Q150 414 180.5 498.5 Q211 583 273 661 Z " />
</font>
</defs>
</svg>
