<svg xmlns="http://www.w3.org/2000/svg">
<defs>
<font id="Untitled Sans Medium">
<font-face  font-family="Untitled Sans" units-per-em="1000" ascent="1002" descent="-247" font-style="normal" font-weight="500" font-stretch="normal" cap-height="714" x-height="508" underline-position="-100" underline-thickness="78" />

<glyph glyph-name="NULL" d="" />
<glyph glyph-name="nonmarkingreturn" unicode="&#xd;" horiz-adv-x="221" d="" />
<glyph glyph-name="space" unicode="&#x20;" horiz-adv-x="210" d="" />
<glyph glyph-name="lslash" unicode="&#x142;" horiz-adv-x="352" d="M332 519 L332 425 L240 382 L240 0 L112 0 L112 328 L20 285 L20 378 L112 422 L112 736 L240 736 L240 475 L332 519 Z " />
<glyph glyph-name="Scaron" unicode="&#x160;" horiz-adv-x="667" d="M348 -12 Q209 -12 126 47.5 Q43 107 34 216 L162 216 Q168 153 215.5 119.5 Q263 86 344 86 Q412 86 453.5 115.5 Q495 145 495 196 Q495 236 467.5 258.5 Q440 281 378 293 L247 317 Q151 334 104 382.5 Q57 431 57 511 Q57 606 132 666 Q207 726 325 726 Q453 726 527 672 Q601 618 611 518 L486 518 Q479 569 436.5 598 Q394 627 326 627 Q263 627 224.5 597 Q186 567 186 519 Q186 480 210 459.5 Q234 439 300 426 L438 399 Q533 381 579 333 Q625 285 625 204 Q625 109 547 48.5 Q469 -12 348 -12 Z M261 917 L344 837 L425 917 L499 917 L403 763 L284 763 L187 917 L261 917 Z " />
<glyph glyph-name="scaron" unicode="&#x161;" horiz-adv-x="535" d="M275 -12 Q170 -12 107.5 31.5 Q45 75 37 154 L159 154 Q163 118 194.5 97.5 Q226 77 273 77 Q316 77 342.5 94 Q369 111 369 140 Q369 164 351.5 176.5 Q334 189 291 197 L201 213 Q127 226 91 262 Q55 298 55 358 Q55 429 113 474.5 Q171 520 261 520 Q358 520 414.5 479.5 Q471 439 479 364 L362 364 Q358 394 331 412 Q304 430 262 430 Q222 430 197.5 414 Q173 398 173 371 Q173 347 190 334.5 Q207 322 251 314 L350 297 Q419 285 454 247.5 Q489 210 489 149 Q489 78 428.5 33 Q368 -12 275 -12 Z M184 736 L267 649 L348 736 L422 736 L324 576 L208 576 L110 736 L184 736 Z " />
<glyph glyph-name="Yacute" unicode="&#xdd;" horiz-adv-x="706" d="M419 293 L419 0 L286 0 L286 293 L10 714 L158 714 L356 409 L358 409 L551 714 L696 714 L419 293 Z M510 917 L392 764 L313 764 L366 917 L510 917 Z " />
<glyph glyph-name="yacute" unicode="&#xfd;" horiz-adv-x="574" d="M117 -87 Q157 -87 177.5 -69 Q198 -51 218 1 L20 508 L150 508 L291 125 L293 125 L427 508 L554 508 L356 -9 Q320 -104 271 -144.5 Q222 -185 142 -186 Q129 -186 112.5 -184.5 Q96 -183 83 -181 L83 -84 Q91 -86 98 -86.5 Q105 -87 117 -87 Z M447 736 L331 577 L247 577 L300 736 L447 736 Z " />
<glyph glyph-name="Thorn" unicode="&#xde;" horiz-adv-x="675" d="M643 365 Q643 256 574 198 Q505 140 377 140 L211 140 L211 0 L81 0 L81 714 L211 714 L211 591 L376 591 Q505 591 574 533 Q643 475 643 365 Z M211 486 L211 244 L365 244 Q439 244 475.5 274 Q512 304 512 365 Q512 426 475.5 456 Q439 486 365 486 L211 486 Z " />
<glyph glyph-name="thorn" unicode="&#xfe;" horiz-adv-x="634" d="M367 -12 Q314 -12 271 13.5 Q228 39 206 81 L206 -178 L78 -178 L78 736 L205 736 L205 425 Q225 468 269 494 Q313 520 367 520 Q467 520 529 446 Q591 372 591 254 Q591 136 529 62 Q467 -12 367 -12 Z M331 426 Q271 426 237 382.5 Q203 339 203 263 L203 245 Q203 169 237 125.5 Q271 82 331 82 Q392 82 427 128 Q462 174 462 254 Q462 334 427 380 Q392 426 331 426 Z " />
<glyph glyph-name="eth" unicode="&#xf0;" horiz-adv-x="600" d="M557 271 Q557 142 486 65 Q415 -12 300 -12 Q185 -12 114 61 Q43 134 43 255 Q43 369 114.5 441.5 Q186 514 296 514 Q325 514 349.5 505.5 Q374 497 389 482 Q370 514 347.5 542.5 Q325 571 299 598 L160 553 L137 604 L253 642 Q228 664 198.5 685.5 Q169 707 133 730 L133 736 L280 736 Q300 724 320 709 Q340 694 361 677 L452 707 L475 656 L406 633 Q479 556 518 462.5 Q557 369 557 271 Z M300 421 Q239 421 205 376.5 Q171 332 171 253 Q171 172 205 127.5 Q239 83 300 83 Q360 83 394 128 Q428 173 428 253 Q428 332 394 376.5 Q360 421 300 421 Z " />
<glyph glyph-name="Zcaron" unicode="&#x17d;" horiz-adv-x="678" d="M624 714 L624 614 L211 105 L630 105 L630 0 L47 0 L47 93 L462 609 L60 609 L60 714 L624 714 Z M261 917 L344 837 L425 917 L499 917 L403 763 L284 763 L187 917 L261 917 Z " />
<glyph glyph-name="zcaron" unicode="&#x17e;" horiz-adv-x="534" d="M477 508 L477 419 L203 94 L487 94 L487 0 L47 0 L47 83 L321 414 L56 414 L56 508 L477 508 Z M188 736 L271 649 L352 736 L426 736 L328 576 L212 576 L114 736 L188 736 Z " />
<glyph glyph-name="onehalf" unicode="&#xbd;" horiz-adv-x="929" d="M239 385 L334 385 L334 323 L57 323 L57 385 L154 385 L154 599 L58 599 L58 657 Q118 657 142.5 668 Q167 679 176 715 L239 715 L239 385 Z M759 727 L244 -12 L158 -12 L674 727 L759 727 Z M725 399 Q787 399 827 365 Q867 331 867 278 Q867 239 844 209.5 Q821 180 746 139 Q706 118 686.5 100.5 Q667 83 666 68 L871 68 L871 0 L570 0 L570 32 Q570 76 599 114 Q628 152 695 191 Q752 225 767 241.5 Q782 258 782 279 Q782 303 766.5 317 Q751 331 724 331 Q696 331 678 312 Q660 293 659 264 L573 264 Q577 325 618 362 Q659 399 725 399 Z " />
<glyph glyph-name="onequarter" unicode="&#xbc;" horiz-adv-x="918" d="M754 727 L239 -12 L153 -12 L669 727 L754 727 Z M239 385 L334 385 L334 323 L57 323 L57 385 L154 385 L154 599 L58 599 L58 657 Q118 657 142.5 668 Q167 679 176 715 L239 715 L239 385 Z M691 391 L785 391 L785 148 L862 148 L862 86 L785 86 L785 0 L702 0 L702 86 L507 86 L507 149 L691 391 Z M702 148 L702 309 L583 148 L702 148 Z " />
<glyph glyph-name="onesuperior" unicode="&#x89;" horiz-adv-x="341" d="M223 385 L318 385 L318 323 L41 323 L41 385 L138 385 L138 599 L42 599 L42 657 Q102 657 126.5 668 Q151 679 160 715 L223 715 L223 385 Z " />
<glyph glyph-name="threequarters" unicode="&#xbe;" horiz-adv-x="937" d="M715 391 L809 391 L809 148 L886 148 L886 86 L809 86 L809 0 L726 0 L726 86 L531 86 L531 149 L715 391 Z M726 148 L726 309 L607 148 L726 148 Z M773 727 L258 -12 L172 -12 L688 727 L773 727 Z M279 519 Q315 513 336.5 488.5 Q358 464 358 429 Q358 379 316.5 347.5 Q275 316 207 316 Q139 316 96 350 Q53 384 48 441 L133 441 Q135 415 155.5 399 Q176 383 207 383 Q238 383 256 397.5 Q274 412 274 436 Q274 460 257 473 Q240 486 207 486 L168 486 L168 551 L205 551 Q234 551 250 564 Q266 577 266 602 Q266 625 250 640 Q234 655 208 655 Q180 655 162 638.5 Q144 622 142 595 L60 595 Q63 652 103.5 687 Q144 722 209 722 Q272 722 310 689.5 Q348 657 348 606 Q348 573 329 549 Q310 525 279 519 Z " />
<glyph glyph-name="threesuperior" unicode="&#x83;" horiz-adv-x="379" d="M263 519 Q299 513 320.5 488.5 Q342 464 342 429 Q342 379 300.5 347.5 Q259 316 191 316 Q123 316 80 350 Q37 384 32 441 L117 441 Q119 415 139.5 399 Q160 383 191 383 Q222 383 240 397.5 Q258 412 258 436 Q258 460 241 473 Q224 486 191 486 L152 486 L152 551 L189 551 Q218 551 234 564 Q250 577 250 602 Q250 625 234 640 Q218 655 192 655 Q164 655 146 638.5 Q128 622 126 595 L44 595 Q47 652 87.5 687 Q128 722 193 722 Q256 722 294 689.5 Q332 657 332 606 Q332 573 313 549 Q294 525 263 519 Z " />
<glyph glyph-name="twosuperior" unicode="&#x82;" horiz-adv-x="371" d="M191 722 Q253 722 293 688 Q333 654 333 601 Q333 562 310 532.5 Q287 503 212 462 Q172 441 152.5 423.5 Q133 406 132 391 L337 391 L337 323 L36 323 L36 355 Q36 399 65 437 Q94 475 161 514 Q218 548 233 564.5 Q248 581 248 602 Q248 626 232.5 640 Q217 654 190 654 Q162 654 144 635 Q126 616 125 587 L39 587 Q43 648 84 685 Q125 722 191 722 Z " />
<glyph glyph-name="minus" unicode="&#x2212;" horiz-adv-x="660" d="M594 285 L65 285 L65 380 L594 380 L594 285 Z " />
<glyph glyph-name="multiply" unicode="&#xd7;" horiz-adv-x="660" d="M568 159 L503 94 L331 266 L158 93 L92 159 L265 332 L92 505 L157 570 L330 397 L503 570 L569 504 L396 331 L568 159 Z " />
<glyph glyph-name="Lslash" unicode="&#x141;" horiz-adv-x="628" d="M234 105 L602 105 L602 0 L101 0 L101 277 L28 251 L28 349 L101 375 L101 714 L234 714 L234 418 L396 476 L396 378 L234 320 L234 105 Z " />
<glyph glyph-name="exclam" unicode="&#x21;" horiz-adv-x="327" d="M112 234 L90 714 L238 714 L216 234 L112 234 Z M238 0 L89 0 L89 145 L238 145 L238 0 Z " />
<glyph glyph-name="quotedbl" unicode="&#x22;" horiz-adv-x="465" d="M374 443 L289 443 L269 736 L394 736 L374 443 Z M177 443 L92 443 L71 736 L197 736 L177 443 Z " />
<glyph glyph-name="numbersign" unicode="&#x23;" horiz-adv-x="738" d="M450 40 L358 40 L403 218 L262 218 L217 40 L125 40 L170 218 L55 218 L73 299 L190 299 L222 427 L101 427 L119 509 L243 509 L288 688 L380 688 L335 509 L476 509 L521 688 L613 688 L568 509 L683 509 L666 427 L547 427 L515 299 L637 299 L619 218 L495 218 L450 40 Z M314 427 L282 299 L423 299 L455 427 L314 427 Z " />
<glyph glyph-name="dollar" unicode="&#x24;" horiz-adv-x="670" d="M623 204 Q623 115 554.5 56.5 Q486 -2 375 -9 L375 -109 L302 -109 L302 -8 Q186 2 116.5 60.5 Q47 119 39 215 L161 215 Q166 163 202.5 130.5 Q239 98 302 89 L302 310 L250 319 Q154 337 107.5 384.5 Q61 432 61 512 Q61 601 128 659.5 Q195 718 302 724 L302 819 L375 819 L375 723 Q479 712 539.5 659.5 Q600 607 610 519 L490 519 Q485 562 456 588 Q427 614 375 623 L375 410 L439 398 Q532 380 577.5 332 Q623 284 623 204 Z M181 520 Q181 480 204.5 459 Q228 438 293 426 L302 424 L302 625 Q245 620 213 592 Q181 564 181 520 Z M503 195 Q503 237 476 260 Q449 283 387 294 L375 296 L375 87 Q436 93 469.5 121 Q503 149 503 195 Z " />
<glyph glyph-name="percent" unicode="&#x25;" horiz-adv-x="850" d="M226 395 Q158 395 109 443.5 Q60 492 60 560 Q60 629 108.5 677.5 Q157 726 226 726 Q294 726 342.5 677.5 Q391 629 391 560 Q391 492 342.5 443.5 Q294 395 226 395 Z M145 1 L618 714 L707 714 L234 1 L145 1 Z M226 651 Q190 651 164 624.5 Q138 598 138 560 Q138 522 163.5 496 Q189 470 226 470 Q263 470 288.5 496 Q314 522 314 560 Q314 598 288 624.5 Q262 651 226 651 Z M625 -13 Q557 -13 508.5 35.5 Q460 84 460 153 Q460 221 508.5 270 Q557 319 625 319 Q693 319 741.5 270 Q790 221 790 153 Q790 84 741.5 35.5 Q693 -13 625 -13 Z M625 244 Q589 244 563 217.5 Q537 191 537 153 Q537 115 563 88.5 Q589 62 625 62 Q662 62 687.5 88.5 Q713 115 713 153 Q713 191 687.5 217.5 Q662 244 625 244 Z " />
<glyph glyph-name="ampersand" unicode="&#x26;" horiz-adv-x="758" d="M746 0 L587 0 L524 62 Q475 26 417.5 7 Q360 -12 298 -12 Q188 -12 118 43 Q48 98 48 186 Q48 247 83 294.5 Q118 342 197 384 Q154 429 136.5 465.5 Q119 502 119 541 Q119 622 179 674 Q239 726 332 726 Q423 726 479 678.5 Q535 631 535 557 Q535 498 498.5 455 Q462 412 373 368 L532 212 Q554 247 568 287.5 Q582 328 587 373 L700 373 Q693 310 668.5 250 Q644 190 604 140 L746 0 Z M332 638 Q292 638 265.5 612.5 Q239 587 239 547 Q239 522 253 497.5 Q267 473 306 435 Q375 466 398 490.5 Q421 515 421 554 Q421 589 396 613.5 Q371 638 332 638 Z M173 198 Q173 149 211 117 Q249 85 306 85 Q347 85 384 96.5 Q421 108 454 130 L264 317 Q215 291 194 263.5 Q173 236 173 198 Z " />
<glyph glyph-name="quotesingle" unicode="&#x27;" horiz-adv-x="270" d="M179 443 L92 443 L71 736 L199 736 L179 443 Z " />
<glyph glyph-name="parenleft" unicode="&#x28;" horiz-adv-x="425" d="M215 314 Q215 208 256.5 100 Q298 -8 376 -108 L254 -108 Q172 -10 130 96.5 Q88 203 88 314 Q88 425 130 531.5 Q172 638 254 736 L376 736 Q297 628 256 521 Q215 414 215 314 Z " />
<glyph glyph-name="parenright" unicode="&#x29;" horiz-adv-x="425" d="M210 314 Q210 414 169 521 Q128 628 49 736 L171 736 Q253 638 295 531.5 Q337 425 337 314 Q337 203 295 96.5 Q253 -10 171 -108 L49 -108 Q127 -8 168.5 100 Q210 208 210 314 Z " />
<glyph glyph-name="asterisk" unicode="&#x2a;" horiz-adv-x="426" d="M175 599 L175 726 L251 726 L251 600 L369 639 L393 567 L274 527 L347 427 L286 381 L213 483 L141 381 L79 426 L152 527 L33 566 L56 639 L175 599 Z " />
<glyph glyph-name="plus" unicode="&#x2b;" horiz-adv-x="660" d="M594 380 L594 285 L377 285 L377 68 L283 68 L283 285 L65 285 L65 380 L283 380 L283 597 L377 597 L377 380 L594 380 Z " />
<glyph glyph-name="comma" unicode="&#x2c;" horiz-adv-x="327" d="M157 4 L89 4 L89 149 L238 149 L238 -10 Q238 -84 193 -125.5 Q148 -167 67 -167 L67 -98 Q114 -98 135.5 -76.5 Q157 -55 157 -10 L157 4 Z " />
<glyph glyph-name="hyphen" unicode="&#x2d;" horiz-adv-x="454" d="M367 231 L87 231 L87 338 L367 338 L367 231 Z " />
<glyph glyph-name="period" unicode="&#x2e;" horiz-adv-x="327" d="M238 0 L89 0 L89 149 L238 149 L238 0 Z " />
<glyph glyph-name="slash" unicode="&#x2f;" horiz-adv-x="534" d="M164 -108 L44 -108 L370 736 L490 736 L164 -108 Z " />
<glyph glyph-name="zero" unicode="0" horiz-adv-x="699" d="M350 -12 Q214 -12 130 90.5 Q46 193 46 357 Q46 521 130 623.5 Q214 726 350 726 Q486 726 569.5 624 Q653 522 653 357 Q653 192 569.5 90 Q486 -12 350 -12 Z M350 622 Q268 622 224 553 Q180 484 180 357 Q180 230 224 161 Q268 92 350 92 Q431 92 475 161 Q519 230 519 357 Q519 484 475 553 Q431 622 350 622 Z " />
<glyph glyph-name="one" unicode="1" horiz-adv-x="405" d="M175 521 L29 521 L29 609 Q116 609 159.5 633.5 Q203 658 216 716 L307 716 L307 0 L175 0 L175 521 Z " />
<glyph glyph-name="two" unicode="2" horiz-adv-x="596" d="M309 726 Q418 726 485.5 665.5 Q553 605 553 510 Q553 464 536 425.5 Q519 387 483 353 Q462 332 430.5 311 Q399 290 336 254 Q251 204 216.5 170.5 Q182 137 181 105 L557 105 L557 0 L36 0 L36 51 Q36 129 88 197 Q140 265 265 340 Q369 403 398.5 437 Q428 471 428 511 Q428 563 396.5 593 Q365 623 308 623 Q251 623 214 585 Q177 547 173 486 L46 486 Q53 594 124.5 660 Q196 726 309 726 Z " />
<glyph glyph-name="three" unicode="3" horiz-adv-x="619" d="M431 361 Q496 350 535.5 304.5 Q575 259 575 194 Q575 104 502 46 Q429 -12 311 -12 Q191 -12 116 48.5 Q41 109 32 213 L159 213 Q164 156 205 122.5 Q246 89 311 89 Q377 89 414.5 119.5 Q452 150 452 203 Q452 254 416 282 Q380 310 316 310 L242 310 L242 408 L314 408 Q371 408 403 435.5 Q435 463 435 514 Q435 564 402.5 594.5 Q370 625 314 625 Q255 625 217.5 590 Q180 555 176 497 L54 497 Q61 599 131.5 662.5 Q202 726 315 726 Q426 726 492.5 668 Q559 610 559 518 Q559 458 523.5 414.5 Q488 371 431 361 Z " />
<glyph glyph-name="four" unicode="4" horiz-adv-x="683" d="M368 714 L512 714 L512 280 L654 280 L654 179 L512 179 L512 0 L385 0 L385 179 L31 179 L31 281 L368 714 Z M385 280 L385 590 L148 280 L385 280 Z " />
<glyph glyph-name="five" unicode="5" horiz-adv-x="623" d="M452 234 Q452 300 415.5 340.5 Q379 381 315 381 Q274 381 241 363.5 Q208 346 188 315 L69 315 L110 714 L538 714 L538 609 L205 609 L186 423 Q209 449 250 465 Q291 481 336 481 Q444 481 511.5 412 Q579 343 579 235 Q579 126 506 57 Q433 -12 315 -12 Q196 -12 122 50 Q48 112 40 217 L172 217 Q177 159 215.5 123.5 Q254 88 315 88 Q378 88 415 128.5 Q452 169 452 234 Z " />
<glyph glyph-name="six" unicode="6" horiz-adv-x="640" d="M340 624 Q261 624 214 552 Q167 480 167 362 Q191 416 239.5 446.5 Q288 477 351 477 Q457 477 526 408.5 Q595 340 595 236 Q595 127 522 57.5 Q449 -12 333 -12 Q204 -12 125 85.5 Q46 183 46 345 Q46 515 128.5 620.5 Q211 726 344 726 Q443 726 509 671.5 Q575 617 588 524 L467 524 Q455 574 423 599 Q391 624 340 624 Z M188 234 Q188 169 228 127.5 Q268 86 332 86 Q395 86 434 127 Q473 168 473 234 Q473 299 434 340 Q395 381 332 381 Q268 381 228 340 Q188 299 188 234 Z " />
<glyph glyph-name="seven" unicode="7" horiz-adv-x="585" d="M414 609 L27 609 L27 714 L549 714 L549 613 Q433 471 381 329.5 Q329 188 327 0 L191 0 Q193 163 248.5 315 Q304 467 414 609 Z " />
<glyph glyph-name="eight" unicode="8" horiz-adv-x="652" d="M76 524 Q76 616 145 671 Q214 726 326 726 Q438 726 507 671 Q576 616 576 524 Q576 470 546.5 427.5 Q517 385 465 362 Q523 351 565.5 303 Q608 255 608 196 Q608 102 531 45 Q454 -12 326 -12 Q198 -12 121 45 Q44 102 44 196 Q44 255 86.5 303 Q129 351 187 362 Q135 385 105.5 427.5 Q76 470 76 524 Z M193 521 Q193 470 229 440.5 Q265 411 326 411 Q386 411 422.5 440.5 Q459 470 459 521 Q459 572 423 601.5 Q387 631 326 631 Q265 631 229 602 Q193 573 193 521 Z M171 201 Q171 147 212.5 116 Q254 85 326 85 Q398 85 439.5 116 Q481 147 481 201 Q481 255 439.5 286 Q398 317 326 317 Q254 317 212.5 286 Q171 255 171 201 Z " />
<glyph glyph-name="nine" unicode="9" horiz-adv-x="640" d="M300 90 Q379 90 426 162 Q473 234 473 352 Q449 298 400.5 267.5 Q352 237 289 237 Q183 237 114 305.5 Q45 374 45 478 Q45 587 118 656.5 Q191 726 307 726 Q436 726 515 628.5 Q594 531 594 369 Q594 199 511.5 93.5 Q429 -12 296 -12 Q197 -12 131 42.5 Q65 97 52 190 L173 190 Q185 140 217 115 Q249 90 300 90 Z M452 480 Q452 545 412 586.5 Q372 628 308 628 Q245 628 206 587 Q167 546 167 480 Q167 415 206 374 Q245 333 308 333 Q372 333 412 374 Q452 415 452 480 Z " />
<glyph glyph-name="colon" unicode="&#x3a;" horiz-adv-x="327" d="M238 325 L89 325 L89 474 L238 474 L238 325 Z M238 0 L89 0 L89 149 L238 149 L238 0 Z " />
<glyph glyph-name="semicolon" unicode="&#x3b;" horiz-adv-x="327" d="M157 4 L89 4 L89 149 L238 149 L238 -10 Q238 -84 193 -125.5 Q148 -167 67 -167 L67 -98 Q114 -98 135.5 -76.5 Q157 -55 157 -10 L157 4 Z M238 325 L89 325 L89 474 L238 474 L238 325 Z " />
<glyph glyph-name="less" unicode="&#x3c;" horiz-adv-x="660" d="M554 68 L93 269 L93 391 L554 592 L554 484 L194 330 L554 177 L554 68 Z " />
<glyph glyph-name="equal" unicode="&#x3d;" horiz-adv-x="660" d="M589 381 L70 381 L70 470 L589 470 L589 381 Z M589 181 L70 181 L70 270 L589 270 L589 181 Z " />
<glyph glyph-name="greater" unicode="&#x3e;" horiz-adv-x="660" d="M566 391 L566 269 L105 68 L105 177 L465 330 L105 484 L105 592 L566 391 Z " />
<glyph glyph-name="question" unicode="&#x3f;" horiz-adv-x="588" d="M304 726 Q414 726 481 667 Q548 608 548 513 Q548 454 516.5 405 Q485 356 409 305 Q372 279 359 259 Q346 239 344 214 L218 214 Q219 259 246 298.5 Q273 338 330 379 Q383 418 403 448 Q423 478 423 512 Q423 563 391.5 593.5 Q360 624 304 624 Q245 624 208 586 Q171 548 168 487 L40 487 Q47 594 119 660 Q191 726 304 726 Z M356 0 L206 0 L206 139 L356 139 L356 0 Z " />
<glyph glyph-name="at" unicode="&#x40;" horiz-adv-x="917" d="M575 449 L675 449 L624 160 Q619 131 629 116.5 Q639 102 665 102 Q725 102 761.5 160 Q798 218 798 316 Q798 440 713 514 Q628 588 488 588 Q329 588 227 484.5 Q125 381 125 221 Q125 66 224.5 -20.5 Q324 -107 489 -107 Q550 -107 606 -96 Q662 -85 714 -63 L740 -122 Q690 -147 623.5 -161.5 Q557 -176 489 -176 Q292 -176 169.5 -69.5 Q47 37 47 221 Q47 312 79.5 393 Q112 474 173 534 Q234 594 315 626 Q396 658 488 658 Q657 658 764.5 561.5 Q872 465 872 316 Q872 188 807.5 111 Q743 34 643 34 Q602 34 571 51.5 Q540 69 526 100 Q508 72 474.5 54.5 Q441 37 404 37 Q333 37 291.5 84.5 Q250 132 250 211 Q250 314 310.5 386 Q371 458 462 458 Q496 458 525 441 Q554 424 565 399 L575 449 Z M433 124 Q469 124 497.5 150.5 Q526 177 535 221 L540 258 Q549 308 530 339 Q511 370 472 370 Q423 370 391 329 Q359 288 356 228 Q353 180 373.5 152 Q394 124 433 124 Z " />
<glyph glyph-name="A" unicode="A" horiz-adv-x="746" d="M734 0 L598 0 L531 175 L209 175 L141 0 L11 0 L298 714 L447 714 L734 0 Z M373 586 L370 586 L250 278 L491 278 L373 586 Z " />
<glyph glyph-name="B" unicode="B" horiz-adv-x="696" d="M655 203 Q655 105 587.5 52.5 Q520 0 394 0 L81 0 L81 714 L368 714 Q494 714 560 664 Q626 614 626 519 Q626 472 593.5 427.5 Q561 383 518 370 Q580 353 617.5 307.5 Q655 262 655 203 Z M211 616 L211 412 L367 412 Q430 412 464 438.5 Q498 465 498 514 Q498 564 465 590 Q432 616 368 616 L211 616 Z M383 317 L211 317 L211 98 L384 98 Q452 98 488 126.5 Q524 155 524 208 Q524 260 487 288.5 Q450 317 383 317 Z " />
<glyph glyph-name="C" unicode="C" horiz-adv-x="706" d="M378 621 Q283 621 230 551.5 Q177 482 177 358 Q177 233 230 163 Q283 93 378 93 Q446 93 487.5 126.5 Q529 160 541 224 L670 224 Q650 112 574 50 Q498 -12 378 -12 Q227 -12 134.5 90 Q42 192 42 358 Q42 523 135 624.5 Q228 726 378 726 Q498 726 574 664.5 Q650 603 670 490 L541 490 Q529 554 487.5 587.5 Q446 621 378 621 Z " />
<glyph glyph-name="D" unicode="D" horiz-adv-x="754" d="M81 714 L356 714 Q517 714 615 616 Q713 518 713 357 Q713 196 615 98 Q517 0 356 0 L81 0 L81 714 Z M577 357 Q577 477 519.5 543 Q462 609 356 609 L211 609 L211 105 L356 105 Q462 105 519.5 171 Q577 237 577 357 Z " />
<glyph glyph-name="E" unicode="E" horiz-adv-x="657" d="M598 105 L598 0 L81 0 L81 714 L594 714 L594 609 L211 609 L211 410 L550 410 L550 305 L211 305 L211 105 L598 105 Z " />
<glyph glyph-name="F" unicode="F" horiz-adv-x="630" d="M214 0 L81 0 L81 714 L574 714 L574 609 L214 609 L214 391 L537 391 L537 286 L214 286 L214 0 Z " />
<glyph glyph-name="G" unicode="G" horiz-adv-x="763" d="M377 -12 Q227 -12 134.5 90 Q42 192 42 358 Q42 522 137.5 624 Q233 726 387 726 Q509 726 586 665 Q663 604 685 491 L554 491 Q541 555 498 588 Q455 621 387 621 Q289 621 233 551 Q177 481 177 358 Q177 234 232 163.5 Q287 93 385 93 Q463 93 512.5 135 Q562 177 562 243 L562 268 L424 268 L424 364 L694 364 L694 0 L591 0 L582 102 Q563 53 504.5 20.5 Q446 -12 377 -12 Z " />
<glyph glyph-name="H" unicode="H" horiz-adv-x="793" d="M214 0 L81 0 L81 714 L214 714 L214 414 L580 414 L580 714 L712 714 L712 0 L580 0 L580 310 L214 310 L214 0 Z " />
<glyph glyph-name="I" unicode="I" horiz-adv-x="295" d="M214 0 L81 0 L81 714 L214 714 L214 0 Z " />
<glyph glyph-name="J" unicode="J" horiz-adv-x="605" d="M268 86 Q334 86 367.5 128.5 Q401 171 401 253 L401 714 L533 714 L533 257 Q533 132 462 60 Q391 -12 268 -12 Q153 -12 84 50.5 Q15 113 13 221 L139 221 Q141 157 175 121.5 Q209 86 268 86 Z " />
<glyph glyph-name="K" unicode="K" horiz-adv-x="738" d="M724 0 L564 0 L313 311 L214 207 L214 0 L81 0 L81 714 L214 714 L214 355 L544 714 L696 714 L401 404 L724 0 Z " />
<glyph glyph-name="L" unicode="L" horiz-adv-x="633" d="M582 0 L81 0 L81 714 L214 714 L214 105 L582 105 L582 0 Z " />
<glyph glyph-name="M" unicode="M" horiz-adv-x="919" d="M708 561 L505 0 L409 0 L205 561 L203 561 L203 0 L81 0 L81 714 L269 714 L461 177 L463 177 L655 714 L837 714 L837 0 L710 0 L710 561 L708 561 Z " />
<glyph glyph-name="N" unicode="N" horiz-adv-x="781" d="M81 714 L236 714 L572 208 L574 208 L574 714 L700 714 L700 0 L577 0 L210 553 L208 553 L208 0 L81 0 L81 714 Z " />
<glyph glyph-name="O" unicode="O" horiz-adv-x="765" d="M383 726 Q537 726 630.5 624 Q724 522 724 357 Q724 192 630.5 90 Q537 -12 383 -12 Q229 -12 135.5 90 Q42 192 42 357 Q42 522 135.5 624 Q229 726 383 726 Z M383 93 Q481 93 535 162.5 Q589 232 589 357 Q589 481 535 551 Q481 621 383 621 Q285 621 231 551.5 Q177 482 177 357 Q177 232 231 162.5 Q285 93 383 93 Z " />
<glyph glyph-name="P" unicode="P" horiz-adv-x="675" d="M643 488 Q643 379 574.5 321 Q506 263 377 263 L211 263 L211 0 L81 0 L81 714 L376 714 Q505 714 574 656 Q643 598 643 488 Z M211 609 L211 367 L365 367 Q439 367 475.5 397 Q512 427 512 488 Q512 549 475.5 579 Q439 609 365 609 L211 609 Z " />
<glyph glyph-name="Q" unicode="Q" horiz-adv-x="765" d="M615 74 L679 4 L611 -56 L539 22 Q504 5 465 -3.5 Q426 -12 383 -12 Q229 -12 135.5 90 Q42 192 42 357 Q42 522 135.5 624 Q229 726 383 726 Q537 726 630.5 624 Q724 522 724 357 Q724 269 696 196.5 Q668 124 615 74 Z M383 621 Q285 621 231 551.5 Q177 482 177 357 Q177 232 231 162.5 Q285 93 383 93 Q404 93 423.5 96.5 Q443 100 461 107 L388 187 L457 248 L535 163 Q562 197 575.5 246 Q589 295 589 357 Q589 481 535 551 Q481 621 383 621 Z " />
<glyph glyph-name="R" unicode="R" horiz-adv-x="709" d="M211 267 L211 0 L81 0 L81 714 L387 714 Q514 714 583 656 Q652 598 652 490 Q652 416 611.5 363 Q571 310 500 287 L679 0 L534 0 L371 267 L211 267 Z M211 609 L211 371 L372 371 Q446 371 483.5 401 Q521 431 521 490 Q521 549 483.5 579 Q446 609 372 609 L211 609 Z " />
<glyph glyph-name="S" unicode="S" horiz-adv-x="667" d="M348 -12 Q209 -12 126 47.5 Q43 107 34 216 L162 216 Q168 153 215.5 119.5 Q263 86 344 86 Q412 86 453.5 115.5 Q495 145 495 196 Q495 236 467.5 258.5 Q440 281 378 293 L247 317 Q151 334 104 382.5 Q57 431 57 511 Q57 606 132 666 Q207 726 325 726 Q453 726 527 672 Q601 618 611 518 L486 518 Q479 569 436.5 598 Q394 627 326 627 Q263 627 224.5 597 Q186 567 186 519 Q186 480 210 459.5 Q234 439 300 426 L438 399 Q533 381 579 333 Q625 285 625 204 Q625 109 547 48.5 Q469 -12 348 -12 Z " />
<glyph glyph-name="T" unicode="T" horiz-adv-x="721" d="M426 0 L294 0 L294 609 L38 609 L38 714 L683 714 L683 609 L426 609 L426 0 Z " />
<glyph glyph-name="U" unicode="U" horiz-adv-x="754" d="M682 714 L682 288 Q682 144 603 66 Q524 -12 377 -12 Q231 -12 151.5 66.5 Q72 145 72 290 L72 714 L205 714 L205 289 Q205 193 248.5 143.5 Q292 94 377 94 Q462 94 506 144 Q550 194 550 289 L550 714 L682 714 Z " />
<glyph glyph-name="V" unicode="V" horiz-adv-x="736" d="M441 0 L293 0 L11 714 L152 714 L369 142 L371 142 L589 714 L724 714 L441 0 Z " />
<glyph glyph-name="W" unicode="W" horiz-adv-x="1001" d="M787 0 L641 0 L501 551 L499 551 L359 0 L214 0 L17 714 L153 714 L296 160 L298 160 L437 714 L571 714 L710 160 L712 160 L854 714 L984 714 L787 0 Z " />
<glyph glyph-name="X" unicode="X" horiz-adv-x="731" d="M720 0 L569 0 L360 280 L151 0 L11 0 L291 371 L36 714 L187 714 L367 470 L548 714 L688 714 L436 380 L720 0 Z " />
<glyph glyph-name="Y" unicode="Y" horiz-adv-x="706" d="M419 293 L419 0 L286 0 L286 293 L10 714 L158 714 L356 409 L358 409 L551 714 L696 714 L419 293 Z " />
<glyph glyph-name="Z" unicode="Z" horiz-adv-x="678" d="M624 714 L624 614 L211 105 L630 105 L630 0 L47 0 L47 93 L462 609 L60 609 L60 714 L624 714 Z " />
<glyph glyph-name="bracketleft" unicode="&#x5b;" horiz-adv-x="412" d="M352 645 L221 645 L221 -17 L352 -17 L352 -108 L98 -108 L98 736 L352 736 L352 645 Z " />
<glyph glyph-name="backslash" unicode="&#x5c;" horiz-adv-x="534" d="M370 -108 L44 736 L164 736 L490 -108 L370 -108 Z " />
<glyph glyph-name="bracketright" unicode="&#x5d;" horiz-adv-x="412" d="M60 736 L314 736 L314 -108 L60 -108 L60 -17 L191 -17 L191 645 L60 645 L60 736 Z " />
<glyph glyph-name="asciicircum" unicode="&#x5e;" horiz-adv-x="474" d="M30 461 L181 726 L293 726 L443 461 L332 461 L237 629 L142 461 L30 461 Z " />
<glyph glyph-name="underscore" unicode="&#x5f;" horiz-adv-x="435" d="M403 -130 L33 -130 L33 -38 L403 -38 L403 -130 Z " />
<glyph glyph-name="grave" unicode="&#x60;" horiz-adv-x="564" d="M329 736 L382 577 L298 577 L182 736 L329 736 Z " />
<glyph glyph-name="a" unicode="a" horiz-adv-x="574" d="M511 0 L388 0 Q385 20 383 40 Q381 60 381 80 Q363 37 318.5 13 Q274 -11 212 -11 Q135 -11 88 29 Q41 69 41 136 Q41 203 87 242 Q133 281 224 292 L376 309 L376 333 Q376 377 351 401 Q326 425 280 425 Q239 425 214 404 Q189 383 186 347 L63 347 Q71 428 130 474 Q189 520 284 520 Q390 520 445.5 470 Q501 420 501 323 L501 127 Q501 86 503.5 56.5 Q506 27 511 0 Z M168 143 Q168 112 189 95 Q210 78 247 78 Q303 78 339.5 110.5 Q376 143 376 197 L376 228 L263 215 Q209 208 188.5 191.5 Q168 175 168 143 Z " />
<glyph glyph-name="b" unicode="b" horiz-adv-x="634" d="M367 -12 Q313 -12 268.5 13.5 Q224 39 204 81 L204 0 L78 0 L78 736 L206 736 L206 425 Q226 468 269.5 494 Q313 520 367 520 Q467 520 529 446 Q591 372 591 254 Q591 136 529 62 Q467 -12 367 -12 Z M331 426 Q271 426 237 382.5 Q203 339 203 263 L203 245 Q203 169 237 125.5 Q271 82 331 82 Q392 82 427 128 Q462 174 462 254 Q462 334 427 380 Q392 426 331 426 Z " />
<glyph glyph-name="c" unicode="c" horiz-adv-x="557" d="M298 -12 Q183 -12 113 60.5 Q43 133 43 254 Q43 374 113.5 447 Q184 520 298 520 Q391 520 449.5 470.5 Q508 421 519 334 L398 334 Q390 378 364 401 Q338 424 297 424 Q238 424 204.5 378.5 Q171 333 171 254 Q171 174 204.5 129 Q238 84 297 84 Q338 84 364 107.5 Q390 131 398 174 L519 174 Q508 87 449.5 37.5 Q391 -12 298 -12 Z " />
<glyph glyph-name="d" unicode="d" horiz-adv-x="634" d="M267 -12 Q167 -12 105 62 Q43 136 43 254 Q43 372 105 446 Q167 520 267 520 Q321 520 364.5 494 Q408 468 428 425 L428 736 L556 736 L556 0 L430 0 L430 81 Q410 39 365.5 13.5 Q321 -12 267 -12 Z M303 426 Q242 426 207 380 Q172 334 172 254 Q172 174 207 128 Q242 82 303 82 Q363 82 397 125.5 Q431 169 431 245 L431 263 Q431 339 397 382.5 Q363 426 303 426 Z " />
<glyph glyph-name="e" unicode="e" horiz-adv-x="575" d="M411 158 L529 158 Q513 79 451.5 33.5 Q390 -12 300 -12 Q185 -12 114 60.5 Q43 133 43 253 Q43 373 114 446.5 Q185 520 297 520 Q405 520 468.5 449 Q532 378 532 264 L532 223 L167 223 Q173 155 207 118.5 Q241 82 300 82 Q342 82 370 101 Q398 120 411 158 Z M297 425 Q246 425 213.5 394.5 Q181 364 171 306 L410 306 Q410 359 379.5 392 Q349 425 297 425 Z " />
<glyph glyph-name="f" unicode="f" horiz-adv-x="339" d="M92 0 L92 416 L22 416 L22 508 L92 508 L92 580 Q92 657 135 698 Q178 739 258 739 Q283 739 301 738 Q319 737 332 734 L332 637 Q321 639 308.5 639.5 Q296 640 283 640 Q251 640 235.5 623.5 Q220 607 220 574 L220 508 L323 508 L323 416 L220 416 L220 0 L92 0 Z " />
<glyph glyph-name="g" unicode="g" horiz-adv-x="635" d="M298 -100 Q362 -100 395 -66 Q428 -32 428 34 L428 106 Q407 64 364 38.5 Q321 13 267 13 Q166 13 104.5 83 Q43 153 43 267 Q43 380 105 450 Q167 520 267 520 Q321 520 365 494 Q409 468 430 425 L430 508 L556 508 L556 50 Q556 -66 488.5 -128 Q421 -190 298 -190 Q195 -190 131.5 -149 Q68 -108 54 -32 L181 -32 Q191 -66 220 -83 Q249 -100 298 -100 Z M301 107 Q360 107 396.5 148.5 Q433 190 433 257 L433 278 Q433 345 396.5 386 Q360 427 301 427 Q241 427 206 384 Q171 341 171 267 Q171 193 206 150 Q241 107 301 107 Z " />
<glyph glyph-name="h" unicode="h" horiz-adv-x="622" d="M206 736 L206 422 Q226 468 267.5 494 Q309 520 364 520 Q451 520 500.5 468.5 Q550 417 550 326 L550 0 L422 0 L422 296 Q422 357 396 388 Q370 419 320 419 Q266 419 236 382 Q206 345 206 276 L206 0 L78 0 L78 736 L206 736 Z " />
<glyph glyph-name="i" unicode="i" horiz-adv-x="284" d="M210 594 L74 594 L74 719 L210 719 L210 594 Z M206 0 L78 0 L78 508 L206 508 L206 0 Z " />
<glyph glyph-name="j" unicode="j" horiz-adv-x="284" d="M210 594 L74 594 L74 719 L210 719 L210 594 Z M45 -184 Q26 -184 13 -183 Q0 -182 -14 -179 L-14 -84 Q-6 -86 1.5 -86.5 Q9 -87 17 -87 Q51 -87 64.5 -73 Q78 -59 78 -26 L78 508 L206 508 L206 -28 Q206 -106 166 -145 Q126 -184 45 -184 Z " />
<glyph glyph-name="k" unicode="k" horiz-adv-x="598" d="M579 0 L432 0 L265 215 L206 158 L206 0 L78 0 L78 736 L206 736 L206 290 L422 508 L569 508 L354 296 L579 0 Z " />
<glyph glyph-name="l" unicode="l" horiz-adv-x="284" d="M206 736 L206 0 L78 0 L78 736 L206 736 Z " />
<glyph glyph-name="m" unicode="m" horiz-adv-x="939" d="M360 520 Q418 520 457 495.5 Q496 471 517 421 Q541 467 586.5 493.5 Q632 520 688 520 Q774 520 820.5 469.5 Q867 419 867 326 L867 0 L738 0 L738 298 Q738 359 715 389 Q692 419 645 419 Q594 419 565 382 Q536 345 536 277 L536 0 L408 0 L408 298 Q408 359 385 389 Q362 419 315 419 Q263 419 234.5 382 Q206 345 206 277 L206 0 L78 0 L78 508 L204 508 L204 422 Q222 467 264 493.5 Q306 520 360 520 Z " />
<glyph glyph-name="n" unicode="n" horiz-adv-x="622" d="M78 508 L204 508 L204 422 Q223 467 265.5 493.5 Q308 520 364 520 Q451 520 500.5 468.5 Q550 417 550 326 L550 0 L422 0 L422 296 Q422 357 396 388 Q370 419 320 419 Q266 419 236 382 Q206 345 206 276 L206 0 L78 0 L78 508 Z " />
<glyph glyph-name="o" unicode="o" horiz-adv-x="600" d="M300 520 Q415 520 486 447 Q557 374 557 254 Q557 133 486.5 60.5 Q416 -12 300 -12 Q184 -12 113.5 60.5 Q43 133 43 254 Q43 374 114 447 Q185 520 300 520 Z M300 425 Q239 425 205 380 Q171 335 171 254 Q171 173 205 128 Q239 83 300 83 Q361 83 395 128 Q429 173 429 254 Q429 334 395 379.5 Q361 425 300 425 Z " />
<glyph glyph-name="p" unicode="p" horiz-adv-x="634" d="M367 -12 Q314 -12 271 13.5 Q228 39 206 81 L206 -178 L78 -178 L78 508 L204 508 L204 424 Q224 467 268.5 493.5 Q313 520 367 520 Q467 520 529 446 Q591 372 591 254 Q591 136 529 62 Q467 -12 367 -12 Z M331 426 Q271 426 237 382.5 Q203 339 203 263 L203 245 Q203 169 237 125.5 Q271 82 331 82 Q392 82 427 128 Q462 174 462 254 Q462 334 427 380 Q392 426 331 426 Z " />
<glyph glyph-name="q" unicode="q" horiz-adv-x="634" d="M267 -12 Q167 -12 105 62 Q43 136 43 254 Q43 372 105 446 Q167 520 267 520 Q321 520 365.5 493.5 Q410 467 430 424 L430 508 L556 508 L556 -178 L428 -178 L428 81 Q406 39 363 13.5 Q320 -12 267 -12 Z M303 426 Q242 426 207 380 Q172 334 172 254 Q172 174 207 128 Q242 82 303 82 Q363 82 397 125.5 Q431 169 431 245 L431 263 Q431 339 397 382.5 Q363 426 303 426 Z " />
<glyph glyph-name="r" unicode="r" horiz-adv-x="418" d="M360 517 Q371 517 381 516 Q391 515 398 513 L398 395 Q388 397 375.5 398 Q363 399 349 399 Q284 399 245 355 Q206 311 206 235 L206 0 L78 0 L78 508 L204 508 L204 394 Q222 452 263 484.5 Q304 517 360 517 Z " />
<glyph glyph-name="s" unicode="s" horiz-adv-x="535" d="M275 -12 Q170 -12 107.5 31.5 Q45 75 37 154 L159 154 Q163 118 194.5 97.5 Q226 77 273 77 Q316 77 342.5 94 Q369 111 369 140 Q369 164 351.5 176.5 Q334 189 291 197 L201 213 Q127 226 91 262 Q55 298 55 358 Q55 429 113 474.5 Q171 520 261 520 Q358 520 414.5 479.5 Q471 439 479 364 L362 364 Q358 394 331 412 Q304 430 262 430 Q222 430 197.5 414 Q173 398 173 371 Q173 347 190 334.5 Q207 322 251 314 L350 297 Q419 285 454 247.5 Q489 210 489 149 Q489 78 428.5 33 Q368 -12 275 -12 Z " />
<glyph glyph-name="t" unicode="t" horiz-adv-x="389" d="M280 95 Q297 95 313 97.5 Q329 100 347 105 L347 7 Q321 -1 297 -4.5 Q273 -8 246 -8 Q165 -8 126.5 28 Q88 64 88 139 L88 416 L18 416 L18 508 L88 508 L88 635 L215 635 L215 508 L336 508 L336 416 L214 416 L214 159 Q214 126 229.5 110.5 Q245 95 280 95 Z " />
<glyph glyph-name="u" unicode="u" horiz-adv-x="616" d="M538 508 L538 0 L412 0 L412 85 Q393 40 351 14 Q309 -12 254 -12 Q168 -12 120.5 38.5 Q73 89 73 181 L73 508 L202 508 L202 209 Q202 148 226.5 117.5 Q251 87 300 87 Q352 87 380.5 124.5 Q409 162 409 232 L409 508 L538 508 Z " />
<glyph glyph-name="v" unicode="v" horiz-adv-x="575" d="M360 0 L220 0 L20 508 L149 508 L290 125 L292 125 L430 508 L555 508 L360 0 Z " />
<glyph glyph-name="w" unicode="w" horiz-adv-x="813" d="M349 508 L468 508 L565 131 L567 131 L670 508 L793 508 L638 0 L508 0 L408 367 L405 367 L306 0 L175 0 L20 508 L147 508 L250 131 L252 131 L349 508 Z " />
<glyph glyph-name="x" unicode="x" horiz-adv-x="585" d="M288 174 L161 0 L24 0 L219 260 L36 508 L183 508 L295 351 L408 508 L545 508 L364 266 L561 0 L414 0 L288 174 Z " />
<glyph glyph-name="y" unicode="y" horiz-adv-x="574" d="M117 -87 Q157 -87 177.5 -69 Q198 -51 218 1 L20 508 L150 508 L291 125 L293 125 L427 508 L554 508 L356 -9 Q320 -104 271 -144.5 Q222 -185 142 -186 Q129 -186 112.5 -184.5 Q96 -183 83 -181 L83 -84 Q91 -86 98 -86.5 Q105 -87 117 -87 Z " />
<glyph glyph-name="z" unicode="z" horiz-adv-x="534" d="M477 508 L477 419 L203 94 L487 94 L487 0 L47 0 L47 83 L321 414 L56 414 L56 508 L477 508 Z " />
<glyph glyph-name="braceleft" unicode="&#x7b;" horiz-adv-x="430" d="M78 268 L33 268 L33 360 L78 360 Q103 360 117.5 375 Q132 390 132 416 L132 621 Q132 678 165 707 Q198 736 264 736 L369 736 L369 646 L297 646 Q269 646 258 636 Q247 626 247 603 L247 403 Q247 366 225 343 Q203 320 162 314 Q203 308 225 285 Q247 262 247 225 L247 25 Q247 2 258 -8 Q269 -18 297 -18 L369 -18 L369 -108 L264 -108 Q198 -108 165 -79 Q132 -50 132 7 L132 212 Q132 238 117.5 253 Q103 268 78 268 Z " />
<glyph glyph-name="bar" unicode="&#x7c;" horiz-adv-x="330" d="M109 -108 L109 736 L221 736 L221 -108 L109 -108 Z " />
<glyph glyph-name="braceright" unicode="&#x7d;" horiz-adv-x="430" d="M352 268 Q327 268 312.5 253 Q298 238 298 212 L298 7 Q298 -50 265 -79 Q232 -108 166 -108 L61 -108 L61 -18 L133 -18 Q161 -18 172 -8 Q183 2 183 25 L183 225 Q183 262 205 285 Q227 308 268 314 Q227 320 205 343 Q183 366 183 403 L183 603 Q183 626 172 636 Q161 646 133 646 L61 646 L61 736 L166 736 Q232 736 265 707 Q298 678 298 621 L298 416 Q298 390 312.5 375 Q327 360 352 360 L397 360 L397 268 L352 268 L352 268 Z " />
<glyph glyph-name="asciitilde" unicode="&#x7e;" horiz-adv-x="551" d="M266 266 Q240 284 228.5 289.5 Q217 295 207 295 Q189 295 178 277 Q167 259 165 228 L87 228 Q87 304 115 349 Q143 394 191 394 Q210 394 230 386 Q250 378 285 354 Q311 336 322.5 331 Q334 326 343 326 Q362 326 373 342.5 Q384 359 386 392 L464 392 Q464 317 435.5 271.5 Q407 226 359 226 Q340 226 320 234 Q300 242 266 266 Z " />
<glyph glyph-name="Adieresis" unicode="&#xc4;" horiz-adv-x="746" d="M734 0 L598 0 L531 175 L209 175 L141 0 L11 0 L298 714 L447 714 L734 0 Z M373 586 L370 586 L250 278 L491 278 L373 586 Z M532 775 L414 775 L414 900 L532 900 L532 775 Z M332 775 L214 775 L214 900 L332 900 L332 775 Z " />
<glyph glyph-name="Aring" unicode="&#xc5;" horiz-adv-x="746" d="M531 175 L209 175 L141 0 L11 0 L288 689 Q267 708 255.5 733 Q244 758 244 786 Q244 839 282 877 Q320 915 373 915 Q426 915 463.5 877 Q501 839 501 786 Q501 758 489.5 732.5 Q478 707 457 689 L734 0 L598 0 L531 175 Z M437 786 Q437 812 418 831 Q399 850 373 850 Q346 850 327 831 Q308 812 308 786 Q308 759 327 740 Q346 721 373 721 Q399 721 418 740.5 Q437 760 437 786 Z M373 586 L370 586 L250 278 L491 278 L373 586 Z " />
<glyph glyph-name="Ccedilla" unicode="&#xc7;" horiz-adv-x="706" d="M484 -111 Q484 -152 449 -176 Q414 -200 360 -200 Q336 -200 312 -195.5 Q288 -191 268 -182 L268 -124 Q297 -136 317.5 -140.5 Q338 -145 358 -145 Q382 -145 396 -137 Q410 -129 410 -114 Q410 -92 384 -85.5 Q358 -79 328 -89 L305 -67 L340 -10 Q205 4 123.5 104 Q42 204 42 358 Q42 523 135 624.5 Q228 726 378 726 Q498 726 574 664.5 Q650 603 670 490 L541 490 Q529 554 487.5 587.5 Q446 621 378 621 Q283 621 230 551.5 Q177 482 177 358 Q177 233 230 163 Q283 93 378 93 Q446 93 487.5 126.5 Q529 160 541 224 L670 224 Q651 115 578.5 53.5 Q506 -8 391 -12 L374 -39 Q420 -34 452 -54 Q484 -74 484 -111 Z " />
<glyph glyph-name="Eacute" unicode="&#xc9;" horiz-adv-x="657" d="M598 105 L598 0 L81 0 L81 714 L594 714 L594 609 L211 609 L211 410 L550 410 L550 305 L211 305 L211 105 L598 105 Z M485 917 L367 764 L288 764 L341 917 L485 917 Z " />
<glyph glyph-name="Ntilde" unicode="&#xd1;" horiz-adv-x="781" d="M81 714 L236 714 L572 208 L574 208 L574 714 L700 714 L700 0 L577 0 L210 553 L208 553 L208 0 L81 0 L81 714 Z M378 805 Q354 822 343 827 Q332 832 323 832 Q305 832 294.5 815.5 Q284 799 282 768 L211 768 Q211 839 237 881 Q263 923 308 923 Q326 923 344.5 915.5 Q363 908 396 885 Q420 868 431 863 Q442 858 451 858 Q469 858 479.5 874.5 Q490 891 492 922 L563 922 Q563 850 537 808.5 Q511 767 466 767 Q448 767 429.5 774.5 Q411 782 378 805 Z " />
<glyph glyph-name="Odieresis" unicode="&#xd6;" horiz-adv-x="765" d="M383 726 Q537 726 630.5 624 Q724 522 724 357 Q724 192 630.5 90 Q537 -12 383 -12 Q229 -12 135.5 90 Q42 192 42 357 Q42 522 135.5 624 Q229 726 383 726 Z M383 93 Q481 93 535 162.5 Q589 232 589 357 Q589 481 535 551 Q481 621 383 621 Q285 621 231 551.5 Q177 482 177 357 Q177 232 231 162.5 Q285 93 383 93 Z M542 775 L424 775 L424 900 L542 900 L542 775 Z M342 775 L224 775 L224 900 L342 900 L342 775 Z " />
<glyph glyph-name="Udieresis" unicode="&#xdc;" horiz-adv-x="754" d="M682 714 L682 288 Q682 144 603 66 Q524 -12 377 -12 Q231 -12 151.5 66.5 Q72 145 72 290 L72 714 L205 714 L205 289 Q205 193 248.5 143.5 Q292 94 377 94 Q462 94 506 144 Q550 194 550 289 L550 714 L682 714 Z M537 775 L419 775 L419 900 L537 900 L537 775 Z M337 775 L219 775 L219 900 L337 900 L337 775 Z " />
<glyph glyph-name="aacute" unicode="&#xe1;" horiz-adv-x="574" d="M511 0 L388 0 Q385 20 383 40 Q381 60 381 80 Q363 37 318.5 13 Q274 -11 212 -11 Q135 -11 88 29 Q41 69 41 136 Q41 203 87 242 Q133 281 224 292 L376 309 L376 333 Q376 377 351 401 Q326 425 280 425 Q239 425 214 404 Q189 383 186 347 L63 347 Q71 428 130 474 Q189 520 284 520 Q390 520 445.5 470 Q501 420 501 323 L501 127 Q501 86 503.5 56.5 Q506 27 511 0 Z M168 143 Q168 112 189 95 Q210 78 247 78 Q303 78 339.5 110.5 Q376 143 376 197 L376 228 L263 215 Q209 208 188.5 191.5 Q168 175 168 143 Z M430 736 L314 577 L230 577 L283 736 L430 736 Z " />
<glyph glyph-name="agrave" unicode="&#xe0;" horiz-adv-x="574" d="M511 0 L388 0 Q385 20 383 40 Q381 60 381 80 Q363 37 318.5 13 Q274 -11 212 -11 Q135 -11 88 29 Q41 69 41 136 Q41 203 87 242 Q133 281 224 292 L376 309 L376 333 Q376 377 351 401 Q326 425 280 425 Q239 425 214 404 Q189 383 186 347 L63 347 Q71 428 130 474 Q189 520 284 520 Q390 520 445.5 470 Q501 420 501 323 L501 127 Q501 86 503.5 56.5 Q506 27 511 0 Z M168 143 Q168 112 189 95 Q210 78 247 78 Q303 78 339.5 110.5 Q376 143 376 197 L376 228 L263 215 Q209 208 188.5 191.5 Q168 175 168 143 Z M286 736 L339 577 L255 577 L139 736 L286 736 Z " />
<glyph glyph-name="acircumflex" unicode="&#xe2;" horiz-adv-x="574" d="M511 0 L388 0 Q385 20 383 40 Q381 60 381 80 Q363 37 318.5 13 Q274 -11 212 -11 Q135 -11 88 29 Q41 69 41 136 Q41 203 87 242 Q133 281 224 292 L376 309 L376 333 Q376 377 351 401 Q326 425 280 425 Q239 425 214 404 Q189 383 186 347 L63 347 Q71 428 130 474 Q189 520 284 520 Q390 520 445.5 470 Q501 420 501 323 L501 127 Q501 86 503.5 56.5 Q506 27 511 0 Z M168 143 Q168 112 189 95 Q210 78 247 78 Q303 78 339.5 110.5 Q376 143 376 197 L376 228 L263 215 Q209 208 188.5 191.5 Q168 175 168 143 Z M128 576 L226 736 L342 736 L440 576 L366 576 L285 663 L202 576 L128 576 Z " />
<glyph glyph-name="adieresis" unicode="&#xe4;" horiz-adv-x="574" d="M511 0 L388 0 Q385 20 383 40 Q381 60 381 80 Q363 37 318.5 13 Q274 -11 212 -11 Q135 -11 88 29 Q41 69 41 136 Q41 203 87 242 Q133 281 224 292 L376 309 L376 333 Q376 377 351 401 Q326 425 280 425 Q239 425 214 404 Q189 383 186 347 L63 347 Q71 428 130 474 Q189 520 284 520 Q390 520 445.5 470 Q501 420 501 323 L501 127 Q501 86 503.5 56.5 Q506 27 511 0 Z M168 143 Q168 112 189 95 Q210 78 247 78 Q303 78 339.5 110.5 Q376 143 376 197 L376 228 L263 215 Q209 208 188.5 191.5 Q168 175 168 143 Z M444 594 L326 594 L326 719 L444 719 L444 594 Z M244 594 L126 594 L126 719 L244 719 L244 594 Z " />
<glyph glyph-name="atilde" unicode="&#xe3;" horiz-adv-x="574" d="M511 0 L388 0 Q385 20 383 40 Q381 60 381 80 Q363 37 318.5 13 Q274 -11 212 -11 Q135 -11 88 29 Q41 69 41 136 Q41 203 87 242 Q133 281 224 292 L376 309 L376 333 Q376 377 351 401 Q326 425 280 425 Q239 425 214 404 Q189 383 186 347 L63 347 Q71 428 130 474 Q189 520 284 520 Q390 520 445.5 470 Q501 420 501 323 L501 127 Q501 86 503.5 56.5 Q506 27 511 0 Z M168 143 Q168 112 189 95 Q210 78 247 78 Q303 78 339.5 110.5 Q376 143 376 197 L376 228 L263 215 Q209 208 188.5 191.5 Q168 175 168 143 Z M277 613 Q253 631 242 636 Q231 641 222 641 Q204 641 193.5 624 Q183 607 181 575 L110 575 Q110 646 136 688 Q162 730 207 730 Q225 730 243.5 722 Q262 714 295 691 Q319 673 330 668 Q341 663 350 663 Q368 663 378.5 680 Q389 697 391 729 L462 729 Q462 657 436 615.5 Q410 574 365 574 Q347 574 328.5 582 Q310 590 277 613 Z " />
<glyph glyph-name="aring" unicode="&#xe5;" horiz-adv-x="574" d="M511 0 L388 0 Q385 20 383 40 Q381 60 381 80 Q363 37 318.5 13 Q274 -11 212 -11 Q135 -11 88 29 Q41 69 41 136 Q41 203 87 242 Q133 281 224 292 L376 309 L376 333 Q376 377 351 401 Q326 425 280 425 Q239 425 214 404 Q189 383 186 347 L63 347 Q71 428 130 474 Q189 520 284 520 Q390 520 445.5 470 Q501 420 501 323 L501 127 Q501 86 503.5 56.5 Q506 27 511 0 Z M168 143 Q168 112 189 95 Q210 78 247 78 Q303 78 339.5 110.5 Q376 143 376 197 L376 228 L263 215 Q209 208 188.5 191.5 Q168 175 168 143 Z M286 566 Q240 566 207.5 598.5 Q175 631 175 676 Q175 722 207.5 754.5 Q240 787 286 787 Q332 787 364 754.5 Q396 722 396 676 Q396 631 363.5 598.5 Q331 566 286 566 Z M286 624 Q307 624 322.5 639.5 Q338 655 338 676 Q338 698 323 713.5 Q308 729 286 729 Q264 729 248.5 713.5 Q233 698 233 676 Q233 655 248.5 639.5 Q264 624 286 624 Z " />
<glyph glyph-name="ccedilla" unicode="&#xe7;" horiz-adv-x="557" d="M403 -111 Q403 -152 368 -176 Q333 -200 279 -200 Q255 -200 231 -195.5 Q207 -191 187 -182 L187 -124 Q216 -136 236.5 -140.5 Q257 -145 277 -145 Q301 -145 315 -137 Q329 -129 329 -114 Q329 -92 303 -85.5 Q277 -79 247 -89 L224 -67 L259 -10 Q160 3 101.5 74 Q43 145 43 254 Q43 374 113.5 447 Q184 520 298 520 Q391 520 449.5 470.5 Q508 421 519 334 L398 334 Q390 378 364 401 Q338 424 297 424 Q238 424 204.5 378.5 Q171 333 171 254 Q171 174 204.5 129 Q238 84 297 84 Q338 84 364 107.5 Q390 131 398 174 L519 174 Q508 90 453 41 Q398 -8 310 -12 L293 -39 Q339 -34 371 -54 Q403 -74 403 -111 Z " />
<glyph glyph-name="eacute" unicode="&#xe9;" horiz-adv-x="575" d="M411 158 L529 158 Q513 79 451.5 33.5 Q390 -12 300 -12 Q185 -12 114 60.5 Q43 133 43 253 Q43 373 114 446.5 Q185 520 297 520 Q405 520 468.5 449 Q532 378 532 264 L532 223 L167 223 Q173 155 207 118.5 Q241 82 300 82 Q342 82 370 101 Q398 120 411 158 Z M297 425 Q246 425 213.5 394.5 Q181 364 171 306 L410 306 Q410 359 379.5 392 Q349 425 297 425 Z M450 736 L334 577 L250 577 L303 736 L450 736 Z " />
<glyph glyph-name="egrave" unicode="&#xe8;" horiz-adv-x="575" d="M411 158 L529 158 Q513 79 451.5 33.5 Q390 -12 300 -12 Q185 -12 114 60.5 Q43 133 43 253 Q43 373 114 446.5 Q185 520 297 520 Q405 520 468.5 449 Q532 378 532 264 L532 223 L167 223 Q173 155 207 118.5 Q241 82 300 82 Q342 82 370 101 Q398 120 411 158 Z M297 425 Q246 425 213.5 394.5 Q181 364 171 306 L410 306 Q410 359 379.5 392 Q349 425 297 425 Z M295 736 L348 577 L264 577 L148 736 L295 736 Z " />
<glyph glyph-name="ecircumflex" unicode="&#xea;" horiz-adv-x="575" d="M411 158 L529 158 Q513 79 451.5 33.5 Q390 -12 300 -12 Q185 -12 114 60.5 Q43 133 43 253 Q43 373 114 446.5 Q185 520 297 520 Q405 520 468.5 449 Q532 378 532 264 L532 223 L167 223 Q173 155 207 118.5 Q241 82 300 82 Q342 82 370 101 Q398 120 411 158 Z M297 425 Q246 425 213.5 394.5 Q181 364 171 306 L410 306 Q410 359 379.5 392 Q349 425 297 425 Z M143 576 L241 736 L357 736 L455 576 L381 576 L300 663 L217 576 L143 576 Z " />
<glyph glyph-name="edieresis" unicode="&#xeb;" horiz-adv-x="575" d="M411 158 L529 158 Q513 79 451.5 33.5 Q390 -12 300 -12 Q185 -12 114 60.5 Q43 133 43 253 Q43 373 114 446.5 Q185 520 297 520 Q405 520 468.5 449 Q532 378 532 264 L532 223 L167 223 Q173 155 207 118.5 Q241 82 300 82 Q342 82 370 101 Q398 120 411 158 Z M297 425 Q246 425 213.5 394.5 Q181 364 171 306 L410 306 Q410 359 379.5 392 Q349 425 297 425 Z M457 594 L339 594 L339 719 L457 719 L457 594 Z M257 594 L139 594 L139 719 L257 719 L257 594 Z " />
<glyph glyph-name="iacute" unicode="&#xed;" horiz-adv-x="284" d="M78 0 L78 508 L206 508 L206 0 L78 0 Z M300 736 L184 577 L100 577 L153 736 L300 736 Z " />
<glyph glyph-name="igrave" unicode="&#xec;" horiz-adv-x="284" d="M78 0 L78 508 L206 508 L206 0 L78 0 Z M137 736 L190 577 L106 577 L-10 736 L137 736 Z " />
<glyph glyph-name="icircumflex" unicode="&#xee;" horiz-adv-x="284" d="M78 0 L78 508 L206 508 L206 0 L78 0 Z M-13 576 L85 736 L201 736 L299 576 L225 576 L144 663 L61 576 L-13 576 Z " />
<glyph glyph-name="idieresis" unicode="&#xef;" horiz-adv-x="284" d="M78 0 L78 508 L206 508 L206 0 L78 0 Z M302 594 L184 594 L184 719 L302 719 L302 594 Z M102 594 L-16 594 L-16 719 L102 719 L102 594 Z " />
<glyph glyph-name="ntilde" unicode="&#xf1;" horiz-adv-x="622" d="M78 508 L204 508 L204 422 Q223 467 265.5 493.5 Q308 520 364 520 Q451 520 500.5 468.5 Q550 417 550 326 L550 0 L422 0 L422 296 Q422 357 396 388 Q370 419 320 419 Q266 419 236 382 Q206 345 206 276 L206 0 L78 0 L78 508 Z M306 613 Q282 631 271 636 Q260 641 251 641 Q233 641 222.5 624 Q212 607 210 575 L139 575 Q139 646 165 688 Q191 730 236 730 Q254 730 272.5 722 Q291 714 324 691 Q348 673 359 668 Q370 663 379 663 Q397 663 407.5 680 Q418 697 420 729 L491 729 Q491 657 465 615.5 Q439 574 394 574 Q376 574 357.5 582 Q339 590 306 613 Z " />
<glyph glyph-name="oacute" unicode="&#xf3;" horiz-adv-x="600" d="M300 520 Q415 520 486 447 Q557 374 557 254 Q557 133 486.5 60.5 Q416 -12 300 -12 Q184 -12 113.5 60.5 Q43 133 43 254 Q43 374 114 447 Q185 520 300 520 Z M300 425 Q239 425 205 380 Q171 335 171 254 Q171 173 205 128 Q239 83 300 83 Q361 83 395 128 Q429 173 429 254 Q429 334 395 379.5 Q361 425 300 425 Z M447 736 L331 577 L247 577 L300 736 L447 736 Z " />
<glyph glyph-name="ograve" unicode="&#xf2;" horiz-adv-x="600" d="M300 520 Q415 520 486 447 Q557 374 557 254 Q557 133 486.5 60.5 Q416 -12 300 -12 Q184 -12 113.5 60.5 Q43 133 43 254 Q43 374 114 447 Q185 520 300 520 Z M300 425 Q239 425 205 380 Q171 335 171 254 Q171 173 205 128 Q239 83 300 83 Q361 83 395 128 Q429 173 429 254 Q429 334 395 379.5 Q361 425 300 425 Z M304 736 L357 577 L273 577 L157 736 L304 736 Z " />
<glyph glyph-name="ocircumflex" unicode="&#xf4;" horiz-adv-x="600" d="M300 520 Q415 520 486 447 Q557 374 557 254 Q557 133 486.5 60.5 Q416 -12 300 -12 Q184 -12 113.5 60.5 Q43 133 43 254 Q43 374 114 447 Q185 520 300 520 Z M300 425 Q239 425 205 380 Q171 335 171 254 Q171 173 205 128 Q239 83 300 83 Q361 83 395 128 Q429 173 429 254 Q429 334 395 379.5 Q361 425 300 425 Z M144 576 L242 736 L358 736 L456 576 L382 576 L301 663 L218 576 L144 576 Z " />
<glyph glyph-name="odieresis" unicode="&#xf6;" horiz-adv-x="600" d="M300 520 Q415 520 486 447 Q557 374 557 254 Q557 133 486.5 60.5 Q416 -12 300 -12 Q184 -12 113.5 60.5 Q43 133 43 254 Q43 374 114 447 Q185 520 300 520 Z M300 425 Q239 425 205 380 Q171 335 171 254 Q171 173 205 128 Q239 83 300 83 Q361 83 395 128 Q429 173 429 254 Q429 334 395 379.5 Q361 425 300 425 Z M459 594 L341 594 L341 719 L459 719 L459 594 Z M259 594 L141 594 L141 719 L259 719 L259 594 Z " />
<glyph glyph-name="otilde" unicode="&#xf5;" horiz-adv-x="600" d="M300 520 Q415 520 486 447 Q557 374 557 254 Q557 133 486.5 60.5 Q416 -12 300 -12 Q184 -12 113.5 60.5 Q43 133 43 254 Q43 374 114 447 Q185 520 300 520 Z M300 425 Q239 425 205 380 Q171 335 171 254 Q171 173 205 128 Q239 83 300 83 Q361 83 395 128 Q429 173 429 254 Q429 334 395 379.5 Q361 425 300 425 Z M291 613 Q267 631 256 636 Q245 641 236 641 Q218 641 207.5 624 Q197 607 195 575 L124 575 Q124 646 150 688 Q176 730 221 730 Q239 730 257.5 722 Q276 714 309 691 Q333 673 344 668 Q355 663 364 663 Q382 663 392.5 680 Q403 697 405 729 L476 729 Q476 657 450 615.5 Q424 574 379 574 Q361 574 342.5 582 Q324 590 291 613 Z " />
<glyph glyph-name="uacute" unicode="&#xfa;" horiz-adv-x="616" d="M538 508 L538 0 L412 0 L412 85 Q393 40 351 14 Q309 -12 254 -12 Q168 -12 120.5 38.5 Q73 89 73 181 L73 508 L202 508 L202 209 Q202 148 226.5 117.5 Q251 87 300 87 Q352 87 380.5 124.5 Q409 162 409 232 L409 508 L538 508 Z M456 736 L340 577 L256 577 L309 736 L456 736 Z " />
<glyph glyph-name="ugrave" unicode="&#xf9;" horiz-adv-x="616" d="M538 508 L538 0 L412 0 L412 85 Q393 40 351 14 Q309 -12 254 -12 Q168 -12 120.5 38.5 Q73 89 73 181 L73 508 L202 508 L202 209 Q202 148 226.5 117.5 Q251 87 300 87 Q352 87 380.5 124.5 Q409 162 409 232 L409 508 L538 508 Z M304 736 L357 577 L273 577 L157 736 L304 736 Z " />
<glyph glyph-name="ucircumflex" unicode="&#xfb;" horiz-adv-x="616" d="M538 508 L538 0 L412 0 L412 85 Q393 40 351 14 Q309 -12 254 -12 Q168 -12 120.5 38.5 Q73 89 73 181 L73 508 L202 508 L202 209 Q202 148 226.5 117.5 Q251 87 300 87 Q352 87 380.5 124.5 Q409 162 409 232 L409 508 L538 508 Z M151 576 L249 736 L365 736 L463 576 L389 576 L308 663 L225 576 L151 576 Z " />
<glyph glyph-name="udieresis" unicode="&#xfc;" horiz-adv-x="616" d="M538 508 L538 0 L412 0 L412 85 Q393 40 351 14 Q309 -12 254 -12 Q168 -12 120.5 38.5 Q73 89 73 181 L73 508 L202 508 L202 209 Q202 148 226.5 117.5 Q251 87 300 87 Q352 87 380.5 124.5 Q409 162 409 232 L409 508 L538 508 Z M466 594 L348 594 L348 719 L466 719 L466 594 Z M266 594 L148 594 L148 719 L266 719 L266 594 Z " />
<glyph glyph-name="dagger" unicode="&#x2020;" horiz-adv-x="387" d="M352 616 L352 542 L232 542 L232 311 L155 311 L155 542 L36 542 L36 616 L155 616 L155 726 L232 726 L232 616 L352 616 Z " />
<glyph glyph-name="degree" unicode="&#xb0;" horiz-adv-x="367" d="M329 583 Q329 522 287 481.5 Q245 441 183 441 Q121 441 79.5 481.5 Q38 522 38 583 Q38 645 79 685.5 Q120 726 183 726 Q246 726 287.5 685.5 Q329 645 329 583 Z M262 583 Q262 616 239.5 638 Q217 660 183 660 Q149 660 127 638.5 Q105 617 105 583 Q105 550 127 528.5 Q149 507 183 507 Q217 507 239.5 528.5 Q262 550 262 583 Z " />
<glyph glyph-name="cent" unicode="&#xa2;" horiz-adv-x="573" d="M429 179 L532 179 Q522 102 469.5 52 Q417 2 338 -7 L338 -106 L266 -106 L266 -6 Q166 7 105.5 79 Q45 151 45 261 Q45 370 105.5 442.5 Q166 515 266 527 L266 643 L338 643 L338 528 Q417 519 469.5 469 Q522 419 532 342 L429 342 Q423 380 399 404.5 Q375 429 338 436 L338 85 Q376 92 399.5 116.5 Q423 141 429 179 Z M158 261 Q158 192 186.5 146.5 Q215 101 266 87 L266 434 Q215 420 186.5 375 Q158 330 158 261 Z " />
<glyph glyph-name="sterling" unicode="&#xa3;" horiz-adv-x="644" d="M218 105 L601 105 L601 0 L52 0 L52 105 L65 105 Q109 105 134 145.5 Q159 186 159 257 Q159 262 158.5 267 Q158 272 157 282 L63 282 L63 374 L127 374 Q107 422 100 451.5 Q93 481 93 510 Q93 600 163 663 Q233 726 340 726 Q453 726 519 662.5 Q585 599 593 487 L470 487 Q466 553 432.5 588.5 Q399 624 340 624 Q286 624 253 591 Q220 558 220 508 Q220 492 223 475.5 Q226 459 233 440 Q238 427 247 405 Q256 383 260 374 L437 374 L437 282 L281 282 Q282 279 282 275 Q282 271 282 264 Q282 216 265.5 175 Q249 134 218 105 Z " />
<glyph glyph-name="section" unicode="&#xa7;" horiz-adv-x="611" d="M470 117 Q486 97 493.5 74 Q501 51 501 24 Q501 -48 443.5 -93.5 Q386 -139 295 -139 Q200 -139 142.5 -96.5 Q85 -54 76 22 L190 22 Q195 -11 223.5 -32 Q252 -53 294 -53 Q334 -53 358.5 -33.5 Q383 -14 383 18 Q383 41 369 58 Q355 75 318 95 L191 162 Q117 201 86 241.5 Q55 282 55 339 Q55 380 75.5 413 Q96 446 136 470 Q121 489 113.5 512.5 Q106 536 106 564 Q106 636 163 681 Q220 726 311 726 Q406 726 463 685 Q520 644 528 570 L414 570 Q410 602 382 621 Q354 640 311 640 Q271 640 247.5 620.5 Q224 601 224 570 Q224 546 237.5 528.5 Q251 511 288 492 L415 425 Q489 386 520 345.5 Q551 305 551 248 Q551 208 530.5 174.5 Q510 141 470 117 Z M246 256 L369 190 Q376 186 382.5 182.5 Q389 179 396 175 Q415 186 426 204 Q437 222 437 243 Q437 269 421 288 Q405 307 361 332 L238 397 Q231 401 224.5 404.5 Q218 408 211 412 Q192 401 180.5 382.5 Q169 364 169 344 Q169 317 185 298.5 Q201 280 246 256 Z " />
<glyph glyph-name="bullet" unicode="&#x2022;" horiz-adv-x="482" d="M242 150 Q178 150 132.5 195 Q87 240 87 304 Q87 366 132.5 411 Q178 456 242 456 Q305 456 350 411.5 Q395 367 395 304 Q395 240 350.5 195 Q306 150 242 150 Z " />
<glyph glyph-name="paragraph" unicode="&#xb6;" horiz-adv-x="671" d="M387 -127 L292 -127 L292 315 Q173 315 107 367.5 Q41 420 41 514 Q41 608 107 661 Q173 714 292 714 L584 714 L584 -127 L489 -127 L489 626 L387 626 L387 -127 Z " />
<glyph glyph-name="germandbls" unicode="&#xdf;" horiz-adv-x="636" d="M539 567 Q539 516 512.5 476 Q486 436 446 420 Q512 401 552.5 348 Q593 295 593 224 Q593 118 526 56 Q459 -6 349 -6 Q327 -6 312.5 -4.5 Q298 -3 283 1 L283 100 Q294 98 305.5 97 Q317 96 332 96 Q397 96 436.5 132 Q476 168 476 230 Q476 289 435 324.5 Q394 360 326 360 L294 360 L294 459 L320 459 Q368 459 395.5 485 Q423 511 423 557 Q423 600 396.5 625 Q370 650 325 650 Q269 650 237.5 610.5 Q206 571 206 502 L206 0 L78 0 L78 497 Q78 611 145 679.5 Q212 748 324 748 Q422 748 480.5 698.5 Q539 649 539 567 Z " />
<glyph glyph-name="registered" unicode="&#xae;" horiz-adv-x="571" d="M55 495 Q55 593 122 659.5 Q189 726 286 726 Q383 726 449.5 660 Q516 594 516 495 Q516 396 449.5 329.5 Q383 263 286 263 Q189 263 122 329.5 Q55 396 55 495 Z M88 495 Q88 408 145 350.5 Q202 293 286 293 Q370 293 427 350.5 Q484 408 484 495 Q484 581 427 638.5 Q370 696 286 696 Q202 696 145 638.5 Q88 581 88 495 Z M246 461 L246 376 L189 376 L189 621 L301 621 Q346 621 370.5 600.5 Q395 580 395 541 Q395 516 382.5 498 Q370 480 348 470 L403 376 L341 376 L291 461 L246 461 Z M246 575 L246 506 L293 506 Q317 506 327.5 514.5 Q338 523 338 541 Q338 559 327 567 Q316 575 293 575 L246 575 Z " />
<glyph glyph-name="copyright" unicode="&#xa9;" horiz-adv-x="870" d="M435 727 Q588 727 696 618.5 Q804 510 804 356 Q804 204 696 96 Q588 -12 435 -12 Q361 -12 293.5 16 Q226 44 174 96 Q122 148 93.5 215.5 Q65 283 65 356 Q65 430 93.5 498 Q122 566 174 618 Q226 671 293.5 699 Q361 727 435 727 Z M435 684 Q300 684 204.5 588 Q109 492 109 356 Q109 222 204.5 126.5 Q300 31 435 31 Q570 31 665.5 126.5 Q761 222 761 356 Q761 492 665.5 588 Q570 684 435 684 Z M440 502 Q388 502 358.5 464 Q329 426 329 358 Q329 291 358 253 Q387 215 440 214 Q477 215 500.5 233.5 Q524 252 530 286 L625 286 Q612 215 564.5 176.5 Q517 138 441 138 Q349 138 291.5 199 Q234 260 234 358 Q234 456 291.5 517 Q349 578 441 578 Q518 578 565 540 Q612 502 625 430 L530 430 Q524 465 500.5 483.5 Q477 502 440 502 Z " />
<glyph glyph-name="trademark" unicode="&#x2122;" horiz-adv-x="885" d="M236 643 L236 390 L154 390 L154 643 L45 643 L45 714 L347 714 L347 643 L236 643 Z M684 634 L613 390 L554 390 L482 634 L480 634 L480 390 L405 390 L405 714 L527 714 L586 493 L589 493 L653 714 L766 714 L766 390 L686 390 L686 634 L684 634 Z " />
<glyph glyph-name="acute" unicode="&#xb4;" horiz-adv-x="564" d="M382 736 L266 577 L182 577 L235 736 L382 736 Z " />
<glyph glyph-name="dieresis" unicode="&#xa8;" horiz-adv-x="564" d="M441 594 L323 594 L323 719 L441 719 L441 594 Z M241 594 L123 594 L123 719 L241 719 L241 594 Z " />
<glyph glyph-name="AE" unicode="&#xc6;" horiz-adv-x="1118" d="M1059 0 L542 0 L542 180 L259 180 L144 0 L10 0 L464 714 L1055 714 L1055 609 L672 609 L672 410 L1011 410 L1011 305 L672 305 L672 105 L1059 105 L1059 0 Z M542 284 L542 625 L325 284 L542 284 Z " />
<glyph glyph-name="Oslash" unicode="&#xd8;" horiz-adv-x="765" d="M724 357 Q724 192 630.5 90 Q537 -12 383 -12 Q326 -12 276 3 Q226 18 185 47 L123 -30 L63 16 L129 98 Q87 147 64.5 213.5 Q42 280 42 357 Q42 522 135.5 624 Q229 726 383 726 Q441 726 492 710.5 Q543 695 585 665 L643 737 L702 691 L640 613 Q681 564 702.5 498.5 Q724 433 724 357 Z M383 621 Q285 621 231 551.5 Q177 482 177 357 Q177 310 185 270 Q193 230 209 197 L513 575 Q488 598 455.5 609.5 Q423 621 383 621 Z M383 93 Q481 93 535 162.5 Q589 232 589 357 Q589 402 581.5 441.5 Q574 481 559 512 L256 136 Q281 115 313 104 Q345 93 383 93 Z " />
<glyph glyph-name="yen" unicode="&#xa5;" horiz-adv-x="710" d="M625 245 L625 168 L422 168 L422 0 L289 0 L289 168 L85 168 L85 245 L289 245 L289 319 L85 319 L85 397 L241 397 L23 714 L168 714 L357 428 L359 428 L545 714 L687 714 L469 397 L625 397 L625 319 L422 319 L422 245 L625 245 Z " />
<glyph glyph-name="ordfeminine" unicode="&#xaa;" horiz-adv-x="408" d="M262 432 Q248 403 220 388 Q192 373 152 373 Q100 373 68.5 399.5 Q37 426 37 471 Q37 515 67 540 Q97 565 160 572 L257 582 L257 600 Q257 627 242.5 640.5 Q228 654 200 654 Q176 654 160.5 641.5 Q145 629 143 607 L51 607 Q56 663 96.5 694 Q137 725 203 725 Q276 725 314 690.5 Q352 656 352 590 L352 470 Q352 440 353.5 419.5 Q355 399 358 381 L266 381 Q264 393 263 405.5 Q262 418 262 432 Z M180 435 Q213 435 235 456 Q257 477 257 510 L257 532 L189 524 Q159 520 145.5 508.5 Q132 497 132 477 Q132 458 145 446.5 Q158 435 180 435 Z M353 239 L53 239 L53 309 L353 309 L353 239 Z " />
<glyph glyph-name="ordmasculine" unicode="&#xba;" horiz-adv-x="425" d="M213 372 Q134 372 86 420 Q38 468 38 549 Q38 629 86 677 Q134 725 213 725 Q291 725 339 677 Q387 629 387 549 Q387 469 339 420.5 Q291 372 213 372 Z M213 654 Q176 654 155.5 626.5 Q135 599 135 549 Q135 498 155.5 470 Q176 442 213 442 Q249 442 269.5 470 Q290 498 290 549 Q290 598 269.5 626 Q249 654 213 654 Z M362 239 L63 239 L63 309 L362 309 L362 239 Z " />
<glyph glyph-name="ae" unicode="&#xe6;" horiz-adv-x="900" d="M736 158 L854 158 Q838 79 776.5 33.5 Q715 -12 625 -12 Q564 -12 512.5 12 Q461 36 426 80 Q390 35 341 12 Q292 -11 230 -11 Q144 -11 92.5 29.5 Q41 70 41 140 Q41 216 101.5 256 Q162 296 277 296 L376 296 L376 333 Q376 378 351 402 Q326 426 280 426 Q239 426 214 405 Q189 384 186 347 L63 347 Q71 428 129 474 Q187 520 280 520 Q336 520 379 502 Q422 484 449 450 Q483 484 527 502 Q571 520 621 520 Q730 520 793.5 449 Q857 378 857 264 L857 226 L491 226 Q496 156 530.5 119 Q565 82 625 82 Q667 82 694.5 101 Q722 120 736 158 Z M621 427 Q568 427 535 393 Q502 359 493 296 L737 296 Q735 356 704.5 391.5 Q674 427 621 427 Z M167 150 Q167 117 190 97.5 Q213 78 251 78 Q307 78 341.5 109.5 Q376 141 376 196 L376 226 L273 226 Q222 226 194.5 206.5 Q167 187 167 150 Z " />
<glyph glyph-name="oslash" unicode="&#xf8;" horiz-adv-x="600" d="M557 254 Q557 133 486.5 60.5 Q416 -12 300 -12 Q258 -12 220.5 -1.5 Q183 9 152 29 L98 -34 L49 11 L103 73 Q73 108 58 154 Q43 200 43 254 Q43 374 114 447 Q185 520 300 520 Q344 520 382.5 509 Q421 498 452 476 L502 534 L551 489 L501 431 Q529 396 543 351 Q557 306 557 254 Z M300 429 Q237 429 201.5 382.5 Q166 336 166 254 Q166 227 170 204.5 Q174 182 181 163 L384 398 Q367 413 346 421 Q325 429 300 429 Z M300 79 Q363 79 398.5 125.5 Q434 172 434 254 Q434 279 430.5 300.5 Q427 322 421 339 L219 106 Q236 93 256.5 86 Q277 79 300 79 Z " />
<glyph glyph-name="questiondown" unicode="&#xbf;" horiz-adv-x="588" d="M284 -12 Q174 -12 107 47 Q40 106 40 201 Q40 260 71.5 309 Q103 358 179 409 Q216 435 229 455 Q242 475 244 500 L370 500 Q369 455 342 415.5 Q315 376 258 335 Q205 296 185 266 Q165 236 165 202 Q165 151 196.5 120.5 Q228 90 284 90 Q343 90 380 128 Q417 166 420 227 L548 227 Q541 120 469 54 Q397 -12 284 -12 Z M232 714 L382 714 L382 575 L232 575 L232 714 Z " />
<glyph glyph-name="exclamdown" unicode="&#xa1;" horiz-adv-x="327" d="M216 480 L238 0 L90 0 L112 480 L216 480 Z M238 569 L89 569 L89 714 L238 714 L238 569 Z " />
<glyph glyph-name="florin" unicode="&#x192;" horiz-adv-x="510" d="M403 404 L403 307 L280 307 L207 -110 L83 -110 L158 307 L77 307 L77 404 L175 404 L205 572 Q220 656 271 702 Q322 748 400 748 Q418 748 437 744.5 Q456 741 473 735 L473 620 Q457 626 444.5 628.5 Q432 631 414 631 Q375 631 352.5 608 Q330 585 321 537 L298 404 L403 404 Z " />
<glyph glyph-name="guillemotleft" unicode="&#xab;" horiz-adv-x="547" d="M383 248 L492 44 L403 44 L266 248 L403 452 L492 452 L383 248 Z M172 248 L281 44 L193 44 L55 248 L193 452 L281 452 L172 248 Z " />
<glyph glyph-name="guillemotright" unicode="&#xbb;" horiz-adv-x="547" d="M55 450 L144 450 L281 246 L144 42 L55 42 L164 246 L55 450 Z M266 450 L354 450 L492 246 L354 42 L266 42 L375 246 L266 450 Z " />
<glyph glyph-name="ellipsis" unicode="&#x2026;" horiz-adv-x="802" d="M713 0 L564 0 L564 149 L713 149 L713 0 Z M476 0 L327 0 L327 149 L476 149 L476 0 Z M238 0 L89 0 L89 149 L238 149 L238 0 Z " />
<glyph glyph-name="uni00A0" unicode="&#xa0;" horiz-adv-x="210" d="" />
<glyph glyph-name="Agrave" unicode="&#xc0;" horiz-adv-x="746" d="M734 0 L598 0 L531 175 L209 175 L141 0 L11 0 L298 714 L447 714 L734 0 Z M373 586 L370 586 L250 278 L491 278 L373 586 Z M362 917 L415 764 L336 764 L218 917 L362 917 Z " />
<glyph glyph-name="Atilde" unicode="&#xc3;" horiz-adv-x="746" d="M734 0 L598 0 L531 175 L209 175 L141 0 L11 0 L298 714 L447 714 L734 0 Z M373 586 L370 586 L250 278 L491 278 L373 586 Z M366 805 Q342 822 331 827 Q320 832 311 832 Q293 832 282.5 815.5 Q272 799 270 768 L199 768 Q199 839 225 881 Q251 923 296 923 Q314 923 332.5 915.5 Q351 908 384 885 Q408 868 419 863 Q430 858 439 858 Q457 858 467.5 874.5 Q478 891 480 922 L551 922 Q551 850 525 808.5 Q499 767 454 767 Q436 767 417.5 774.5 Q399 782 366 805 Z " />
<glyph glyph-name="Otilde" unicode="&#xd5;" horiz-adv-x="765" d="M383 726 Q537 726 630.5 624 Q724 522 724 357 Q724 192 630.5 90 Q537 -12 383 -12 Q229 -12 135.5 90 Q42 192 42 357 Q42 522 135.5 624 Q229 726 383 726 Z M383 93 Q481 93 535 162.5 Q589 232 589 357 Q589 481 535 551 Q481 621 383 621 Q285 621 231 551.5 Q177 482 177 357 Q177 232 231 162.5 Q285 93 383 93 Z M374 805 Q350 822 339 827 Q328 832 319 832 Q301 832 290.5 815.5 Q280 799 278 768 L207 768 Q207 839 233 881 Q259 923 304 923 Q322 923 340.5 915.5 Q359 908 392 885 Q416 868 427 863 Q438 858 447 858 Q465 858 475.5 874.5 Q486 891 488 922 L559 922 Q559 850 533 808.5 Q507 767 462 767 Q444 767 425.5 774.5 Q407 782 374 805 Z " />
<glyph glyph-name="OE" unicode="&#x152;" horiz-adv-x="1119" d="M1060 0 L398 0 Q237 0 139.5 98 Q42 196 42 357 Q42 519 139.5 616.5 Q237 714 398 714 L1056 714 L1056 609 L673 609 L673 410 L1012 410 L1012 305 L673 305 L673 105 L1060 105 L1060 0 Z M177 357 Q177 237 234.5 171 Q292 105 398 105 L543 105 L543 609 L398 609 Q292 609 234.5 543 Q177 477 177 357 Z " />
<glyph glyph-name="oe" unicode="&#x153;" horiz-adv-x="960" d="M796 158 L915 158 Q898 79 837 33.5 Q776 -12 686 -12 Q625 -12 576.5 14 Q528 40 493 90 Q456 39 407.5 13.5 Q359 -12 300 -12 Q184 -12 113.5 60.5 Q43 133 43 254 Q43 374 114 447 Q185 520 300 520 Q360 520 408.5 494 Q457 468 493 416 Q528 467 576 493.5 Q624 520 682 520 Q790 520 853.5 449.5 Q917 379 917 265 L917 227 L551 227 Q556 157 591 119.5 Q626 82 686 82 Q728 82 755.5 101 Q783 120 796 158 Z M682 427 Q629 427 595.5 393 Q562 359 553 297 L797 297 Q795 356 764.5 391.5 Q734 427 682 427 Z M300 425 Q239 425 205 380 Q171 335 171 254 Q171 173 205 128 Q239 83 300 83 Q360 83 394 128.5 Q428 174 428 254 Q428 334 394 379.5 Q360 425 300 425 Z " />
<glyph glyph-name="endash" unicode="&#x2013;" horiz-adv-x="677" d="M590 236 L87 236 L87 331 L590 331 L590 236 Z " />
<glyph glyph-name="emdash" unicode="&#x2014;" horiz-adv-x="1003" d="M916 236 L87 236 L87 331 L916 331 L916 236 Z " />
<glyph glyph-name="quotedblleft" unicode="&#x201c;" horiz-adv-x="564" d="M404 574 L474 574 L474 443 L325 443 L325 585 Q325 659 370 700.5 Q415 742 495 742 L495 673 Q448 673 426 652 Q404 631 404 586 L404 574 Z M168 574 L238 574 L238 443 L89 443 L89 585 Q89 659 134 700.5 Q179 742 259 742 L259 673 Q212 673 190 652 Q168 631 168 586 L168 574 Z " />
<glyph glyph-name="quotedblright" unicode="&#x201d;" horiz-adv-x="564" d="M161 605 L91 605 L91 736 L240 736 L240 594 Q240 520 195 478.5 Q150 437 70 437 L70 506 Q117 506 139 527 Q161 548 161 593 L161 605 Z M396 605 L326 605 L326 736 L475 736 L475 594 Q475 520 430 478.5 Q385 437 305 437 L305 506 Q352 506 374 527 Q396 548 396 593 L396 605 Z " />
<glyph glyph-name="quoteleft" unicode="&#x2018;" horiz-adv-x="329" d="M168 574 L238 574 L238 443 L89 443 L89 585 Q89 659 134 700.5 Q179 742 259 742 L259 673 Q212 673 190 652 Q168 631 168 586 L168 574 Z " />
<glyph glyph-name="quoteright" unicode="&#x2019;" horiz-adv-x="329" d="M161 605 L91 605 L91 736 L240 736 L240 594 Q240 520 195 478.5 Q150 437 70 437 L70 506 Q117 506 139 527 Q161 548 161 593 L161 605 Z " />
<glyph glyph-name="divide" unicode="&#xf7;" horiz-adv-x="660" d="M392 490 L269 490 L269 609 L392 609 L392 490 Z M594 285 L65 285 L65 380 L594 380 L594 285 Z M392 55 L269 55 L269 175 L392 175 L392 55 Z " />
<glyph glyph-name="ydieresis" unicode="&#xff;" horiz-adv-x="574" d="M117 -87 Q157 -87 177.5 -69 Q198 -51 218 1 L20 508 L150 508 L291 125 L293 125 L427 508 L554 508 L356 -9 Q320 -104 271 -144.5 Q222 -185 142 -186 Q129 -186 112.5 -184.5 Q96 -183 83 -181 L83 -84 Q91 -86 98 -86.5 Q105 -87 117 -87 Z M455 594 L337 594 L337 719 L455 719 L455 594 Z M255 594 L137 594 L137 719 L255 719 L255 594 Z " />
<glyph glyph-name="Ydieresis" unicode="&#x178;" horiz-adv-x="706" d="M419 293 L419 0 L286 0 L286 293 L10 714 L158 714 L356 409 L358 409 L551 714 L696 714 L419 293 Z M512 775 L394 775 L394 900 L512 900 L512 775 Z M312 775 L194 775 L194 900 L312 900 L312 775 Z " />
<glyph glyph-name="fraction" unicode="&#x2044;" horiz-adv-x="184" d="M392 727 L-123 -12 L-209 -12 L307 727 L392 727 Z " />
<glyph glyph-name="Euro" unicode="&#x20ac;" horiz-adv-x="714" d="M555 224 L675 224 Q656 112 587.5 50 Q519 -12 411 -12 Q301 -12 223 57 Q145 126 119 246 L42 246 L42 323 L108 323 Q107 329 107 336 Q107 343 107 358 Q107 372 107 379 Q107 386 108 392 L42 392 L42 469 L118 469 Q145 589 223 657.5 Q301 726 411 726 Q519 726 587.5 664.5 Q656 603 675 490 L555 490 Q544 555 508 588 Q472 621 412 621 Q350 621 306.5 582 Q263 543 245 469 L449 469 L438 392 L234 392 Q233 386 233 379 Q233 372 233 358 Q233 343 233 336 Q233 329 234 323 L425 323 L414 246 L245 246 Q263 172 306.5 132.5 Q350 93 412 93 Q472 93 507.5 126 Q543 159 555 224 Z " />
<glyph glyph-name="guilsinglleft" unicode="&#x2039;" horiz-adv-x="338" d="M175 248 L283 44 L193 44 L55 248 L193 452 L283 452 L175 248 Z " />
<glyph glyph-name="guilsinglright" unicode="&#x203a;" horiz-adv-x="338" d="M55 450 L145 450 L283 246 L145 42 L55 42 L163 246 L55 450 Z " />
<glyph glyph-name="daggerdbl" unicode="&#x2021;" horiz-adv-x="387" d="M352 477 L352 406 L232 406 L232 311 L155 311 L155 406 L36 406 L36 477 L155 477 L155 560 L36 560 L36 632 L155 632 L155 726 L232 726 L232 632 L352 632 L352 560 L232 560 L232 477 L352 477 Z " />
<glyph glyph-name="periodcentered" unicode="&#xb7;" horiz-adv-x="323" d="M236 213 L87 213 L87 362 L236 362 L236 213 Z " />
<glyph glyph-name="quotesinglbase" unicode="&#x201a;" horiz-adv-x="329" d="M161 24 L91 24 L91 155 L240 155 L240 13 Q240 -61 195 -102.5 Q150 -144 70 -144 L70 -75 Q117 -75 139 -54 Q161 -33 161 12 L161 24 Z " />
<glyph glyph-name="quotedblbase" unicode="&#x201e;" horiz-adv-x="564" d="M161 24 L91 24 L91 155 L240 155 L240 13 Q240 -61 195 -102.5 Q150 -144 70 -144 L70 -75 Q117 -75 139 -54 Q161 -33 161 12 L161 24 Z M396 24 L326 24 L326 155 L475 155 L475 13 Q475 -61 430 -102.5 Q385 -144 305 -144 L305 -75 Q352 -75 374 -54 Q396 -33 396 12 L396 24 Z " />
<glyph glyph-name="Acircumflex" unicode="&#xc2;" horiz-adv-x="746" d="M734 0 L598 0 L531 175 L209 175 L141 0 L11 0 L298 714 L447 714 L734 0 Z M373 586 L370 586 L250 278 L491 278 L373 586 Z M217 763 L314 917 L433 917 L529 763 L455 763 L374 843 L291 763 L217 763 Z " />
<glyph glyph-name="Ecircumflex" unicode="&#xca;" horiz-adv-x="657" d="M598 105 L598 0 L81 0 L81 714 L594 714 L594 609 L211 609 L211 410 L550 410 L550 305 L211 305 L211 105 L598 105 Z M183 763 L280 917 L399 917 L495 763 L421 763 L340 843 L257 763 L183 763 Z " />
<glyph glyph-name="Aacute" unicode="&#xc1;" horiz-adv-x="746" d="M734 0 L598 0 L531 175 L209 175 L141 0 L11 0 L298 714 L447 714 L734 0 Z M373 586 L370 586 L250 278 L491 278 L373 586 Z M528 917 L410 764 L331 764 L384 917 L528 917 Z " />
<glyph glyph-name="Edieresis" unicode="&#xcb;" horiz-adv-x="657" d="M598 105 L598 0 L81 0 L81 714 L594 714 L594 609 L211 609 L211 410 L550 410 L550 305 L211 305 L211 105 L598 105 Z M498 775 L380 775 L380 900 L498 900 L498 775 Z M298 775 L180 775 L180 900 L298 900 L298 775 Z " />
<glyph glyph-name="Egrave" unicode="&#xc8;" horiz-adv-x="657" d="M598 105 L598 0 L81 0 L81 714 L594 714 L594 609 L211 609 L211 410 L550 410 L550 305 L211 305 L211 105 L598 105 Z M338 917 L391 764 L312 764 L194 917 L338 917 Z " />
<glyph glyph-name="Iacute" unicode="&#xcd;" horiz-adv-x="295" d="M214 0 L81 0 L81 714 L214 714 L214 0 Z M303 917 L185 764 L106 764 L159 917 L303 917 Z " />
<glyph glyph-name="Icircumflex" unicode="&#xce;" horiz-adv-x="295" d="M214 0 L81 0 L81 714 L214 714 L214 0 Z M-8 763 L89 917 L208 917 L304 763 L230 763 L149 843 L66 763 L-8 763 Z " />
<glyph glyph-name="Idieresis" unicode="&#xcf;" horiz-adv-x="295" d="M214 0 L81 0 L81 714 L214 714 L214 0 Z M307 775 L189 775 L189 900 L307 900 L307 775 Z M107 775 L-11 775 L-11 900 L107 900 L107 775 Z " />
<glyph glyph-name="Igrave" unicode="&#xcc;" horiz-adv-x="295" d="M214 0 L81 0 L81 714 L214 714 L214 0 Z M142 917 L195 764 L116 764 L-2 917 L142 917 Z " />
<glyph glyph-name="Oacute" unicode="&#xd3;" horiz-adv-x="765" d="M383 726 Q537 726 630.5 624 Q724 522 724 357 Q724 192 630.5 90 Q537 -12 383 -12 Q229 -12 135.5 90 Q42 192 42 357 Q42 522 135.5 624 Q229 726 383 726 Z M383 93 Q481 93 535 162.5 Q589 232 589 357 Q589 481 535 551 Q481 621 383 621 Q285 621 231 551.5 Q177 482 177 357 Q177 232 231 162.5 Q285 93 383 93 Z M535 917 L417 764 L338 764 L391 917 L535 917 Z " />
<glyph glyph-name="Ocircumflex" unicode="&#xd4;" horiz-adv-x="765" d="M383 726 Q537 726 630.5 624 Q724 522 724 357 Q724 192 630.5 90 Q537 -12 383 -12 Q229 -12 135.5 90 Q42 192 42 357 Q42 522 135.5 624 Q229 726 383 726 Z M383 93 Q481 93 535 162.5 Q589 232 589 357 Q589 481 535 551 Q481 621 383 621 Q285 621 231 551.5 Q177 482 177 357 Q177 232 231 162.5 Q285 93 383 93 Z M227 763 L324 917 L443 917 L539 763 L465 763 L384 843 L301 763 L227 763 Z " />
<glyph glyph-name="Ograve" unicode="&#xd2;" horiz-adv-x="765" d="M383 726 Q537 726 630.5 624 Q724 522 724 357 Q724 192 630.5 90 Q537 -12 383 -12 Q229 -12 135.5 90 Q42 192 42 357 Q42 522 135.5 624 Q229 726 383 726 Z M383 93 Q481 93 535 162.5 Q589 232 589 357 Q589 481 535 551 Q481 621 383 621 Q285 621 231 551.5 Q177 482 177 357 Q177 232 231 162.5 Q285 93 383 93 Z M379 917 L432 764 L353 764 L235 917 L379 917 Z " />
<glyph glyph-name="Uacute" unicode="&#xda;" horiz-adv-x="754" d="M682 714 L682 288 Q682 144 603 66 Q524 -12 377 -12 Q231 -12 151.5 66.5 Q72 145 72 290 L72 714 L205 714 L205 289 Q205 193 248.5 143.5 Q292 94 377 94 Q462 94 506 144 Q550 194 550 289 L550 714 L682 714 Z M519 917 L401 764 L322 764 L375 917 L519 917 Z " />
<glyph glyph-name="Ucircumflex" unicode="&#xdb;" horiz-adv-x="754" d="M682 714 L682 288 Q682 144 603 66 Q524 -12 377 -12 Q231 -12 151.5 66.5 Q72 145 72 290 L72 714 L205 714 L205 289 Q205 193 248.5 143.5 Q292 94 377 94 Q462 94 506 144 Q550 194 550 289 L550 714 L682 714 Z M222 763 L319 917 L438 917 L534 763 L460 763 L379 843 L296 763 L222 763 Z " />
<glyph glyph-name="Ugrave" unicode="&#xd9;" horiz-adv-x="754" d="M682 714 L682 288 Q682 144 603 66 Q524 -12 377 -12 Q231 -12 151.5 66.5 Q72 145 72 290 L72 714 L205 714 L205 289 Q205 193 248.5 143.5 Q292 94 377 94 Q462 94 506 144 Q550 194 550 289 L550 714 L682 714 Z M383 917 L436 764 L357 764 L239 917 L383 917 Z " />
<glyph glyph-name="dotlessi" unicode="&#x131;" horiz-adv-x="284" d="M78 0 L78 508 L206 508 L206 0 L78 0 Z " />
<glyph glyph-name="circumflex" unicode="&#x2c6;" horiz-adv-x="564" d="M126 576 L224 736 L340 736 L438 576 L364 576 L283 663 L200 576 L126 576 Z " />
<glyph glyph-name="tilde" unicode="&#x2dc;" horiz-adv-x="564" d="M278 613 Q254 631 243 636 Q232 641 223 641 Q205 641 194.5 624 Q184 607 182 575 L111 575 Q111 646 137 688 Q163 730 208 730 Q226 730 244.5 722 Q263 714 296 691 Q320 673 331 668 Q342 663 351 663 Q369 663 379.5 680 Q390 697 392 729 L463 729 Q463 657 437 615.5 Q411 574 366 574 Q348 574 329.5 582 Q311 590 278 613 Z " />
<glyph glyph-name="breve" unicode="&#x2d8;" horiz-adv-x="564" d="M278 576 Q211 576 171.5 619.5 Q132 663 132 736 L211 736 Q212 697 229 676 Q246 655 278 655 Q309 655 326 676 Q343 697 344 736 L423 736 Q423 663 383.5 619.5 Q344 576 278 576 Z " />
<glyph glyph-name="dotaccent" unicode="&#x2d9;" horiz-adv-x="564" d="M350 594 L214 594 L214 719 L350 719 L350 594 Z " />
<glyph glyph-name="ring" unicode="&#x2da;" horiz-adv-x="564" d="M283 566 Q237 566 204.5 598.5 Q172 631 172 676 Q172 722 204.5 754.5 Q237 787 283 787 Q329 787 361 754.5 Q393 722 393 676 Q393 631 360.5 598.5 Q328 566 283 566 Z M283 624 Q304 624 319.5 639.5 Q335 655 335 676 Q335 698 320 713.5 Q305 729 283 729 Q261 729 245.5 713.5 Q230 698 230 676 Q230 655 245.5 639.5 Q261 624 283 624 Z " />
<glyph glyph-name="cedilla" unicode="&#xb8;" horiz-adv-x="738" d="M483 -111 Q483 -152 448 -176 Q413 -200 359 -200 Q335 -200 311 -195.5 Q287 -191 267 -182 L267 -124 Q296 -136 316.5 -140.5 Q337 -145 357 -145 Q381 -145 395 -137 Q409 -129 409 -114 Q409 -92 383 -85.5 Q357 -79 327 -89 L304 -67 L357 20 L410 20 L373 -39 Q419 -34 451 -54 Q483 -74 483 -111 Z " />
<glyph glyph-name="hungarumlaut" unicode="&#x2dd;" horiz-adv-x="564" d="M352 577 L278 577 L332 736 L463 736 L352 577 Z M174 577 L100 577 L154 736 L284 736 L174 577 Z " />
<glyph glyph-name="ogonek" unicode="&#x2db;" horiz-adv-x="564" d="M316 -190 Q274 -190 247.5 -168 Q221 -146 221 -108 Q221 -83 234.5 -56 Q248 -29 290 20 L363 20 Q319 -37 309.5 -54.5 Q300 -72 300 -87 Q300 -103 310 -111.5 Q320 -120 337 -120 Q348 -120 357 -118.5 Q366 -117 377 -114 L377 -181 Q362 -186 348.5 -188 Q335 -190 316 -190 Z " />
<glyph glyph-name="caron" unicode="&#x2c7;" horiz-adv-x="564" d="M200 736 L283 649 L364 736 L438 736 L340 576 L224 576 L126 736 L200 736 Z " />
<glyph glyph-name="Eth" unicode="&#xd0;" horiz-adv-x="774" d="M733 357 Q733 196 635 98 Q537 0 376 0 L101 0 L101 312 L28 312 L28 413 L101 413 L101 714 L376 714 Q537 714 635 616 Q733 518 733 357 Z M231 312 L231 105 L376 105 Q482 105 539.5 171 Q597 237 597 357 Q597 477 539.5 543 Q482 609 376 609 L231 609 L231 413 L356 413 L356 312 L231 312 Z " />
<glyph glyph-name="Abreve" unicode="&#x102;" horiz-adv-x="746" d="M734 0 L598 0 L531 175 L209 175 L141 0 L11 0 L298 714 L447 714 L734 0 Z M373 586 L370 586 L250 278 L491 278 L373 586 Z M374 761 Q307 761 267.5 804.5 Q228 848 228 921 L309 921 Q309 883 326 862.5 Q343 842 374 842 Q405 842 421.5 862.5 Q438 883 438 921 L519 921 Q519 848 479.5 804.5 Q440 761 374 761 Z " />
<glyph glyph-name="Amacron" unicode="&#x100;" horiz-adv-x="746" d="M734 0 L598 0 L531 175 L209 175 L141 0 L11 0 L298 714 L447 714 L734 0 Z M373 586 L370 586 L250 278 L491 278 L373 586 Z M536 779 L210 779 L210 865 L536 865 L536 779 Z " />
<glyph glyph-name="Aogonek" unicode="&#x104;" horiz-adv-x="746" d="M689 -114 L689 -181 Q674 -186 660.5 -188 Q647 -190 628 -190 Q586 -190 559.5 -168 Q533 -146 533 -108 Q533 -83 546 -57 Q559 -31 594 10 L531 175 L209 175 L141 0 L11 0 L298 714 L447 714 L734 0 L660 0 Q629 -40 620.5 -56.5 Q612 -73 612 -87 Q612 -103 622 -111.5 Q632 -120 649 -120 Q660 -120 669 -118.5 Q678 -117 689 -114 Z M373 586 L370 586 L250 278 L491 278 L373 586 Z " />
<glyph glyph-name="AEacute" unicode="&#x1fc;" horiz-adv-x="1118" d="M1059 0 L542 0 L542 180 L259 180 L144 0 L10 0 L464 714 L1055 714 L1055 609 L672 609 L672 410 L1011 410 L1011 305 L672 305 L672 105 L1059 105 L1059 0 Z M542 284 L542 625 L325 284 L542 284 Z M906 917 L788 764 L709 764 L762 917 L906 917 Z " />
<glyph glyph-name="Cacute" unicode="&#x106;" horiz-adv-x="706" d="M378 621 Q283 621 230 551.5 Q177 482 177 358 Q177 233 230 163 Q283 93 378 93 Q446 93 487.5 126.5 Q529 160 541 224 L670 224 Q650 112 574 50 Q498 -12 378 -12 Q227 -12 134.5 90 Q42 192 42 358 Q42 523 135 624.5 Q228 726 378 726 Q498 726 574 664.5 Q650 603 670 490 L541 490 Q529 554 487.5 587.5 Q446 621 378 621 Z M529 917 L411 764 L332 764 L385 917 L529 917 Z " />
<glyph glyph-name="Ccaron" unicode="&#x10c;" horiz-adv-x="706" d="M378 621 Q283 621 230 551.5 Q177 482 177 358 Q177 233 230 163 Q283 93 378 93 Q446 93 487.5 126.5 Q529 160 541 224 L670 224 Q650 112 574 50 Q498 -12 378 -12 Q227 -12 134.5 90 Q42 192 42 358 Q42 523 135 624.5 Q228 726 378 726 Q498 726 574 664.5 Q650 603 670 490 L541 490 Q529 554 487.5 587.5 Q446 621 378 621 Z M296 917 L379 837 L460 917 L534 917 L438 763 L319 763 L222 917 L296 917 Z " />
<glyph glyph-name="Ccircumflex" unicode="&#x108;" horiz-adv-x="706" d="M378 621 Q283 621 230 551.5 Q177 482 177 358 Q177 233 230 163 Q283 93 378 93 Q446 93 487.5 126.5 Q529 160 541 224 L670 224 Q650 112 574 50 Q498 -12 378 -12 Q227 -12 134.5 90 Q42 192 42 358 Q42 523 135 624.5 Q228 726 378 726 Q498 726 574 664.5 Q650 603 670 490 L541 490 Q529 554 487.5 587.5 Q446 621 378 621 Z M222 763 L319 917 L438 917 L534 763 L460 763 L379 843 L296 763 L222 763 Z " />
<glyph glyph-name="Cdotaccent" unicode="&#x10a;" horiz-adv-x="706" d="M378 621 Q283 621 230 551.5 Q177 482 177 358 Q177 233 230 163 Q283 93 378 93 Q446 93 487.5 126.5 Q529 160 541 224 L670 224 Q650 112 574 50 Q498 -12 378 -12 Q227 -12 134.5 90 Q42 192 42 358 Q42 523 135 624.5 Q228 726 378 726 Q498 726 574 664.5 Q650 603 670 490 L541 490 Q529 554 487.5 587.5 Q446 621 378 621 Z M445 775 L309 775 L309 900 L445 900 L445 775 Z " />
<glyph glyph-name="Dcaron" unicode="&#x10e;" horiz-adv-x="754" d="M81 714 L356 714 Q517 714 615 616 Q713 518 713 357 Q713 196 615 98 Q517 0 356 0 L81 0 L81 714 Z M577 357 Q577 477 519.5 543 Q462 609 356 609 L211 609 L211 105 L356 105 Q462 105 519.5 171 Q577 237 577 357 Z M270 917 L353 837 L434 917 L508 917 L412 763 L293 763 L196 917 L270 917 Z " />
<glyph glyph-name="Dcroat" unicode="&#x110;" horiz-adv-x="774" d="M733 357 Q733 196 635 98 Q537 0 376 0 L101 0 L101 312 L28 312 L28 413 L101 413 L101 714 L376 714 Q537 714 635 616 Q733 518 733 357 Z M231 312 L231 105 L376 105 Q482 105 539.5 171 Q597 237 597 357 Q597 477 539.5 543 Q482 609 376 609 L231 609 L231 413 L356 413 L356 312 L231 312 Z " />
<glyph glyph-name="Ebreve" unicode="&#x114;" horiz-adv-x="657" d="M598 105 L598 0 L81 0 L81 714 L594 714 L594 609 L211 609 L211 410 L550 410 L550 305 L211 305 L211 105 L598 105 Z M340 761 Q273 761 233.5 804.5 Q194 848 194 921 L275 921 Q275 883 292 862.5 Q309 842 340 842 Q371 842 387.5 862.5 Q404 883 404 921 L485 921 Q485 848 445.5 804.5 Q406 761 340 761 Z " />
<glyph glyph-name="Ecaron" unicode="&#x11a;" horiz-adv-x="657" d="M598 105 L598 0 L81 0 L81 714 L594 714 L594 609 L211 609 L211 410 L550 410 L550 305 L211 305 L211 105 L598 105 Z M257 917 L340 837 L421 917 L495 917 L399 763 L280 763 L183 917 L257 917 Z " />
<glyph glyph-name="Edotaccent" unicode="&#x116;" horiz-adv-x="657" d="M598 105 L598 0 L81 0 L81 714 L594 714 L594 609 L211 609 L211 410 L550 410 L550 305 L211 305 L211 105 L598 105 Z M407 775 L271 775 L271 900 L407 900 L407 775 Z " />
<glyph glyph-name="Emacron" unicode="&#x112;" horiz-adv-x="657" d="M598 105 L598 0 L81 0 L81 714 L594 714 L594 609 L211 609 L211 410 L550 410 L550 305 L211 305 L211 105 L598 105 Z M503 779 L177 779 L177 865 L503 865 L503 779 Z " />
<glyph glyph-name="Eogonek" unicode="&#x118;" horiz-adv-x="657" d="M563 -114 L563 -181 Q548 -186 534.5 -188 Q521 -190 502 -190 Q460 -190 433.5 -168 Q407 -146 407 -108 Q407 -85 418.5 -60 Q430 -35 459 0 L81 0 L81 714 L594 714 L594 609 L211 609 L211 410 L550 410 L550 305 L211 305 L211 105 L598 105 L598 0 L534 0 Q503 -40 494.5 -56.5 Q486 -73 486 -87 Q486 -103 496 -111.5 Q506 -120 523 -120 Q534 -120 543 -118.5 Q552 -117 563 -114 Z " />
<glyph glyph-name="Gbreve" unicode="&#x11e;" horiz-adv-x="763" d="M377 -12 Q227 -12 134.5 90 Q42 192 42 358 Q42 522 137.5 624 Q233 726 387 726 Q509 726 586 665 Q663 604 685 491 L554 491 Q541 555 498 588 Q455 621 387 621 Q289 621 233 551 Q177 481 177 358 Q177 234 232 163.5 Q287 93 385 93 Q463 93 512.5 135 Q562 177 562 243 L562 268 L424 268 L424 364 L694 364 L694 0 L591 0 L582 102 Q563 53 504.5 20.5 Q446 -12 377 -12 Z M391 761 Q324 761 284.5 804.5 Q245 848 245 921 L326 921 Q326 883 343 862.5 Q360 842 391 842 Q422 842 438.5 862.5 Q455 883 455 921 L536 921 Q536 848 496.5 804.5 Q457 761 391 761 Z " />
<glyph glyph-name="Gcircumflex" unicode="&#x11c;" horiz-adv-x="763" d="M377 -12 Q227 -12 134.5 90 Q42 192 42 358 Q42 522 137.5 624 Q233 726 387 726 Q509 726 586 665 Q663 604 685 491 L554 491 Q541 555 498 588 Q455 621 387 621 Q289 621 233 551 Q177 481 177 358 Q177 234 232 163.5 Q287 93 385 93 Q463 93 512.5 135 Q562 177 562 243 L562 268 L424 268 L424 364 L694 364 L694 0 L591 0 L582 102 Q563 53 504.5 20.5 Q446 -12 377 -12 Z M235 763 L332 917 L451 917 L547 763 L473 763 L392 843 L309 763 L235 763 Z " />
<glyph glyph-name="Gcommaaccent" unicode="&#x122;" horiz-adv-x="763" d="M377 -12 Q227 -12 134.5 90 Q42 192 42 358 Q42 522 137.5 624 Q233 726 387 726 Q509 726 586 665 Q663 604 685 491 L554 491 Q541 555 498 588 Q455 621 387 621 Q289 621 233 551 Q177 481 177 358 Q177 234 232 163.5 Q287 93 385 93 Q463 93 512.5 135 Q562 177 562 243 L562 268 L424 268 L424 364 L694 364 L694 0 L591 0 L582 102 Q563 53 504.5 20.5 Q446 -12 377 -12 Z M377 -132 L326 -132 L326 -49 L455 -49 L455 -107 Q455 -170 422.5 -201 Q390 -232 323 -232 L323 -185 Q351 -185 364 -172.5 Q377 -160 377 -132 Z " />
<glyph glyph-name="Gdotaccent" unicode="&#x120;" horiz-adv-x="763" d="M377 -12 Q227 -12 134.5 90 Q42 192 42 358 Q42 522 137.5 624 Q233 726 387 726 Q509 726 586 665 Q663 604 685 491 L554 491 Q541 555 498 588 Q455 621 387 621 Q289 621 233 551 Q177 481 177 358 Q177 234 232 163.5 Q287 93 385 93 Q463 93 512.5 135 Q562 177 562 243 L562 268 L424 268 L424 364 L694 364 L694 0 L591 0 L582 102 Q563 53 504.5 20.5 Q446 -12 377 -12 Z M459 775 L323 775 L323 900 L459 900 L459 775 Z " />
<glyph glyph-name="Hbar" unicode="&#x126;" horiz-adv-x="833" d="M599 246 L233 246 L233 0 L101 0 L101 477 L28 477 L28 578 L101 578 L101 714 L233 714 L233 578 L599 578 L599 714 L732 714 L732 578 L805 578 L805 477 L732 477 L732 0 L599 0 L599 246 Z M233 477 L233 350 L599 350 L599 477 L233 477 Z " />
<glyph glyph-name="Hcircumflex" unicode="&#x124;" horiz-adv-x="793" d="M214 0 L81 0 L81 714 L214 714 L214 414 L580 414 L580 714 L712 714 L712 0 L580 0 L580 310 L214 310 L214 0 Z M241 763 L338 917 L457 917 L553 763 L479 763 L398 843 L315 763 L241 763 Z " />
<glyph glyph-name="Ibreve" unicode="&#x12c;" horiz-adv-x="295" d="M214 0 L81 0 L81 714 L214 714 L214 0 Z M148 761 Q81 761 41.5 804.5 Q2 848 2 921 L83 921 Q83 883 100 862.5 Q117 842 148 842 Q179 842 195.5 862.5 Q212 883 212 921 L293 921 Q293 848 253.5 804.5 Q214 761 148 761 Z " />
<glyph glyph-name="Idotaccent" unicode="&#x130;" horiz-adv-x="295" d="M214 0 L81 0 L81 714 L214 714 L214 0 Z M215 775 L79 775 L79 900 L215 900 L215 775 Z " />
<glyph glyph-name="Imacron" unicode="&#x12a;" horiz-adv-x="295" d="M214 0 L81 0 L81 714 L214 714 L214 0 Z M310 779 L-16 779 L-16 865 L310 865 L310 779 Z " />
<glyph glyph-name="Iogonek" unicode="&#x12e;" horiz-adv-x="295" d="M213 -114 L213 -181 Q199 -186 185 -188 Q171 -190 152 -190 Q110 -190 84 -168 Q58 -146 58 -108 Q58 -83 71 -58 Q84 -33 114 0 L81 0 L81 714 L214 714 L214 0 Q176 -17 156.5 -39 Q137 -61 137 -86 Q137 -102 147.5 -111 Q158 -120 175 -120 Q185 -120 193.5 -118.5 Q202 -117 213 -114 Z " />
<glyph glyph-name="Itilde" unicode="&#x128;" horiz-adv-x="295" d="M214 0 L81 0 L81 714 L214 714 L214 0 Z M138 805 Q114 822 103 827 Q92 832 83 832 Q65 832 54.5 815.5 Q44 799 42 768 L-29 768 Q-29 839 -3 881 Q23 923 68 923 Q86 923 104.5 915.5 Q123 908 156 885 Q180 868 191 863 Q202 858 211 858 Q229 858 239.5 874.5 Q250 891 252 922 L323 922 Q323 850 297 808.5 Q271 767 226 767 Q208 767 189.5 774.5 Q171 782 138 805 Z " />
<glyph glyph-name="Jcircumflex" unicode="&#x134;" horiz-adv-x="605" d="M268 86 Q334 86 367.5 128.5 Q401 171 401 253 L401 714 L533 714 L533 257 Q533 132 462 60 Q391 -12 268 -12 Q153 -12 84 50.5 Q15 113 13 221 L139 221 Q141 157 175 121.5 Q209 86 268 86 Z M308 763 L405 917 L524 917 L620 763 L546 763 L465 843 L382 763 L308 763 Z " />
<glyph glyph-name="Kcommaaccent" unicode="&#x136;" horiz-adv-x="738" d="M724 0 L564 0 L313 311 L214 207 L214 0 L81 0 L81 714 L214 714 L214 355 L544 714 L696 714 L401 404 L724 0 Z M358 -132 L307 -132 L307 -49 L436 -49 L436 -107 Q436 -170 403.5 -201 Q371 -232 304 -232 L304 -185 Q332 -185 345 -172.5 Q358 -160 358 -132 Z " />
<glyph glyph-name="Lacute" unicode="&#x139;" horiz-adv-x="633" d="M582 0 L81 0 L81 714 L214 714 L214 105 L582 105 L582 0 Z M306 917 L188 764 L109 764 L162 917 L306 917 Z " />
<glyph glyph-name="Lcaron" unicode="&#x13d;" horiz-adv-x="633" d="M582 0 L81 0 L81 714 L214 714 L214 105 L582 105 L582 0 Z M498 714 L402 511 L340 511 L364 714 L498 714 Z " />
<glyph glyph-name="Lcommaaccent" unicode="&#x13b;" horiz-adv-x="633" d="M582 0 L81 0 L81 714 L214 714 L214 105 L582 105 L582 0 Z M322 -132 L271 -132 L271 -49 L400 -49 L400 -107 Q400 -170 367.5 -201 Q335 -232 268 -232 L268 -185 Q296 -185 309 -172.5 Q322 -160 322 -132 Z " />
<glyph glyph-name="Ldot" unicode="&#x13f;" horiz-adv-x="633" d="M582 0 L81 0 L81 714 L214 714 L214 105 L582 105 L582 0 Z M528 324 L392 324 L392 449 L528 449 L528 324 Z " />
<glyph glyph-name="Nacute" unicode="&#x143;" horiz-adv-x="781" d="M81 714 L236 714 L572 208 L574 208 L574 714 L700 714 L700 0 L577 0 L210 553 L208 553 L208 0 L81 0 L81 714 Z M532 917 L414 764 L335 764 L388 917 L532 917 Z " />
<glyph glyph-name="Ncaron" unicode="&#x147;" horiz-adv-x="781" d="M81 714 L236 714 L572 208 L574 208 L574 714 L700 714 L700 0 L577 0 L210 553 L208 553 L208 0 L81 0 L81 714 Z M304 917 L387 837 L468 917 L542 917 L446 763 L327 763 L230 917 L304 917 Z " />
<glyph glyph-name="Ncommaaccent" unicode="&#x145;" horiz-adv-x="781" d="M81 714 L236 714 L572 208 L574 208 L574 714 L700 714 L700 0 L577 0 L210 553 L208 553 L208 0 L81 0 L81 714 Z M377 -132 L326 -132 L326 -49 L455 -49 L455 -107 Q455 -170 422.5 -201 Q390 -232 323 -232 L323 -185 Q351 -185 364 -172.5 Q377 -160 377 -132 Z " />
<glyph glyph-name="Eng" unicode="&#x14a;" horiz-adv-x="781" d="M538 -184 Q520 -184 507 -183 Q494 -182 480 -179 L480 -84 Q488 -86 495.5 -86.5 Q503 -87 511 -87 Q545 -87 559.5 -73 Q574 -59 574 -26 L574 10 L210 553 L208 553 L208 0 L81 0 L81 714 L236 714 L572 208 L574 208 L574 714 L700 714 L700 -28 Q700 -106 659.5 -145 Q619 -184 538 -184 Z " />
<glyph glyph-name="Obreve" unicode="&#x14e;" horiz-adv-x="765" d="M383 726 Q537 726 630.5 624 Q724 522 724 357 Q724 192 630.5 90 Q537 -12 383 -12 Q229 -12 135.5 90 Q42 192 42 357 Q42 522 135.5 624 Q229 726 383 726 Z M383 93 Q481 93 535 162.5 Q589 232 589 357 Q589 481 535 551 Q481 621 383 621 Q285 621 231 551.5 Q177 482 177 357 Q177 232 231 162.5 Q285 93 383 93 Z M383 761 Q316 761 276.5 804.5 Q237 848 237 921 L318 921 Q318 883 335 862.5 Q352 842 383 842 Q414 842 430.5 862.5 Q447 883 447 921 L528 921 Q528 848 488.5 804.5 Q449 761 383 761 Z " />
<glyph glyph-name="Ohungarumlaut" unicode="&#x150;" horiz-adv-x="765" d="M383 726 Q537 726 630.5 624 Q724 522 724 357 Q724 192 630.5 90 Q537 -12 383 -12 Q229 -12 135.5 90 Q42 192 42 357 Q42 522 135.5 624 Q229 726 383 726 Z M383 93 Q481 93 535 162.5 Q589 232 589 357 Q589 481 535 551 Q481 621 383 621 Q285 621 231 551.5 Q177 482 177 357 Q177 232 231 162.5 Q285 93 383 93 Z M501 764 L427 764 L481 917 L612 917 L501 764 Z M323 764 L249 764 L303 917 L433 917 L323 764 Z " />
<glyph glyph-name="Omacron" unicode="&#x14c;" horiz-adv-x="765" d="M383 726 Q537 726 630.5 624 Q724 522 724 357 Q724 192 630.5 90 Q537 -12 383 -12 Q229 -12 135.5 90 Q42 192 42 357 Q42 522 135.5 624 Q229 726 383 726 Z M383 93 Q481 93 535 162.5 Q589 232 589 357 Q589 481 535 551 Q481 621 383 621 Q285 621 231 551.5 Q177 482 177 357 Q177 232 231 162.5 Q285 93 383 93 Z M545 779 L219 779 L219 865 L545 865 L545 779 Z " />
<glyph glyph-name="Oslashacute" unicode="&#x1fe;" horiz-adv-x="765" d="M724 357 Q724 192 630.5 90 Q537 -12 383 -12 Q326 -12 276 3 Q226 18 185 47 L123 -30 L63 16 L129 98 Q87 147 64.5 213.5 Q42 280 42 357 Q42 522 135.5 624 Q229 726 383 726 Q441 726 492 710.5 Q543 695 585 665 L643 737 L702 691 L640 613 Q681 564 702.5 498.5 Q724 433 724 357 Z M383 621 Q285 621 231 551.5 Q177 482 177 357 Q177 310 185 270 Q193 230 209 197 L513 575 Q488 598 455.5 609.5 Q423 621 383 621 Z M383 93 Q481 93 535 162.5 Q589 232 589 357 Q589 402 581.5 441.5 Q574 481 559 512 L256 136 Q281 115 313 104 Q345 93 383 93 Z M537 917 L419 764 L340 764 L393 917 L537 917 Z " />
<glyph glyph-name="Racute" unicode="&#x154;" horiz-adv-x="709" d="M211 267 L211 0 L81 0 L81 714 L387 714 Q514 714 583 656 Q652 598 652 490 Q652 416 611.5 363 Q571 310 500 287 L679 0 L534 0 L371 267 L211 267 Z M211 609 L211 371 L372 371 Q446 371 483.5 401 Q521 431 521 490 Q521 549 483.5 579 Q446 609 372 609 L211 609 Z M487 917 L369 764 L290 764 L343 917 L487 917 Z " />
<glyph glyph-name="Rcaron" unicode="&#x158;" horiz-adv-x="709" d="M211 267 L211 0 L81 0 L81 714 L387 714 Q514 714 583 656 Q652 598 652 490 Q652 416 611.5 363 Q571 310 500 287 L679 0 L534 0 L371 267 L211 267 Z M211 609 L211 371 L372 371 Q446 371 483.5 401 Q521 431 521 490 Q521 549 483.5 579 Q446 609 372 609 L211 609 Z M259 917 L342 837 L423 917 L497 917 L401 763 L282 763 L185 917 L259 917 Z " />
<glyph glyph-name="Rcommaaccent" unicode="&#x156;" horiz-adv-x="709" d="M211 267 L211 0 L81 0 L81 714 L387 714 Q514 714 583 656 Q652 598 652 490 Q652 416 611.5 363 Q571 310 500 287 L679 0 L534 0 L371 267 L211 267 Z M211 609 L211 371 L372 371 Q446 371 483.5 401 Q521 431 521 490 Q521 549 483.5 579 Q446 609 372 609 L211 609 Z M346 -132 L295 -132 L295 -49 L424 -49 L424 -107 Q424 -170 391.5 -201 Q359 -232 292 -232 L292 -185 Q320 -185 333 -172.5 Q346 -160 346 -132 Z " />
<glyph glyph-name="Sacute" unicode="&#x15a;" horiz-adv-x="667" d="M348 -12 Q209 -12 126 47.5 Q43 107 34 216 L162 216 Q168 153 215.5 119.5 Q263 86 344 86 Q412 86 453.5 115.5 Q495 145 495 196 Q495 236 467.5 258.5 Q440 281 378 293 L247 317 Q151 334 104 382.5 Q57 431 57 511 Q57 606 132 666 Q207 726 325 726 Q453 726 527 672 Q601 618 611 518 L486 518 Q479 569 436.5 598 Q394 627 326 627 Q263 627 224.5 597 Q186 567 186 519 Q186 480 210 459.5 Q234 439 300 426 L438 399 Q533 381 579 333 Q625 285 625 204 Q625 109 547 48.5 Q469 -12 348 -12 Z M489 917 L371 764 L292 764 L345 917 L489 917 Z " />
<glyph glyph-name="Scedilla" unicode="&#x15e;" horiz-adv-x="667" d="M450 -111 Q450 -152 415 -176 Q380 -200 326 -200 Q302 -200 278 -195.5 Q254 -191 234 -182 L234 -124 Q263 -136 283.5 -140.5 Q304 -145 324 -145 Q348 -145 362 -137 Q376 -129 376 -114 Q376 -92 350 -85.5 Q324 -79 294 -89 L271 -67 L305 -10 Q184 -1 113 57.5 Q42 116 34 216 L162 216 Q168 153 215.5 119.5 Q263 86 344 86 Q412 86 453.5 115.5 Q495 145 495 196 Q495 236 467.5 258.5 Q440 281 378 293 L247 317 Q151 334 104 382.5 Q57 431 57 511 Q57 606 132 666 Q207 726 325 726 Q453 726 527 672 Q601 618 611 518 L486 518 Q479 569 436.5 598 Q394 627 326 627 Q263 627 224.5 597 Q186 567 186 519 Q186 480 210 459.5 Q234 439 300 426 L438 399 Q533 381 579 333 Q625 285 625 204 Q625 110 550 50 Q475 -10 357 -12 L340 -39 Q386 -34 418 -54 Q450 -74 450 -111 Z " />
<glyph glyph-name="Scircumflex" unicode="&#x15c;" horiz-adv-x="667" d="M348 -12 Q209 -12 126 47.5 Q43 107 34 216 L162 216 Q168 153 215.5 119.5 Q263 86 344 86 Q412 86 453.5 115.5 Q495 145 495 196 Q495 236 467.5 258.5 Q440 281 378 293 L247 317 Q151 334 104 382.5 Q57 431 57 511 Q57 606 132 666 Q207 726 325 726 Q453 726 527 672 Q601 618 611 518 L486 518 Q479 569 436.5 598 Q394 627 326 627 Q263 627 224.5 597 Q186 567 186 519 Q186 480 210 459.5 Q234 439 300 426 L438 399 Q533 381 579 333 Q625 285 625 204 Q625 109 547 48.5 Q469 -12 348 -12 Z M187 763 L284 917 L403 917 L499 763 L425 763 L344 843 L261 763 L187 763 Z " />
<glyph glyph-name="Scommaaccent" unicode="&#x218;" horiz-adv-x="667" d="M348 -12 Q209 -12 126 47.5 Q43 107 34 216 L162 216 Q168 153 215.5 119.5 Q263 86 344 86 Q412 86 453.5 115.5 Q495 145 495 196 Q495 236 467.5 258.5 Q440 281 378 293 L247 317 Q151 334 104 382.5 Q57 431 57 511 Q57 606 132 666 Q207 726 325 726 Q453 726 527 672 Q601 618 611 518 L486 518 Q479 569 436.5 598 Q394 627 326 627 Q263 627 224.5 597 Q186 567 186 519 Q186 480 210 459.5 Q234 439 300 426 L438 399 Q533 381 579 333 Q625 285 625 204 Q625 109 547 48.5 Q469 -12 348 -12 Z M326 -132 L275 -132 L275 -49 L404 -49 L404 -107 Q404 -170 371.5 -201 Q339 -232 272 -232 L272 -185 Q300 -185 313 -172.5 Q326 -160 326 -132 Z " />
<glyph glyph-name="Tbar" unicode="&#x166;" horiz-adv-x="721" d="M539 413 L539 312 L426 312 L426 0 L294 0 L294 312 L181 312 L181 413 L294 413 L294 609 L38 609 L38 714 L683 714 L683 609 L426 609 L426 413 L539 413 Z " />
<glyph glyph-name="Tcaron" unicode="&#x164;" horiz-adv-x="721" d="M426 0 L294 0 L294 609 L38 609 L38 714 L683 714 L683 609 L426 609 L426 0 Z M278 917 L361 837 L442 917 L516 917 L420 763 L301 763 L204 917 L278 917 Z " />
<glyph glyph-name="Tcommaaccent" unicode="&#x162;" horiz-adv-x="721" d="M459 -111 Q459 -152 424 -176 Q389 -200 335 -200 Q311 -200 287 -195.5 Q263 -191 243 -182 L243 -124 Q272 -136 292.5 -140.5 Q313 -145 333 -145 Q357 -145 371 -137 Q385 -129 385 -114 Q385 -92 359 -85.5 Q333 -79 303 -89 L280 -67 L321 0 L294 0 L294 609 L38 609 L38 714 L683 714 L683 609 L426 609 L426 0 L373 0 L349 -39 Q395 -34 427 -54 Q459 -74 459 -111 Z " />
<glyph glyph-name="uni021A" unicode="&#x21a;" horiz-adv-x="721" d="M426 0 L294 0 L294 609 L38 609 L38 714 L683 714 L683 609 L426 609 L426 0 Z M350 -132 L299 -132 L299 -49 L428 -49 L428 -107 Q428 -170 395.5 -201 Q363 -232 296 -232 L296 -185 Q324 -185 337 -172.5 Q350 -160 350 -132 Z " />
<glyph glyph-name="Ubreve" unicode="&#x16c;" horiz-adv-x="754" d="M682 714 L682 288 Q682 144 603 66 Q524 -12 377 -12 Q231 -12 151.5 66.5 Q72 145 72 290 L72 714 L205 714 L205 289 Q205 193 248.5 143.5 Q292 94 377 94 Q462 94 506 144 Q550 194 550 289 L550 714 L682 714 Z M378 761 Q311 761 271.5 804.5 Q232 848 232 921 L313 921 Q313 883 330 862.5 Q347 842 378 842 Q409 842 425.5 862.5 Q442 883 442 921 L523 921 Q523 848 483.5 804.5 Q444 761 378 761 Z " />
<glyph glyph-name="Uhungarumlaut" unicode="&#x170;" horiz-adv-x="754" d="M682 714 L682 288 Q682 144 603 66 Q524 -12 377 -12 Q231 -12 151.5 66.5 Q72 145 72 290 L72 714 L205 714 L205 289 Q205 193 248.5 143.5 Q292 94 377 94 Q462 94 506 144 Q550 194 550 289 L550 714 L682 714 Z M488 764 L414 764 L468 917 L599 917 L488 764 Z M310 764 L236 764 L290 917 L420 917 L310 764 Z " />
<glyph glyph-name="Umacron" unicode="&#x16a;" horiz-adv-x="754" d="M682 714 L682 288 Q682 144 603 66 Q524 -12 377 -12 Q231 -12 151.5 66.5 Q72 145 72 290 L72 714 L205 714 L205 289 Q205 193 248.5 143.5 Q292 94 377 94 Q462 94 506 144 Q550 194 550 289 L550 714 L682 714 Z M540 779 L214 779 L214 865 L540 865 L540 779 Z " />
<glyph glyph-name="Uogonek" unicode="&#x172;" horiz-adv-x="754" d="M549 -114 L549 -181 Q534 -186 520.5 -188 Q507 -190 488 -190 Q446 -190 419.5 -168 Q393 -146 393 -108 Q393 -84 403.5 -60 Q414 -36 437 -8 Q424 -10 409.5 -11 Q395 -12 377 -12 Q231 -12 151.5 66.5 Q72 145 72 290 L72 714 L205 714 L205 289 Q205 193 248.5 143.5 Q292 94 377 94 Q462 94 506 144 Q550 194 550 289 L550 714 L682 714 L682 288 Q682 188 644 120 Q606 52 532 18 Q504 -4 488.5 -32 Q473 -60 473 -86 Q473 -102 482.5 -111 Q492 -120 509 -120 Q520 -120 529 -118.5 Q538 -117 549 -114 Z " />
<glyph glyph-name="Uring" unicode="&#x16e;" horiz-adv-x="754" d="M682 714 L682 288 Q682 144 603 66 Q524 -12 377 -12 Q231 -12 151.5 66.5 Q72 145 72 290 L72 714 L205 714 L205 289 Q205 193 248.5 143.5 Q292 94 377 94 Q462 94 506 144 Q550 194 550 289 L550 714 L682 714 Z M506 848 Q506 795 468.5 757 Q431 719 378 719 Q325 719 287 757 Q249 795 249 848 Q249 901 287 939 Q325 977 378 977 Q431 977 468.5 939 Q506 901 506 848 Z M442 848 Q442 874 423 893 Q404 912 378 912 Q351 912 332 893 Q313 874 313 848 Q313 821 332 802 Q351 783 378 783 Q404 783 423 802.5 Q442 822 442 848 Z " />
<glyph glyph-name="Utilde" unicode="&#x168;" horiz-adv-x="754" d="M682 714 L682 288 Q682 144 603 66 Q524 -12 377 -12 Q231 -12 151.5 66.5 Q72 145 72 290 L72 714 L205 714 L205 289 Q205 193 248.5 143.5 Q292 94 377 94 Q462 94 506 144 Q550 194 550 289 L550 714 L682 714 Z M368 805 Q344 822 333 827 Q322 832 313 832 Q295 832 284.5 815.5 Q274 799 272 768 L201 768 Q201 839 227 881 Q253 923 298 923 Q316 923 334.5 915.5 Q353 908 386 885 Q410 868 421 863 Q432 858 441 858 Q459 858 469.5 874.5 Q480 891 482 922 L553 922 Q553 850 527 808.5 Q501 767 456 767 Q438 767 419.5 774.5 Q401 782 368 805 Z " />
<glyph glyph-name="Wacute" unicode="&#x1e82;" horiz-adv-x="1001" d="M787 0 L641 0 L501 551 L499 551 L359 0 L214 0 L17 714 L153 714 L296 160 L298 160 L437 714 L571 714 L710 160 L712 160 L854 714 L984 714 L787 0 Z M666 917 L548 764 L469 764 L522 917 L666 917 Z " />
<glyph glyph-name="Wcircumflex" unicode="&#x174;" horiz-adv-x="1001" d="M787 0 L641 0 L501 551 L499 551 L359 0 L214 0 L17 714 L153 714 L296 160 L298 160 L437 714 L571 714 L710 160 L712 160 L854 714 L984 714 L787 0 Z M345 763 L442 917 L561 917 L657 763 L583 763 L502 843 L419 763 L345 763 Z " />
<glyph glyph-name="Wgrave" unicode="&#x1e80;" horiz-adv-x="1001" d="M787 0 L641 0 L501 551 L499 551 L359 0 L214 0 L17 714 L153 714 L296 160 L298 160 L437 714 L571 714 L710 160 L712 160 L854 714 L984 714 L787 0 Z M496 917 L549 764 L470 764 L352 917 L496 917 Z " />
<glyph glyph-name="Wdieresis" unicode="&#x1e84;" horiz-adv-x="1001" d="M787 0 L641 0 L501 551 L499 551 L359 0 L214 0 L17 714 L153 714 L296 160 L298 160 L437 714 L571 714 L710 160 L712 160 L854 714 L984 714 L787 0 Z M660 775 L542 775 L542 900 L660 900 L660 775 Z M460 775 L342 775 L342 900 L460 900 L460 775 Z " />
<glyph glyph-name="Ycircumflex" unicode="&#x176;" horiz-adv-x="706" d="M419 293 L419 0 L286 0 L286 293 L10 714 L158 714 L356 409 L358 409 L551 714 L696 714 L419 293 Z M197 763 L294 917 L413 917 L509 763 L435 763 L354 843 L271 763 L197 763 Z " />
<glyph glyph-name="Ygrave" unicode="&#x1ef2;" horiz-adv-x="706" d="M419 293 L419 0 L286 0 L286 293 L10 714 L158 714 L356 409 L358 409 L551 714 L696 714 L419 293 Z M351 917 L404 764 L325 764 L207 917 L351 917 Z " />
<glyph glyph-name="Zacute" unicode="&#x179;" horiz-adv-x="678" d="M624 714 L624 614 L211 105 L630 105 L630 0 L47 0 L47 93 L462 609 L60 609 L60 714 L624 714 Z M484 917 L366 764 L287 764 L340 917 L484 917 Z " />
<glyph glyph-name="Zdotaccent" unicode="&#x17b;" horiz-adv-x="678" d="M624 714 L624 614 L211 105 L630 105 L630 0 L47 0 L47 93 L462 609 L60 609 L60 714 L624 714 Z M406 775 L270 775 L270 900 L406 900 L406 775 Z " />
<glyph glyph-name="abreve" unicode="&#x103;" horiz-adv-x="574" d="M511 0 L388 0 Q385 20 383 40 Q381 60 381 80 Q363 37 318.5 13 Q274 -11 212 -11 Q135 -11 88 29 Q41 69 41 136 Q41 203 87 242 Q133 281 224 292 L376 309 L376 333 Q376 377 351 401 Q326 425 280 425 Q239 425 214 404 Q189 383 186 347 L63 347 Q71 428 130 474 Q189 520 284 520 Q390 520 445.5 470 Q501 420 501 323 L501 127 Q501 86 503.5 56.5 Q506 27 511 0 Z M168 143 Q168 112 189 95 Q210 78 247 78 Q303 78 339.5 110.5 Q376 143 376 197 L376 228 L263 215 Q209 208 188.5 191.5 Q168 175 168 143 Z M284 576 Q217 576 177.5 619.5 Q138 663 138 736 L217 736 Q218 697 235 676 Q252 655 284 655 Q315 655 332 676 Q349 697 350 736 L429 736 Q429 663 389.5 619.5 Q350 576 284 576 Z " />
<glyph glyph-name="amacron" unicode="&#x101;" horiz-adv-x="574" d="M511 0 L388 0 Q385 20 383 40 Q381 60 381 80 Q363 37 318.5 13 Q274 -11 212 -11 Q135 -11 88 29 Q41 69 41 136 Q41 203 87 242 Q133 281 224 292 L376 309 L376 333 Q376 377 351 401 Q326 425 280 425 Q239 425 214 404 Q189 383 186 347 L63 347 Q71 428 130 474 Q189 520 284 520 Q390 520 445.5 470 Q501 420 501 323 L501 127 Q501 86 503.5 56.5 Q506 27 511 0 Z M168 143 Q168 112 189 95 Q210 78 247 78 Q303 78 339.5 110.5 Q376 143 376 197 L376 228 L263 215 Q209 208 188.5 191.5 Q168 175 168 143 Z M437 594 L131 594 L131 680 L437 680 L437 594 Z " />
<glyph glyph-name="aogonek" unicode="&#x105;" horiz-adv-x="574" d="M485 -114 L485 -181 Q470 -186 456.5 -188 Q443 -190 424 -190 Q382 -190 355.5 -168 Q329 -146 329 -108 Q329 -83 342 -57 Q355 -31 387 7 Q384 25 382.5 44 Q381 63 381 80 Q363 37 318.5 13 Q274 -11 212 -11 Q135 -11 88 29 Q41 69 41 136 Q41 203 87 242 Q133 281 224 292 L376 309 L376 333 Q376 377 351 401 Q326 425 280 425 Q239 425 214 404 Q189 383 186 347 L63 347 Q71 428 130 474 Q189 520 284 520 Q390 520 445.5 470 Q501 420 501 323 L501 127 Q501 86 503.5 56.5 Q506 27 511 0 L456 0 Q425 -40 416.5 -56.5 Q408 -73 408 -87 Q408 -103 418 -111.5 Q428 -120 445 -120 Q456 -120 465 -118.5 Q474 -117 485 -114 Z M168 143 Q168 112 189 95 Q210 78 247 78 Q303 78 339.5 110.5 Q376 143 376 197 L376 228 L263 215 Q209 208 188.5 191.5 Q168 175 168 143 Z " />
<glyph glyph-name="aeacute" unicode="&#x1fd;" horiz-adv-x="900" d="M736 158 L854 158 Q838 79 776.5 33.5 Q715 -12 625 -12 Q564 -12 512.5 12 Q461 36 426 80 Q390 35 341 12 Q292 -11 230 -11 Q144 -11 92.5 29.5 Q41 70 41 140 Q41 216 101.5 256 Q162 296 277 296 L376 296 L376 333 Q376 378 351 402 Q326 426 280 426 Q239 426 214 405 Q189 384 186 347 L63 347 Q71 428 129 474 Q187 520 280 520 Q336 520 379 502 Q422 484 449 450 Q483 484 527 502 Q571 520 621 520 Q730 520 793.5 449 Q857 378 857 264 L857 226 L491 226 Q496 156 530.5 119 Q565 82 625 82 Q667 82 694.5 101 Q722 120 736 158 Z M621 427 Q568 427 535 393 Q502 359 493 296 L737 296 Q735 356 704.5 391.5 Q674 427 621 427 Z M167 150 Q167 117 190 97.5 Q213 78 251 78 Q307 78 341.5 109.5 Q376 141 376 196 L376 226 L273 226 Q222 226 194.5 206.5 Q167 187 167 150 Z M598 736 L482 577 L398 577 L451 736 L598 736 Z " />
<glyph glyph-name="cacute" unicode="&#x107;" horiz-adv-x="557" d="M298 -12 Q183 -12 113 60.5 Q43 133 43 254 Q43 374 113.5 447 Q184 520 298 520 Q391 520 449.5 470.5 Q508 421 519 334 L398 334 Q390 378 364 401 Q338 424 297 424 Q238 424 204.5 378.5 Q171 333 171 254 Q171 174 204.5 129 Q238 84 297 84 Q338 84 364 107.5 Q390 131 398 174 L519 174 Q508 87 449.5 37.5 Q391 -12 298 -12 Z M451 736 L335 577 L251 577 L304 736 L451 736 Z " />
<glyph glyph-name="ccaron" unicode="&#x10d;" horiz-adv-x="557" d="M298 -12 Q183 -12 113 60.5 Q43 133 43 254 Q43 374 113.5 447 Q184 520 298 520 Q391 520 449.5 470.5 Q508 421 519 334 L398 334 Q390 378 364 401 Q338 424 297 424 Q238 424 204.5 378.5 Q171 333 171 254 Q171 174 204.5 129 Q238 84 297 84 Q338 84 364 107.5 Q390 131 398 174 L519 174 Q508 87 449.5 37.5 Q391 -12 298 -12 Z M215 736 L298 649 L379 736 L453 736 L355 576 L239 576 L141 736 L215 736 Z " />
<glyph glyph-name="ccircumflex" unicode="&#x109;" horiz-adv-x="557" d="M298 -12 Q183 -12 113 60.5 Q43 133 43 254 Q43 374 113.5 447 Q184 520 298 520 Q391 520 449.5 470.5 Q508 421 519 334 L398 334 Q390 378 364 401 Q338 424 297 424 Q238 424 204.5 378.5 Q171 333 171 254 Q171 174 204.5 129 Q238 84 297 84 Q338 84 364 107.5 Q390 131 398 174 L519 174 Q508 87 449.5 37.5 Q391 -12 298 -12 Z M141 576 L239 736 L355 736 L453 576 L379 576 L298 663 L215 576 L141 576 Z " />
<glyph glyph-name="cdotaccent" unicode="&#x10b;" horiz-adv-x="557" d="M298 -12 Q183 -12 113 60.5 Q43 133 43 254 Q43 374 113.5 447 Q184 520 298 520 Q391 520 449.5 470.5 Q508 421 519 334 L398 334 Q390 378 364 401 Q338 424 297 424 Q238 424 204.5 378.5 Q171 333 171 254 Q171 174 204.5 129 Q238 84 297 84 Q338 84 364 107.5 Q390 131 398 174 L519 174 Q508 87 449.5 37.5 Q391 -12 298 -12 Z M365 594 L229 594 L229 719 L365 719 L365 594 Z " />
<glyph glyph-name="dcaron" unicode="&#x10f;" horiz-adv-x="648" d="M267 -12 Q167 -12 105 62 Q43 136 43 254 Q43 372 105 446 Q167 520 267 520 Q321 520 364.5 494 Q408 468 428 425 L428 736 L556 736 L556 0 L430 0 L430 81 Q410 39 365.5 13.5 Q321 -12 267 -12 Z M303 426 Q242 426 207 380 Q172 334 172 254 Q172 174 207 128 Q242 82 303 82 Q363 82 397 125.5 Q431 169 431 245 L431 263 Q431 339 397 382.5 Q363 426 303 426 Z M789 736 L693 533 L631 533 L655 736 L789 736 Z " />
<glyph glyph-name="dcroat" unicode="&#x111;" horiz-adv-x="649" d="M430 0 L430 81 Q410 39 365.5 13.5 Q321 -12 267 -12 Q167 -12 105 62 Q43 136 43 254 Q43 372 105 446 Q167 520 267 520 Q321 520 364.5 494 Q408 468 428 425 L428 578 L310 578 L310 654 L428 654 L428 736 L556 736 L556 654 L628 654 L628 578 L556 578 L556 0 L430 0 Z M303 82 Q363 82 397 125.5 Q431 169 431 245 L431 263 Q431 339 397 382.5 Q363 426 303 426 Q242 426 207 380 Q172 334 172 254 Q172 174 207 128 Q242 82 303 82 Z " />
<glyph glyph-name="ebreve" unicode="&#x115;" horiz-adv-x="575" d="M411 158 L529 158 Q513 79 451.5 33.5 Q390 -12 300 -12 Q185 -12 114 60.5 Q43 133 43 253 Q43 373 114 446.5 Q185 520 297 520 Q405 520 468.5 449 Q532 378 532 264 L532 223 L167 223 Q173 155 207 118.5 Q241 82 300 82 Q342 82 370 101 Q398 120 411 158 Z M297 425 Q246 425 213.5 394.5 Q181 364 171 306 L410 306 Q410 359 379.5 392 Q349 425 297 425 Z M295 576 Q228 576 188.5 619.5 Q149 663 149 736 L228 736 Q229 697 246 676 Q263 655 295 655 Q326 655 343 676 Q360 697 361 736 L440 736 Q440 663 400.5 619.5 Q361 576 295 576 Z " />
<glyph glyph-name="ecaron" unicode="&#x11b;" horiz-adv-x="575" d="M411 158 L529 158 Q513 79 451.5 33.5 Q390 -12 300 -12 Q185 -12 114 60.5 Q43 133 43 253 Q43 373 114 446.5 Q185 520 297 520 Q405 520 468.5 449 Q532 378 532 264 L532 223 L167 223 Q173 155 207 118.5 Q241 82 300 82 Q342 82 370 101 Q398 120 411 158 Z M297 425 Q246 425 213.5 394.5 Q181 364 171 306 L410 306 Q410 359 379.5 392 Q349 425 297 425 Z M217 736 L300 649 L381 736 L455 736 L357 576 L241 576 L143 736 L217 736 Z " />
<glyph glyph-name="edotaccent" unicode="&#x117;" horiz-adv-x="575" d="M411 158 L529 158 Q513 79 451.5 33.5 Q390 -12 300 -12 Q185 -12 114 60.5 Q43 133 43 253 Q43 373 114 446.5 Q185 520 297 520 Q405 520 468.5 449 Q532 378 532 264 L532 223 L167 223 Q173 155 207 118.5 Q241 82 300 82 Q342 82 370 101 Q398 120 411 158 Z M297 425 Q246 425 213.5 394.5 Q181 364 171 306 L410 306 Q410 359 379.5 392 Q349 425 297 425 Z M365 594 L229 594 L229 719 L365 719 L365 594 Z " />
<glyph glyph-name="emacron" unicode="&#x113;" horiz-adv-x="575" d="M411 158 L529 158 Q513 79 451.5 33.5 Q390 -12 300 -12 Q185 -12 114 60.5 Q43 133 43 253 Q43 373 114 446.5 Q185 520 297 520 Q405 520 468.5 449 Q532 378 532 264 L532 223 L167 223 Q173 155 207 118.5 Q241 82 300 82 Q342 82 370 101 Q398 120 411 158 Z M297 425 Q246 425 213.5 394.5 Q181 364 171 306 L410 306 Q410 359 379.5 392 Q349 425 297 425 Z M450 594 L144 594 L144 680 L450 680 L450 594 Z " />
<glyph glyph-name="eogonek" unicode="&#x119;" horiz-adv-x="575" d="M445 -114 L445 -181 Q430 -186 416.5 -188 Q403 -190 384 -190 Q342 -190 315.5 -168 Q289 -146 289 -108 Q289 -86 299 -63 Q309 -40 333 -10 Q319 -11 312.5 -11.5 Q306 -12 300 -12 Q185 -12 114 60.5 Q43 133 43 253 Q43 373 114 446.5 Q185 520 297 520 Q405 520 468.5 449 Q532 378 532 264 L532 223 L167 223 Q173 155 207 118.5 Q241 82 300 82 Q342 82 370 101 Q398 120 411 158 L529 158 Q522 122 500 89 Q478 56 431 17 Q401 -8 384.5 -36 Q368 -64 368 -87 Q368 -103 378 -111.5 Q388 -120 405 -120 Q416 -120 425 -118.5 Q434 -117 445 -114 Z M297 425 Q246 425 213.5 394.5 Q181 364 171 306 L410 306 Q410 359 379.5 392 Q349 425 297 425 Z " />
<glyph glyph-name="gbreve" unicode="&#x11f;" horiz-adv-x="635" d="M298 -100 Q362 -100 395 -66 Q428 -32 428 34 L428 106 Q407 64 364 38.5 Q321 13 267 13 Q166 13 104.5 83 Q43 153 43 267 Q43 380 105 450 Q167 520 267 520 Q321 520 365 494 Q409 468 430 425 L430 508 L556 508 L556 50 Q556 -66 488.5 -128 Q421 -190 298 -190 Q195 -190 131.5 -149 Q68 -108 54 -32 L181 -32 Q191 -66 220 -83 Q249 -100 298 -100 Z M301 107 Q360 107 396.5 148.5 Q433 190 433 257 L433 278 Q433 345 396.5 386 Q360 427 301 427 Q241 427 206 384 Q171 341 171 267 Q171 193 206 150 Q241 107 301 107 Z M316 576 Q249 576 209.5 619.5 Q170 663 170 736 L249 736 Q250 697 267 676 Q284 655 316 655 Q347 655 364 676 Q381 697 382 736 L461 736 Q461 663 421.5 619.5 Q382 576 316 576 Z " />
<glyph glyph-name="gcircumflex" unicode="&#x11d;" horiz-adv-x="635" d="M298 -100 Q362 -100 395 -66 Q428 -32 428 34 L428 106 Q407 64 364 38.5 Q321 13 267 13 Q166 13 104.5 83 Q43 153 43 267 Q43 380 105 450 Q167 520 267 520 Q321 520 365 494 Q409 468 430 425 L430 508 L556 508 L556 50 Q556 -66 488.5 -128 Q421 -190 298 -190 Q195 -190 131.5 -149 Q68 -108 54 -32 L181 -32 Q191 -66 220 -83 Q249 -100 298 -100 Z M301 107 Q360 107 396.5 148.5 Q433 190 433 257 L433 278 Q433 345 396.5 386 Q360 427 301 427 Q241 427 206 384 Q171 341 171 267 Q171 193 206 150 Q241 107 301 107 Z M159 576 L257 736 L373 736 L471 576 L397 576 L316 663 L233 576 L159 576 Z " />
<glyph glyph-name="gcommaaccent" unicode="&#x123;" horiz-adv-x="635" d="M298 -100 Q362 -100 395 -66 Q428 -32 428 34 L428 106 Q407 64 364 38.5 Q321 13 267 13 Q166 13 104.5 83 Q43 153 43 267 Q43 380 105 450 Q167 520 267 520 Q321 520 365 494 Q409 468 430 425 L430 508 L556 508 L556 50 Q556 -66 488.5 -128 Q421 -190 298 -190 Q195 -190 131.5 -149 Q68 -108 54 -32 L181 -32 Q191 -66 220 -83 Q249 -100 298 -100 Z M301 107 Q360 107 396.5 148.5 Q433 190 433 257 L433 278 Q433 345 396.5 386 Q360 427 301 427 Q241 427 206 384 Q171 341 171 267 Q171 193 206 150 Q241 107 301 107 Z M322 663 L373 663 L373 580 L244 580 L244 638 Q244 701 276.5 732 Q309 763 376 763 L376 716 Q348 716 335 703.5 Q322 691 322 663 Z " />
<glyph glyph-name="gdotaccent" unicode="&#x121;" horiz-adv-x="635" d="M298 -100 Q362 -100 395 -66 Q428 -32 428 34 L428 106 Q407 64 364 38.5 Q321 13 267 13 Q166 13 104.5 83 Q43 153 43 267 Q43 380 105 450 Q167 520 267 520 Q321 520 365 494 Q409 468 430 425 L430 508 L556 508 L556 50 Q556 -66 488.5 -128 Q421 -190 298 -190 Q195 -190 131.5 -149 Q68 -108 54 -32 L181 -32 Q191 -66 220 -83 Q249 -100 298 -100 Z M301 107 Q360 107 396.5 148.5 Q433 190 433 257 L433 278 Q433 345 396.5 386 Q360 427 301 427 Q241 427 206 384 Q171 341 171 267 Q171 193 206 150 Q241 107 301 107 Z M378 594 L242 594 L242 719 L378 719 L378 594 Z " />
<glyph glyph-name="hbar" unicode="&#x127;" horiz-adv-x="637" d="M335 419 Q281 419 251 382 Q221 345 221 276 L221 0 L93 0 L93 578 L21 578 L21 653 L93 653 L93 736 L221 736 L221 653 L338 653 L338 578 L221 578 L221 422 Q241 468 282.5 494 Q324 520 379 520 Q466 520 515.5 468.5 Q565 417 565 326 L565 0 L437 0 L437 296 Q437 357 411 388 Q385 419 335 419 Z " />
<glyph glyph-name="hcircumflex" unicode="&#x125;" horiz-adv-x="622" d="M206 736 L206 422 Q226 468 267.5 494 Q309 520 364 520 Q451 520 500.5 468.5 Q550 417 550 326 L550 0 L422 0 L422 296 Q422 357 396 388 Q370 419 320 419 Q266 419 236 382 Q206 345 206 276 L206 0 L78 0 L78 736 L206 736 Z M157 773 L254 927 L373 927 L469 773 L395 773 L314 853 L231 773 L157 773 Z " />
<glyph glyph-name="ibreve" unicode="&#x12d;" horiz-adv-x="284" d="M78 0 L78 508 L206 508 L206 0 L78 0 Z M143 576 Q76 576 36.5 619.5 Q-3 663 -3 736 L76 736 Q77 697 94 676 Q111 655 143 655 Q174 655 191 676 Q208 697 209 736 L288 736 Q288 663 248.5 619.5 Q209 576 143 576 Z " />
<glyph glyph-name="imacron" unicode="&#x12b;" horiz-adv-x="284" d="M277 594 L10 594 L10 680 L277 680 L277 594 Z M78 0 L78 508 L206 508 L206 0 L78 0 Z " />
<glyph glyph-name="iogonek" unicode="&#x12f;" horiz-adv-x="284" d="M210 594 L74 594 L74 719 L210 719 L210 594 Z M147 -190 Q105 -190 79 -168 Q53 -146 53 -108 Q53 -83 66 -57.5 Q79 -32 108 0 L78 0 L78 508 L206 508 L206 0 Q170 -17 151 -39 Q132 -61 132 -86 Q132 -102 142.5 -111 Q153 -120 170 -120 Q180 -120 188.5 -118.5 Q197 -117 208 -114 L208 -181 Q194 -186 180 -188 Q166 -190 147 -190 Z " />
<glyph glyph-name="itilde" unicode="&#x129;" horiz-adv-x="284" d="M135 614 Q120 631 112 636 Q104 641 95 641 Q77 641 67 624 Q57 607 55 575 L-17 575 Q-17 646 9.5 688 Q36 730 81 730 Q99 730 114 722 Q129 714 150 690 Q165 673 173 668 Q181 663 190 663 Q208 663 218 680 Q228 697 230 729 L301 729 Q301 657 275 615.5 Q249 574 204 574 Q186 574 171 582 Q156 590 135 614 Z M78 0 L78 508 L206 508 L206 0 L78 0 Z " />
<glyph glyph-name="uni0237" unicode="&#x237;" horiz-adv-x="284" d="M45 -184 Q26 -184 13 -183 Q0 -182 -14 -179 L-14 -84 Q-6 -86 1.5 -86.5 Q9 -87 17 -87 Q51 -87 64.5 -73 Q78 -59 78 -26 L78 508 L206 508 L206 -28 Q206 -106 166 -145 Q126 -184 45 -184 Z " />
<glyph glyph-name="jcircumflex" unicode="&#x135;" horiz-adv-x="284" d="M45 -184 Q26 -184 13 -183 Q0 -182 -14 -179 L-14 -84 Q-6 -86 1.5 -86.5 Q9 -87 17 -87 Q51 -87 64.5 -73 Q78 -59 78 -26 L78 508 L206 508 L206 -28 Q206 -106 166 -145 Q126 -184 45 -184 Z M-16 576 L82 736 L198 736 L296 576 L222 576 L141 663 L58 576 L-16 576 Z " />
<glyph glyph-name="kcommaaccent" unicode="&#x137;" horiz-adv-x="598" d="M579 0 L432 0 L265 215 L206 158 L206 0 L78 0 L78 736 L206 736 L206 290 L422 508 L569 508 L354 296 L579 0 Z M313 -132 L262 -132 L262 -49 L391 -49 L391 -107 Q391 -170 358.5 -201 Q326 -232 259 -232 L259 -185 Q287 -185 300 -172.5 Q313 -160 313 -132 Z " />
<glyph glyph-name="kgreenlandic" unicode="&#x138;" horiz-adv-x="598" d="M579 0 L432 0 L265 215 L206 158 L206 0 L78 0 L78 508 L206 508 L206 290 L422 508 L569 508 L354 296 L579 0 Z " />
<glyph glyph-name="lacute" unicode="&#x13a;" horiz-adv-x="284" d="M206 736 L206 0 L78 0 L78 736 L206 736 Z M301 927 L183 774 L104 774 L157 927 L301 927 Z " />
<glyph glyph-name="lcaron" unicode="&#x13e;" horiz-adv-x="299" d="M206 736 L206 0 L78 0 L78 736 L206 736 Z M439 736 L343 533 L281 533 L305 736 L439 736 Z " />
<glyph glyph-name="lcommaaccent" unicode="&#x13c;" horiz-adv-x="284" d="M206 736 L206 0 L78 0 L78 736 L206 736 Z M130 -132 L79 -132 L79 -49 L208 -49 L208 -107 Q208 -170 175.5 -201 Q143 -232 76 -232 L76 -185 Q104 -185 117 -172.5 Q130 -160 130 -132 Z " />
<glyph glyph-name="ldot" unicode="&#x140;" horiz-adv-x="482" d="M206 736 L206 0 L78 0 L78 736 L206 736 Z M447 288 L311 288 L311 413 L447 413 L447 288 Z " />
<glyph glyph-name="nacute" unicode="&#x144;" horiz-adv-x="622" d="M78 508 L204 508 L204 422 Q223 467 265.5 493.5 Q308 520 364 520 Q451 520 500.5 468.5 Q550 417 550 326 L550 0 L422 0 L422 296 Q422 357 396 388 Q370 419 320 419 Q266 419 236 382 Q206 345 206 276 L206 0 L78 0 L78 508 Z M465 736 L349 577 L265 577 L318 736 L465 736 Z " />
<glyph glyph-name="ncaron" unicode="&#x148;" horiz-adv-x="622" d="M78 508 L204 508 L204 422 Q223 467 265.5 493.5 Q308 520 364 520 Q451 520 500.5 468.5 Q550 417 550 326 L550 0 L422 0 L422 296 Q422 357 396 388 Q370 419 320 419 Q266 419 236 382 Q206 345 206 276 L206 0 L78 0 L78 508 Z M232 736 L315 649 L396 736 L470 736 L372 576 L256 576 L158 736 L232 736 Z " />
<glyph glyph-name="ncommaaccent" unicode="&#x146;" horiz-adv-x="622" d="M78 508 L204 508 L204 422 Q223 467 265.5 493.5 Q308 520 364 520 Q451 520 500.5 468.5 Q550 417 550 326 L550 0 L422 0 L422 296 Q422 357 396 388 Q370 419 320 419 Q266 419 236 382 Q206 345 206 276 L206 0 L78 0 L78 508 Z M305 -132 L254 -132 L254 -49 L383 -49 L383 -107 Q383 -170 350.5 -201 Q318 -232 251 -232 L251 -185 Q279 -185 292 -172.5 Q305 -160 305 -132 Z " />
<glyph glyph-name="eng" unicode="&#x14b;" horiz-adv-x="622" d="M388 -184 Q369 -184 355.5 -183 Q342 -182 329 -179 L329 -84 Q337 -86 345 -86.5 Q353 -87 360 -87 Q394 -87 408 -73 Q422 -59 422 -26 L422 296 Q422 357 396 388 Q370 419 320 419 Q266 419 236 382 Q206 345 206 276 L206 0 L78 0 L78 508 L204 508 L204 422 Q223 467 265.5 493.5 Q308 520 364 520 Q451 520 500.5 468.5 Q550 417 550 326 L550 -28 Q550 -106 509.5 -145 Q469 -184 388 -184 Z " />
<glyph glyph-name="obreve" unicode="&#x14f;" horiz-adv-x="600" d="M300 520 Q415 520 486 447 Q557 374 557 254 Q557 133 486.5 60.5 Q416 -12 300 -12 Q184 -12 113.5 60.5 Q43 133 43 254 Q43 374 114 447 Q185 520 300 520 Z M300 425 Q239 425 205 380 Q171 335 171 254 Q171 173 205 128 Q239 83 300 83 Q361 83 395 128 Q429 173 429 254 Q429 334 395 379.5 Q361 425 300 425 Z M301 576 Q234 576 194.5 619.5 Q155 663 155 736 L234 736 Q235 697 252 676 Q269 655 301 655 Q332 655 349 676 Q366 697 367 736 L446 736 Q446 663 406.5 619.5 Q367 576 301 576 Z " />
<glyph glyph-name="ohungarumlaut" unicode="&#x151;" horiz-adv-x="600" d="M300 520 Q415 520 486 447 Q557 374 557 254 Q557 133 486.5 60.5 Q416 -12 300 -12 Q184 -12 113.5 60.5 Q43 133 43 254 Q43 374 114 447 Q185 520 300 520 Z M300 425 Q239 425 205 380 Q171 335 171 254 Q171 173 205 128 Q239 83 300 83 Q361 83 395 128 Q429 173 429 254 Q429 334 395 379.5 Q361 425 300 425 Z M419 577 L345 577 L399 736 L530 736 L419 577 Z M241 577 L167 577 L221 736 L351 736 L241 577 Z " />
<glyph glyph-name="omacron" unicode="&#x14d;" horiz-adv-x="600" d="M300 520 Q415 520 486 447 Q557 374 557 254 Q557 133 486.5 60.5 Q416 -12 300 -12 Q184 -12 113.5 60.5 Q43 133 43 254 Q43 374 114 447 Q185 520 300 520 Z M300 425 Q239 425 205 380 Q171 335 171 254 Q171 173 205 128 Q239 83 300 83 Q361 83 395 128 Q429 173 429 254 Q429 334 395 379.5 Q361 425 300 425 Z M453 594 L147 594 L147 680 L453 680 L453 594 Z " />
<glyph glyph-name="oslashacute" unicode="&#x1ff;" horiz-adv-x="600" d="M557 254 Q557 133 486.5 60.5 Q416 -12 300 -12 Q258 -12 220.5 -1.5 Q183 9 152 29 L98 -34 L49 11 L103 73 Q73 108 58 154 Q43 200 43 254 Q43 374 114 447 Q185 520 300 520 Q344 520 382.5 509 Q421 498 452 476 L502 534 L551 489 L501 431 Q529 396 543 351 Q557 306 557 254 Z M300 429 Q237 429 201.5 382.5 Q166 336 166 254 Q166 227 170 204.5 Q174 182 181 163 L384 398 Q367 413 346 421 Q325 429 300 429 Z M300 79 Q363 79 398.5 125.5 Q434 172 434 254 Q434 279 430.5 300.5 Q427 322 421 339 L219 106 Q236 93 256.5 86 Q277 79 300 79 Z M453 736 L337 577 L253 577 L306 736 L453 736 Z " />
<glyph glyph-name="racute" unicode="&#x155;" horiz-adv-x="418" d="M360 517 Q371 517 381 516 Q391 515 398 513 L398 395 Q388 397 375.5 398 Q363 399 349 399 Q284 399 245 355 Q206 311 206 235 L206 0 L78 0 L78 508 L204 508 L204 394 Q222 452 263 484.5 Q304 517 360 517 Z M386 736 L270 577 L186 577 L239 736 L386 736 Z " />
<glyph glyph-name="rcaron" unicode="&#x159;" horiz-adv-x="418" d="M360 517 Q371 517 381 516 Q391 515 398 513 L398 395 Q388 397 375.5 398 Q363 399 349 399 Q284 399 245 355 Q206 311 206 235 L206 0 L78 0 L78 508 L204 508 L204 394 Q222 452 263 484.5 Q304 517 360 517 Z M158 736 L241 649 L322 736 L396 736 L298 576 L182 576 L84 736 L158 736 Z " />
<glyph glyph-name="rcommaaccent" unicode="&#x157;" horiz-adv-x="418" d="M360 517 Q371 517 381 516 Q391 515 398 513 L398 395 Q388 397 375.5 398 Q363 399 349 399 Q284 399 245 355 Q206 311 206 235 L206 0 L78 0 L78 508 L204 508 L204 394 Q222 452 263 484.5 Q304 517 360 517 Z M130 -132 L79 -132 L79 -49 L208 -49 L208 -107 Q208 -170 175.5 -201 Q143 -232 76 -232 L76 -185 Q104 -185 117 -172.5 Q130 -160 130 -132 Z " />
<glyph glyph-name="sacute" unicode="&#x15b;" horiz-adv-x="535" d="M275 -12 Q170 -12 107.5 31.5 Q45 75 37 154 L159 154 Q163 118 194.5 97.5 Q226 77 273 77 Q316 77 342.5 94 Q369 111 369 140 Q369 164 351.5 176.5 Q334 189 291 197 L201 213 Q127 226 91 262 Q55 298 55 358 Q55 429 113 474.5 Q171 520 261 520 Q358 520 414.5 479.5 Q471 439 479 364 L362 364 Q358 394 331 412 Q304 430 262 430 Q222 430 197.5 414 Q173 398 173 371 Q173 347 190 334.5 Q207 322 251 314 L350 297 Q419 285 454 247.5 Q489 210 489 149 Q489 78 428.5 33 Q368 -12 275 -12 Z M420 736 L304 577 L220 577 L273 736 L420 736 Z " />
<glyph glyph-name="scedilla" unicode="&#x15f;" horiz-adv-x="535" d="M378 -111 Q378 -152 343 -176 Q308 -200 254 -200 Q230 -200 206 -195.5 Q182 -191 162 -182 L162 -124 Q191 -136 211.5 -140.5 Q232 -145 252 -145 Q276 -145 290 -137 Q304 -129 304 -114 Q304 -92 278 -85.5 Q252 -79 222 -89 L199 -67 L234 -10 Q147 -1 95.5 41.5 Q44 84 37 154 L159 154 Q163 118 194.5 97.5 Q226 77 273 77 Q316 77 342.5 94 Q369 111 369 140 Q369 164 351.5 176.5 Q334 189 291 197 L201 213 Q127 226 91 262 Q55 298 55 358 Q55 429 113 474.5 Q171 520 261 520 Q358 520 414.5 479.5 Q471 439 479 364 L362 364 Q358 394 331 412 Q304 430 262 430 Q222 430 197.5 414 Q173 398 173 371 Q173 347 190 334.5 Q207 322 251 314 L350 297 Q419 285 454 247.5 Q489 210 489 149 Q489 81 432 36 Q375 -9 285 -12 L268 -39 Q314 -34 346 -54 Q378 -74 378 -111 Z " />
<glyph glyph-name="scircumflex" unicode="&#x15d;" horiz-adv-x="535" d="M275 -12 Q170 -12 107.5 31.5 Q45 75 37 154 L159 154 Q163 118 194.5 97.5 Q226 77 273 77 Q316 77 342.5 94 Q369 111 369 140 Q369 164 351.5 176.5 Q334 189 291 197 L201 213 Q127 226 91 262 Q55 298 55 358 Q55 429 113 474.5 Q171 520 261 520 Q358 520 414.5 479.5 Q471 439 479 364 L362 364 Q358 394 331 412 Q304 430 262 430 Q222 430 197.5 414 Q173 398 173 371 Q173 347 190 334.5 Q207 322 251 314 L350 297 Q419 285 454 247.5 Q489 210 489 149 Q489 78 428.5 33 Q368 -12 275 -12 Z M114 576 L212 736 L328 736 L426 576 L352 576 L271 663 L188 576 L114 576 Z " />
<glyph glyph-name="scommaaccent" unicode="&#x219;" horiz-adv-x="535" d="M275 -12 Q170 -12 107.5 31.5 Q45 75 37 154 L159 154 Q163 118 194.5 97.5 Q226 77 273 77 Q316 77 342.5 94 Q369 111 369 140 Q369 164 351.5 176.5 Q334 189 291 197 L201 213 Q127 226 91 262 Q55 298 55 358 Q55 429 113 474.5 Q171 520 261 520 Q358 520 414.5 479.5 Q471 439 479 364 L362 364 Q358 394 331 412 Q304 430 262 430 Q222 430 197.5 414 Q173 398 173 371 Q173 347 190 334.5 Q207 322 251 314 L350 297 Q419 285 454 247.5 Q489 210 489 149 Q489 78 428.5 33 Q368 -12 275 -12 Z M266 -132 L215 -132 L215 -49 L344 -49 L344 -107 Q344 -170 311.5 -201 Q279 -232 212 -232 L212 -185 Q240 -185 253 -172.5 Q266 -160 266 -132 Z " />
<glyph glyph-name="tbar" unicode="&#x167;" horiz-adv-x="421" d="M367 105 L367 7 Q341 -1 317 -4.5 Q293 -8 266 -8 Q185 -8 146.5 28 Q108 64 108 139 L108 247 L37 247 L37 331 L108 331 L108 422 L37 422 L37 508 L108 508 L108 635 L235 635 L235 508 L356 508 L356 422 L234 422 L234 331 L354 331 L354 247 L234 247 L234 159 Q234 126 249.5 110.5 Q265 95 300 95 Q317 95 333 97.5 Q349 100 367 105 Z " />
<glyph glyph-name="tcaron" unicode="&#x165;" horiz-adv-x="389" d="M280 95 Q297 95 313 97.5 Q329 100 347 105 L347 7 Q321 -1 297 -4.5 Q273 -8 246 -8 Q165 -8 126.5 28 Q88 64 88 139 L88 416 L18 416 L18 508 L88 508 L88 635 L215 635 L215 508 L336 508 L336 416 L214 416 L214 159 Q214 126 229.5 110.5 Q245 95 280 95 Z M418 766 L322 563 L260 563 L284 766 L418 766 Z " />
<glyph glyph-name="tcommaaccent" unicode="&#x163;" horiz-adv-x="389" d="M313 -111 Q313 -152 278 -176 Q243 -200 189 -200 Q165 -200 141 -195.5 Q117 -191 97 -182 L97 -124 Q126 -136 146.5 -140.5 Q167 -145 187 -145 Q211 -145 225 -137 Q239 -129 239 -114 Q239 -92 213 -85.5 Q187 -79 157 -89 L134 -67 L175 1 Q131 15 109.5 49 Q88 83 88 139 L88 416 L18 416 L18 508 L88 508 L88 635 L215 635 L215 508 L336 508 L336 416 L214 416 L214 159 Q214 126 229.5 110.5 Q245 95 280 95 Q297 95 313 97.5 Q329 100 347 105 L347 7 Q321 -1 297 -4.5 Q273 -8 246 -8 Q236 -8 231.5 -8 Q227 -8 223 -7 L203 -39 Q249 -34 281 -54 Q313 -74 313 -111 Z " />
<glyph glyph-name="uni021B" unicode="&#x21b;" horiz-adv-x="389" d="M280 95 Q297 95 313 97.5 Q329 100 347 105 L347 7 Q321 -1 297 -4.5 Q273 -8 246 -8 Q165 -8 126.5 28 Q88 64 88 139 L88 416 L18 416 L18 508 L88 508 L88 635 L215 635 L215 508 L336 508 L336 416 L214 416 L214 159 Q214 126 229.5 110.5 Q245 95 280 95 Z M204 -132 L153 -132 L153 -49 L282 -49 L282 -107 Q282 -170 249.5 -201 Q217 -232 150 -232 L150 -185 Q178 -185 191 -172.5 Q204 -160 204 -132 Z " />
<glyph glyph-name="ubreve" unicode="&#x16d;" horiz-adv-x="616" d="M538 508 L538 0 L412 0 L412 85 Q393 40 351 14 Q309 -12 254 -12 Q168 -12 120.5 38.5 Q73 89 73 181 L73 508 L202 508 L202 209 Q202 148 226.5 117.5 Q251 87 300 87 Q352 87 380.5 124.5 Q409 162 409 232 L409 508 L538 508 Z M310 576 Q243 576 203.5 619.5 Q164 663 164 736 L243 736 Q244 697 261 676 Q278 655 310 655 Q341 655 358 676 Q375 697 376 736 L455 736 Q455 663 415.5 619.5 Q376 576 310 576 Z " />
<glyph glyph-name="uhungarumlaut" unicode="&#x171;" horiz-adv-x="616" d="M538 508 L538 0 L412 0 L412 85 Q393 40 351 14 Q309 -12 254 -12 Q168 -12 120.5 38.5 Q73 89 73 181 L73 508 L202 508 L202 209 Q202 148 226.5 117.5 Q251 87 300 87 Q352 87 380.5 124.5 Q409 162 409 232 L409 508 L538 508 Z M417 577 L343 577 L397 736 L528 736 L417 577 Z M239 577 L165 577 L219 736 L349 736 L239 577 Z " />
<glyph glyph-name="umacron" unicode="&#x16b;" horiz-adv-x="616" d="M538 508 L538 0 L412 0 L412 85 Q393 40 351 14 Q309 -12 254 -12 Q168 -12 120.5 38.5 Q73 89 73 181 L73 508 L202 508 L202 209 Q202 148 226.5 117.5 Q251 87 300 87 Q352 87 380.5 124.5 Q409 162 409 232 L409 508 L538 508 Z M462 594 L156 594 L156 680 L462 680 L462 594 Z " />
<glyph glyph-name="uogonek" unicode="&#x173;" horiz-adv-x="616" d="M508 -114 L508 -181 Q493 -186 479.5 -188 Q466 -190 447 -190 Q405 -190 378.5 -168 Q352 -146 352 -108 Q352 -83 365 -57 Q378 -31 412 9 L412 85 Q393 40 351 14 Q309 -12 254 -12 Q168 -12 120.5 38.5 Q73 89 73 181 L73 508 L202 508 L202 209 Q202 148 226.5 117.5 Q251 87 300 87 Q352 87 380.5 124.5 Q409 162 409 232 L409 508 L538 508 L538 0 L479 0 Q448 -40 439.5 -56.5 Q431 -73 431 -87 Q431 -103 441 -111.5 Q451 -120 468 -120 Q479 -120 488 -118.5 Q497 -117 508 -114 Z " />
<glyph glyph-name="uring" unicode="&#x16f;" horiz-adv-x="616" d="M538 508 L538 0 L412 0 L412 85 Q393 40 351 14 Q309 -12 254 -12 Q168 -12 120.5 38.5 Q73 89 73 181 L73 508 L202 508 L202 209 Q202 148 226.5 117.5 Q251 87 300 87 Q352 87 380.5 124.5 Q409 162 409 232 L409 508 L538 508 Z M308 566 Q262 566 229.5 598.5 Q197 631 197 676 Q197 722 229.5 754.5 Q262 787 308 787 Q354 787 386 754.5 Q418 722 418 676 Q418 631 385.5 598.5 Q353 566 308 566 Z M308 624 Q329 624 344.5 639.5 Q360 655 360 676 Q360 698 345 713.5 Q330 729 308 729 Q286 729 270.5 713.5 Q255 698 255 676 Q255 655 270.5 639.5 Q286 624 308 624 Z " />
<glyph glyph-name="utilde" unicode="&#x169;" horiz-adv-x="616" d="M538 508 L538 0 L412 0 L412 85 Q393 40 351 14 Q309 -12 254 -12 Q168 -12 120.5 38.5 Q73 89 73 181 L73 508 L202 508 L202 209 Q202 148 226.5 117.5 Q251 87 300 87 Q352 87 380.5 124.5 Q409 162 409 232 L409 508 L538 508 Z M298 613 Q274 631 263 636 Q252 641 243 641 Q225 641 214.5 624 Q204 607 202 575 L131 575 Q131 646 157 688 Q183 730 228 730 Q246 730 264.5 722 Q283 714 316 691 Q340 673 351 668 Q362 663 371 663 Q389 663 399.5 680 Q410 697 412 729 L483 729 Q483 657 457 615.5 Q431 574 386 574 Q368 574 349.5 582 Q331 590 298 613 Z " />
<glyph glyph-name="wacute" unicode="&#x1e83;" horiz-adv-x="813" d="M349 508 L468 508 L565 131 L567 131 L670 508 L793 508 L638 0 L508 0 L408 367 L405 367 L306 0 L175 0 L20 508 L147 508 L250 131 L252 131 L349 508 Z M561 736 L445 577 L361 577 L414 736 L561 736 Z " />
<glyph glyph-name="wcircumflex" unicode="&#x175;" horiz-adv-x="813" d="M349 508 L468 508 L565 131 L567 131 L670 508 L793 508 L638 0 L508 0 L408 367 L405 367 L306 0 L175 0 L20 508 L147 508 L250 131 L252 131 L349 508 Z M251 576 L349 736 L465 736 L563 576 L489 576 L408 663 L325 576 L251 576 Z " />
<glyph glyph-name="wgrave" unicode="&#x1e81;" horiz-adv-x="813" d="M349 508 L468 508 L565 131 L567 131 L670 508 L793 508 L638 0 L508 0 L408 367 L405 367 L306 0 L175 0 L20 508 L147 508 L250 131 L252 131 L349 508 Z M404 736 L457 577 L373 577 L257 736 L404 736 Z " />
<glyph glyph-name="wdieresis" unicode="&#x1e85;" horiz-adv-x="813" d="M349 508 L468 508 L565 131 L567 131 L670 508 L793 508 L638 0 L508 0 L408 367 L405 367 L306 0 L175 0 L20 508 L147 508 L250 131 L252 131 L349 508 Z M566 594 L448 594 L448 719 L566 719 L566 594 Z M366 594 L248 594 L248 719 L366 719 L366 594 Z " />
<glyph glyph-name="ycircumflex" unicode="&#x177;" horiz-adv-x="574" d="M117 -87 Q157 -87 177.5 -69 Q198 -51 218 1 L20 508 L150 508 L291 125 L293 125 L427 508 L554 508 L356 -9 Q320 -104 271 -144.5 Q222 -185 142 -186 Q129 -186 112.5 -184.5 Q96 -183 83 -181 L83 -84 Q91 -86 98 -86.5 Q105 -87 117 -87 Z M141 576 L239 736 L355 736 L453 576 L379 576 L298 663 L215 576 L141 576 Z " />
<glyph glyph-name="ygrave" unicode="&#x1ef3;" horiz-adv-x="574" d="M117 -87 Q157 -87 177.5 -69 Q198 -51 218 1 L20 508 L150 508 L291 125 L293 125 L427 508 L554 508 L356 -9 Q320 -104 271 -144.5 Q222 -185 142 -186 Q129 -186 112.5 -184.5 Q96 -183 83 -181 L83 -84 Q91 -86 98 -86.5 Q105 -87 117 -87 Z M291 736 L344 577 L260 577 L144 736 L291 736 Z " />
<glyph glyph-name="zacute" unicode="&#x17a;" horiz-adv-x="534" d="M477 508 L477 419 L203 94 L487 94 L487 0 L47 0 L47 83 L321 414 L56 414 L56 508 L477 508 Z M417 736 L301 577 L217 577 L270 736 L417 736 Z " />
<glyph glyph-name="zdotaccent" unicode="&#x17c;" horiz-adv-x="534" d="M477 508 L477 419 L203 94 L487 94 L487 0 L47 0 L47 83 L321 414 L56 414 L56 508 L477 508 Z M338 594 L202 594 L202 719 L338 719 L338 594 Z " />
<glyph glyph-name="overscore" unicode="&#xaf;" horiz-adv-x="564" d="M435 594 L129 594 L129 680 L435 680 L435 594 Z " />
<glyph glyph-name="commaaccent" unicode="&#xf6c3;" horiz-adv-x="564" d="M273 -132 L222 -132 L222 -49 L351 -49 L351 -107 Q351 -170 318.5 -201 Q286 -232 219 -232 L219 -185 Q247 -185 260 -172.5 Q273 -160 273 -132 Z " />
<glyph glyph-name="uni2070" unicode="&#x2070;" horiz-adv-x="428" d="M388 519 Q388 429 340 372.5 Q292 316 214 316 Q136 316 88 372.5 Q40 429 40 519 Q40 610 88 666.5 Q136 723 214 723 Q292 723 340 666.5 Q388 610 388 519 Z M132 519 Q132 454 153 419.5 Q174 385 214 385 Q254 385 275.5 419.5 Q297 454 297 519 Q297 585 275.5 619.5 Q254 654 214 654 Q174 654 153 619 Q132 584 132 519 Z " />
<glyph glyph-name="uni2074" unicode="&#x2074;" horiz-adv-x="418" d="M216 714 L310 714 L310 471 L387 471 L387 409 L310 409 L310 323 L227 323 L227 409 L32 409 L32 472 L216 714 Z M227 471 L227 632 L108 471 L227 471 Z " />
<glyph glyph-name="uni2075" unicode="&#x2075;" horiz-adv-x="385" d="M259 452 Q259 484 241.5 503 Q224 522 194 522 Q174 522 158.5 514 Q143 506 134 491 L52 491 L74 714 L322 714 L322 644 L138 644 L129 555 Q142 569 164 577 Q186 585 212 585 Q272 585 309 548.5 Q346 512 346 452 Q346 392 304 353.5 Q262 315 195 315 Q126 315 83 349.5 Q40 384 35 443 L127 443 Q129 415 147.5 398 Q166 381 194 381 Q224 381 241.5 400.5 Q259 420 259 452 Z " />
<glyph glyph-name="uni2076" unicode="&#x2076;" horiz-adv-x="392" d="M206 655 Q169 655 146 621 Q123 587 123 534 Q138 558 161.5 571 Q185 584 216 584 Q276 584 314.5 547 Q353 510 353 453 Q353 393 311.5 354.5 Q270 316 203 316 Q129 316 84.5 369.5 Q40 423 40 512 Q40 606 86.5 664.5 Q133 723 208 723 Q264 723 302.5 691.5 Q341 660 349 609 L267 609 Q261 632 246 643.5 Q231 655 206 655 Z M133 451 Q133 420 152.5 400.5 Q172 381 203 381 Q233 381 252 401 Q271 421 271 451 Q271 482 252 502 Q233 522 203 522 Q172 522 152.5 502 Q133 482 133 451 Z " />
<glyph glyph-name="uni2077" unicode="&#x2077;" horiz-adv-x="361" d="M238 645 L33 645 L33 714 L326 714 L326 644 Q263 567 236.5 494.5 Q210 422 209 323 L116 323 Q117 408 146.5 487 Q176 566 238 645 Z " />
<glyph glyph-name="uni2078" unicode="&#x2078;" horiz-adv-x="397" d="M358 431 Q358 378 314.5 347 Q271 316 198 316 Q125 316 82 347 Q39 378 39 431 Q39 463 61.5 489.5 Q84 516 114 523 Q87 535 71 558.5 Q55 582 55 610 Q55 661 95 692 Q135 723 198 723 Q262 723 301.5 692 Q341 661 341 610 Q341 582 325.5 558.5 Q310 535 284 523 Q314 516 336 489.5 Q358 463 358 431 Z M262 607 Q262 632 245 646 Q228 660 198 660 Q169 660 152 646 Q135 632 135 607 Q135 582 152 568 Q169 554 198 554 Q228 554 245 568 Q262 582 262 607 Z M274 436 Q274 462 254 477 Q234 492 198 492 Q163 492 143.5 477 Q124 462 124 436 Q124 410 143.5 395 Q163 380 198 380 Q234 380 254 395 Q274 410 274 436 Z " />
<glyph glyph-name="uni2079" unicode="&#x2079;" horiz-adv-x="392" d="M187 384 Q224 384 247.5 418 Q271 452 271 505 Q255 480 230.5 467 Q206 454 176 454 Q117 454 78.5 492 Q40 530 40 587 Q40 646 82 684.5 Q124 723 190 723 Q263 723 308 669.5 Q353 616 353 527 Q353 433 306 374.5 Q259 316 184 316 Q128 316 90 347 Q52 378 44 429 L126 429 Q132 406 147 395 Q162 384 187 384 Z M260 588 Q260 618 240.5 637.5 Q221 657 190 657 Q160 657 141 638 Q122 619 122 588 Q122 556 141 536.5 Q160 517 190 517 Q221 517 240.5 536.5 Q260 556 260 588 Z " />
<glyph glyph-name="uni2080" unicode="&#x2080;" horiz-adv-x="428" d="M388 56 Q388 -34 340 -90.5 Q292 -147 214 -147 Q136 -147 88 -90.5 Q40 -34 40 56 Q40 147 88 203.5 Q136 260 214 260 Q292 260 340 203.5 Q388 147 388 56 Z M132 56 Q132 -9 153 -43.5 Q174 -78 214 -78 Q254 -78 275.5 -43.5 Q297 -9 297 56 Q297 122 275.5 156.5 Q254 191 214 191 Q174 191 153 156 Q132 121 132 56 Z " />
<glyph glyph-name="uni2081" unicode="&#x2081;" horiz-adv-x="346" d="M223 -78 L318 -78 L318 -140 L41 -140 L41 -78 L138 -78 L138 136 L42 136 L42 194 Q102 194 126.5 205 Q151 216 160 252 L223 252 L223 -78 Z " />
<glyph glyph-name="uni2082" unicode="&#x2082;" horiz-adv-x="371" d="M191 259 Q253 259 293 225 Q333 191 333 138 Q333 99 310 69.5 Q287 40 212 -1 Q172 -22 152.5 -39.5 Q133 -57 132 -72 L337 -72 L337 -140 L36 -140 L36 -108 Q36 -64 65 -26 Q94 12 161 51 Q218 85 233 101.5 Q248 118 248 139 Q248 163 232.5 177 Q217 191 190 191 Q162 191 144 172 Q126 153 125 124 L39 124 Q43 185 84 222 Q125 259 191 259 Z " />
<glyph glyph-name="uni2083" unicode="&#x2083;" horiz-adv-x="379" d="M263 56 Q299 50 320.5 25.5 Q342 1 342 -34 Q342 -84 300.5 -115.5 Q259 -147 191 -147 Q123 -147 80 -113 Q37 -79 32 -22 L117 -22 Q119 -48 139.5 -64 Q160 -80 191 -80 Q222 -80 240 -65.5 Q258 -51 258 -27 Q258 -3 241 10 Q224 23 191 23 L152 23 L152 88 L189 88 Q218 88 234 101 Q250 114 250 139 Q250 162 234 177 Q218 192 192 192 Q164 192 146 175.5 Q128 159 126 132 L44 132 Q47 189 87.5 224 Q128 259 193 259 Q256 259 294 226.5 Q332 194 332 143 Q332 110 313 86 Q294 62 263 56 Z " />
<glyph glyph-name="uni2084" unicode="&#x2084;" horiz-adv-x="418" d="M216 251 L310 251 L310 8 L387 8 L387 -54 L310 -54 L310 -140 L227 -140 L227 -54 L32 -54 L32 9 L216 251 Z M227 8 L227 169 L108 8 L227 8 Z " />
<glyph glyph-name="uni2085" unicode="&#x2085;" horiz-adv-x="385" d="M259 -10 Q259 22 241.5 41 Q224 60 194 60 Q174 60 158.5 52 Q143 44 134 29 L52 29 L74 252 L322 252 L322 182 L138 182 L129 93 Q142 107 164 115 Q186 123 212 123 Q272 123 309 86.5 Q346 50 346 -10 Q346 -70 304 -108.5 Q262 -147 195 -147 Q126 -147 83 -112.5 Q40 -78 35 -19 L127 -19 Q129 -47 147.5 -64 Q166 -81 194 -81 Q224 -81 241.5 -61.5 Q259 -42 259 -10 Z " />
<glyph glyph-name="uni2086" unicode="&#x2086;" horiz-adv-x="392" d="M206 192 Q169 192 146 158 Q123 124 123 71 Q138 95 161.5 108 Q185 121 216 121 Q276 121 314.5 84 Q353 47 353 -10 Q353 -70 311.5 -108.5 Q270 -147 203 -147 Q129 -147 84.5 -93.5 Q40 -40 40 49 Q40 143 86.5 201.5 Q133 260 208 260 Q264 260 302.5 228.5 Q341 197 349 146 L267 146 Q261 169 246 180.5 Q231 192 206 192 Z M133 -12 Q133 -43 152.5 -62.5 Q172 -82 203 -82 Q233 -82 252 -62 Q271 -42 271 -12 Q271 19 252 39 Q233 59 203 59 Q172 59 152.5 39 Q133 19 133 -12 Z " />
<glyph glyph-name="uni2087" unicode="&#x2087;" horiz-adv-x="361" d="M238 182 L33 182 L33 251 L326 251 L326 181 Q263 104 236.5 31.5 Q210 -41 209 -140 L116 -140 Q117 -55 146.5 24 Q176 103 238 182 Z " />
<glyph glyph-name="uni2088" unicode="&#x2088;" horiz-adv-x="397" d="M358 -32 Q358 -85 314.5 -116 Q271 -147 198 -147 Q125 -147 82 -116 Q39 -85 39 -32 Q39 0 61.5 26.5 Q84 53 114 60 Q87 72 71 95.5 Q55 119 55 147 Q55 198 95 229 Q135 260 198 260 Q262 260 301.5 229 Q341 198 341 147 Q341 119 325.5 95.5 Q310 72 284 60 Q314 53 336 26.5 Q358 0 358 -32 Z M262 144 Q262 169 245 183 Q228 197 198 197 Q169 197 152 183 Q135 169 135 144 Q135 119 152 105 Q169 91 198 91 Q228 91 245 105 Q262 119 262 144 Z M274 -27 Q274 -1 254 14 Q234 29 198 29 Q163 29 143.5 14 Q124 -1 124 -27 Q124 -53 143.5 -68 Q163 -83 198 -83 Q234 -83 254 -68 Q274 -53 274 -27 Z " />
<glyph glyph-name="uni2089" unicode="&#x2089;" horiz-adv-x="392" d="M187 -79 Q224 -79 247.5 -45 Q271 -11 271 42 Q255 17 230.5 4 Q206 -9 176 -9 Q117 -9 78.5 29 Q40 67 40 124 Q40 183 82 221.5 Q124 260 190 260 Q263 260 308 206.5 Q353 153 353 64 Q353 -30 306 -88.5 Q259 -147 184 -147 Q128 -147 90 -116 Q52 -85 44 -34 L126 -34 Q132 -57 147 -68 Q162 -79 187 -79 Z M260 125 Q260 155 240.5 174.5 Q221 194 190 194 Q160 194 141 175 Q122 156 122 125 Q122 93 141 73.5 Q160 54 190 54 Q221 54 240.5 73.5 Q260 93 260 125 Z " />
<glyph glyph-name="uni2153" unicode="&#x2153;" horiz-adv-x="919" d="M759 727 L244 -12 L158 -12 L674 727 L759 727 Z M239 385 L334 385 L334 323 L57 323 L57 385 L154 385 L154 599 L58 599 L58 657 Q118 657 142.5 668 Q167 679 176 715 L239 715 L239 385 Z M791 196 Q827 190 848.5 165.5 Q870 141 870 106 Q870 56 828.5 24.5 Q787 -7 719 -7 Q651 -7 608 27 Q565 61 560 118 L645 118 Q647 92 667.5 76 Q688 60 719 60 Q750 60 768 74.5 Q786 89 786 113 Q786 137 769 150 Q752 163 719 163 L680 163 L680 228 L717 228 Q746 228 762 241 Q778 254 778 279 Q778 302 762 317 Q746 332 720 332 Q692 332 674 315.5 Q656 299 654 272 L572 272 Q575 329 615.5 364 Q656 399 721 399 Q784 399 822 366.5 Q860 334 860 283 Q860 250 841 226 Q822 202 791 196 Z " />
<glyph glyph-name="uni2154" unicode="&#x2154;" horiz-adv-x="943" d="M783 727 L268 -12 L182 -12 L698 727 L783 727 Z M815 196 Q851 190 872.5 165.5 Q894 141 894 106 Q894 56 852.5 24.5 Q811 -7 743 -7 Q675 -7 632 27 Q589 61 584 118 L669 118 Q671 92 691.5 76 Q712 60 743 60 Q774 60 792 74.5 Q810 89 810 113 Q810 137 793 150 Q776 163 743 163 L704 163 L704 228 L741 228 Q770 228 786 241 Q802 254 802 279 Q802 302 786 317 Q770 332 744 332 Q716 332 698 315.5 Q680 299 678 272 L596 272 Q599 329 639.5 364 Q680 399 745 399 Q808 399 846 366.5 Q884 334 884 283 Q884 250 865 226 Q846 202 815 196 Z M207 722 Q269 722 309 688 Q349 654 349 601 Q349 562 326 532.5 Q303 503 228 462 Q188 441 168.5 423.5 Q149 406 148 391 L353 391 L353 323 L52 323 L52 355 Q52 399 81 437 Q110 475 177 514 Q234 548 249 564.5 Q264 581 264 602 Q264 626 248.5 640 Q233 654 206 654 Q178 654 160 635 Q142 616 141 587 L55 587 Q59 648 100 685 Q141 722 207 722 Z " />
<glyph glyph-name="uni215B" unicode="&#x215b;" horiz-adv-x="935" d="M886 108 Q886 55 842.5 24 Q799 -7 726 -7 Q653 -7 610 24 Q567 55 567 108 Q567 140 589.5 166.5 Q612 193 642 200 Q615 212 599 235.5 Q583 259 583 287 Q583 338 623 369 Q663 400 726 400 Q790 400 829.5 369 Q869 338 869 287 Q869 259 853.5 235.5 Q838 212 812 200 Q842 193 864 166.5 Q886 140 886 108 Z M790 284 Q790 309 773 323 Q756 337 726 337 Q697 337 680 323 Q663 309 663 284 Q663 259 680 245 Q697 231 726 231 Q756 231 773 245 Q790 259 790 284 Z M802 113 Q802 139 782 154 Q762 169 726 169 Q691 169 671.5 154 Q652 139 652 113 Q652 87 671.5 72 Q691 57 726 57 Q762 57 782 72 Q802 87 802 113 Z M759 727 L244 -12 L158 -12 L674 727 L759 727 Z M239 385 L334 385 L334 323 L57 323 L57 385 L154 385 L154 599 L58 599 L58 657 Q118 657 142.5 668 Q167 679 176 715 L239 715 L239 385 Z " />
<glyph glyph-name="uni215C" unicode="&#x215c;" horiz-adv-x="950" d="M900 108 Q900 55 856.5 24 Q813 -7 740 -7 Q667 -7 624 24 Q581 55 581 108 Q581 140 603.5 166.5 Q626 193 656 200 Q629 212 613 235.5 Q597 259 597 287 Q597 338 637 369 Q677 400 740 400 Q804 400 843.5 369 Q883 338 883 287 Q883 259 867.5 235.5 Q852 212 826 200 Q856 193 878 166.5 Q900 140 900 108 Z M804 284 Q804 309 787 323 Q770 337 740 337 Q711 337 694 323 Q677 309 677 284 Q677 259 694 245 Q711 231 740 231 Q770 231 787 245 Q804 259 804 284 Z M816 113 Q816 139 796 154 Q776 169 740 169 Q705 169 685.5 154 Q666 139 666 113 Q666 87 685.5 72 Q705 57 740 57 Q776 57 796 72 Q816 87 816 113 Z M773 727 L258 -12 L172 -12 L688 727 L773 727 Z M279 519 Q315 513 336.5 488.5 Q358 464 358 429 Q358 379 316.5 347.5 Q275 316 207 316 Q139 316 96 350 Q53 384 48 441 L133 441 Q135 415 155.5 399 Q176 383 207 383 Q238 383 256 397.5 Q274 412 274 436 Q274 460 257 473 Q240 486 207 486 L168 486 L168 551 L205 551 Q234 551 250 564 Q266 577 266 602 Q266 625 250 640 Q234 655 208 655 Q180 655 162 638.5 Q144 622 142 595 L60 595 Q63 652 103.5 687 Q144 722 209 722 Q272 722 310 689.5 Q348 657 348 606 Q348 573 329 549 Q310 525 279 519 Z " />
<glyph glyph-name="uni215D" unicode="&#x215d;" horiz-adv-x="940" d="M764 727 L249 -12 L163 -12 L679 727 L764 727 Z M891 108 Q891 55 847.5 24 Q804 -7 731 -7 Q658 -7 615 24 Q572 55 572 108 Q572 140 594.5 166.5 Q617 193 647 200 Q620 212 604 235.5 Q588 259 588 287 Q588 338 628 369 Q668 400 731 400 Q795 400 834.5 369 Q874 338 874 287 Q874 259 858.5 235.5 Q843 212 817 200 Q847 193 869 166.5 Q891 140 891 108 Z M795 284 Q795 309 778 323 Q761 337 731 337 Q702 337 685 323 Q668 309 668 284 Q668 259 685 245 Q702 231 731 231 Q761 231 778 245 Q795 259 795 284 Z M807 113 Q807 139 787 154 Q767 169 731 169 Q696 169 676.5 154 Q657 139 657 113 Q657 87 676.5 72 Q696 57 731 57 Q767 57 787 72 Q807 87 807 113 Z M275 452 Q275 484 257.5 503 Q240 522 210 522 Q190 522 174.5 514 Q159 506 150 491 L68 491 L90 714 L338 714 L338 644 L154 644 L145 555 Q158 569 180 577 Q202 585 228 585 Q288 585 325 548.5 Q362 512 362 452 Q362 392 320 353.5 Q278 315 211 315 Q142 315 99 349.5 Q56 384 51 443 L143 443 Q145 415 163.5 398 Q182 381 210 381 Q240 381 257.5 400.5 Q275 420 275 452 Z " />
<glyph glyph-name="uni215E" unicode="&#x215e;" horiz-adv-x="875" d="M826 108 Q826 55 782.5 24 Q739 -7 666 -7 Q593 -7 550 24 Q507 55 507 108 Q507 140 529.5 166.5 Q552 193 582 200 Q555 212 539 235.5 Q523 259 523 287 Q523 338 563 369 Q603 400 666 400 Q730 400 769.5 369 Q809 338 809 287 Q809 259 793.5 235.5 Q778 212 752 200 Q782 193 804 166.5 Q826 140 826 108 Z M730 284 Q730 309 713 323 Q696 337 666 337 Q637 337 620 323 Q603 309 603 284 Q603 259 620 245 Q637 231 666 231 Q696 231 713 245 Q730 259 730 284 Z M742 113 Q742 139 722 154 Q702 169 666 169 Q631 169 611.5 154 Q592 139 592 113 Q592 87 611.5 72 Q631 57 666 57 Q702 57 722 72 Q742 87 742 113 Z M699 727 L184 -12 L98 -12 L614 727 L699 727 Z M254 645 L49 645 L49 714 L342 714 L342 644 Q279 567 252.5 494.5 Q226 422 225 323 L132 323 Q133 408 162.5 487 Q192 566 254 645 Z " />
</font>
</defs>
</svg>
