<svg id="Layer_1" data-name="Layer 1" xmlns="http://www.w3.org/2000/svg" viewBox="0 0 278.81 275.81"><title>vanda-ext-icons-1</title><path d="M95.3,240.28c94.34,0,145.94-78.16,145.94-145.94,0-2.22,0-4.43-.15-6.63a104.36,104.36,0,0,0,25.59-26.56,102.38,102.38,0,0,1-29.46,8.07,51.47,51.47,0,0,0,22.55-28.37,102.79,102.79,0,0,1-32.57,12.45,51.34,51.34,0,0,0-87.41,46.78A145.62,145.62,0,0,1,34.08,46.5,51.33,51.33,0,0,0,50,115a50.91,50.91,0,0,1-23.23-6.42c0,0.21,0,.43,0,0.65a51.31,51.31,0,0,0,41.15,50.28,51.21,51.21,0,0,1-23.16.88A51.35,51.35,0,0,0,92.61,196a102.92,102.92,0,0,1-63.7,22,104.41,104.41,0,0,1-12.24-.71,145.21,145.21,0,0,0,78.62,23"/></svg>